<svg id="Ebene_1" data-name="Ebene 1" xmlns="http://www.w3.org/2000/svg" viewBox="0 0 246.38 213.69"><defs><style>.cls-1{fill:#ee8f7c;}.cls-2{font-size:70px;font-family:ZoojaLightPro, Zooja Light Pro;}.cls-2,.cls-3{fill:#fff;}</style></defs><path class="cls-1" d="M82,5.51s85.28-17.6,127.89,20.58C239.3,52.46,260,78.87,229.82,165c-18.48,52.78-158,66.17-199.4,15.75C-.22,143.38-32.91,47.85,82,5.51Z"/><text class="cls-2" transform="translate(90.97 90.28)">Ein <tspan x="-29.29" y="68">Jahr +</tspan></text><path class="cls-3" d="M26.57,73.19c.91,0,1.19.84,1.19,1.75a3.24,3.24,0,0,1-.91,2.24,3.39,3.39,0,0,1-1.26.21,2.38,2.38,0,0,1-2-.84,1.11,1.11,0,0,1-.7-1,2.94,2.94,0,0,1,.84-1.82,4.54,4.54,0,0,1,2.59-.49Z"/><path class="cls-3" d="M55.19,36.52c.91,0,1.19.84,1.19,1.75a3.24,3.24,0,0,1-.91,2.24,3.39,3.39,0,0,1-1.26.21,2.38,2.38,0,0,1-2-.84,1.11,1.11,0,0,1-.7-1.05A2.94,2.94,0,0,1,52.32,37a4.54,4.54,0,0,1,2.59-.49Z"/><path class="cls-3" d="M55.19,62.94c.91,0,1.19.84,1.19,1.75a3.24,3.24,0,0,1-.91,2.24,3.39,3.39,0,0,1-1.26.21,2.38,2.38,0,0,1-2-.84,1.11,1.11,0,0,1-.7-1,2.94,2.94,0,0,1,.84-1.82,4.54,4.54,0,0,1,2.59-.49Z"/><path class="cls-3" d="M165.45,40.72c.91,0,1.19.84,1.19,1.75a3.24,3.24,0,0,1-.91,2.24,3.39,3.39,0,0,1-1.26.21,2.38,2.38,0,0,1-2-.84,1.11,1.11,0,0,1-.7-1,2.94,2.94,0,0,1,.84-1.82,4.54,4.54,0,0,1,2.59-.49Z"/><path class="cls-3" d="M170.35,98.53c.91,0,1.19.84,1.19,1.75a3.24,3.24,0,0,1-.91,2.24,3.39,3.39,0,0,1-1.26.21,2.38,2.38,0,0,1-2-.84,1.11,1.11,0,0,1-.7-1,2.94,2.94,0,0,1,.84-1.82,4.54,4.54,0,0,1,2.59-.49Z"/><path class="cls-3" d="M206.9,142c.91,0,1.19.84,1.19,1.75a3.24,3.24,0,0,1-.91,2.24,3.39,3.39,0,0,1-1.26.21,2.38,2.38,0,0,1-2-.84,1.11,1.11,0,0,1-.7-1.05,2.94,2.94,0,0,1,.84-1.82,4.54,4.54,0,0,1,2.59-.49Z"/><path class="cls-3" d="M200.07,68c.91,0,1.19.84,1.19,1.75a3.24,3.24,0,0,1-.91,2.24,3.39,3.39,0,0,1-1.26.21,2.38,2.38,0,0,1-2-.84,1.11,1.11,0,0,1-.7-1,2.94,2.94,0,0,1,.84-1.82,4.54,4.54,0,0,1,2.59-.49Z"/><path class="cls-3" d="M82.52,88.51c.91,0,1.19.84,1.19,1.75a3.24,3.24,0,0,1-.91,2.24,3.39,3.39,0,0,1-1.26.21,2.38,2.38,0,0,1-2-.84,1.11,1.11,0,0,1-.7-1.05A2.94,2.94,0,0,1,79.65,89a4.54,4.54,0,0,1,2.59-.49Z"/><path class="cls-3" d="M142.83,14.72c.91,0,1.19.84,1.19,1.75a3.24,3.24,0,0,1-.91,2.24,3.39,3.39,0,0,1-1.26.21,2.38,2.38,0,0,1-2-.84,1.11,1.11,0,0,1-.7-1,2.94,2.94,0,0,1,.84-1.82,4.54,4.54,0,0,1,2.59-.49Z"/><path class="cls-3" d="M89.78,21.74c.91,0,1.19.84,1.19,1.75a3.24,3.24,0,0,1-.91,2.24,3.39,3.39,0,0,1-1.26.21,2.38,2.38,0,0,1-2-.84,1.11,1.11,0,0,1-.7-1.05,2.94,2.94,0,0,1,.84-1.82,4.54,4.54,0,0,1,2.59-.49Z"/><path class="cls-3" d="M206.9,40.72c.91,0,1.19.84,1.19,1.75a3.24,3.24,0,0,1-.91,2.24,3.39,3.39,0,0,1-1.26.21,2.38,2.38,0,0,1-2-.84,1.11,1.11,0,0,1-.7-1,2.94,2.94,0,0,1,.84-1.82,4.54,4.54,0,0,1,2.59-.49Z"/><path class="cls-3" d="M220.77,118.66c.91,0,1.19.84,1.19,1.75a3.24,3.24,0,0,1-.91,2.24,3.39,3.39,0,0,1-1.26.21,2.38,2.38,0,0,1-2-.84,1.1,1.1,0,0,1-.7-1,2.94,2.94,0,0,1,.84-1.83,4.54,4.54,0,0,1,2.59-.49Z"/><path class="cls-3" d="M200.07,96.43c.91,0,1.19.84,1.19,1.75a3.24,3.24,0,0,1-.91,2.24,3.39,3.39,0,0,1-1.26.21,2.38,2.38,0,0,1-2-.84,1.11,1.11,0,0,1-.7-1.05,2.94,2.94,0,0,1,.84-1.82,4.54,4.54,0,0,1,2.59-.49Z"/><path class="cls-3" d="M106.94,178.11c.91,0,1.19.84,1.19,1.75a3.24,3.24,0,0,1-.91,2.24,3.39,3.39,0,0,1-1.26.21,2.38,2.38,0,0,1-2-.84,1.11,1.11,0,0,1-.7-1.05,2.94,2.94,0,0,1,.84-1.82,4.54,4.54,0,0,1,2.59-.49Z"/><path class="cls-3" d="M170.35,190.44c.91,0,1.19.84,1.19,1.75a3.24,3.24,0,0,1-.91,2.24,3.39,3.39,0,0,1-1.26.21,2.38,2.38,0,0,1-2-.84,1.11,1.11,0,0,1-.7-1.05,2.94,2.94,0,0,1,.84-1.82,4.54,4.54,0,0,1,2.59-.49Z"/><path class="cls-3" d="M153.62,172.83c.91,0,1.19.84,1.19,1.75a3.24,3.24,0,0,1-.91,2.24,3.39,3.39,0,0,1-1.26.21,2.38,2.38,0,0,1-2-.84,1.11,1.11,0,0,1-.7-1.05,2.89,2.89,0,0,1,.84-1.82,4.54,4.54,0,0,1,2.59-.49Z"/><path class="cls-3" d="M31.47,142c.91,0,1.19.84,1.19,1.75a3.24,3.24,0,0,1-.91,2.24,3.39,3.39,0,0,1-1.26.21,2.38,2.38,0,0,1-2-.84,1.11,1.11,0,0,1-.7-1.05,2.94,2.94,0,0,1,.84-1.82,4.54,4.54,0,0,1,2.59-.49Z"/><path class="cls-3" d="M50.29,120.76c.91,0,1.19.84,1.19,1.75a3.24,3.24,0,0,1-.91,2.24,3.39,3.39,0,0,1-1.26.21,2.38,2.38,0,0,1-2-.84,1.09,1.09,0,0,1-.7-1,2.94,2.94,0,0,1,.84-1.83,4.54,4.54,0,0,1,2.59-.49Z"/><path class="cls-3" d="M70.11,180.21c.91,0,1.19.84,1.19,1.75a3.24,3.24,0,0,1-.91,2.24,3.39,3.39,0,0,1-1.26.21,2.38,2.38,0,0,1-2-.84,1.11,1.11,0,0,1-.7-1,2.94,2.94,0,0,1,.84-1.82,4.54,4.54,0,0,1,2.59-.49Z"/></svg>