<?xml version="1.0" encoding="UTF-8"?><svg id="a" xmlns="http://www.w3.org/2000/svg" viewBox="0 0 243.04 210.85"><defs><style>.b{fill:#fff;}.c{fill:#ed8f7c;}</style></defs><path class="c" d="M80.42,4.05s85.27-17.6,127.88,20.57c29.43,26.37,50.11,52.78,19.96,138.9-18.48,52.78-158.03,66.16-199.4,15.74C-1.78,141.92-34.48,46.39,80.42,4.05Z"/><g><path class="b" d="M116.07,45.27c-.35,0-.77-.07-.77-.07,0,.07-.14,.07-.77,.14-.07,0-.21-.07-.35-.07-.07,0-.14,0-.14,.07,.35,.14,.7,.35,1.05,.35,0,.07-.21,.14-.21,.14h-.77c.14,.07,.21,.14,.21,.14-.07,.07-.14,.07-.42,.07-.21-.07-.49-.14-.84-.14,.21,.21,.7,.28,.7,.35-.63,0-1.75-.07-1.82-.07,.07,.07,.21,.14,.35,.14-.49,0-4.97-.07-7.91-.07h-1.89l-2.52,19.32c1.26-.07,2.87-.21,4.69-.21,2.66,0,5.74,.35,8.61,2.1h-.28c-.21,0-.42,0-.63-.14,0,.21,.42,.42,.35,.42s-.14-.07-.28-.07c-.07,0-.35,.07-.77,.14-.21,0-.42,0-.63-.07,.07,.21,.42,.14,.42,.21,0,.35-.77,.42-1.19,.42l.07,.07-.42,.14c-.42,0-1.26-.14-1.33-.14,0,.14,.14,.21,.21,.21-.07,0-.42,0-1.47,.07-2.59,.14-3.78,.49-7.91,.63-.42,3.85-1.4,7.84-1.4,11.76,0,.77,.07,1.61,.14,2.38,.91,.14,1.89,.21,2.87,.21s1.96-.07,2.94-.14h1.19c.42,0,.77,0,1.26,.07,.56-.07,1.12-.07,1.61-.07h.91c1.05,0,1.82,.14,2.45,.77-.07,.07-.21,.07-.35,.07-.21,0-.42-.07-.63-.07-.21,.14-.49,.07-.63,.21h.63c-.07,.14-.14,.21-.28,.21,.49,.07,.77,.14,.77,.14,0,.14-.35,.14-.7,.14s-.77,0-.7,.07h-.28c.07,.07,.14,.07,.21,.07s.14,0,.28,.07h-.35c0,.28-1.68,0-1.68,.63-3.85,.14-1.26,.63-3.36,1.05-.35,.42-3.57,.84-5.74,.84-1.19,0-2.03-.07-2.03-.35,0,.21,.28,.28,.28,.56-2.52-.14-3.22-2.66-3.29-5.81v-.42c0-3.29,.7-7,.77-8.89,1.33-8.89,2.59-17.43,3.85-27.02-.63-.28-1.19-.91-1.19-1.61,0-1.61,1.89-1.82,3.78-1.82h2.31l3.5,.21c4.34,.28,8.26,.91,10.01,2.59-.14,.07-.28,.07-.49,.07Zm-.77,.14c.07,0,.14,0,.35,.21-.14,0-.28,0-.35-.21Z"/><path class="b" d="M121.04,76.99v.63c0,1.12,.21,1.75,.7,1.89,.14,.07,.35,.07,.49,.07,3.85,0,12.6-12.88,13.37-13.72,.21-.28,.42-.42,.63-.42,.63,0,1.4,.91,1.4,1.82,0,.28-.07,.56-.28,.84-2.94,4.48-7.56,11.27-12.04,13.09-1.33,.56-2.38,.84-3.36,.84-3.43,0-4.69-3.29-4.69-7.14v-.98c.21-3.99,2.38-8.96,4.06-11.13,.28-.42,.91-.63,1.47-.63,.63,0,1.12,.28,1.12,.7,0,.07,0,.21-.07,.35-.28,1.89-2.8,8.33-2.8,13.79Zm5.18-19.6c-1.05,0-2.17-1.89-2.17-1.89,0-.98,2.24-1.61,2.8-1.61,.63,0,1.05,.42,1.05,1.61,0,1.12-.84,1.89-1.68,1.89Z"/><path class="b" d="M143.86,77.97c0-3.43,.77-8.12,.77-10.43,0-.84-.07-1.33-.35-1.4-3.5,3.99-5.53,7.98-7.7,12.32l-.7,1.47c0,.21-.07,.28-.07,.28-.14,.63-.77,1.54-1.33,1.54-.14,0-.21-.07-.35-.14l-.7-.28c-.21-.07-.56-.49-.56-.56,0-.14-.07-.28-.14-.49,0-4.55,1.26-12.53,2.24-16.87,.28-1.05,.77-1.68,1.68-1.89,.21-.07,.42-.07,.7-.07,.56,0,1.19,.14,1.4,.42,.14,.21,.21,.56,.21,.84,0,.91-.49,1.61-.7,2.45l-.14,.28c-.35,1.82-.77,3.99-1.26,6.23,1.12-1.68,3.71-7,7.14-8.26,.21-.07,.42-.14,.7-.14,2.87,0,3.22,3.01,3.22,5.18,0,3.43-.63,8.19-.63,9.94,0,.42,.07,.63,.14,.63,1.05,0,6.09-5.46,10.29-11.76,.21-.35,.49-.49,.7-.49,.7,0,1.19,1.47,1.19,2.24,0,.21,0,.35-.07,.42-1.68,3.01-9.1,13.16-12.74,13.16-2.8,0-2.94-2.45-2.94-4.62Z"/><path class="b" d="M57.38,152.83c.21-.77,.91-1.05,1.75-1.05s1.89,.28,2.52,.49c.28,.07,.42,.28,.7,.28,5.39,0,5.53-18.13,5.74-20.93,.49-6.02,.7-12.25,1.12-18.06-.42,.14-.91,.14-1.33,.14-.49,0-.91,0-1.26-.14-.07,0-.56-.14-.7-.42-.21-.07-.63-.42-.77-.63-.28-.28-.49-.77-.49-1.33,0-.14,.07-.35,.07-.49,.21-.14,.28-.28,.63-.28,.28,0,.42,.07,.63,.07,3.22,0,4.97-.49,7.07-.49,1.4,0,4.34,.49,5.67,1.05-.07,.21-.07,.49-.35,.49-.21,.42-.56,.35-.91,.49h-.28c-.14,.07-.14,.21-.14,.28,0,.14,0,.28-.35,.28h-.28c-.14,.35-.42,.35-.77,.35-.14,0-.35,0-.49,.07-.07,.14-.28,.21-.49,.28-.42,.14-1.12,.14-1.4,.42-1.19,11.9-.21,24.22-3.15,35.28-1.33,4.83-5.46,6.58-8.33,6.58-.49,0-.98,0-1.4-.14-.84-.21-3.01-1.4-3.01-2.59Z"/><path class="b" d="M97.91,145.76c-.91,1.33-.35,.35-1.54,1.61-.21,.21-.56,.35-.84,.77-.7,.84-1.12,.77-2.17,1.26-.56,.14-.91,.14-1.47,.14-.42,.14-.77,.21-1.05,.21-1.05,0-1.61-.77-2.24-2.1-1.12-2.31-.84-10.99-.98-13.51-.56,2.8-4.27,8.96-5.18,8.89-.49,.28-.84,.35-1.33,.63-.21,.07-.49,.14-.7,.14-1.19,0-2.1-1.19-2.24-2.31-.07-.35-.07-.63-.07-.98,0-2.45,1.05-5.53,2.45-7.63,1.19-1.54,2.59-3.36,5.18-4.41,.56-.28,1.33-.42,2.17-.42,.49,0,2.94,.21,2.94,.91,0,.07-.07,.21-.07,.21-.14,.21-.42,.28-.7,.28,.14,.21,.42,.21,.42,.42-.07,.42-.07,.49-.07,.77,0,.21,.21,.28,.21,.98,.28,1.12,.28,3.43,.28,5.95v5.04c0,2.66,.07,4.69,.42,4.69,2.38,0,10.01-11.48,11.41-13.3,.49-.63,.77-1.19,1.12-1.19,.28,0,.77,1.12,.84,1.33,.07,.28,.07,.56,.07,.77,0,.49-.14,.98-.35,1.54l-.28,.63c-1.54,2.45-3.5,5.04-5.04,7.14-.28,.28-.21,.49-.56,.56,.07,0-.28,.35-.28,.28,0-.49,.49-.63,.7-.98,.07-.21,.28-.35,.35-.56-.07,0-.07-.21-.07-.21l-.28,.35c0,.07,0,.14-.14,.14l-.63,.91c-.35,.35-.63,.84-.91,1.33,.07-.07,.28-.35,.42-.35l.42-.28-.21,.35Zm-10.92-14.35c.35-.56,.7-1.26,.91-1.54-3.29,1.54-5.95,8.4-6.93,12.18,2.31-3.78,3.78-6.86,6.02-10.64Zm-1.68,4.76c0-.07-.07-.14-.14-.14-.07,.07-.49,.49-.49,.7,0,.07,.07,.14,.14,.14,.07-.07,.49-.49,.49-.7Zm-.21,.91c0-.07,0-.14-.14-.14,0,.14-.21,.28-.21,.42,.14-.14,.35-.28,.35-.28Zm-.28-.84c.07,0,.28-.28,.35-.49-.07,.07-.21,.07-.28,.07,0-.07-.07,.07-.07,.42Zm.77,.35c0-.21-.07-.28-.07-.28-.07,0-.14,.21-.21,.42,0,0,.14-.14,.28-.14Zm.21-.07c-.14,.07-.35,.28-.42,.35,0,.07,.35-.21,.42-.35Zm.07-2.45c-.07,.07-.14,.14-.21,.14-.14,.14,0,.14-.21,.35,0,0,0,.14,.07,.21l.35-.7Zm.07,1.05s0-.21,.07-.28c-.14,.07-.49,.56-.35,.42,.07,0,.14-.07,.28-.14Zm-.28,1.82c.21,0,.35-.14,.42-.35-.21,0-.49,.35-.42,.35Zm.91-3.85c.07,0,.14,.07,.21,.07s.14,0,.14-.14c0,.07-.07-.14-.07-.21-.07,.07-.14,.21-.28,.28Zm11.76,9.03c0-.07-.07-.14-.07-.21-.77,.35-1.33,2.1-1.33,2.1,.21,0,.49-.56,.7-.77,.14-.35,.28-.28,.28-.49,0-.28,.42-.35,.42-.63Zm-.98,2.03c-.14,.14-.28,.63-.21,.49,.14-.14,.21-.07,.21-.49Zm.07,1.12c.14-.14,.35-.49,.35-.49,0-.21,.21-.42,.21-.84-.14,.42-.49,.56-.7,1.12,0,.28-.07,.21-.07,.56l.21-.35Zm.42-1.47c.28-.14,.35-.35,.49-.56,.07-.07,.14-.14,.14-.21s-.07-.14-.14-.21c-.28,.28-.7,.7-.91,1.05,.14,.14,.14,.21,.14,.21,.07,0,.28-.49,.35-.49l-.07,.21Zm.56-2.59c-.35,.07-.56,.77-.49,.77,.21,0,.42-.7,.49-.77Zm.21-.42c0,.07,.07,.21,.07,.28s.84-.7,.77-.63h-.35c-.14,.14-.21,.14-.21,.35h-.28Z"/><path class="b" d="M134.24,133.99c.07,0,.14,0,.28-.14,0,.14-.21,.49-.35,.63-.14,.49-.14,.21-.56,.77,.14,0,.35-.28,.42-.28,0,.21-.21,.49-.42,.63,.28-.07,.35-.21,.49-.35-.56,.98-2.45,2.45-2.45,3.29,0,.07-.21,.28-.56,.7,.28,0,1.12-.91,1.26-1.19,0-.14-.14-.14-.14-.14l1.33-1.61v.49c0,.07-.21,.21-.28,.35-.35,.56-.21,.42-.63,.91-.21,.07-.42,.35-.42,.49,0,1.12-4.69,6.02-4.69,5.95,0-.28,.35-.21,.35-.63-.21,.21-.77,.63-.77,1.05,.07,.91-6.3,5.81-8.47,5.81-1.61,0-2.8-1.4-2.8-5.6,0-3.01,.63-7.42,.63-10.57,0-.77,0-1.47-.14-2.17-3.29,2.17-11.62,13.3-12.39,18.97-.28,0-.28-.14-.28-.56-.07,.21-.14,.56-.28,.56v-.35c-.07,.14-.49,.35-.77,.35s-.49-.21-.49-.56c-.21,0-.07,1.26-.28,1.26l-.42-1.05c-.14,.28-.35,.28-.35,1.26-.28-.98-.42-2.1-.42-3.43,0-4.41,1.26-10.08,1.68-12.88,2.1-9.73,3.15-19.53,4.83-29.68,0-.14,.07-.28,.07-.49,.42-2.66,.91-6.09,4.06-6.09,.7,0,.91,.42,.91,.98,0,.21,0,.49-.07,.77-1.54,5.39-4.41,29.19-6.51,38.64,2.59-3.85,7.49-10.64,11.27-10.64,2.52,0,3.29,2.45,3.29,5.74,0,4.27-.77,8.89-.77,11.06,0,.91,.07,1.4,.35,1.4,2.8,0,13.72-15.26,13.58-15.26,.21-.21,.49-.56,.49-.56,0,.14,.21,.07,.21,.21,.14,0,.21-.07,.35-.07,.21,0,.42,.14,.42,.35,0,.28,.14,.42,.21,.42-.14,.49-.56,.56-.77,1.26Zm-17.64,13.72c0-.14-.14-.49-.28-.49,.14,.14,.21,.56,.21,.7,0-.07,.07-.14,.07-.21Zm.42-3.15c0-.14-.14-.35-.14-.49,0,0,.07-.14,.07-.56v-.42c-.21,.56-.21,1.26-.21,1.82,0,.21,.07,.35,.14,.35,0-.14,.14-.35,.14-.7Zm.28-2.45c0-.49-.07-.77-.07-.77-.07,0-.07,.07-.07,.35s.07,.28,.14,.42Zm.14,.7c0,.21-.14,.49-.14,.77,0,0-.07,.14-.07,.28,.14-.14,.28-.28,.28-.7,0-.21,0-.35-.07-.35Zm0-.49c0,.14,.07,.28,.07,.28,.14-.07,.14-.28,.14-.42-.14,0-.21,.07-.21,.14Zm13.23-3.57c-.14,0-.84,.98-1.33,1.75,.56-.49,.42,.07,.98-.91,.07-.14,.42-.84,.35-.84Zm1.12,.35c-.49,.56-.98,1.05-1.33,1.05,0,.14,.07,.14,.14,.14,.28,0,.84-.63,.91-.77l.28-.42Zm1.4-3.29c-.35,.14-.7,.49-.7,.77,0,.07,.07,.14,.14,.21,.14-.14,.49-.77,.56-.98Z"/><path class="b" d="M152.3,134.06l.14,.35,.35,.42c-.07-.07-.07,.35-.07,.35-.07,.14-.07,.21-.07,.35v.35c0,.14,0,.35-.14,.63l-.56,.98c0-.07-.49,1.19-.91,1.33v.21c-.07,.07-.14,.14-.28,.14,0,.07,.14,0,.14,.21h-.21c-.21,.98-1.82,2.38-1.75,2.38,.49,0,1.26-1.12,1.26-1.12,0,.35-.35,.56-.35,.91-.28,0-.42,.35-.49,.63-.07,.14-.07,.21-.07,.28,.07-.14,.35-.21,.35-.49,.28-.21,.84-.98,.91-.91,0,.14,.14-.35,.14-.42s.7-.49,.7-.63l-.07-.07h.07c.07-.21,.56-.91,.84-.91l-.21,.35c-.21,.35-.21,.56-.63,.56v.07s0,.07,.07,.14c-.28,.56-.63,.49-.63,1.05,0,.35-.63,.77-.63,.7,0-.14,.28-.14,.35-.28-.28,0-.42,.14-.42,.14,0,.35-.49,.77-.56,.98-.21,.49-.14,0-.35,.7-.21-.14-.35-.21-.35-.21-.14,0-.07,.28-.21,.42,0,.07-.07,.14-.07,.21s-.35,.42-.35,.49,.21,0,.28-.07c-.98,1.19-2.45,1.82-3.71,2.8,0,0,1.54-.77,1.68-.84l-.35,.56-.21,.07c0,.14-3.57,3.36-6.65,3.36-1.26,0-4.69-1.82-4.69-4.48,0-.35,.07-.77,.21-1.12,1.47-4.34,5.46-10.36,5.46-12.25,0-.21-.07-.35-.14-.42-1.12-.42-2.03-1.05-2.66-1.4-3.01,5.25-4.97,7.91-7.07,10.78-.28,.42-.7,.56-1.05,.56-.7,0-1.4-.63-1.4-1.54,0-.21,.14-.28,.14-.49,1.82-2.52,4.76-7.14,6.86-10.64-1.26-.91-1.82-2.45-1.82-4.06,0-3.43,2.38-7.28,5.39-7.28,1.82,0,3.08,1.12,3.08,3.01,0,2.45-1.75,5.74-2.38,6.93-.21,.42,3.5,.7,3.85,3.71v.56c0,3.29-3.15,8.75-4.9,12.32-.49,.98-.84,1.82-.98,2.45-.07,.14-.07,.35-.07,.49,0,.63,.35,1.12,1.05,1.12s1.75-.42,3.22-1.47c3.85-2.73,9.73-11.41,10.92-12.95Zm-15.68-7.49c1.12-1.82,2.17-3.99,2.38-6.3-1.47,.77-2.52,3.22-2.52,5.18,0,.42,.07,.77,.14,1.12Zm12.81,15.19l-.21,.14c0,.07-.14,.35-.56,.56,.35-.14,.56-.35,.77-.7Zm2.66-3.71c0,.07,0,.14-.07,.21-.07,.21-.21,.42-.28,.42s-.49,.35-.49,.28,.42-.63,.7-.84c.07-.07,.14-.07,.14-.07Z"/><path class="b" d="M179.18,139.1c-.49,.07-.91,.42-1.19,.7h.21s-1.4,.91-2.1,.91c.14,.07,.28,.07,.42,.07h.7c0,.07-.14,.14-.14,.14-1.89,.63-3.71,.49-5.11,.63-.63,3.22-.56,4.62-1.96,6.93-.28,.21-.84,1.54-1.12,1.47-.14,0-.21,.35-.21,.28,0,.35-.77,.07-2.03,.56-.07-.28-.14-.7-.14-1.12,0-.56,.07-1.19,.07-1.61,.07-.07,.07-.14,.07-.21,0-.14-.14-.21-.14-.28,0-2.8,.28-3.08,.63-5.6-.07,.07-.21,.14-.42,.14-.49,0-.98-.14-1.54-.28,.14-.07,.21-.07,.21-.14,0-.21-1.68-.28-2.17-.28-.77,0-3.15-.14-3.15-1.26,0-.84,.84-1.54,1.89-1.68,1.89-.98,4.13-.56,6.23-.84,.91-3.29,.56-9.31,3.99-9.31,1.19,0,1.47,.7,1.47,2.17,0,.42-.07,.98-.07,1.54-.07,1.05-.42,3.57-.77,5.39,0,.07,1.82,.07,3.78,.07s4.06,0,4.69,.07c-.28,0-1.19,.14-1.33,.49,.28,.14,1.33,.28,1.47,.35-.63,.14-1.82,.21-2.31,.42,0,.14,0,.28,.07,.28Zm-11.9,2.38c-.21,0-.49,0-.84,.14,.35,0,.7,0,.84-.14Z"/></g><path class="b" d="M53.63,35.06c.91,0,1.19,.84,1.19,1.75,0,.7-.35,1.82-.91,2.24-.35,.14-.77,.21-1.26,.21-.77,0-1.61-.21-2.03-.84-.49-.21-.7-.63-.7-1.05,0-.63,.42-1.4,.84-1.82,.77-.49,1.61-.49,2.59-.49h.28Z"/><path class="b" d="M53.63,61.48c.91,0,1.19,.84,1.19,1.75,0,.7-.35,1.82-.91,2.24-.35,.14-.77,.21-1.26,.21-.77,0-1.61-.21-2.03-.84-.49-.21-.7-.63-.7-1.05,0-.63,.42-1.4,.84-1.82,.77-.49,1.61-.49,2.59-.49h.28Z"/><path class="b" d="M163.88,39.26c.91,0,1.19,.84,1.19,1.75,0,.7-.35,1.82-.91,2.24-.35,.14-.77,.21-1.26,.21-.77,0-1.61-.21-2.03-.84-.49-.21-.7-.63-.7-1.05,0-.63,.42-1.4,.84-1.82,.77-.49,1.61-.49,2.59-.49h.28Z"/><path class="b" d="M168.78,97.06c.91,0,1.19,.84,1.19,1.75,0,.7-.35,1.82-.91,2.24-.35,.14-.77,.21-1.26,.21-.77,0-1.61-.21-2.03-.84-.49-.21-.7-.63-.7-1.05,0-.63,.42-1.4,.84-1.82,.77-.49,1.61-.49,2.59-.49h.28Z"/><path class="b" d="M205.33,140.54c.91,0,1.19,.84,1.19,1.75,0,.7-.35,1.82-.91,2.24-.35,.14-.77,.21-1.26,.21-.77,0-1.61-.21-2.03-.84-.49-.21-.7-.63-.7-1.05,0-.63,.42-1.4,.84-1.82,.77-.49,1.61-.49,2.59-.49h.28Z"/><path class="b" d="M198.51,66.56c.91,0,1.19,.84,1.19,1.75,0,.7-.35,1.82-.91,2.24-.35,.14-.77,.21-1.26,.21-.77,0-1.61-.21-2.03-.84-.49-.21-.7-.63-.7-1.05,0-.63,.42-1.4,.84-1.82,.77-.49,1.61-.49,2.59-.49h.28Z"/><path class="b" d="M80.95,87.05c.91,0,1.19,.84,1.19,1.75,0,.7-.35,1.82-.91,2.24-.35,.14-.77,.21-1.26,.21-.77,0-1.61-.21-2.03-.84-.49-.21-.7-.63-.7-1.05,0-.63,.42-1.4,.84-1.82,.77-.49,1.61-.49,2.59-.49h.28Z"/><path class="b" d="M141.26,13.26c.91,0,1.19,.84,1.19,1.75,0,.7-.35,1.82-.91,2.24-.35,.14-.77,.21-1.26,.21-.77,0-1.61-.21-2.03-.84-.49-.21-.7-.63-.7-1.05,0-.63,.42-1.4,.84-1.82,.77-.49,1.61-.49,2.59-.49h.28Z"/><path class="b" d="M88.22,20.27c.91,0,1.19,.84,1.19,1.75,0,.7-.35,1.82-.91,2.24-.35,.14-.77,.21-1.26,.21-.77,0-1.61-.21-2.03-.84-.49-.21-.7-.63-.7-1.05,0-.63,.42-1.4,.84-1.82,.77-.49,1.61-.49,2.59-.49h.28Z"/><path class="b" d="M205.33,39.26c.91,0,1.19,.84,1.19,1.75,0,.7-.35,1.82-.91,2.24-.35,.14-.77,.21-1.26,.21-.77,0-1.61-.21-2.03-.84-.49-.21-.7-.63-.7-1.05,0-.63,.42-1.4,.84-1.82,.77-.49,1.61-.49,2.59-.49h.28Z"/><path class="b" d="M219.21,117.2c.91,0,1.19,.84,1.19,1.75,0,.7-.35,1.82-.91,2.24-.35,.14-.77,.21-1.26,.21-.77,0-1.61-.21-2.03-.84-.49-.21-.7-.63-.7-1.05,0-.63,.42-1.4,.84-1.82,.77-.49,1.61-.49,2.59-.49h.28Z"/><path class="b" d="M198.51,94.96c.91,0,1.19,.84,1.19,1.75,0,.7-.35,1.82-.91,2.24-.35,.14-.77,.21-1.26,.21-.77,0-1.61-.21-2.03-.84-.49-.21-.7-.63-.7-1.05,0-.63,.42-1.4,.84-1.82,.77-.49,1.61-.49,2.59-.49h.28Z"/><path class="b" d="M105.37,176.65c.91,0,1.19,.84,1.19,1.75,0,.7-.35,1.82-.91,2.24-.35,.14-.77,.21-1.26,.21-.77,0-1.61-.21-2.03-.84-.49-.21-.7-.63-.7-1.05,0-.63,.42-1.4,.84-1.82,.77-.49,1.61-.49,2.59-.49h.28Z"/><path class="b" d="M168.78,188.98c.91,0,1.19,.84,1.19,1.75,0,.7-.35,1.82-.91,2.24-.35,.14-.77,.21-1.26,.21-.77,0-1.61-.21-2.03-.84-.49-.21-.7-.63-.7-1.05,0-.63,.42-1.4,.84-1.82,.77-.49,1.61-.49,2.59-.49h.28Z"/><path class="b" d="M152.05,171.37c.91,0,1.19,.84,1.19,1.75,0,.7-.35,1.82-.91,2.24-.35,.14-.77,.21-1.26,.21-.77,0-1.61-.21-2.03-.84-.49-.21-.7-.63-.7-1.05,0-.63,.42-1.4,.84-1.82,.77-.49,1.61-.49,2.59-.49h.28Z"/><path class="b" d="M48.73,119.3c.91,0,1.19,.84,1.19,1.75,0,.7-.35,1.82-.91,2.24-.35,.14-.77,.21-1.26,.21-.77,0-1.61-.21-2.03-.84-.49-.21-.7-.63-.7-1.05,0-.63,.42-1.4,.84-1.82,.77-.49,1.61-.49,2.59-.49h.28Z"/><path class="b" d="M68.54,178.75c.91,0,1.19,.84,1.19,1.75,0,.7-.35,1.82-.91,2.24-.35,.14-.77,.21-1.26,.21-.77,0-1.61-.21-2.03-.84-.49-.21-.7-.63-.7-1.05,0-.63,.42-1.4,.84-1.82,.77-.49,1.61-.49,2.59-.49h.28Z"/></svg>