<svg id="Ebene_1" data-name="Ebene 1" xmlns="http://www.w3.org/2000/svg" viewBox="0 0 320 320"><defs><style>.cls-1{fill:#1d3753;}</style></defs><path class="cls-1" d="M192.21,243.17c-4.6,9.53-9,18.6-13.36,27.63-1.61,3.3-3.37,6.53-5.07,9.78a6,6,0,0,1-.82,1.17,2.84,2.84,0,0,1-4.57-.13,16.36,16.36,0,0,1-1.72-3.39c-1.65-4-3.21-8-4.88-12a67.63,67.63,0,0,0-7.09-12.05c-1.51,1.86-1.44,4-2,5.85s-1,4-1.48,6.05c-.33,1.56-.47,3.17-.85,4.72a2.89,2.89,0,0,1-4.48,1.87,13.24,13.24,0,0,1-1.93-1.41l-15.65-13.42a37.44,37.44,0,0,1-7.23-7.64,16.05,16.05,0,0,0-1.81-1.92c-1.15.45-2.33.83-3.45,1.35a86,86,0,0,1-27.08,7.53c-3.49.39-7,.81-10.44,1.43-2.21.39-4.57-2-3.21-4.25.66-1.1,1.16-2.28,1.81-3.38C84.22,238.56,90,225.39,95.29,212c3.55-8.89,7.2-17.77,9.42-27.13.29-1.24.57-2.49.93-4-2.65-2.36-5.32-4.85-8.11-7.19a47.67,47.67,0,0,1-16-26.07,81.39,81.39,0,0,1-2.72-18.94c0-7,.12-14.1,1.94-21,1.55-5.86,3.15-11.72,5-17.48,2.7-8.17,7.53-15.08,13.31-21.39s12.82-10.41,20.35-14.1a74.6,74.6,0,0,1,21-6.9c.34-1.27.6-2.49,1-3.66a18.81,18.81,0,0,1,1.47-3.52c3.09-5.21,8.52-6.83,14.05-4.34a7.9,7.9,0,0,1,3.41,3.26,14.8,14.8,0,0,1,2.37,8.24,12.66,12.66,0,0,0,2.41.79c17.62,2,36.36,15.36,44.42,27.54,2.73,4.12,5.83,8,8.14,12.41a50.69,50.69,0,0,1,5.21,16.36,131.22,131.22,0,0,1,1.31,25.83,38.44,38.44,0,0,1-4.22,16.1c-3,5.8-5.85,11.76-10.35,16.64-2.17,2.35-4.45,4.59-6.68,6.89-.77.79-1.52,1.61-2.51,2.66,2.57,6.14,5,12.33,7.74,18.43,4,9.1,9.44,17.39,15.17,25.48,1.29,1.83,2.6,3.65,3.78,5.55a92.31,92.31,0,0,0,13.31,16.93,40.89,40.89,0,0,1,3.49,4c2.37,3,1.74,5.13-2,6.55a13.5,13.5,0,0,1-3.69,1c-4.45.39-8.89.72-13.36-.19-4.06-.82-8.24-1.07-12.26-2-6-1.45-12-3.3-18-5C193.92,243.53,193.14,243.38,192.21,243.17ZM218.4,123.55h.31c-.48-5.58-.76-11.18-1.49-16.72a47.82,47.82,0,0,0-4.74-15.49,82.5,82.5,0,0,0-10-14.63,62.46,62.46,0,0,0-27.34-19.52A95.74,95.74,0,0,0,162.67,54a59.19,59.19,0,0,0-24.26.05c-6.17,1.17-11.84,3.62-17.53,6.21-15.07,6.88-25.34,18.09-30.7,33.7-4.71,13.73-7.55,27.76-5.26,42.37a129.77,129.77,0,0,0,2.73,13.11A38.16,38.16,0,0,0,94.52,163c3.46,4.51,8,7.86,12.11,11.57a34,34,0,0,0,14.2,7.68,32,32,0,0,1,5,1.76c6.06,2.69,12.49,3.88,19,4.78a62.46,62.46,0,0,0,10,.67c6.59-.17,12.9-1.85,19.12-4A35.89,35.89,0,0,0,189.66,175a38.59,38.59,0,0,1,4.74-4.74A71.64,71.64,0,0,0,214.48,145a36.67,36.67,0,0,0,3.91-15.19C218.43,127.71,218.4,125.63,218.4,123.55Zm-28.5,59.33c1,2.36,1.81,4.46,2.86,6.41,5.38,10,10.74,20,16.28,29.86a149.87,149.87,0,0,0,15.83,22.22,31.13,31.13,0,0,0,3.83,3.6,3.8,3.8,0,0,0,1.68.77c1.5.31,4.43-.11,7-.92a14.06,14.06,0,0,0-1.15-1.48,101.89,101.89,0,0,1-14.42-18.47c-1.35-2.17-3-4.17-4.37-6.31-4.56-6.94-9.38-13.73-12.73-21.38-2.49-5.69-4.78-11.48-7.2-17.21a15.92,15.92,0,0,0-1.42-2.23ZM145.41,264c2.39-7.91,4.1-15.5,6-23,2-7.71,3.83-15.46,5.59-23.22,2.35-10.32,3.49-19.11,3.15-23.22a59.22,59.22,0,0,0-8.33.32c-1.43,11-2.61,21.73-4.27,32.4s-5.72,20.83-8.74,31.39Zm-34.8-80.19c-6.13,23.91-16,45.79-27.1,67.65l5.72-.28a3.4,3.4,0,0,0,3-2c2.67-5.25,5.71-10.36,7.87-15.82,4.76-12,7.8-24.6,11.53-37a34.51,34.51,0,0,0,1.93-10.93Zm45.75,61.71c2.91,4.8,5.74,9.06,8.15,13.54s4.25,9,6.6,14l3.07-6c-5-10-9.77-19.51-14.55-29a.66.66,0,0,0-.35-.31c-.12,0-.27.1-.82.32C157.81,240.28,157.09,242.85,156.36,245.49Zm-1.9-203c-2.19-1-3.71,0-5.15.94-1,.66-2.08,1.53-1.66,3.34,1.15.06,2.36.19,3.57.18s2.44-.15,3.89-.25C154.85,45,154.64,43.69,154.46,42.5Z"/><path class="cls-1" d="M93.53,127.28c.32-9.22,1.62-18.17,5.72-26.53.7-1.43,1.42-2.86,2.25-4.22,2.16-3.54,4.34-7.07,6.61-10.55,5.62-8.64,13-15.47,22.49-19.45,14.18-5.92,28.43-6.15,42.74.1,8.47,3.7,15.76,9,22.64,15a31.84,31.84,0,0,1,5.18,6.24,94,94,0,0,1,5.74,9.4,45.86,45.86,0,0,1,4.22,32.06c-2,8.83-5.79,16.88-10.19,24.69a27.62,27.62,0,0,1-3.71,5c-8.73,9.64-19.67,15.69-32.09,19-6.2,1.68-12.65,1.72-19,1.13a25,25,0,0,1-5.59-1.27c-7.25-2.45-14.52-4.84-21.35-8.35a24.94,24.94,0,0,1-5.26-3.3,150.39,150.39,0,0,1-12.12-11.55c-4.13-4.62-6.17-10.42-7.16-16.49C94,134.62,93.87,130.93,93.53,127.28Zm5.88.46a65.08,65.08,0,0,0,0,6.7c.79,7.67,3.22,14.63,9.19,19.95,1.43,1.27,2.76,2.65,4.08,4.05a33.14,33.14,0,0,0,9.22,6.74c6.55,3.37,13.53,5.62,20.46,8a27.93,27.93,0,0,0,9,1.31c11.4,0,21.66-3.6,31.09-9.69,8-5.13,14.2-11.84,17.74-20.8.41-1,1-2,1.44-3,2.68-6.36,4.82-12.87,5.2-19.82.75-13.86-5.74-24.87-14-35.13a2.22,2.22,0,0,0-.36-.32c-6.42-5.26-12.93-10.3-20.6-13.8C161,66.94,150,66.42,138.64,69.13a30.39,30.39,0,0,0-12.11,5.54,77.18,77.18,0,0,0-8,7.51A81.07,81.07,0,0,0,112,90.45c-1.93,2.74-3.65,5.63-5.4,8.48a48.17,48.17,0,0,0-7.2,28.81Z"/><path class="cls-1" d="M122,154.58c-1.54-.13-2.74,0-3.3-1.31-.45-1,.14-2.39,1.55-3.14a25.51,25.51,0,0,1,4-1.64c11.21-3.66,22.46-7.22,33.65-10.94,9.07-3,18.08-6.21,27.12-9.33a21.53,21.53,0,0,1,3.16-1,2.89,2.89,0,0,1,3,1.88,2.6,2.6,0,0,1-.69,3.06,12,12,0,0,1-2.78,1.8,41.5,41.5,0,0,1-4.45,1.75c-9.36,3.18-18.6,6.65-28.18,9.2-9.85,2.63-19.56,5.82-29.33,8.74C124.41,154,123,154.34,122,154.58Z"/><path class="cls-1" d="M123.05,109.77c.22,2.59.4,4.78.6,7.22a24.88,24.88,0,0,0,3-.44c1.23-.34,2.39-.92,3.62-1.25a3.44,3.44,0,0,1,4.39,1.86c.67,1.63-.19,3.25-2.33,4-2.53.91-5.12,1.66-7.73,2.49-.6,2.25.48,4.19.66,6.21.12,1.43.48,2.85.57,4.28a3.26,3.26,0,0,1-2.6,3.51,3.19,3.19,0,0,1-3.46-2.64c-.53-3-.93-6-1.23-9-.36-3.65-.56-7.32-.85-11a20.14,20.14,0,0,0-.4-2c-1.54.5-2.87,1-4.23,1.35a13.39,13.39,0,0,1-2.78.54,2.63,2.63,0,0,1-2.6-1.76,2.67,2.67,0,0,1,.71-3,8.35,8.35,0,0,1,1.6-1q9.41-4.72,18.82-9.42a30.61,30.61,0,0,1,4-1.67,2.87,2.87,0,0,1,2.85,4.92,19.84,19.84,0,0,1-3.6,2.3C129.22,106.72,126.36,108.11,123.05,109.77Z"/><path class="cls-1" d="M168.52,103c0-2.8-.07-5.34,0-7.88a14.28,14.28,0,0,1,.68-3.72,2.49,2.49,0,0,1,2.7-1.54A2.6,2.6,0,0,1,174.25,92c.14.77.13,1.58.21,2.37.18,1.72.37,3.44.57,5.34,1.3-.1,2.38-.26,3.45-.25a2.4,2.4,0,0,1,2.58,1.7,2.77,2.77,0,0,1-1.1,3.34c-1.33.84-2.75,1.54-4.06,2.25-.42,1.84.28,3.3.65,4.82a26.18,26.18,0,0,1,.67,3.26,4.85,4.85,0,0,1-.24,1.88,3.31,3.31,0,0,1-2.92,2.1,2.79,2.79,0,0,1-2.77-2.18c-.7-2.28-1.31-4.59-2-7.15-1.16.44-2.14.84-3.14,1.18a17.69,17.69,0,0,1-2.74.76,2.47,2.47,0,0,1-1.8-4.46C163.73,105.57,166,104.4,168.52,103Z"/><path class="cls-1" d="M147.46,117.51c.2-1.18.4-2.91.82-4.6a2.7,2.7,0,0,1,5.21,0,6.13,6.13,0,0,1,.32,1.38c.24,3,.48,6,.65,9a7.37,7.37,0,0,1-.24,2.34,2.93,2.93,0,0,1-5.77,0c-.33-1.71-.55-3.44-.78-5.16C147.57,119.65,147.56,118.86,147.46,117.51Z"/><path class="cls-1" d="M150.33,97.75a2.75,2.75,0,0,1,2.75,2.66,4,4,0,0,1-3.4,3.92,3.11,3.11,0,0,1-3.07-3A4.15,4.15,0,0,1,150.33,97.75Z"/></svg>