<svg id="Ebene_1" data-name="Ebene 1" xmlns="http://www.w3.org/2000/svg" viewBox="0 0 320 320"><defs><style>.cls-1{fill:#1d3753;}.cls-2{fill:#ee907d;}</style></defs><path class="cls-1" d="M177.59,181.38q-8.59-8.56-17.21-17.11c-1-1-2-2-3.22-3.27,4.15-6.39,11.81-7.29,17.19-12.09a27,27,0,0,0-1.85-4.2c-2.84-4.41-5.46-9-8.84-13-10.53-12.33-20.63-25.15-33.32-35.4-8.35-6.74-17-13.09-25.86-19.19S86.79,65,76.86,60.67a9.77,9.77,0,0,1-2.43-1.48,3.59,3.59,0,0,1-1.55-3.72,4.18,4.18,0,0,1,3.68-2.95,9.91,9.91,0,0,1,3.45.73c4.8,2.06,9.84,3.78,14.27,6.48,9.37,5.7,18.47,11.85,27.57,18a223.81,223.81,0,0,1,32.35,27.08c6.43,6.39,13,12.67,19.31,19.17,3,3.07,5.63,6.48,8.3,9.83,2.37,3,4.57,6.07,6.91,9.2,7.81-.48,14.11-5.94,22-6.14,1.81,2.34,1.94,5,2.15,7.53.52,6.18.81,12.38,1.2,18.57.09,1.42.22,2.84.33,4.26-.43,7.13-1,14.25-1.25,21.38-.22,7.86-.06,15.74-.1,23.6,0,1.09.29,2.47-1.7,2.74-3.66-3.83-7.57-7.66-11.17-11.76C193.23,195.28,185.46,188.28,177.59,181.38Z"/><path class="cls-2" d="M177.59,181.38c7.87,6.9,15.64,13.9,22.57,21.79,3.6,4.1,7.51,7.93,11.17,11.76,2-.27,1.69-1.65,1.7-2.74,0-7.86-.12-15.74.1-23.6.2-7.13.82-14.25,1.25-21.38a44.66,44.66,0,0,1,22.22,10.58c8.22,7.23,11.52,16.06,10.41,26.74a75.77,75.77,0,0,1-1.47,9.87c-3.33,13.67-10.92,24.24-23.6,30.64-6.2,3.12-13,2.86-19.59,1.39a101.66,101.66,0,0,1-14.18-4.73,22.89,22.89,0,0,1-11.24-9.53c-5.67-9-7.81-19-7.76-29.29A32,32,0,0,1,177.59,181.38Z"/></svg>