<svg id="Ebene_1" data-name="Ebene 1" xmlns="http://www.w3.org/2000/svg" viewBox="0 0 320 320"><defs><style>.cls-1{fill:#1d3753;}.cls-2{fill:#ee907d;}</style></defs><path class="cls-1" d="M174.51,92.4c-2.67,3.65-5.38,7.27-8,10.95-1,1.47-1.89,3.07-2.81,4.63-2.77,4.69-2.51,9.64-1.17,14.65.92,3.43,2.77,6.09,6.33,7.27a9.14,9.14,0,0,1,1.35.7,9.1,9.1,0,0,1-1.08,4.12,151.25,151.25,0,0,0-9,32.76c-.12.77-.17,1.54-.27,2.31-1.18,9-1.5,18-2.26,27a83.51,83.51,0,0,1-1.61,9.53c-.68,3.27-1.48,6.53-2.36,9.76-.77,2.84-1.74,5.63-2.67,8.6-7-.21-13.45-1.9-20-3.08a170.83,170.83,0,0,1-19.2-5c-.31.6-.6,1.14-.86,1.69-2.37,5-4.59,10.13-7.15,15-2.2,4.24-4.83,8.25-7.19,12.41-2.61,4.6-5,9.33-7.73,13.88s-5.69,8.94-8.6,13.36a10.37,10.37,0,0,1-2.12,2.22,1.44,1.44,0,0,1-1.35-.06,1.55,1.55,0,0,1-.56-1.29,4.41,4.41,0,0,1,.9-1.69c5.75-7.68,10.22-16.15,15-24.45,2.56-4.49,5.21-8.93,7.75-13.43,1.33-2.36,2.5-4.81,3.72-7.23.24-.46.37-1,.62-1.42,2.94-5.21,4.53-11,6.61-16.51,1.47-3.88,2.11-8,3-12,2-9.49,4.12-18.93,6.17-28.4.55-2.52,1-5.06,1.52-7.66,1.6-1.27,3.26-2.49,4.83-3.83a39.79,39.79,0,0,0,12.66-18.66,108.63,108.63,0,0,0,4-17.72A217,217,0,0,1,149,89.7a68.56,68.56,0,0,1,8.27-18.25,129.84,129.84,0,0,1,14.27-17.83,34.15,34.15,0,0,1,3.68-3.44Q183.5,43.54,191.9,37c1.52-1.19,3.12-2.27,4.83-3.5,2.33,1.77,3.84,4.38,6.08,6.56a22,22,0,0,0,2.11-.8,65.42,65.42,0,0,0,12.46-7.8,31.71,31.71,0,0,0,9.4-12.12c.23-.55.37-1.15.65-2.07a10.39,10.39,0,0,0-2.13.33c-2.76,1.08-5.56,2.09-8.23,3.37-5.35,2.58-10.65,5.27-15.93,8a15.64,15.64,0,0,0-5.77,4.27c-1.2,1.58-3.26,2.49-4.89,3.77-5.48,4.31-11.11,8.45-16.36,13a103.08,103.08,0,0,0-15.8,18.06c-6.37,8.89-10,18.84-12.39,29.4-1.76,7.82-2.93,15.73-4.06,23.66A91.45,91.45,0,0,1,136.93,141c-2.76,7.24-7.61,12.82-13.7,17.42-.27.2-.73.14-1.36.24.6-2.9,1.08-5.66,1.75-8.39,4.47-18.05,8.72-36.16,13.67-54.09A97.08,97.08,0,0,1,154,62.78a26.8,26.8,0,0,1,3.09-3.47c5.44-5,10.8-10,16.45-14.76,5.36-4.47,11-8.64,16.62-12.74a65.39,65.39,0,0,1,8-4.57c6.4-3.36,12.8-6.72,19.26-10a42.3,42.3,0,0,1,10.24-3.5,5.42,5.42,0,0,1,5.8,2.14c1.84,2.26,2.71,5,3.74,7.62.8,2,1.25,4.21,2,6.28a23.9,23.9,0,0,1,1.3,7.21c.1,2.71.37,5.41.57,8.12a4,4,0,0,0,.09.77c2.85,9.44,2.92,19.13,2.31,28.82-.43,7-1.3,13.9-2.28,20.8a44.78,44.78,0,0,1-6,16.28c-2.93,5-6,10-9,14.93-1,1.66-2.11,3.26-3,4.95-4.86,8.82-9.83,17.58-13.78,26.88-2.08,4.9-3.61,9.95-5.24,15-.31,1-.68,1.92-1.12,3.17-2.15-3.48-3.77-6.81-4.22-10.61a18,18,0,0,1,1-8.38,141,141,0,0,1,13.43-28.22c1.86-2.94,3.37-6.1,5.54-8.84a8.57,8.57,0,0,0,.79-1.34c2.47-4.81,5-9.6,7.38-14.45a80.16,80.16,0,0,0,7.6-25.45,179.11,179.11,0,0,0,1.32-28.63c0-.91-.06-1.81,0-2.72,0-.48.11-1.25.4-1.4,1.9-.91,1.37-2.57,1.37-4,0-8-2.24-15.53-5.52-22.77a12,12,0,0,0-1-1.44A4,4,0,0,0,229.7,21c-1,5.34-1.95,10.66-1.52,16.15.18,2.44,0,4.9.07,7.35a16,16,0,0,0,.24,1.84c2,1,4,.09,5.68.39.93.68.67,1.51.7,2.24a161.22,161.22,0,0,1-.93,26.72,108.42,108.42,0,0,1-2.14,13.76A81.32,81.32,0,0,1,224,108.77c-1.38,2.47-2.73,5-3.91,7.54a69.43,69.43,0,0,1-4.37,7.28c-3.16,5.17-6.2,10.42-9.05,15.77a128.89,128.89,0,0,0-7.55,17.78,20.26,20.26,0,0,0,.72,15.8c1,2.1,2.35,4.2,2.58,6.41.21,2.06-.75,4.28-1.36,6.37-1.89,6.44-3.86,12.86-5.81,19.28-.3,1-.64,2-1,2.95-.59,1.71-1.05,3.47-1.79,5.11s-1.79,3.13-2.82,4.92c.78,1.22,1.7,2.59,2.55,4a42.12,42.12,0,0,1,2.52,4.36c2.28,5,5.38,9.42,8.3,14,.76,1.19,1.69,2.28,2.55,3.42.07.1.17.19.24.3,4.24,6.48,9.54,12.22,13.37,19a38.67,38.67,0,0,0,3.62,5.5c2,2.47,3.39,5.08,3.25,8.44-1.57-.44-2.91-1.05-3.42-2.78a3.68,3.68,0,0,0-.79-1.31c-2.93-3.32-5-7.2-7.36-10.92-1.37-2.19-3-4.21-4.51-6.3-.23-.32-.51-.59-.73-.91-4.8-7.2-10.31-13.91-14.63-21.43-1.81-3.13-3.45-6.36-5.23-9.5-.76-1.34-1.7-2.57-2.67-4-.94.24-1.8.38-2.61.67-1.08.4-2.13.93-3.19,1.39a36.06,36.06,0,0,1-9,2.21A91,91,0,0,1,153,225c-.23,0-.44-.22-.85-.43a7.61,7.61,0,0,1,.25-1.73,65.77,65.77,0,0,0,2.93-10.8c.59-3,1.6-6,2.25-9A82.48,82.48,0,0,0,159,189.21c.8-18.43,3.75-36.45,10.78-53.63.62-1.52.72-3.28,2.07-4.82,1.93,0,4,.11,6,0a15.16,15.16,0,0,0,10.59-5,77.83,77.83,0,0,0,6.13-8,14.23,14.23,0,0,0,1.77-4.27c.91-3.36,1.65-6.77,2.46-10.16l2.88-.36-1.36,7.32a6.22,6.22,0,0,0,1.14-.81,111,111,0,0,0,11.9-15.74,50,50,0,0,0,3.16-6.19c4.39-10,6.85-20.54,8.37-31.3.54-3.79,1.59-7.62.42-11.51a4.1,4.1,0,0,1,.06-1.15c0-1.41,0-2.82,0-4.23,0-3.22-.08-6.45-.14-9.67a5.24,5.24,0,0,0-.28-1.11,8.59,8.59,0,0,0-1,.79,56.23,56.23,0,0,1-15.18,11.24A26.37,26.37,0,0,0,200,46.83a21,21,0,0,1-3.25,2.74,49.44,49.44,0,0,0-9.94,9.71c-1.25,1.64-2.64,3.17-3.94,4.78-2.51,3.11-5.11,6.15-7.48,9.37a53.33,53.33,0,0,0-9.23,20.69c-.34,1.57-.53,3.17-.89,5.44,3.11-3,4.72-6.33,7-9.1Zm-36.4,94.65c-1.94.87-3.91,1.69-5.82,2.63s-4.51.77-6.32,2.51A19.89,19.89,0,0,0,138.11,187.05ZM183,201.74l-2.93-2.43c-.89-.73-1.8-1.44-2.66-2.2s-1.38-2-3.18-2.76C176.36,198.41,179.52,200.36,183,201.74Z"/><path class="cls-1" d="M107.85,293.48a40.21,40.21,0,0,1,7.07-6.94c4.8-3.92,9.63-7.82,14.33-11.86,3-2.61,5.88-5.45,8.79-8.2a20.9,20.9,0,0,1,6.23-3.84,11.13,11.13,0,0,1,8.3-.31,66.08,66.08,0,0,1,17,8.36c6.87,4.83,13.64,9.81,20.39,14.8,2.45,1.81,4.92,3.66,6.54,6.76a15.15,15.15,0,0,1-7.24-3c-4-3.06-8-6.13-12.11-9-4.42-3.14-8.91-6.19-13.47-9.11a59.72,59.72,0,0,0-12.68-5.7,6.81,6.81,0,0,0-4.89.14,18.13,18.13,0,0,0-6,3.49c-3.42,3.15-6.79,6.37-10.3,9.41s-7,5.76-10.49,8.6c-2.2,1.79-4.42,3.57-6.67,5.3a14.87,14.87,0,0,1-2.94,1.8C109.29,294.31,108.63,293.79,107.85,293.48Z"/><path class="cls-2" d="M174.51,92.4l-2.23-1.94c0-1.34-.1-2.7,1-3.77a4,4,0,0,1,3.74,0c1.82.94,3.59,2,5.35,3a54.45,54.45,0,0,0,5.26,3.14c2.23,1,4.38,2.13,6.56,3.22,2.6,1.3,5.38,2.25,8.12,3.38l.09,1.55c-.21.65-.43,1.3-.65,2l-2.88.36-7.16-1.66c-1.36-1.06-3.05-1.13-4.63-1.52a22.5,22.5,0,0,0-2.11-1.56c-2-1.15-4-2.24-6-3.33-.65-.35-1.32-.79-2.09-.26l0,0c-.1-.41-.05-1-.31-1.2A16.78,16.78,0,0,0,174.51,92.4Z"/><path class="cls-1" d="M167.84,114.29c6.23,4.72,6.23,4.72,14.25,4.63-2,2.44-5.32,3.23-8.85,2.08a9,9,0,0,1-4.53-2.82A4.05,4.05,0,0,1,167.84,114.29Z"/><path class="cls-1" d="M187.05,100.12c1.58.39,3.27.46,4.63,1.52-.19.84-.76.82-1.45.71-.28,0-.59.17-.89.27l.09.1c-.16-.26-.27-.68-.49-.76-1.29-.43-2.61-.78-3.93-1.16C185.51,99.61,186.34,100.09,187.05,100.12Z"/><path class="cls-1" d="M174,111.24c.77.33,1.41.64,2.09.88s1.47.41,2.47.69c-.22.45-.32,1.08-.62,1.19C175.85,114.75,174.55,113.86,174,111.24Z"/><path class="cls-1" d="M175.22,99.31c.25.27.82.63.95,1.11a1.48,1.48,0,0,1-1.37,1.86,1.23,1.23,0,0,1-1.35-1.07C173.27,100.35,174,99.44,175.22,99.31Z"/><path class="cls-1" d="M189.34,102.62a6.14,6.14,0,0,1-.33,2.15,2,2,0,0,1-1.58.56,1.38,1.38,0,0,1-.94-1,1.94,1.94,0,0,1,.76-1.48,6.24,6.24,0,0,1,2.18-.14Z"/><path class="cls-1" d="M176.89,95,179,97.82c-2.11-.52-2.11-.52-3.93-2.38.43-1,1.29-.24,1.91-.44Z"/><path class="cls-1" d="M173.25,86.69c-.81-.51-1.53-1.19-1.13-2.19.92-2.26,1.89-4.45,4.6-5.3a29.72,29.72,0,0,1,6-1.3,35.55,35.55,0,0,1,13.64,1.67,4.09,4.09,0,0,1,1.35.72c1.08.88,2.14,1.8,3.15,2.76a2.72,2.72,0,0,1,.82,1.28,5.29,5.29,0,0,0,1.76,2.9,2,2,0,0,1,.71,1.3c0,1.45,1,2.35,1.85,3.27a2.63,2.63,0,0,1,.55,3.48,10,10,0,0,0-1.15,3.22,2.91,2.91,0,0,1-3,2.49l-.09-1.55c-2.74-1.13-5.52-2.08-8.12-3.38-2.18-1.09-4.33-2.22-6.56-3.22a54.45,54.45,0,0,1-5.26-3.14c-1.76-1-3.53-2.09-5.35-3A4,4,0,0,0,173.25,86.69Z"/></svg>