<svg id="Ebene_1" data-name="Ebene 1" xmlns="http://www.w3.org/2000/svg" viewBox="0 0 520 320"><defs><style>.cls-1{fill:#1d3753;}.cls-2{fill:#f18975;}</style></defs><path class="cls-1" d="M323.6,95.57c6.15-1.46,12.32-2.88,18.46-4.4,5.93-1.48,11.84-3.07,18-2.66,6.68.44,13.35,1,20,1.28,4.63.18,9.27-.09,13.81-.15.74-3.77-.63-4.47-3.52-5.23-4.42-1.16-7.08-4.08-8.93-7.85-2.43-4.92-.8-9.48,2.07-13.63a16.71,16.71,0,0,0,2.82-11.7c-.8-7.53,2.49-15.2,10.32-17.57,3.31-1,6.09-2.33,7.87-5.47,1.52-2.68,4.15-3.82,7.07-4.48s5.79.12,8.59,1,5.59,2.05,8.59,1.06a46.92,46.92,0,0,1,6-1.48c7.51-1.46,13.77,5.36,14.26,11.23.25,3.08,1.06,5.67,3.79,7.65,4.17,3,5.4,7.42,4.45,12.36-.56,2.93-.95,5.57.54,8.54a7.51,7.51,0,0,1-.51,8,12,12,0,0,0-1.78,3.9c-1,3.72-.27,5.08,3,6,.06,0,.08.18.21.48-3.52,1.36-6.43.2-9.13-2a42.67,42.67,0,0,1-1.92,5.62q-3.5,7-7.34,13.78c-2.94,5.19-8.12,5.31-12.45,3.47-2.63-1.12-4.74-3.52-7-5.45-.83-.7-1.5-1.45-2.63-.77a38,38,0,0,0-5.45,3.44,39.71,39.71,0,0,0-5.58,5.94c-2.08,2.75-4.27,5.48-4.38,9.28a72.51,72.51,0,0,1-1.08,7.4c-.37,2.71-.75,5.42-1,8.14-.28,3.23-.24,6.5-.65,9.71-.68,5.22-1.62,10.4-2.46,15.6a29.72,29.72,0,0,1-4.91,13c-2.76,3.79-6.05,7.2-9.17,10.72-2.85,3.21-5.68,6.46-6.1,10.94-.36,3.85-1.22,7.93-.38,11.57a101.79,101.79,0,0,0,6.1,17.4c2.78,6.45,6.19,12.63,9.25,19,.87,1.78,1.49,3.69,2.23,5.54,1.88,4.78,3.67,9.58,5.67,14.31,1,2.29,2.31,4.43,3.47,6.64.17.33.45.92.36,1-1,.85-.06,1.48.17,2.17.18.52.37,1,.59,1.53,1.91,4.25,3.85,8.48,5.72,12.74,1.1,2.5,2.51,4.85,2.78,7.72.58,6.08-1.54,11.73-2.62,17.53-.89,4.75-2.17,9.42-3.06,14.16a5.31,5.31,0,0,1-2.13,3.77c.63-4.37,1.15-8.67,1.89-12.93,1.1-6.44,2.48-12.84,3.49-19.29a15.13,15.13,0,0,0-.39-6.21,44,44,0,0,0-3-6.92c-2-4.25-4.15-8.47-6.16-12.73-.91-1.93-1.36-2.3-3.4-1.42-3.9,1.7-7.75,3.55-11.6,5.39-1.89.91-3.73,2-5.62,2.88a17.84,17.84,0,0,1-2.24.77c1.79,2.29,3.48,4.41,5.13,6.57q3.12,4.09,6.17,8.24c1.15,1.56,2.31,3.12,3.38,4.73,2.08,3.14,1.76,6.85,2,10.3.33,4.44-.15,8.94-.25,13.41,0,1.94,0,3.89,0,5.84l-.56.08a8.7,8.7,0,0,1-.44-1.1c-1.23-4.85-1-9.79-.92-14.74a79.31,79.31,0,0,0-.22-9,8.25,8.25,0,0,0-1.55-4c-4.84-6.6-9.8-13.11-14.76-19.61a2.85,2.85,0,0,0-1.45-.83c-1-.27-2.09-.4-3.13-.6a7.14,7.14,0,0,0-5.37.71,24.53,24.53,0,0,1-2.72,1.74c-2.84,1.24-5.73,2.64-8.94,2.19a54.42,54.42,0,0,1-5.47-1.54c-1.64-.43-3.32-.74-5.41-1.19,0,3.32,0,6.13,0,8.94,0,.32-.28.64-.28,1,0,2.33-.05,4.67,0,7,.05,2.76.53,5.57.14,8.26A113.07,113.07,0,0,1,341.3,314c-1.77,6.93-3.61,13.84-5.45,20.75-.24.89-.62,1.75-.93,2.62l-.58-.16a65.39,65.39,0,0,1,.88-7.68c1.19-5.26,2.55-10.49,4-15.67A64,64,0,0,0,342.1,293c-.06-1.25.06-2.51.06-3.76,0-3.9,0-7.81,0-12-2,1-3.91,2-5.9,2.84-3.92,1.69-7.84,2.31-11.9.22a37.15,37.15,0,0,0-5.48-1.79c.28,1.36.49,2.2.61,3.06.54,3.57,1,7.15,1.58,10.72.43,2.76,1.28,5.49,1.37,8.26.14,4.63-.12,9.28-.32,13.91-.1,2.27-.42,4.54-.71,6.8-.42,3.26-.85,6.51-1.35,9.75-.31,2-.75,3.91-1.16,5.86,0,.1-.39.12-.76.24,0-.68,0-1.24,0-1.79.22-3.85.39-7.71.7-11.55.35-4.35,1-8.68,1.21-13a74.34,74.34,0,0,0-.18-10c-.22-2.57-1-5.08-1.37-7.64-.64-4.47-1.17-9-1.74-13.44-.12-1-.65-1.44-1.62-1.18a30,30,0,0,0-4.11,1.25,31,31,0,0,1-10.35,2.54c-1.65.13-2-.37-1.68-2a13.8,13.8,0,0,0,.65-2.42c0-3.5.07-7-.09-10.51-.11-2.42-.52-4.83-.81-7.24-.48-4-1.05-8.06-1.46-12.11-.34-3.32-.48-6.67-.76-10-.42-5-.92-10-1.29-15.06-.22-2.89-.06-5.81-.41-8.68a46.61,46.61,0,0,1,1.93-19.93,23,23,0,0,0,1-10.49,31.3,31.3,0,0,1,.27-12c.48-1.95,1.28-3.82,1.9-5.74,1.56-4.8,1.74-9.55-.86-14.06s-5.36-9-8.08-13.44c-3.07-5-6.29-10-9.21-15.12a71.4,71.4,0,0,1-3.28-7.73l-1.69-5.05c0-.33,0-.66.08-1,.12-1.23-.19-2.87.48-3.59a8.22,8.22,0,0,1,4.2-2.25c4.19-.79,8.46-1.15,12.68-1.83,2.75-.44,5.46-1.14,8.19-1.72l2.64-.37,7.15-1.64,10.2-2.39ZM295,114.64c1.47,3.45,2.9,7,4.43,10.41,2.89,6.52,5.64,13.12,8.86,19.48,1.72,3.41,4.29,6.39,6.68,9.85,7.81-12.76,18.23-23.52,23.7-37.5l-26.39-1.57-2.35-.17ZM407.21,93.79c-1.77-3.4-2.83-6.87-.25-10.61a10.21,10.21,0,0,0-8,4c-1.27,1.61-3.1,2.77-4.46,4.32a13.85,13.85,0,0,0-2.69,4.21c-1.61,4.44-3.06,9-2.55,13.81.34,3.2,1.1,6.26,3.77,8.47a3.31,3.31,0,0,0,4.44,0c2.52-2,3.71-4.81,5.15-7.53,2.95-5.58,6.62-10.62,12.13-14a19.91,19.91,0,0,1,3.76-1.38c-1.69-2.89-4.19-5.41-4-9.17l.69,1.15c2.93,4.8,5.73,9.71,10.38,13.15a14.43,14.43,0,0,0,3.26,1.81c3.79,1.51,6.63.84,9-2.46a48.37,48.37,0,0,0,5.59-9.14c.79-1.85.15-4.31.15-6.68a7.66,7.66,0,0,1-6.28-1.66c-.29-.23-.23-.9-.28-1.14a38,38,0,0,0,5.1,1.44c1.24.17,1.69-.88,1.67-2.08,0-1.56,0-3.12,0-4.68h.54c.22,1.74.45,3.49.65,5.23a1.06,1.06,0,0,1-.05.67c-1.92,2.36-.29,5.09-.81,7.61,2-2.68,2.9-5.84,3.65-9,1-4.2,1.6-8.49,2.5-12.71a2.05,2.05,0,0,0-1-2.42l-3.91-2.72c2.48-.52,3.69.8,5.09,2.16.24-2.32.51-4.45-1.63-6a7.88,7.88,0,0,1-3-5.53c-.63-4.39-3-7.05-7.36-8.09a11.33,11.33,0,0,1-4-2.12c-.91-.69-1.6-.68-2.19,0a7.49,7.49,0,0,0-1.8,3,45.31,45.31,0,0,0-.83,7.44,9.3,9.3,0,0,1-6.66,9c-6.07,1.64-8.16,6.35-8.68,12.11-.27,3.05-1.07,5.89-3.44,8.12-3.38,3.19-4,7.09-2.6,11.43.11.32.19.65.28,1l0,0C408.08,94.51,407.44,94.25,407.21,93.79Zm-9.58-6.92a9.74,9.74,0,0,1,6.82-4.62c2.8-.4,4.93-1.58,5.87-4.43a2.42,2.42,0,0,1,1.19-1.31c-.23,1.08-.45,2.17-.68,3.26l.5.15c.4-1.34.91-2.66,1.2-4,.36-1.72.47-3.5.83-5.22,1.07-5.22,4.52-8.31,9.38-9.86,3.42-1.1,4.84-3.49,5.24-6.79.29-2.43.6-4.85.9-7.28a6.45,6.45,0,0,1,4-5.63c-.88-2.19-1.49-4.31-.1-6.52.05.8.09,1.6.16,2.4a6.65,6.65,0,0,0,5.49,6.19c5,1.18,8,4,8.82,9.13a7.67,7.67,0,0,0,2.6,5c3,2.44,2.48,5.77,2,9-.46,3.38-1.27,6.71-1.78,10.08-.38,2.52.29,3.6,2.55,4.76.68.34,1.41.58,2.51,1-2-2.89-1.59-5.51-.63-8.13a9.08,9.08,0,0,1,1-2.16,7.36,7.36,0,0,0,.38-8.06,9.81,9.81,0,0,1-.52-7.29c1.43-5.49-.06-9.74-4.59-13A6.68,6.68,0,0,1,447.75,38c-.21-5.48-2.6-9.83-7.86-11.67a14.17,14.17,0,0,0-10.77.47,9.24,9.24,0,0,1-5,.46c-2.45-.37-4.82-1.3-7.24-1.87-5.32-1.25-9.23.35-12.15,4.94a8.32,8.32,0,0,1-6.12,4.08c-5.86.91-10.6,6.75-10.72,12.88-.05,2.33,0,4.67,0,7a15.5,15.5,0,0,1-2.58,8.36c-1.5,2.33-3,4.64-3.37,7.54a11.24,11.24,0,0,0,3.41,9.59,10.42,10.42,0,0,0,5.89,3.51,2.43,2.43,0,0,1,.62.27c3.49,1.49,4.14,3.18,2.5,6.49l-.3.27.46-.12A30.34,30.34,0,0,0,397.63,86.87ZM293,112.69c5.75.19,11.5.34,17.24.65,7.9.42,15.79,1.22,23.69,1.38,7.05.16,14.11-.33,21.17-.52a17.58,17.58,0,0,1,4.61.36c-5.06,1.62-10.28,2-15.78,2.31a40.87,40.87,0,0,0-.19,5.19c.15,1.75,1.39,2.74,3.07,3.26,5.33,1.66,9.92.07,14.27-3a49.31,49.31,0,0,0,17.07-20.64c1.44-3.24,3.32-6.28,5-9.45-3.13-.34-6.47-.77-9.83-1-4.19-.35-8.41-.52-12.6-.86A45.93,45.93,0,0,0,345.91,92c-9.81,2.43-19.62,4.87-29.46,7.16q-10.45,2.43-21,4.43c-3.9.74-7.89,1.07-11.83,1.59h-.17c-4.82.41-5.7,1.65-4.46,6.25,2.37,8.83,6.61,16.7,11.89,24.14,3.9,5.5,7.26,11.39,10.79,17.16a9.48,9.48,0,0,1,1.19,7.24,67.79,67.79,0,0,1-2.55,9.85c-1.9,4.78-1.73,9.53-.94,14.41.24,1.53.27,3.09.43,5.06.55-.58,1.28-1,1.5-1.61.7-1.92,1.16-3.92,1.8-5.85,1-3.12,2.1-6.23,3.29-9.29.26-.68,1.11-1.13,1.69-1.68a8.32,8.32,0,0,1,1.16,1.71c.61,1.7,1.08,3.45,1.65,5.18.43,1.33,1.21,2.52,2.74,2.29s1.85-1.68,1.77-3.05c-.18-2.95-.51-5.9-.61-8.85s.1-6.15-.07-9.21a7.8,7.8,0,0,0-1.21-3.63c-2.52-3.91-5.25-7.69-7.81-11.58-3.47-5.25-5.54-11.16-7.71-17-1.43-3.87-2.86-7.76-4.33-11.62a1.65,1.65,0,0,0-1-.69c-.94-.34-1.91-.6-2.86-.89v-.62C290.9,112.8,292,112.66,293,112.69Zm51.88,125a4.41,4.41,0,0,0-.88-1.24c-.31.31-.88.63-.87.94s.46.84.91,1.58C344.49,238.34,345,237.94,344.89,237.7Z"/><path class="cls-2" d="M322.4,95.93l1.2-.36c-.45-1.79-.81-3.61-1.37-5.36-2.39-7.46-4.87-14.89-7.26-22.35-2.74-8.55-5.39-17.13-8.17-25.66A9.34,9.34,0,0,0,305,39.88a9,9,0,0,0-.14,2.95c4,13,8.07,26,12.26,39C318.68,86.57,320.63,91.22,322.4,95.93Z"/><path class="cls-2" d="M291.06,146.5c-3.42-2-6.8-4-10.26-6-5.18-2.87-10.37-5.74-15.64-8.45-6.79-3.5-13.67-6.85-20.52-10.25q-6.34-3.15-12.71-6.24a26.41,26.41,0,0,0-3.71-1.5,6.28,6.28,0,0,0-2,.07c.4.51.69,1.23,1.21,1.48,9.39,4.64,18.82,9.16,28.19,13.82,5.41,2.7,10.68,5.67,16.09,8.37,6.16,3.08,12.41,6,18.62,9,.13.06.32,0,.49,0Z"/><path class="cls-2" d="M222.73,154.07a7.94,7.94,0,0,0,2,.92c4.76.75,9.53,1.43,14.3,2.12,4,.57,8,1.17,12,1.69,3.83.51,7.69.89,11.52,1.4s7.79,1.11,11.67,1.71q6.33,1,12.64,2.05c1.16.19,2.31.47,3.46.71l.14-.4a34.08,34.08,0,0,0-5.31-1.91c-9.19-1.71-18.38-3.4-27.61-4.84-9.57-1.49-19.18-2.69-28.78-4-1.4-.19-2.81-.35-4.23-.43a7.3,7.3,0,0,0-1.7.29Z"/><path class="cls-2" d="M302.41,100.33l2.64-.37c-.78-1.37-1.6-2.72-2.32-4.11-4.79-9.28-9.5-18.6-14.35-27.85-2.83-5.38-5.85-10.66-8.85-15.94-.25-.44-1-.59-1.51-.88a4.15,4.15,0,0,0,.05,1.73c3.09,6.12,6.27,12.2,9.39,18.31q6.42,12.52,12.8,25.07C301,97.65,301.69,99,302.41,100.33Z"/><path class="cls-2" d="M278.47,115.76l-1.69-5.05c-2-1.95-4-3.92-6-5.86-2.85-2.74-5.74-5.43-8.55-8.21-1.76-1.76-3.36-3.68-5.1-5.46-3.31-3.36-6.67-6.68-10-10A10.14,10.14,0,0,0,245,79.49c-.44-.24-1.12,0-1.69-.06.16.49.18,1.12.5,1.46q6.63,7,13.34,13.85,7,7.13,14,14.16C273.56,111.25,276,113.48,278.47,115.76Z"/><path class="cls-2" d="M287.91,174.72c-6.23,1.34-12.47,2.62-18.67,4-10.67,2.44-21.32,5-32,7.46-.22.05-.49,0-.66.14-.54.38-1,.82-1.56,1.24.62.22,1.27.71,1.83.63,3.65-.57,7.32-1.08,10.9-1.95q13.95-3.37,27.81-7.05c4.23-1.13,8.35-2.62,12.52-3.95Z"/><path class="cls-2" d="M340,80.66c0-4.25.18-8.62,0-13-.24-4.53-.89-9-1.33-13.56-.37-3.8-.67-7.6-1-11.4a23.8,23.8,0,0,0-.45-3.16c-.07-.31-.66-.77-.9-.71s-.92.55-1,.89a18.39,18.39,0,0,0,0,3.4c.54,6,1,12.06,1.71,18.06.75,6.22,1.76,12.4,2.67,18.59A4.15,4.15,0,0,0,340,80.66Z"/><path class="cls-2" d="M359.44,80.4c.71-2.8,1.63-5.57,2.07-8.41.75-4.8,1.19-9.65,1.75-14.48.35-3,.72-6,.95-9,0-.46-.64-1-1-1.45-.54.46-1.45.85-1.54,1.38-.39,2.28-.54,4.6-.76,6.9-.55,5.63-1.13,11.26-1.62,16.89-.23,2.68-.29,5.38-.43,8.07Z"/><path class="cls-2" d="M283.26,194.44c-2.62,1.55-5.35,2.95-7.85,4.68-7.71,5.35-15.35,10.82-23,16.28-.45.32-.61,1-.9,1.57.65-.05,1.46.12,1.93-.2q6-4.19,12-8.52,8.44-6.13,16.84-12.38a5.46,5.46,0,0,0,1-1.46Z"/><path class="cls-2" d="M283.24,194.41c.16,0,.32,0,.07,0l-.05,0Z"/><path class="cls-2" d="M309.93,115.14l5.77,11.65.79-.35c-.67-4-2.68-7.46-4.21-11.13Z"/><path class="cls-1" d="M311.74,177.61l1.67,1.74a5.56,5.56,0,0,0,1.17-1.77c.08-.33-.7-1.2-1.07-1.19S312.52,177,311.74,177.61Z"/><path class="cls-1" d="M422.92,57.24A10.08,10.08,0,0,0,412.24,64c-.46,1.34-.84,2.71-1.2,4.08a7,7,0,0,1-4.86,5.4,11,11,0,0,0-7,6.51,8.8,8.8,0,0,1,1.26-1.38c1.88-1.34,3.65-3,5.75-3.8a9.7,9.7,0,0,0,6.42-7.29,24.27,24.27,0,0,1,2.12-5.68,7.49,7.49,0,0,1,5.16-3.6C420.9,58,421.9,57.57,422.92,57.24Z"/><path class="cls-1" d="M411.17,57.93A21.13,21.13,0,0,0,406.8,67a5.22,5.22,0,0,1-3.11,4c-1.81.82-3.67,1.53-5.45,2.39a8.48,8.48,0,0,0-4.87,6c.21-.05.29-.05.31-.08,1.95-3.49,5.13-5.19,8.8-6.41A7.5,7.5,0,0,0,408,66.59c.39-2.35,1.67-4.55,2.54-6.82.24-.62.43-1.25.64-1.88Z"/><path class="cls-1" d="M397.46,42.85a16.17,16.17,0,0,0-5.35,12c0,2.93.13,5.95-1.71,8.51-.82,1.14-1.79,2.18-2.69,3.26l.24.26c3.57-1.91,4.94-5,5.11-8.93.15-3.21-.11-6.52,1.45-9.5,1-1.84,2.16-3.58,3.25-5.36Z"/><path class="cls-1" d="M434.54,30.42a8,8,0,0,0,5,8.55,56.25,56.25,0,0,1,6.22,3.45c2.37,1.51,3.38,4,4.29,6.55-.2-5.14-3.46-8.13-7.67-9.92-3.93-1.68-6.64-4-7.44-8.28C434.91,30.68,434.77,30.63,434.54,30.42Z"/><path class="cls-1" d="M405.39,34.71c-.91,1.86-2.13,3.64-2.65,5.6-.61,2.32-1.43,4.25-3.57,5.48a4.1,4.1,0,0,0-2.23,3.29c1.48-1.3,3.11-2.7,4.67-4.17a4.32,4.32,0,0,0,1.09-1.68c.93-2.84,1.78-5.7,2.66-8.55Z"/><path class="cls-1" d="M415.23,27.18c-3.54,1.86-7.23,3.62-7.71,8.36C408.79,31.52,412.24,29.58,415.23,27.18Z"/><path class="cls-1" d="M450.93,45.61c2.74,2.79,2.15,6.49,2.68,9.87C454.33,49.57,453.91,48,450.93,45.61Z"/><path class="cls-1" d="M413.24,31.27l7.52-3.74c-2.45,0-5.08,1.27-7.43,3.24-.1.09-.05.36-.07.54Z"/><path class="cls-1" d="M426.44,43.06l4-4.59c-1-.3-2.8,1.32-4.19,4.41Z"/><path class="cls-1" d="M425.17,38.09l3.67-2.18a4.3,4.3,0,0,0-3.63,2.2Z"/><path class="cls-1" d="M423.56,40.58l1.31-1.79,0,0-1.32,1.82Z"/><path class="cls-1" d="M426.22,42.88c-.38.64-.75,1.28-1.12,1.92l.28.15,1.06-1.89Z"/><path class="cls-1" d="M387.71,66.61,387,67l.08.2.85-.32Z"/><path class="cls-1" d="M422.59,42.16l.08,0,.05-.13-.16,0Z"/><path class="cls-1" d="M425.21,38.11l-.3.7,0,0,.3-.7Z"/><path class="cls-1" d="M397.76,43.08l.34-.35-.3-.22-.34.34Z"/><path class="cls-1" d="M398.16,42.19l-.36.32.3.22c.09-.12.18-.23.28-.34A2.09,2.09,0,0,1,398.16,42.19Z"/><path class="cls-1" d="M398.38,42.39l.1-.4-.32.2A2.09,2.09,0,0,0,398.38,42.39Z"/><path class="cls-1" d="M413.26,31.31l-.24-.06,0,.23.19-.21Z"/><path class="cls-1" d="M423.59,40.63h-.33l0,.11.27-.16Z"/><path class="cls-1" d="M422.88,41.37l.12.11s.09-.09.09-.13-.07-.07-.11-.11Z"/><path class="cls-1" d="M411.15,57.89l.32,0,0-.14-.25.22Z"/><path class="cls-1" d="M405.8,34.46l0,0Z"/><path class="cls-1" d="M405.82,34.5l-.43.21,0,0c.14-.08.29-.15.44-.22Z"/><path class="cls-1" d="M439.57,92.16c1.26-1.64.65-3.23-1.28-3.74A13.51,13.51,0,0,1,435.58,87a9.62,9.62,0,0,0-2.19-1.2,2.83,2.83,0,0,0-2.94,2.29c-.15,1.43.84,1.93,2,2.36,1.68.64,3.34,1.32,5,2.07,1.18.54,1.68.51,2.21-.4-.4,0-.92.08-1.18-.14-.81-.68-1.52-1.47-2.27-2.23l-.68-.34a16.43,16.43,0,0,1-2.72,0,6.29,6.29,0,0,1-1.69-.9c.33-.49.56-1.24,1-1.42a2,2,0,0,1,1.69.36,12.26,12.26,0,0,1,1.68,2l.7.32a11.51,11.51,0,0,0,1.63.2C439.32,90,439.88,90.69,439.57,92.16Z"/><path class="cls-1" d="M430.67,64.33l7.68-3C435.56,60.13,431.68,61.86,430.67,64.33Z"/><path class="cls-1" d="M433.18,68.33c1,.73,1.69,1.59,2.1,1.47a2.43,2.43,0,0,0,1.42-1.65c.07-.42-.91-1.42-1.37-1.4C434.71,66.79,434.14,67.58,433.18,68.33Z"/><path class="cls-1" d="M445.33,70.46c.85.78,1.53,1.72,1.82,1.61a2.91,2.91,0,0,0,1.56-1.6c.11-.35-.83-1.48-1.17-1.43C446.86,69.14,446.26,69.81,445.33,70.46Z"/><path class="cls-1" d="M427.79,86.52l7.81-5.16c-3.47.61-5.87,2.56-8,5Z"/><path class="cls-1" d="M427.23,86.63c-.1.17-.2.33,0,.06,0,.29,0,.09,0-.1Z"/><path class="cls-1" d="M408.53,94.86c0,.11-.06.22-.08.33a.42.42,0,0,0,.14,0c0-.12-.08-.24-.11-.36Z"/><path class="cls-1" d="M427.59,86.33l-.36.31,0,0,.59-.07Z"/></svg>