<svg id="Ebene_1" data-name="Ebene 1" xmlns="http://www.w3.org/2000/svg" viewBox="0 0 520 320"><defs><style>.cls-1{fill:#1d3753;}.cls-2{fill:#f18875;}</style></defs><path class="cls-1" d="M325.56,88.31a44.51,44.51,0,0,1,4-6.72,18.23,18.23,0,0,1,3.89-4c1.72-1.33,3.46-2.63,5.17-4s3.47-2.73,5.21-4.09c1.13-.88,2.28-1.73,3.43-2.59.26-.2.53-.38.81-.56l5.21-3.44a8.92,8.92,0,0,1,.85-.49c1-.53,2-1,3-1.59a6.84,6.84,0,0,0,1.06-.82,38.82,38.82,0,0,1,11.11-6.39c.87-.34,1.75-.68,2.61-1a31.35,31.35,0,0,1,8.11-2.31,12.35,12.35,0,0,1,5,.25,4.76,4.76,0,0,1,1,.44,10.3,10.3,0,0,1,.9.66c.5-.36,1-.71,1.49-1.08a3.09,3.09,0,0,0,1.28-2.28,14.19,14.19,0,0,1,.81-3.58c.82-2.4,1.61-4.8,2.42-7.2.13-.39.29-.77.43-1.15A2.22,2.22,0,0,1,394.51,35,5.58,5.58,0,0,0,397,32a18,18,0,0,1,1.77-3.36,6.44,6.44,0,0,1,2.45-2.18,4.22,4.22,0,0,1,4.53,0,2.21,2.21,0,0,0,.34.1c.3-.21.68-.45,1-.71s.77-.61,1.15-.92a8.22,8.22,0,0,1,4.53-1.7,7.33,7.33,0,0,1,2.65.4,4.17,4.17,0,0,0,2.52.05c.23-.08.48-.1.71-.17a3.7,3.7,0,0,1,2.52.13c.69.27,1.38.53,2,.84a4.72,4.72,0,0,0,3,.26,10.09,10.09,0,0,1,6.47.7,7.39,7.39,0,0,1,1.9,1.33,3.53,3.53,0,0,1,1.21,2.34,7.36,7.36,0,0,0,.21,1c.23.12.44.24.66.33a6.26,6.26,0,0,1,4,5.07,6.59,6.59,0,0,1-.78,4.73,1.47,1.47,0,0,0-.21.56,15.94,15.94,0,0,1-1.31,4.71c-1,2.35-2.14,4.68-3.25,7a9.8,9.8,0,0,1-1.19,1.86,30.6,30.6,0,0,0-4.05,7.4,14.06,14.06,0,0,0-.75,3.34,11.93,11.93,0,0,1-.35,1.8c-.48,1.6-1.32,2.1-3,1.82a5.19,5.19,0,0,1-2.29-1c-.28.4-.54.76-.78,1.12a4.61,4.61,0,0,1-2.72,2q-2.43.63-4.83,1.36a9.48,9.48,0,0,1-5.2-.15,7.45,7.45,0,0,1-3.27-1.61,17.8,17.8,0,0,1-1.44-1.67c-.17-.22-.32-.46-.51-.75a5.51,5.51,0,0,0-.55.29c-.64.44-1.28.88-1.91,1.33-.2.14-.39.29-.58.45a1.43,1.43,0,0,0-.58,1.28,19.08,19.08,0,0,1-.39,4.39,17.85,17.85,0,0,1-1.06,3.64c-1.17,3-2.34,5.93-3.48,8.9a48.64,48.64,0,0,0-1.94,6.33,57.36,57.36,0,0,1-2.76,8.5c-3.75,9.15-7.26,18.4-10.79,27.63a149.21,149.21,0,0,1-7.6,16.87,51.53,51.53,0,0,1-4.62,7.23,21,21,0,0,1-4.37,4.09.68.68,0,0,0-.09.22c.4,4,.48,8,.65,12,.07,1.8,0,3.6.06,5.4,0,3.19,0,6.39.06,9.58,0,1.84.2,3.67.33,5.51.08,1.18.2,2.36.31,3.54.31,3.47.62,6.93,1,10.39q.35,3.54.8,7.07c.23,1.86.52,3.72.81,5.58a24.18,24.18,0,0,1-.19,7.45c-1,6.27-2.63,12.39-4.18,18.53-1.93,7.61-4.07,15.16-6.13,22.73-1.11,4.06-2,8.18-2.83,12.31-.48,2.36-1,4.71-1.51,7.07,0,.16-.09.31-.13.47-.14.73-.43,1.33-1.34,1.45a3.56,3.56,0,0,0,1,1.42c1.05.91,2.09,1.84,3.21,2.66a45.25,45.25,0,0,0,9.33,5.12l2.81,1.22a4.42,4.42,0,0,1,2.28,2.3,9,9,0,0,1,.85,4.29,3,3,0,0,1-.94,2.06,8,8,0,0,1-2.91,1.76,21.2,21.2,0,0,1-9.55,1,25.39,25.39,0,0,1-7.74-2.23,74.71,74.71,0,0,0-8.66-3.39c-1.71-.54-3.44-1.05-5.15-1.6a8.09,8.09,0,0,1-3.12-1.89,5.55,5.55,0,0,1-1.8-4.15,22.3,22.3,0,0,1,1.15-7.24c.29-.84.51-1.71.79-2.65-.18-.23-.36-.49-.57-.73a2.68,2.68,0,0,1-.71-2.46c.52-2.69,1.2-5.34,1.87-8,.79-3.08,1.62-6.16,2.32-9.27.59-2.63,1.06-5.29,1.5-7.95.72-4.32,1.37-8.65,2-13q.47-3,.86-6.07c.15-1.18.22-2.36.3-3.55.22-3.67.36-7.35.37-11a3.35,3.35,0,0,0-.32-1.42c-1.28-2.87-2.34-5.83-3.47-8.77a55.94,55.94,0,0,1-2-6.82c-.38-1.55-.87-3.06-1.31-4.6-.79-2.79-1.56-5.58-2.4-8.36a55.61,55.61,0,0,0-2.19-5.85c-.9-2.06-1.78-4.13-2.66-6.2-.1-.22-.17-.46-.28-.68-1.18-2.38-2.35-4.76-3.55-7.13a32.42,32.42,0,0,1-1.71-3.8c-1-2.77-2-5.53-3-8.29a32.54,32.54,0,0,1-1.5-6.06c-.23-1.46-.55-2.89-.82-4.34-.1-.56-.2-1.12-.3-1.72a4.09,4.09,0,0,0-.56.13,14.51,14.51,0,0,1-4.79.93,13.94,13.94,0,0,1-1.83-.11,18.55,18.55,0,0,1-4-.7,3.41,3.41,0,0,1-1.12-.47,4.35,4.35,0,0,0-2.05-.92,2.86,2.86,0,0,1-1.88-1.28,5.32,5.32,0,0,1-.51-.69,2.15,2.15,0,0,0-1.56-1.25,1.89,1.89,0,0,1-1.12-.9,4,4,0,0,1-.73-1.87l-1.4-.67c-.06-.4-.14-.46-.45-.35h0c0-.11.06-.24,0-.32-.19-.41-.44-.79-.62-1.2A.8.8,0,0,1,294,140a5.94,5.94,0,0,1,1.45.18c1,.23,2,.49,3,.77a17.92,17.92,0,0,0,7.53.54,14.45,14.45,0,0,0,4.41-1.43,12.52,12.52,0,0,1,.39-1.38c1-2.22,1.93-4.42,2.91-6.62,1.38-3.1,2.78-6.19,4.16-9.29a155.77,155.77,0,0,0,6-16.33c1.64-5.14,3.35-10.26,6.17-14.92.07-.11,0-.3,0-.45a1.82,1.82,0,0,0,.77-.76c.8-1,1.56-2.11,2.43-3.08q5.61-6.25,11.29-12.46c3.37-3.68,6.77-7.34,10.15-11,.13-.14.41-.25.26-.6-.34.22-.65.4-.95.61l-5.14,3.56c-.3.21-.6.42-.89.64l-4.78,3.66-7,5.44c-.77.61-1.58,1.18-2.3,1.84a24.44,24.44,0,0,0-2.57,2.62,47,47,0,0,0-4.63,7.21C326.27,88.71,325.84,88.71,325.56,88.31Zm3,58.92c.34,2.14.62,4.12,1,6.09s.82,3.91,1.25,5.87c.48,2.15,1,4.29,1.45,6.45a32.3,32.3,0,0,0,1.09,4.14c.74,2.17,1.46,4.34,2.2,6.5.22.66.46,1.31.7,2,.62,1.65,1.25,3.28,1.86,4.93.83,2.22,1.69,4.43,2.47,6.66,1.21,3.43,2.27,6.9,3.5,10.32,1.45,4,2.67,8.07,4,12.11.59,1.82,1.24,3.64,1.73,5.49.7,2.6,1.29,5.23,1.91,7.86a13.2,13.2,0,0,1,.24,4.39c-.29,3.13-.61,6.27-1.1,9.38-.64,4-1.25,8.08-1.9,12.11-.42,2.67-.91,5.32-1.33,8a119.25,119.25,0,0,1-2.51,12c-1.57,5.92-3.27,11.81-4.91,17.71a2.1,2.1,0,0,1-.26.44c-1.95-.39-3.94-.38-5.73-1.36L334,289a25.26,25.26,0,0,0-1.21,5.5,3.83,3.83,0,0,0,.6,2.69,10.2,10.2,0,0,0,4.57,3.95,25,25,0,0,0,3.73,1.21,28.38,28.38,0,0,1,5.49,1.7l2.67,1.22a11.21,11.21,0,0,0,1.11.52,27.86,27.86,0,0,0,4.84,1.29c1.34.19,2.67.38,4,.59a16.69,16.69,0,0,0,6-.11A7.49,7.49,0,0,0,370,305.3a6.47,6.47,0,0,0-.49-3.24,3.5,3.5,0,0,0-1.81-2.07c-.77-.38-1.57-.69-2.35-1.06-1.7-.79-3.42-1.54-5.09-2.4a34.11,34.11,0,0,1-7.11-4.79,8.76,8.76,0,0,1-1.94-2.35,6.52,6.52,0,0,0-.42-.59c-.29.11-.51.2-.74.27a12.5,12.5,0,0,1-3.72.75c-1.88.06-3.75-.11-5.63-.2-.06,0-.11-.09-.19-.18a4.5,4.5,0,0,1,.1-.44c1.14-4.09,2.27-8.19,3.43-12.27a150.52,150.52,0,0,0,4.1-18.29c.51-3.27,1.08-6.53,1.62-9.8.37-2.3.75-4.6,1.1-6.9.31-2.07.63-4.13.88-6.2a60.09,60.09,0,0,0,.58-6.84,11.18,11.18,0,0,0-.11-2.32,95,95,0,0,0-2.85-11.28c-1.6-4.81-3.12-9.64-4.71-14.45-.52-1.59-1.21-3.12-1.69-4.73-1.65-5.48-3.76-10.79-5.69-16.17-.5-1.38-1.08-2.74-1.56-4.13-.68-1.92-1.3-3.87-2-5.8a27.29,27.29,0,0,1-1.07-3.89c-.15-.76-.29-1.53-.47-2.28-.64-2.79-1.33-5.57-1.93-8.36-.42-2-.74-3.93-1.07-5.91a3.22,3.22,0,0,1,0-1.52,3.73,3.73,0,0,1,.64.38,9.94,9.94,0,0,0,2.32,1.34c1.11.53,2.18,1.13,3.25,1.71.51.27,1,.6,1.5.84,1.89.87,3.77,1.78,5.7,2.54a44.63,44.63,0,0,0,7.33,2.42c1.91.4,3.84.79,5.75,1.22a14.19,14.19,0,0,0,3.89.37,7.9,7.9,0,0,0,4.9-1.7,21.57,21.57,0,0,0,2.92-3,42.07,42.07,0,0,0,4.38-6.79,151.81,151.81,0,0,0,7.59-16.75c3.61-9.42,7.19-18.86,11.07-28.18a48.45,48.45,0,0,0,2.31-6.72,61.91,61.91,0,0,1,3.53-10.18c1-2.24,1.84-4.55,2.93-6.75a11.89,11.89,0,0,0,1.05-5s-.1-.07-.22-.13c-.11.25-.22.5-.34.75a2.47,2.47,0,0,1-2,1.47,4,4,0,0,1-1.92-.19,4.34,4.34,0,0,1-2.62-2.75,10.11,10.11,0,0,1-.54-1.88A22.19,22.19,0,0,0,391,66.16a56,56,0,0,1-2.63-7c-.53-1.68-1.11-3.34-1.7-5a12.88,12.88,0,0,0-.77-1.53,1.4,1.4,0,0,0-1-.71,16,16,0,0,0-2.66-.35,19.1,19.1,0,0,0-6.49,1.13c-1.78.61-3.49,1.38-5.26,2a41.39,41.39,0,0,0-8.11,4,22.13,22.13,0,0,0-5.57,4.77c-.28.35-.59.67-.89,1l-6.74,7.32q-6,6.51-12,13c-1.3,1.42-2.58,2.86-3.81,4.33a28.52,28.52,0,0,0-3.6,5.55,81.52,81.52,0,0,0-4.58,11.89c-1.13,3.54-2.28,7.08-3.62,10.55-1.84,4.77-3.92,9.43-6.1,14.05-1.29,2.74-2.53,5.49-3.78,8.2,1.62,2.54,6.82,6.82,9,7.43.41-.66.8-1.32,1.23-2,3.41-5.25,6.61-10.62,9.55-16.15,4-7.59,8.14-15.12,12.22-22.68a27.58,27.58,0,0,1,5.5-7.33c.87-.81,1.74-1.61,2.63-2.4a81,81,0,0,0,6.75-6.61c1.42-1.59,2.84-3.17,4.25-4.77a92.34,92.34,0,0,1,6.81-6.9,2.06,2.06,0,0,1,.87-.58,7.5,7.5,0,0,1-1,1.41L360,90.24c-.4.47-.82.92-1.24,1.36a83.41,83.41,0,0,1-6.3,6,29.42,29.42,0,0,0-7.12,8.35c-.23.44-.48.86-.71,1.3-1,1.88-2,3.77-3,5.64-3.15,5.78-6.35,11.53-9.46,17.33q-3.26,6.06-6.93,11.86c-.17.28-.34.55-.52.86A34.64,34.64,0,0,0,328.55,147.23Zm92.06-78.09a4.64,4.64,0,0,0,1.92-2.32,7.09,7.09,0,0,1-.39-.95,2.83,2.83,0,0,1-.06-1,.66.66,0,0,1,.35-.45c.23-.1.35.13.44.32a7.67,7.67,0,0,0,.36.77,3.8,3.8,0,0,0,2.87,1.88c.85.11,1.22-.12,1.47-.92a4,4,0,0,0,.13-.6c.2-1.17.34-2.35.6-3.5a27.52,27.52,0,0,1,3.24-7.78,2.16,2.16,0,0,1,.74-.79A4.14,4.14,0,0,0,433.72,52a3.39,3.39,0,0,1-.76-.06,10,10,0,0,0-3.89-.19l-2.45.16c-.14,0-.33.09-.43-.21l1.45-1a4.52,4.52,0,0,1,2.89-.86c.53,0,1.06.09,1.58.17a3.89,3.89,0,0,1,1.18.32,5.68,5.68,0,0,1,1,.9,50.05,50.05,0,0,0,3.65-7.91,2.87,2.87,0,0,0,.31-1.47,16,16,0,0,1-5.46.74c-.86,0-1.72-.07-2.57-.16a6.58,6.58,0,0,0-4.66,1.13c-.3.21-.62.39-.92.61a10.38,10.38,0,0,1-4.39,1.79,5.2,5.2,0,0,1-3.56-.55c-.4-.22-.78-.46-1.17-.68s-1-.56-1.51-.81a1.9,1.9,0,0,0-2.87,1.29c0,.2-.1.39-.16.59A4.6,4.6,0,0,1,409.58,48c-.36.33-.71.68-1.08,1a1.78,1.78,0,0,0-.61,1.29,4.36,4.36,0,0,1-.14,1,.74.74,0,0,1-.45.35.54.54,0,0,1-.62-.28,1.55,1.55,0,0,1-.15-.46,4.43,4.43,0,0,1,.1-1.7,7.62,7.62,0,0,0,.18-3.88,1.66,1.66,0,0,0-.35-.76,5.16,5.16,0,0,0-2.38-1.46,3,3,0,0,0-3.38,2,13.84,13.84,0,0,1-.59,1.86,6.88,6.88,0,0,0-.38,3.14,2.85,2.85,0,0,0,1.6,2.58,2.72,2.72,0,0,1,.62.51,2.52,2.52,0,0,1-.18.26.34.34,0,0,1-.22.1,2.79,2.79,0,0,1-2.33-1.36,5.12,5.12,0,0,1-.74-2.44c0-.2,0-.41,0-.61s.1-.41-.16-.55c-.58.63-1.12,1.28-1.72,1.87a7.24,7.24,0,0,1-4.08,2.11c-1.33.18-2.69.22-4,.32l-.71,0c.05.2.06.32.1.43.72,2.13,1.45,4.26,2.15,6.39a36.18,36.18,0,0,0,2.21,5.58,22.06,22.06,0,0,1,2,5.64,8.38,8.38,0,0,0,.37,1.3A4.51,4.51,0,0,0,395.73,74a1.07,1.07,0,0,0,.76.32,2,2,0,0,0,2.19-1.4c.19-.45.31-.93.51-1.38a5.63,5.63,0,0,1,.77-1.38,9.94,9.94,0,0,1,3.43-2.73c.25-.11.48-.26.8-.44-.38-.65-.69-1.28-1.08-1.84a10.45,10.45,0,0,1-1.66-4.31,3.25,3.25,0,0,1,.17-2.17,2.39,2.39,0,0,1,.33-.36l.22.56q.84,2.35,1.69,4.73a6,6,0,0,0,1.1,2,5.62,5.62,0,0,1,1,1.65,4.42,4.42,0,0,0,1.43,2,11.79,11.79,0,0,0,3,1.59,8.71,8.71,0,0,0,5.08,0A15,15,0,0,1,419,70c.21,0,.41-.18.62-.27a3.36,3.36,0,0,0-1.53-2.61,7.36,7.36,0,0,1-.82-.72,2.43,2.43,0,0,1,.71-.13A2.76,2.76,0,0,1,420.18,68C420.34,68.32,420.45,68.71,420.61,69.14Zm-12.24-21.9a3,3,0,0,0,1.16-1.62c.11-.4.22-.79.36-1.18a3.13,3.13,0,0,1,3.68-2.12,3.47,3.47,0,0,1,1,.36c.76.39,1.51.81,2.24,1.26a4.38,4.38,0,0,0,3,.62,8.65,8.65,0,0,0,3.54-1.29c.65-.42,1.3-.86,2-1.27a6.17,6.17,0,0,1,3.26-.93c.9,0,1.8.08,2.7.08,1.35,0,2.7,0,4-.08a5.6,5.6,0,0,0,1.9-.43,3.62,3.62,0,0,0,2.05-2.59,5.53,5.53,0,0,0-3.21-6.34,2.2,2.2,0,0,1-1.62-2.06,2.49,2.49,0,0,0-1.06-2,9.19,9.19,0,0,0-1.66-1,8.73,8.73,0,0,0-5.41-.45,5.24,5.24,0,0,1-3.36-.27c-.56-.25-1.15-.43-1.7-.69a3.59,3.59,0,0,0-2.73-.2,5.13,5.13,0,0,1-3.6,0,4.14,4.14,0,0,0-2.29-.31,8.23,8.23,0,0,0-4.09,1.83,10.87,10.87,0,0,1-1.25,1,2,2,0,0,1-2.5.11,2.55,2.55,0,0,0-2.47-.11A4.67,4.67,0,0,0,400,29.38c-.51.84-1,1.7-1.44,2.56-.27.51-.47,1.05-.72,1.56a5.55,5.55,0,0,1-2.19,2.43,2.46,2.46,0,0,0-1.22,1.6c-.08.27-.2.53-.3.8-.82,2.36-1.62,4.72-2.45,7.07a10.88,10.88,0,0,0-.69,3,3.7,3.7,0,0,1-1,2.21c-.1.13-.23.23-.33.36s-.31.17-.24.38c.07,0,.14.1.2.09a27.87,27.87,0,0,0,3.05-.3,5.87,5.87,0,0,0,2.84-1.63,10.36,10.36,0,0,0,2.19-2.94,16.47,16.47,0,0,1,1.82-2.76,6.22,6.22,0,0,1,1.75-1.52,4,4,0,0,1,2.71-.52A6.33,6.33,0,0,1,406.81,43a3.35,3.35,0,0,1,1.45,2.58C408.3,46.08,408.33,46.56,408.37,47.24ZM311,140.84c-.81.4-1.5.76-2.21,1.07a6.84,6.84,0,0,1-1.16.38,17.11,17.11,0,0,1-6.21.42,24,24,0,0,1-6.26-1.63c-.4-.16-.79-.35-1.37-.61a3.85,3.85,0,0,0,2.24,2.16c.88.31,1.78.59,2.68.87a13.19,13.19,0,0,0,4.32.77,2.65,2.65,0,0,1,.95.2c.12,0,.19.21.34.39a4.15,4.15,0,0,1-.74.28,8.42,8.42,0,0,1-3.28-.09c-.91-.23-1.81-.51-2.71-.75-.26-.06-.51-.28-.86-.1.29.54.5,1.15,1.15,1.35a14,14,0,0,0,4.65.94c.7,0,1.39,0,2.09,0a3.37,3.37,0,0,1,.83.15.37.37,0,0,1,.19.27.45.45,0,0,1-.16.29,1.25,1.25,0,0,1-.45.18,11.89,11.89,0,0,1-3.9.15c-.26,0-.52,0-.85-.07a1.8,1.8,0,0,0,1.36,1.24,4.6,4.6,0,0,0,1.32.17c.94-.06,1.87-.19,2.8-.31.73-.09,1.45-.22,2.18-.32a.43.43,0,0,1,.54.41,5.92,5.92,0,0,1-.62.3,4,4,0,0,1-.59.18l-.71.19-.7.2c-.2.05-.4.08-.6.14s-.5,0-.57.29c.08,0,.14.13.21.13,1.5.2,3,.46,4.5.57a15.64,15.64,0,0,0,3-.15,13.05,13.05,0,0,0,6.39-3,40.92,40.92,0,0,1-4.19-3C313.38,143.28,312.18,142.06,311,140.84Zm25.52,26.52c.37,0,.56.06.65,0a6.32,6.32,0,0,0,.69-.68,41.65,41.65,0,0,1,5.85-5.57c.79-.58,1.52-1.23,2.28-1.85,0,0,.08-.06.08-.09s.07-.34,0-.44a.45.45,0,0,0-.41-.13,17,17,0,0,0-1.49,1.07c-.6.48-1.18,1-1.77,1.51a40.68,40.68,0,0,0-5.44,5.46C336.8,166.78,336.71,167,336.47,167.36Z"/><path class="cls-1" d="M277.8,247.92c-.3-.42-.55-.74-.77-1.08a1.51,1.51,0,0,1,0-2.21c1.44-1.94,2.87-3.88,4.32-5.81q3.56-4.69,6.83-9.6,6-8.94,12.37-17.55c4.1-5.52,8.11-11.1,12.12-16.68,1-1.39,1.86-2.89,2.76-4.35a15.6,15.6,0,0,0,1.6-3.44c.92-2.83,1.86-5.66,2.8-8.5.49-1.47,1-2.94,1.52-4.52a6.43,6.43,0,0,1,.48.55,29.46,29.46,0,0,1,2.53,5.17c1.09,2.6,2.11,5.23,3.14,7.85.44,1.14.87,2.29,1.28,3.45a121.58,121.58,0,0,1,3.85,12.15q.62,2.55,1.32,5.1a2.39,2.39,0,0,1-.31,2.07,57.21,57.21,0,0,1-4.87,6.62c-2.83,3.45-5.85,6.73-8.92,10-1.44,1.51-2.85,3.05-4.25,4.6A113,113,0,0,1,304.91,242c-3.8,3.17-7.73,6.19-11.67,9.19-.81.61-1.54,1.33-2.33,2-.4.33-.83.64-1.31,1,0,.25,0,.57.1.89a17.13,17.13,0,0,0,1.94,5.4,8.42,8.42,0,0,0,1.51,1.91,15.88,15.88,0,0,0,3.67,2.65,5.14,5.14,0,0,1,2.76,3.56,7.44,7.44,0,0,1,.16,3.51,1.42,1.42,0,0,1-.62,1,5.07,5.07,0,0,1-1.21.55,9.59,9.59,0,0,1-3.29.24,20.39,20.39,0,0,1-7.36-2.17,10.35,10.35,0,0,1-2.75-2c-.69-.7-1.38-1.4-2.06-2.11a13,13,0,0,0-2.85-2.3,12.57,12.57,0,0,1-5.6-6.6,3.25,3.25,0,0,1,.1-2.82,25.44,25.44,0,0,0,1.17-3A15.91,15.91,0,0,1,277.8,247.92Zm.8,1.18c-.27.43-.56.87-.82,1.33a34.62,34.62,0,0,0-2,5.11,1.31,1.31,0,0,0-.1.72,7.85,7.85,0,0,0,1.17,2.93,17.87,17.87,0,0,0,4.43,4.2,15.38,15.38,0,0,1,2.84,2.5,21.7,21.7,0,0,0,2.31,2.19c1.05.84,2.18,1.58,3.3,2.34a4.79,4.79,0,0,0,1.1.51c.58.21,1.18.35,1.76.55a8.87,8.87,0,0,0,4.71.2c1.56-.31,1.66-.44,1.39-2a4.43,4.43,0,0,0-2.47-3.57,16.13,16.13,0,0,1-4.2-3.14,6.31,6.31,0,0,1-.91-1.15,14.55,14.55,0,0,1-2.3-7c0-.24,0-.47-.07-.72-.26,0-.46-.11-.66-.13a13.51,13.51,0,0,1-5.53-2.19,20,20,0,0,1-3.62-2.51C278.85,249.16,278.76,249.16,278.6,249.1Z"/><path class="cls-2" d="M330,91.09c0,.15,0,.34,0,.45-2.82,4.66-4.53,9.78-6.17,14.92a155.77,155.77,0,0,1-6,16.33c-1.38,3.1-2.78,6.19-4.16,9.29-1,2.2-1.95,4.4-2.91,6.62a12.52,12.52,0,0,0-.39,1.38,14.45,14.45,0,0,1-4.41,1.43,17.92,17.92,0,0,1-7.53-.54c-1-.28-2-.54-3-.77A5.94,5.94,0,0,0,294,140a.8.8,0,0,0-.75,1.19c.18.41.43.79.62,1.2,0,.08,0,.21,0,.32a1.84,1.84,0,0,1-.56-.14,8.19,8.19,0,0,1-.84-.72c-1.25-1.17-2.58-2.27-3.72-3.54a27.6,27.6,0,0,1-4.27-6,12.26,12.26,0,0,0-.91-1.46,17.11,17.11,0,0,1-2.75-7.65c-.17-1.26-.34-2.51-.45-3.77a14.2,14.2,0,0,1,.55-5.93c.63-1.81,1.15-3.66,1.69-5.5a12,12,0,0,1,1.82-3.73,37.79,37.79,0,0,1,5.2-6c1.77-1.58,3.59-3.1,5.39-4.64l1.79-1.49a17.78,17.78,0,0,1,8.31-4,30.79,30.79,0,0,1,6.56-.78c.61,0,1.22-.14,1.83-.11,1.79.08,3.58.2,5.37.33,1,.07,2,.16,3.06.26l3.65.37c.28.41.71.41,1.14.46a8.62,8.62,0,0,1,.94.52C328.44,89.87,329.23,90.49,330,91.09Z"/><path class="cls-2" d="M293.81,142.72c.31-.11.39-.05.45.35C294.06,143,293.81,143,293.81,142.72Z"/><path class="cls-1" d="M324.86,119.3a.67.67,0,0,1,.65.62.65.65,0,1,1-.65-.62Z"/><path class="cls-1" d="M368.28,145.37a.62.62,0,0,1-.53.68.66.66,0,0,1-.74-.61.67.67,0,0,1,.67-.69A.64.64,0,0,1,368.28,145.37Z"/><path class="cls-1" d="M384.88,96a.59.59,0,0,1,.6.61.64.64,0,0,1-.58.65.69.69,0,0,1-.68-.69A.65.65,0,0,1,384.88,96Z"/><path class="cls-1" d="M344.18,115.19a5.13,5.13,0,0,1,.5.87.45.45,0,0,1-.29.58.75.75,0,0,1-.55,0,.46.46,0,0,1-.23-.61A5.71,5.71,0,0,1,344.18,115.19Z"/><path class="cls-1" d="M370.46,93.31a.71.71,0,0,1-.67-.58.65.65,0,0,1,.58-.64.59.59,0,0,1,.65.56A.64.64,0,0,1,370.46,93.31Z"/><path class="cls-1" d="M374.81,128.47a.59.59,0,0,1,.63.6.63.63,0,0,1-.61.62.71.71,0,0,1-.64-.62A.63.63,0,0,1,374.81,128.47Z"/><path class="cls-1" d="M324.8,134.15a.55.55,0,0,1-.49.6.6.6,0,0,1-.67-.55.57.57,0,0,1,.63-.59A.52.52,0,0,1,324.8,134.15Z"/><path class="cls-1" d="M359.79,80.52a.63.63,0,0,1-.62.6.54.54,0,0,1-.58-.49.6.6,0,0,1,.53-.68A.69.69,0,0,1,359.79,80.52Z"/><path class="cls-1" d="M338.44,143.32a.6.6,0,0,1-.57.51.59.59,0,0,1-.56-.53.57.57,0,1,1,1.13,0Z"/><path class="cls-1" d="M355.73,148.57a.51.51,0,0,1-.46.59.5.5,0,0,1-.59-.45.51.51,0,0,1,.46-.59A.51.51,0,0,1,355.73,148.57Z"/><path class="cls-1" d="M336.93,94.48a.64.64,0,0,1-.65.57.61.61,0,0,1-.49-.58.59.59,0,0,1,.63-.57A.65.65,0,0,1,336.93,94.48Z"/><path class="cls-1" d="M343.06,133.2a.6.6,0,0,1,.53.56.54.54,0,0,1-.6.46.56.56,0,0,1-.47-.49A.58.58,0,0,1,343.06,133.2Z"/><path class="cls-1" d="M354.2,137.08c.37,0,.56.2.55.46a.51.51,0,0,1-.44.48c-.26,0-.58-.31-.48-.54S354.11,137.17,354.2,137.08Z"/><path class="cls-1" d="M390.25,81a2.75,2.75,0,0,1,.35.68c0,.25-.22.43-.48.39s-.49-.29-.39-.5S390,81.27,390.25,81Z"/><path class="cls-1" d="M347.87,292.88a.59.59,0,0,1,.62.54.51.51,0,0,1-.5.4.39.39,0,0,1-.41-.46A1.5,1.5,0,0,1,347.87,292.88Z"/><path class="cls-1" d="M377.34,60.25c.35,0,.53.28.47.53a.42.42,0,0,1-.45.32.4.4,0,0,1-.35-.52C377.07,60.43,377.26,60.32,377.34,60.25Z"/><path class="cls-1" d="M375.62,114.92c0,.36-.21.57-.46.54a.4.4,0,0,1-.35-.42c0-.25.24-.51.45-.43S375.53,114.84,375.62,114.92Z"/><path class="cls-1" d="M358.84,105.59c.32,0,.46.09.5.31s-.17.41-.35.37-.32-.17-.33-.26A1.05,1.05,0,0,1,358.84,105.59Z"/><path class="cls-1" d="M351.91,296.47a2.66,2.66,0,0,1-.3-.57c0-.16.33-.35.46-.26s.26.26.24.35S352.1,296.25,351.91,296.47Z"/><path class="cls-1" d="M360.5,301.22a2.25,2.25,0,0,1-.17-.62c0-.06.27-.18.36-.15a.43.43,0,0,1,.17.36C360.85,300.92,360.69,301,360.5,301.22Z"/><path class="cls-1" d="M351.2,76.9c-.14-.22-.27-.33-.27-.45a.24.24,0,0,1,.33-.23c.09,0,.22.16.21.22A1.87,1.87,0,0,1,351.2,76.9Z"/><path class="cls-1" d="M359.3,69.23c-.17-.18-.32-.26-.36-.38a.26.26,0,0,1,.27-.33.43.43,0,0,1,.33.25C359.57,68.87,359.42,69,359.3,69.23Z"/><path class="cls-1" d="M355.71,298.23c-.06-.1-.21-.25-.2-.4a.3.3,0,0,1,.42-.27.52.52,0,0,1,.25.34C356.23,298.11,356,298.26,355.71,298.23Z"/><path class="cls-1" d="M359,119.61c.15.19.32.31.31.42s-.19.22-.3.32c-.11-.1-.28-.2-.3-.32S358.82,119.8,359,119.61Z"/><path class="cls-1" d="M429.91,54.5a1,1,0,0,1-1,1,.83.83,0,0,1-.77-.92,1,1,0,0,1,1-1A.82.82,0,0,1,429.91,54.5Z"/><path class="cls-1" d="M403.26,49.25c-.7-.38-1.53-.62-1.63-1.59-.05-.47-.15-1,.41-1.32a5.42,5.42,0,0,1,.07.64,1.5,1.5,0,0,0,.93,1.57C403.33,48.68,403.31,48.73,403.26,49.25Z"/><path class="cls-1" d="M421.73,39.79a5.43,5.43,0,0,0,3.09-1.23,8.93,8.93,0,0,0,.74-.64,6,6,0,0,1,5.07-1.58,16,16,0,0,1,3.87,1,2.4,2.4,0,0,1-1.14-.08,12.35,12.35,0,0,0-3.71-.64A5.63,5.63,0,0,0,426,38a9,9,0,0,1-2,1.41A3.46,3.46,0,0,1,421.73,39.79Z"/><path class="cls-1" d="M402.81,33.34a14.69,14.69,0,0,0-3.16,4.86,14.52,14.52,0,0,1-.74,1.54A3.93,3.93,0,0,1,394.52,42a4.4,4.4,0,0,1,.48-.11,2.26,2.26,0,0,1,.37,0,3.3,3.3,0,0,0,2.77-1.56,19.12,19.12,0,0,0,1.23-2.38,15.93,15.93,0,0,1,1.47-2.69c.16-.23.33-.46.51-.68A3.16,3.16,0,0,1,402.81,33.34Z"/><path class="cls-1" d="M423.85,27.5a3.31,3.31,0,0,1-1.94,1.61,9.82,9.82,0,0,1-1.32.22,21.39,21.39,0,0,1-4.38-.1,5.25,5.25,0,0,1-.84-.23l4.29,0c.41,0,.82,0,1.22-.05a3.83,3.83,0,0,0,2.41-1C423.46,27.79,423.66,27.65,423.85,27.5Z"/><path class="cls-1" d="M415.74,36.12a5.56,5.56,0,0,1,3.82-.58,10.21,10.21,0,0,1,1.65.41,2.41,2.41,0,0,0,2.11-.25l.73-.43a2.06,2.06,0,0,1-1.83,1.13,5.33,5.33,0,0,1-1.43-.22,8.85,8.85,0,0,0-4-.28C416.5,36,416.21,36,415.74,36.12Z"/><path class="cls-1" d="M407.68,33.16c-1,.44-1.91.89-2.88,1.29a3.4,3.4,0,0,0-2,1.82,2.77,2.77,0,0,1-.32.45,3.13,3.13,0,0,1,2-2.42c1.05-.4,2.09-.83,3.14-1.24Z"/><path class="cls-1" d="M430,29.88a.54.54,0,0,1,.78-.15,3,3,0,0,1,.85,1,7.26,7.26,0,0,0,2.69,2.61,4.47,4.47,0,0,1-2.62-2c-.27-.4-.49-.85-.79-1.23S430.37,29.6,430,29.88Z"/><path class="cls-2" d="M429.13,27.91l-3,1.07a6.42,6.42,0,0,1,2.35-1.14C428.64,27.78,428.92,27.61,429.13,27.91Z"/><path class="cls-1" d="M339.4,77.13a.61.61,0,0,1-.68.53.59.59,0,0,1-.52-.57.61.61,0,0,1,.61-.61A.67.67,0,0,1,339.4,77.13Z"/><path class="cls-1" d="M332.9,85a.53.53,0,0,1-.53.54.59.59,0,0,1-.6-.63.61.61,0,0,1,.54-.56A.63.63,0,0,1,332.9,85Z"/><path class="cls-1" d="M286.74,260.24c-.17-.23-.33-.36-.36-.52s.16-.26.27-.3.44,0,.43.28S286.9,260,286.74,260.24Z"/><path class="cls-1" d="M289,262.76c-.12.1-.22.24-.29.23s-.17-.15-.26-.24c.09-.08.17-.21.26-.22S288.9,262.66,289,262.76Z"/><path class="cls-1" d="M285.33,255.8l-.27.14c0-.07-.1-.17-.08-.2a1,1,0,0,1,.22-.17Z"/></svg>