<svg id="Ebene_1" data-name="Ebene 1" xmlns="http://www.w3.org/2000/svg" viewBox="0 0 320 320"><defs><style>.cls-1{fill:#1d3753;}.cls-2{fill:#ee907d;}</style></defs><path class="cls-1" d="M244.39,255.61a21,21,0,0,1-3.8-11.34c-.46-9.74-.87-19.48-.59-29.24.16-5.75-.11-11.51-.17-17.26-.11-11.67.06-23.35-.37-35-.94-25.42-.1-50.84-.58-76.26-.16-8.47-.81-16.92-1.25-25.38a5.05,5.05,0,0,0-.37-1.23c-.4-.17-.69-.41-1-.4-14.35.61-28.74-.28-43.36,1.09-.33,1.14-.75,2.31-1,3.52-1,5.21-4.15,8.45-9.17,10a59.63,59.63,0,0,1-14.12,2.45c-5.9.38-11.82.44-17.73.48a40.92,40.92,0,0,1-13.19-2.16c-5.19-1.7-9-4.78-10.42-10.27a11.74,11.74,0,0,0-.7-1.78,9.48,9.48,0,0,0-.67-1.1c-15.1-.43-30.43.66-46-1.12-.15,1.45-.38,2.65-.38,3.84,0,9.75.07,19.5.1,29.26,0,14.23,0,28.46.15,42.68.11,8.63.33,17.28,1,25.88,1,14.36,1.4,28.74,1.6,43.12.1,7.68.1,15.35.17,23a15.15,15.15,0,0,1-2.32,8.7c-2.51-2.47-3.3-5.5-3.38-8.78-.17-6.87-.3-13.74-.47-20.62-.32-12.14-.19-24.32-1.1-36.42C73.9,153,73.7,134.6,73.53,116.22c-.1-10.71,0-21.42,0-32.13,0-7-.07-14.06-.09-21.08a26.89,26.89,0,0,1,.21-4.31c.5-3.26,2.35-4.68,5.66-4.48,6.53.42,13.06,1,19.6,1.25,5.1.18,10.21-.11,15.31-.14,2.23,0,4.46.11,6.68.12,1.1,0,2.2-.1,3.35-.16a4.94,4.94,0,0,0,.36-1.47c-.46-4.18,2.27-6.49,6-7.4a47.57,47.57,0,0,1,8-1.28c5.42-.36,10.85-.56,16.28-.66,5.92-.11,11.84-.15,17.75,0a63.15,63.15,0,0,1,10.46,1.13c4.5.9,8.74,2.47,9.85,8,2.27,0,4.32.06,6.37,0q11.27-.22,22.52-.49l12.45-.32c1.76,0,3.52-.12,5.27,0,3.05.19,4,1.17,4.25,4.05.31,4.47.65,8.93.87,13.4,1,20.45.94,40.91.63,61.38-.1,6.39.15,12.79.19,19.18q.17,23.26.27,46.53c0,7-.11,14.06,0,21.09s.32,14.06.58,21.09c.18,4.79.5,9.58-1.2,14.21C245,254.37,244.7,254.92,244.39,255.61Z"/><path class="cls-1" d="M188.24,147.27c1.72.26,3.07-.61,4.39-1.51a17.22,17.22,0,0,0,1.42-1.29c4.09-3.51,5.53-3.29,8.78,1.57a20.65,20.65,0,0,0,2.35-1.28c2.34-1.65,4.65-2.15,6.85,0,2.57-.58,4.91-2.4,7.56-.3a3.51,3.51,0,0,1-.91,4.2c-2.7,2.64-5.8,4.69-9.81,4a7.42,7.42,0,0,0-4.53.77c-3.91,1.76-5,1.61-9.1-.64-1.11.38-2.3.81-3.51,1.2-5.63,1.83-8.3,1-11.83-3.45a68.39,68.39,0,0,1-7.6,3c-4.81,1.25-6.75.49-10.17-3.43l-3.54,3.07c-4.08,3.56-6.94,3.33-11.71-1-1.88-1.73-1.5-4.13-.67-6.3a9.91,9.91,0,0,1,1.84-2.77,3.11,3.11,0,0,1,3.53-.8,2.76,2.76,0,0,1,1.9,3c0,.76-.17,1.52-.24,2.17.75.77,1.28.3,1.72-.1,1.18-1.08,2.22-2.33,3.49-3.28a28.1,28.1,0,0,1,5.64-3.55c3.71-1.53,6.12.09,6.72,4.12.07.46.12.93.23,1.76a17.26,17.26,0,0,0,3.05-1.05c1-.54,1.7-1.45,2.62-2.08a26.25,26.25,0,0,1,4.44-2.8c3.74-1.58,6.69.41,6.93,4.48,0,.47-.1,1-.09,1.43A4.15,4.15,0,0,0,188.24,147.27Z"/><path class="cls-1" d="M179.8,100.4c-2.28.95-4.42,2-6.67,2.74-4.24,1.43-8.16,1.34-10.87-3.29l-4.13,3.57c-4.36,3.84-8.3,1.79-11.59-1.91-2.11-2.38-.56-7.66,2.36-9.21a3,3,0,0,1,4.56,2.47,21.51,21.51,0,0,1-.28,3.22,7.79,7.79,0,0,0,1.75-.79c1.43-1.27,2.69-2.77,4.23-3.89a23.82,23.82,0,0,1,5.37-3c3.27-1.26,5.62.22,6.26,3.67a9,9,0,0,1,0,1.79c1.58,1,2.6,0,3.58-.69,1.42-1,2.69-2.28,4.14-3.27a14.3,14.3,0,0,1,3.41-1.7A4.49,4.49,0,0,1,188,93.65a20.87,20.87,0,0,1,0,3.26c1.93.75,3.2-.39,4.48-1.21a32.82,32.82,0,0,0,2.5-2.24c2.68-2.16,4.7-1.85,6.79,1l1.12,1.47a29.76,29.76,0,0,1,3.93-2.15c1-.36,2.39-.67,3.19-.23a4.76,4.76,0,0,0,4.92.17,4.6,4.6,0,0,1,1.86-.35c2.57-.11,3.86,1.87,2.62,4.1a6.34,6.34,0,0,1-1.85,2.16c-2.92,2-5.86,4-9.73,2.8a3.62,3.62,0,0,0-1.83.16,12.3,12.3,0,0,0-1.73.81c-3.11,1.49-6.14,1.75-9-.7-1.56.53-3,1.09-4.57,1.54-4.83,1.41-7.25.6-10.41-3.41A2.37,2.37,0,0,0,179.8,100.4Z"/><path class="cls-1" d="M195.21,206.07c-1.49.51-2.83,1-4.21,1.43-5.37,1.57-7.77.71-11.16-4.05a26.35,26.35,0,0,1-8.19,3.52c-3.89.86-7,.2-9.19-3.64-.76.55-1.52,1-2.23,1.6-1.12.89-2.16,1.89-3.33,2.72a5.82,5.82,0,0,1-6.34.39,15.28,15.28,0,0,1-1.64-1c-3.92-2.58-4.42-7.25-1.07-10.57.91-.91,2-1.64,3.43-1.12a3.13,3.13,0,0,1,2.22,3.32c0,.74,0,1.49,0,2.3,2-.09,2.79-1.71,3.89-2.76a20.42,20.42,0,0,1,7.17-4.66c2.35-.84,4.31-.29,5.48,1.56a6.55,6.55,0,0,1,.76,2.23,16.42,16.42,0,0,1,.18,2.26c2.2.07,3.42-1.25,4.81-2.29a32.29,32.29,0,0,1,5.14-3.45c3.91-1.92,7,.06,7.15,4.45,0,.47-.13.95-.11,1.43a3.17,3.17,0,0,0,.37.91c2.06.07,3.59-1.05,5.07-2.29a29,29,0,0,1,2.54-2.18c2-1.31,3.89-1,5.47,1a20.58,20.58,0,0,1,1.35,2.18c1.06-.57,2-1,3-1.61,1.74-1.12,3.52-1.55,5.37-.35a3,3,0,0,0,2.7.21A16.14,16.14,0,0,1,218,197a1.94,1.94,0,0,1,1.83,2.7,5,5,0,0,1-1,2.13c-2.8,2.8-6.05,4.8-10.18,4.12a5.36,5.36,0,0,0-3.63.51C201.66,208.17,198.33,208.52,195.21,206.07Z"/><path class="cls-2" d="M112.83,203.06c1.4,1.17,2.39,1.95,3.33,2.79,1.54,1.39,3.13,2.74,4.53,4.26a3.33,3.33,0,0,1,.44,4.38,3.28,3.28,0,0,1-4.7.54c-1-.71-1.92-1.67-2.9-2.48-1.71-1.39-3.15-3.18-5.44-3.79-2.46,1.39-4.1,3.61-6.08,5.44a32,32,0,0,1-3.65,3,3.08,3.08,0,0,1-3.61-.1,2.51,2.51,0,0,1-.85-3.71c1.74-2.27,3.6-4.46,5.48-6.63,1-1.2,2.17-2.28,3.51-3.68-1.47-1.31-2.77-2.44-4-3.61-1.76-1.62-3.55-3.21-5.21-4.93a5.67,5.67,0,0,1-1.27-2.5,2.65,2.65,0,0,1,3.23-3,9.27,9.27,0,0,1,2.88,1.6c2.27,1.77,4.44,3.65,6.66,5.47.72.59,1.47,1.14,2.44,1.89,2.32-2.46,4.49-4.75,6.66-7a22.09,22.09,0,0,1,2.38-2.36,3,3,0,0,1,3.95.09,3,3,0,0,1,.6,3.91,48.2,48.2,0,0,1-3.64,5C116.15,199.36,114.64,201,112.83,203.06Z"/><path class="cls-1" d="M106.71,158.43c4.45-5.3,8.46-10.07,12.45-14.84,1.43-1.72,2.72-3.56,4.26-5.18,1.81-1.88,3.53-2.3,4.61-1.44s1.14,2.58-.27,4.77a103.58,103.58,0,0,1-5.94,8.71c-3.27,4.13-6.68,8.17-10.24,12s-5.5,3.89-9.53,1a72.75,72.75,0,0,1-6.41-5,14.31,14.31,0,0,1-2.92-3.73,6.72,6.72,0,0,1-.64-3.21,2.54,2.54,0,0,1,4.09-2.13,14.11,14.11,0,0,1,2.42,2.28C100.85,154.23,103.69,156,106.71,158.43Z"/><path class="cls-1" d="M106.08,106.89a11.23,11.23,0,0,0,1.69-1.18q5.9-6.94,11.73-13.94c1.12-1.35,2.15-2.78,3.31-4.1A9.71,9.71,0,0,1,125,85.8a2.89,2.89,0,0,1,3.17-.12c.71.44.94,1.93.41,3.12a19.91,19.91,0,0,1-1.66,2.9c-1.5,2.26-2.89,4.62-4.6,6.72-3.74,4.57-7.53,9.12-11.52,13.47-2.65,2.9-4.36,3.11-7.59,1a88.37,88.37,0,0,1-8.66-6.8,6.88,6.88,0,0,1-2.5-5c0-1.35.22-2.56,1.56-3.24,1.18-.6,2.16,0,3.12.56a8.68,8.68,0,0,1,1.05,1Z"/></svg>