<svg id="Ebene_1" data-name="Ebene 1" xmlns="http://www.w3.org/2000/svg" viewBox="0 0 520 320"><defs><style>.cls-1{fill:#ee907d;}.cls-2{fill:#1d3753;}.cls-3{fill:#f18875;}</style></defs><path class="cls-1" d="M271.58,127.84a7.24,7.24,0,0,0-.75-.24,9.63,9.63,0,0,1-6.1-4.22c-1.19-1.62-2.29-3.31-3.42-5a18.28,18.28,0,0,1-2.08-4.26c-.63-1.8-1.32-3.57-2-5.35a46.47,46.47,0,0,1-2.14-7.29,2.63,2.63,0,0,1-.06-.48c-.11-2.53-.31-5.07-.3-7.6a31.92,31.92,0,0,1,.55-4.55,39.09,39.09,0,0,1,.77-4c.49-1.84,1.1-3.64,1.68-5.45.48-1.46,1-2.91,1.5-4.35a35.34,35.34,0,0,1,4.51-7.81c1.7-2.37,3.3-4.79,4.77-7.31,1.2-2,2.44-4.09,3.71-6.1a26.15,26.15,0,0,0,2.13-4.43,62.63,62.63,0,0,1,5.94-11.54c1.22-1.86,2.29-3.81,3.49-5.68.91-1.43,1.9-2.8,2.88-4.17.74-1,1.51-2,2.31-3a15.7,15.7,0,0,1,1.83-2c1.32-1.14,2.67-2.24,4.08-3.28a14.87,14.87,0,0,1,4.5-1.93c2-.63,4-1.12,5.94-1.69a61.22,61.22,0,0,1,7-1.52,40,40,0,0,1,8.52-.71c2.06.09,4.1.34,6.15.56,1.47.16,2.94.35,4.39.62a32.26,32.26,0,0,1,3.21.85c3.69,1.12,7.38,2.24,11.06,3.39,1.81.57,3.6,1.23,5.42,1.76s3.57,1,5.38,1.35c1.44.3,2.92.48,4.38.71a19.35,19.35,0,0,1,7.75,3.08,54,54,0,0,1,8.42,7,78.3,78.3,0,0,1,7,7.8c1.64,2.15,3.23,4.33,4.92,6.43,1.33,1.65,2.76,3.21,4.19,4.77a8.71,8.71,0,0,1,2,3.54,62.61,62.61,0,0,1,1.67,9.19.88.88,0,0,0,0,.16,6.76,6.76,0,0,1-.43,4.78c-.18.19-.32.46-.54.56a6.26,6.26,0,0,0-2.13,2.09,4.5,4.5,0,0,0-1,2.61c-.06,1-.19,2-.2,3a3.71,3.71,0,0,1-.86,2.33c-.47.57-1,1.13-1.43,1.7a4.09,4.09,0,0,0-.9,3.42,5.91,5.91,0,0,0,.63,1.78,5,5,0,0,1,.73,2.39c0,.37.14.73.18,1.1a3.59,3.59,0,0,1,0,.68,8.62,8.62,0,0,1-1.24-.57,18.86,18.86,0,0,0-4.45-2,12.1,12.1,0,0,0-3.25-.65,31.38,31.38,0,0,0-10.5,1.32c-2.63.77-5.23,1.66-7.87,2.42-3.5,1-7,1.94-10.54,2.91S346,96.76,342.5,97.69a62.75,62.75,0,0,0-8.56,2.86,31.34,31.34,0,0,0-7.45,4.17c-1.11.89-2.17,1.85-3.23,2.81-3.91,3.57-7.8,7.16-11.72,10.71-1.21,1.1-2.5,2.12-3.79,3.14-.86.69-1.8,1.29-2.67,2-1.38,1.07-2.73,2.19-4.11,3.25a34.42,34.42,0,0,1-7.74,4.29c-1.25.52-2.7.62-3.69,1.7-.09.1-.3.08-.46.1a12.56,12.56,0,0,1-4.73-.16c-.66-.18-1.36-.25-2-.47-2.6-.86-5.27-1.58-7.37-3.51a3,3,0,0,0-3.07-.75A1.65,1.65,0,0,1,271.58,127.84Z"/><path class="cls-2" d="M271.58,127.84a1.65,1.65,0,0,0,.32,0,3,3,0,0,1,3.07.75c2.1,1.93,4.77,2.65,7.37,3.51.65.22,1.35.29,2,.47a12.56,12.56,0,0,0,4.73.16c.16,0,.37,0,.46-.1,1-1.08,2.44-1.18,3.69-1.7A34.42,34.42,0,0,0,301,126.6c1.38-1.06,2.73-2.18,4.11-3.25.87-.68,1.81-1.28,2.67-2,1.29-1,2.58-2,3.79-3.14,3.92-3.55,7.81-7.14,11.72-10.71,1.06-1,2.12-1.92,3.23-2.81a31.34,31.34,0,0,1,7.45-4.17,62.75,62.75,0,0,1,8.56-2.86c3.47-.93,6.93-1.89,10.39-2.84s7-1.9,10.54-2.91c2.64-.76,5.24-1.65,7.87-2.42a31.38,31.38,0,0,1,10.5-1.32,12.1,12.1,0,0,1,3.25.65,18.86,18.86,0,0,1,4.45,2,8.62,8.62,0,0,0,1.24.57,3.59,3.59,0,0,0,0-.68c0-.37-.17-.73-.18-1.1a5,5,0,0,0-.73-2.39,5.91,5.91,0,0,1-.63-1.78,4.09,4.09,0,0,1,.9-3.42c.47-.57,1-1.13,1.43-1.7a3.71,3.71,0,0,0,.86-2.33c0-1,.14-2,.2-3a4.5,4.5,0,0,1,1-2.61,6.26,6.26,0,0,1,2.13-2.09c.22-.1.36-.37.54-.56a9.55,9.55,0,0,0,3.09-.48,3.63,3.63,0,0,0,1.3-.87,13.13,13.13,0,0,0,1.14-1.1A8.41,8.41,0,0,1,407.28,65a9.72,9.72,0,0,1,1.43,0,5.55,5.55,0,0,0,3.79-1.38,11.82,11.82,0,0,1,3.66-2.17c3.57-1.21,6.93-1,10.08,1.32a11.52,11.52,0,0,1,4.16,5.83,3.88,3.88,0,0,1-.46,3.64c-.15.21-.31.41-.48.63.62,1.2,1.2,2.38,1.83,3.54a8.82,8.82,0,0,1,1.1,4.25,5.52,5.52,0,0,0,1.46,3.76c.67.75,1.39,1.44,2.09,2.17.51.54,1.05,1,1.5,1.63a2.09,2.09,0,0,1-.1,2.88,3.1,3.1,0,0,1-2.44,1.3,3.93,3.93,0,0,0-.68.13c0,.57.08,1.08.14,1.59a1.49,1.49,0,0,1-.84,1.57,7.47,7.47,0,0,1-1.16.49c-.55.2-1.1.39-1.66.54a3.7,3.7,0,0,0-2.24,1.88c.14,0,.26.14.32.1a5.91,5.91,0,0,1,3.73-.33.92.92,0,0,1,.8,1.27c-.08.3-.22.59-.32.89-.42,1.2-.83,2.4-1.25,3.59-.11.3-.23.59-.37.88a5,5,0,0,1-4.23,2.91,14.62,14.62,0,0,1-1.75.06l-5.24,0a22.86,22.86,0,0,0-7.95,1.3c-.85.29-1.68.64-2.54.89a3.67,3.67,0,0,0-2.12,1.56c-.26.4-.57.76-.81,1.17a49.91,49.91,0,0,1-4.36,5.85,38.67,38.67,0,0,1-6.35,6q-4.36,3.45-8.85,6.73a123.79,123.79,0,0,1-11.69,7.33c-3.57,2.06-7.16,4.1-10.65,6.29a34,34,0,0,0-8.55,7.27c-.84,1-1.6,2.11-2.38,3.17a7,7,0,0,0-.46.91c1.27.49,2.43,1,3.61,1.38,3.76,1.39,7.52,2.78,11.22,4.34,2.19.92,4.47,1.62,6.7,2.44,5.7,2.09,11.41,4.15,17.09,6.29a45.51,45.51,0,0,1,8.74,4.45l2.14,1.37a8,8,0,0,1,3.38,4.82,33.09,33.09,0,0,1,.92,7.07c.06,1.27.11,2.54.17,3.8a62.43,62.43,0,0,1-.62,12.67c-.2,1.3-.26,2.63-.44,3.94-.22,1.62-.44,3.25-.76,4.85-.86,4.25-1.78,8.48-2.64,12.73-.29,1.4-.45,2.82-.69,4.22-.51,3-1.05,6-1.56,9.07-.16.93-.3,1.88-.4,2.82-.3,3-.66,6-1.18,9-.11.68-.15,1.37-.22,2a18.81,18.81,0,0,1-.88,4.9,13,13,0,0,0,3.14.55c2,.23,4,.43,6,.54,1.37.07,2.75,0,4.12-.06,1,0,2-.07,3-.11,3-.14,4.7,2.2,4.3,5.12a7.59,7.59,0,0,1-4.11,5.7,14.5,14.5,0,0,1-4.06,1.31,23.55,23.55,0,0,1-4.11.3c-2.11.11-4.22.2-6.33.38a11.1,11.1,0,0,0-2.32.52c-2.22.69-4.44,1.37-6.63,2.14a9.85,9.85,0,0,1-6.39-.21,4.31,4.31,0,0,1-2.71-2.93,7.78,7.78,0,0,1-.41-2.49c0-1.69.16-3.38.26-5.06s.22-3.38.34-5.18a8.76,8.76,0,0,0-.92-.4,2.05,2.05,0,0,1-1.45-1.73c-.14-.67-.28-1.34-.4-2q-.93-5.4-1.35-10.86c-.07-.9-.22-1.79-.28-2.68-.24-3.59-.45-7.19-.69-10.78-.16-2.32-.42-4.64-.52-7-.14-3.28-.44-6.55-.31-9.84.14-3.76.24-7.52.37-11.27.06-1.48.06-2.95,0-4.52a11.42,11.42,0,0,0-1.34-.09,38.58,38.58,0,0,1-7.43-.57c-2.4-.36-4.83-.53-7.26-.69a2.79,2.79,0,0,1-2-1c-3.38-3.72-6.78-7.43-10.24-11.08a40.13,40.13,0,0,0-6.9-5.83c-.25-.17-.53-.31-.78-.45-.33.32-.09.53.06.71,1,1.11,1.95,2.23,3,3.32q6.84,7.4,13.71,14.79a6.09,6.09,0,0,0,.65.69,34.47,34.47,0,0,1,6.25,7.77c2,3.11,4,6.2,5.79,9.46a8.67,8.67,0,0,1,.81,6,18.44,18.44,0,0,1-1.75,4.91c-.8,1.6-1.76,3.13-2.66,4.69-.45.78-1,1.52-1.37,2.32a32.66,32.66,0,0,1-3.13,4.77c-4.53,6-9.54,11.61-14.54,17.22-3.21,3.6-6.36,7.25-9.63,10.78-3.06,3.31-6.15,6.58-9.46,9.64-.74.68-1.51,1.32-2.3,1.95a23.45,23.45,0,0,0-3.89,3.95,13.46,13.46,0,0,1-1.25,1.21,8.22,8.22,0,0,0,.88,3.93,37.91,37.91,0,0,0,4.6,7c.68.8,1.26,1.7,1.86,2.56a12.57,12.57,0,0,1,2,5.48,3.63,3.63,0,0,1-2.14,4,5.54,5.54,0,0,1-3.4.49,9.41,9.41,0,0,1-2.87-.86c-1.14-.57-2.25-1.17-3.4-1.71a14.83,14.83,0,0,1-5.64-5c-.92-1.3-1.79-2.63-2.66-4a4.41,4.41,0,0,0-2.24-1.93,4.91,4.91,0,0,1-2.19-1.77,19.06,19.06,0,0,1-1-1.6A5.23,5.23,0,0,1,304,285c.14-.61.22-1.24.35-1.86a8,8,0,0,1,1-2.67c.68-1.07,1.38-2.12,2.09-3.21a.81.81,0,0,0-.09-.24c-1-1.29-1-1.29-.44-2.7.19-.49.41-1,.63-1.45,2.12-4.44,4.2-8.89,6.36-13.3q4.41-9,8.24-18.2a134.18,134.18,0,0,1,6.44-13.61c1.23-2.22,2.46-4.43,3.65-6.68.53-1,1-2.1,1.47-3.22a4.39,4.39,0,0,0-.59-.65,59.28,59.28,0,0,1-9.38-9.22,86.25,86.25,0,0,0-6.84-7.08c-3.14-2.93-6.28-5.85-9.33-8.86a77.86,77.86,0,0,1-10.07-12.25,73.32,73.32,0,0,1-4.71-7.52,31.21,31.21,0,0,1-1.34-3.22c-.37-1-.69-2-1-3A8.2,8.2,0,0,1,290,163c0-.37,0-.74,0-1a5,5,0,0,1-.83-1.21,2.32,2.32,0,0,1,.19-1.22c.89-2.54,1.82-5.07,2.71-7.62s1.77-5.2,2.64-7.8a1.72,1.72,0,0,0,0-.42c-.25,0-.49,0-.73,0-1.42.12-2.85.27-4.27.37a3.88,3.88,0,0,1-2.62-.46c-.4-.56-.15-1.22-.24-1.93a4.82,4.82,0,0,0-.86-.13c-1.1.06-2.22.1-3.32.23a8.6,8.6,0,0,1-4.47-.81,5.9,5.9,0,0,1-2.37-2,15.14,15.14,0,0,1-2.54-5.25,2.27,2.27,0,0,1,0-.78c0-.05.26-.07.4-.11.73,1.39,2.14,2.09,3.21,3.13a3,3,0,0,0,1.28.54c.66.19,1.33.29,2,.47a.55.55,0,0,1,.5.62c-.2.06-.43.22-.64.19-1.08-.19-2.15-.43-3.22-.65l-.37,0,.2.44a4.92,4.92,0,0,0,3.91,2.84,8.53,8.53,0,0,0,1.89.08,19.48,19.48,0,0,1,4.81.13c.31-1.08.65-2.13.91-3.19A16.45,16.45,0,0,0,289,134c-.37.07-.62.09-.86.16a6.22,6.22,0,0,1-2.68.06c-.93-.17-1.86-.37-2.77-.63-3-.86-6-1.7-8.31-4a2.39,2.39,0,0,0-1.94-.59c.62.73,1.15,1.31,1.65,1.93a6.41,6.41,0,0,0,3.08,2.11c1.2.41,2.39.83,3.58,1.27a3.6,3.6,0,0,1,.82.44.48.48,0,0,1,.13.42.49.49,0,0,1-.3.31,1.71,1.71,0,0,1-.78,0c-2.36-.7-4.77-1.3-6.81-2.81-.71-1-1.4-2-2.14-2.91A1.52,1.52,0,0,1,271.58,127.84Zm33.16,33,.29.4a19.35,19.35,0,0,0,.53,2.28c.31.89.76,1.72,1.14,2.58-.07-.28-.19-.55-.27-.82-.42-1.36-.82-2.71-1.23-4.07.15-.13.29-.33.46-.36a3.69,3.69,0,0,1,.94,0,108.24,108.24,0,0,0,12.86.16c2.43-.13,4.86-.36,7.29-.55,1.58-.13,3.16-.26,4.74-.43,2.15-.23,4.32-.4,6.46-.76,2.55-.42,5.08-1,7.61-1.54a31.37,31.37,0,0,0,5.59-1.71,2.65,2.65,0,0,0,1.17-1c.91-1.29,1.8-2.62,2.79-3.85a34.24,34.24,0,0,1,8.64-7.41c3.3-2.1,6.7-4.05,10.1-6a127.46,127.46,0,0,0,14.68-9.41c1.51-1.16,3-2.33,4.55-3.46A50.34,50.34,0,0,0,404,114.08a20.74,20.74,0,0,0,1.68-2.57h-1a18,18,0,0,1-5.75-1,11,11,0,0,1-5.94-5.45,11.53,11.53,0,0,1-1.29-6.92c.17-1.3.38-2.6.59-4-.51-.29-1-.62-1.6-.91-.84-.45-1.68-.9-2.54-1.3-1.3-.59-2.59-1.2-3.92-1.69a8.79,8.79,0,0,0-2.48-.48,29.22,29.22,0,0,0-9.25,1.14c-2.95.81-5.86,1.79-8.8,2.63-3.35,1-6.73,1.83-10.09,2.75l-10.84,3a59.46,59.46,0,0,0-10.7,3.88,26.47,26.47,0,0,0-6.1,4c-2.77,2.46-5.45,5-8.21,7.49-2.56,2.3-5.16,4.56-7.77,6.8-1.32,1.14-2.74,2.17-4,3.33a45,45,0,0,1-5.15,4,30.21,30.21,0,0,1-9.72,4.45c-.46,1.55-.93,3.06-1.36,4.58s-1,3.07-1.31,4.68a12.79,12.79,0,0,0,2.93-.16,29.77,29.77,0,0,0,6.71-1.1,68.4,68.4,0,0,0,19.32-8.2c2.05-1.41,4.13-2.78,6.18-4.18,3.28-2.23,6.62-4.38,10.05-6.37a40.78,40.78,0,0,1,6.85-3.31A67.62,67.62,0,0,1,351,116.55c2.39-.43,4.81-.68,7.21-1.11,2.13-.37,4.27-.7,6.43-.91a33.52,33.52,0,0,0,3.74-.62c2.12-.45,4.23-1,6.34-1.44.12,0,.26.07.51.14a2.15,2.15,0,0,1-1.4,1c-2.11.68-4.22,1.37-6.34,2a5.51,5.51,0,0,1-1.09.16c-1.31.15-2.64.23-3.94.44-3.18.52-6.35,1.09-9.53,1.65-2.18.39-4.38.73-6.54,1.21a36.91,36.91,0,0,0-8,2.58,85.64,85.64,0,0,0-9.47,5.48c-3.37,2.19-6.68,4.48-10,6.69a48.56,48.56,0,0,1-7.76,4.31,72.9,72.9,0,0,1-9.6,3.7l-4.84,1.29a1.91,1.91,0,0,0-.2.31c-1.62,5.36-3.51,10.63-5.43,15.9a5.49,5.49,0,0,0-.14.9c.37,0,.63,0,.9,0,2,.05,4,.08,6,.14,1.48,0,3,.13,4.44.19ZM335,197.51a24.08,24.08,0,0,0-3.61-3.31,60.15,60.15,0,0,1-5.2-4.9l-2.95-3.11-6.39-6.84c-.22-.23-.35-.58-.82-.57,1.6,1.76,3.15,3.49,4.74,5.2,1.37,1.47,2.85,2.84,4.16,4.36,2.95,3.43,6.5,6.2,9.84,9.21,0,0,.1,0,.15,0l1.7,1.64,8.39,8.12,3.06,3a3.56,3.56,0,0,1,.48,1,12.75,12.75,0,0,1-.33,6.25,28.73,28.73,0,0,1-2.39,4.81c-1.28,2.3-2.68,4.53-4,6.83-2.13,3.75-4.22,7.54-6.33,11.31-.72,1.28-1.48,2.55-2.22,3.82-.43.57-1,1-1.17,1.81-.09,0-.23,0-.28.11-.84,1.14-1.74,2.25-2.49,3.45-1.29,2.05-2.47,4.17-3.7,6.25-.27.45-.57.89-.85,1.34-1.19,1.92-2.51,3.76-3.61,5.75-1.27,2.3-2.67,4.53-4,6.79a70.38,70.38,0,0,0-3.76,6.94,9,9,0,0,1-1.75,2.95l-2.81-1.36a9.27,9.27,0,0,0-2.38,3.36,4.58,4.58,0,0,0-.09,4.13,10.17,10.17,0,0,0,3.44,4.07,14,14,0,0,1,2.81,2.78c.5.68,1,1.35,1.51,2a26,26,0,0,0,5.65,6,13.31,13.31,0,0,0,6.25,2.5,4.62,4.62,0,0,0,1.57-.09c.93-.2,1.22-.59,1.27-1.55a7.23,7.23,0,0,0-.92-3.8A22.45,22.45,0,0,0,325.3,294a37.32,37.32,0,0,1-4.4-6.78,8.37,8.37,0,0,1-1-3.95c0-.36,0-.73-.05-1.13-.62-.13-1.17-.31-1.74-.38a18,18,0,0,1-5.47-1.51c-.26-.21-.55-.38-.32-.83.88-1.68,1.69-3.39,2.61-5,1.38-2.49,2.81-5,4.25-7.4,1.22-2.1,2.39-4.23,3.74-6.24,2.24-3.33,4.19-6.83,6.29-10.25.44-.72.91-1.41,1.38-2.12s1-1.48,1.5-2.22a5.71,5.71,0,0,0,1.17-1.8c.59-.13.72-.69,1-1.11,1.15-2,2.28-3.92,3.4-5.89,1.63-2.89,3.22-5.81,4.86-8.69s3.23-5.68,4.91-8.48a12.69,12.69,0,0,0,1.52-8.71,1.56,1.56,0,0,0-.68-1.18c-.49-.54-1-1.11-1.48-1.62-2.21-2.1-4.44-4.18-6.66-6.27ZM393.44,97.42a6.92,6.92,0,0,0-.14.68,11.26,11.26,0,0,0,.49,4.54,9.77,9.77,0,0,0,6.76,6.76,11.51,11.51,0,0,0,1.55.32,9.31,9.31,0,0,0,5.44-.54,37.7,37.7,0,0,1,5.66-2,20.07,20.07,0,0,1,2.77-.59,49.62,49.62,0,0,1,9.2-.19,10.07,10.07,0,0,0,2.51-.21,3.17,3.17,0,0,0,2.33-2c.13-.28.22-.59.33-.89.32-1,.64-1.9,1-2.85a5.3,5.3,0,0,0,.15-.67,3.82,3.82,0,0,0-1,0,6.85,6.85,0,0,0-1.31.55,1.53,1.53,0,0,1-1.78-.08,1.72,1.72,0,0,1-.53-2,3.67,3.67,0,0,1,.53-1,5.91,5.91,0,0,1,3.43-2.39,4.7,4.7,0,0,0,1.87-.75,17,17,0,0,1-.15-3.43c.48.11.88.22,1.28.29a2.55,2.55,0,0,0,2.45-.8c.36-.39.44-.73.11-1.12s-.86-.93-1.3-1.38c-.74-.76-1.51-1.48-2.23-2.26a7,7,0,0,1-1.95-5,5.44,5.44,0,0,0-.43-2.32c-.45-1-.91-2-1.39-3-.09-.21-.31-.35-.46-.51-.6.74-1.08,1.43-1.66,2a5.26,5.26,0,0,1-2.82,1.68c-.19,0-.48.15-.64-.16a6.52,6.52,0,0,0,4.26-4,2.08,2.08,0,0,0-.61.11,19.64,19.64,0,0,1-3.71,1.36,12,12,0,0,0-2.9,1.23c-2.28,1.41-4.08,3.17-4,6.17a3.55,3.55,0,0,1-1.34,2.77A9.87,9.87,0,0,0,414,86.9a4.83,4.83,0,0,0-1.35,3.45c.05,1-.31,2,0,3a.71.71,0,0,1-1,.78,3.71,3.71,0,0,1-.54-.33A6.3,6.3,0,0,1,408.89,91a15.85,15.85,0,0,0-1.25-2.55,4.81,4.81,0,0,0-4.6-2.27A3.2,3.2,0,0,0,399.88,90a18.74,18.74,0,0,0,1,3.34,4.42,4.42,0,0,0,1.78,2.36c1.43.81,2.92,1.27,4.52.42a4.2,4.2,0,0,1,.63-.21c.15.35.23.68,0,.91a3.85,3.85,0,0,1-1.15.8,3.64,3.64,0,0,1-2.64.08,6,6,0,0,1-2.87-1.58,8.25,8.25,0,0,1-1.83-3.62,5,5,0,0,0-.19-.76c-.08-.2.07-.53-.36-.62a2.85,2.85,0,0,0,0,.66,12.52,12.52,0,0,0,.44,1.35,2.54,2.54,0,0,1-.86,3.22,5.26,5.26,0,0,1-3.1,1C394.62,97.44,394.05,97.42,393.44,97.42Zm17.62-5.65a21.79,21.79,0,0,0,.29-2.21,4.79,4.79,0,0,1,1-2.78A13.92,13.92,0,0,1,413.93,85,3,3,0,0,0,415,82.78c0-.41.15-.83.17-1.25a5,5,0,0,1,.85-2.36,10.36,10.36,0,0,1,2.18-2.49,12.32,12.32,0,0,1,5.05-2.54,17.18,17.18,0,0,0,4-1.59,4.38,4.38,0,0,0,1.53-1.34,1.83,1.83,0,0,0,.25-1.94c-.2-.43-.38-.87-.55-1.32a9.5,9.5,0,0,0-5.46-5.2,8.85,8.85,0,0,0-3.76-.34,6.45,6.45,0,0,0-3.33.87A24.42,24.42,0,0,0,413.26,65a7.23,7.23,0,0,1-3.46,1.48c-.67.1-1.37.06-2.06.1a7,7,0,0,0-5.09,2.19,13.13,13.13,0,0,1-1.39,1.3,3.67,3.67,0,0,1-2.29,1,6.7,6.7,0,0,0-1.25.23,4.9,4.9,0,0,0-3.63,4.29c0,.74-.09,1.48-.09,2.22a5.7,5.7,0,0,1-1.57,4c-.36.39-.72.78-1,1.19a2.88,2.88,0,0,0-.34,3.53c.08.14.13.29.22.42a3.81,3.81,0,0,1,.7,2.39,4.51,4.51,0,0,0,1.34,3.45,2,2,0,0,1,.48,2.44,1.67,1.67,0,0,0-.06.44,2.94,2.94,0,0,0,2.16.12,3.2,3.2,0,0,0,1.55-.74.93.93,0,0,0,.35-1.12,10.64,10.64,0,0,1-.47-1.34,5.86,5.86,0,0,1-.18-1.71,7,7,0,0,1,1.19-3.4,5.9,5.9,0,0,1,4.83-2.91,6.23,6.23,0,0,1,5.37,2.55,14.87,14.87,0,0,1,1.27,2.19c.28.56.46,1.17.72,1.75A4.43,4.43,0,0,0,411.06,91.77ZM383.24,259.18c-.07,1.22-.05,2.28-.2,3.32-.25,1.68-.2,3.37-.29,5.06a3.87,3.87,0,0,0,1,2.75,5.05,5.05,0,0,0,3.74,1.79,14.48,14.48,0,0,0,6.85-1,24.31,24.31,0,0,1,7.65-1.87c1.8-.11,3.59-.19,5.38-.29a16.34,16.34,0,0,0,6.87-1.69,7.22,7.22,0,0,0,2.56-2.09,2.71,2.71,0,0,0,.58-1.42,2.81,2.81,0,0,0-3-3,12.61,12.61,0,0,0-2.38.08,26.51,26.51,0,0,1-6.48,0c-1.69-.14-3.37-.29-5.05-.45-1-.1-2-.21-3-.39a4.75,4.75,0,0,1-1.31-.53,3.58,3.58,0,0,1-.66-.45c-2.23,0-4.18.12-6.13.14S385.4,259.18,383.24,259.18Zm-58.62-94.35c-.2,0-.33,0-.38.08a7,7,0,0,0-.73.82c-2.22,3.09-3.42,6.66-4.84,10.13a.93.93,0,0,0,0,.47.36.36,0,0,0,.2.2c.09,0,.25,0,.3,0a2.27,2.27,0,0,0,.46-.62c.41-.92.83-1.83,1.16-2.78a38.92,38.92,0,0,1,2.51-5.64c.39-.69.82-1.36,1.2-2.05A2.22,2.22,0,0,0,324.62,164.83Z"/><path class="cls-3" d="M312.63,280.23l-1-.52a8.87,8.87,0,0,0,1.76-2.95,70.38,70.38,0,0,1,3.76-6.94c1.35-2.26,2.75-4.49,4-6.79,1.1-2,2.42-3.83,3.61-5.75.28-.45.58-.89.85-1.34,1.23-2.08,2.41-4.2,3.7-6.25.75-1.2,1.65-2.31,2.49-3.45.05-.07.19-.08.28-.11h0c-.5.74-1,1.48-1.5,2.22s-.94,1.4-1.38,2.12c-2.1,3.42-4.05,6.92-6.29,10.25-1.35,2-2.52,4.14-3.74,6.24-1.44,2.45-2.87,4.91-4.25,7.4-.92,1.66-1.73,3.37-2.61,5C312.08,279.85,312.37,280,312.63,280.23Z"/><path class="cls-3" d="M348.24,210.26a1.58,1.58,0,0,1,.67,1.18,12.69,12.69,0,0,1-1.52,8.71c-1.68,2.8-3.3,5.64-4.91,8.48s-3.23,5.8-4.86,8.69c-1.12,2-2.25,3.94-3.4,5.89-.25.42-.38,1-1,1.11h0c.74-1.27,1.5-2.54,2.22-3.82,2.11-3.77,4.2-7.56,6.33-11.31,1.3-2.3,2.7-4.53,4-6.83a28.73,28.73,0,0,0,2.39-4.81,12.75,12.75,0,0,0,.33-6.25,3.56,3.56,0,0,0-.48-1l.1-.08Z"/><path class="cls-3" d="M334.87,197.59c-.05,0-.12,0-.15,0-3.34-3-6.89-5.78-9.84-9.21-1.31-1.52-2.79-2.89-4.16-4.36-1.59-1.71-3.14-3.44-4.74-5.2.47,0,.6.34.82.57l6.39,6.84,2.95,3.11a60.15,60.15,0,0,0,5.2,4.9,24.08,24.08,0,0,1,3.61,3.31Z"/><path class="cls-3" d="M305,161.23l.07-.09.1.06c.41,1.36.81,2.71,1.23,4.07.08.27.2.54.27.82-.38-.86-.83-1.69-1.14-2.58A19.35,19.35,0,0,1,305,161.23Z"/><path class="cls-3" d="M302.34,160.65a5.26,5.26,0,0,1,2.4.18Z"/><path class="cls-2" d="M364,127.23a4.15,4.15,0,0,1,.46,0,1,1,0,0,1,.78,1,.86.86,0,0,1-1.09.62.89.89,0,0,1-.71-1.18C363.53,127.5,363.85,127.35,364,127.23Z"/><path class="cls-2" d="M357.52,144.2a.83.83,0,0,1-.82.78,1,1,0,0,1-.82-.84.78.78,0,0,1,.84-.75A.82.82,0,0,1,357.52,144.2Z"/><path class="cls-2" d="M308,147.5a.88.88,0,0,1-.83-.76.81.81,0,0,1,.7-.87.82.82,0,0,1,.91.82A.88.88,0,0,1,308,147.5Z"/><path class="cls-2" d="M384.84,121.51a.79.79,0,0,1,.82.74.82.82,0,0,1-.74.83.86.86,0,0,1-.82-.77A.73.73,0,0,1,384.84,121.51Z"/><path class="cls-2" d="M337.32,110.42a.79.79,0,0,1-.86-.72.85.85,0,0,1,.78-.83.79.79,0,0,1,.76.66A.77.77,0,0,1,337.32,110.42Z"/><path class="cls-2" d="M318.36,118.68a.65.65,0,0,1-.7.65.66.66,0,0,1-.68-.81.67.67,0,0,1,.76-.59A.69.69,0,0,1,318.36,118.68Z"/><path class="cls-2" d="M294.7,135.83a.78.78,0,0,1-.66.86.7.7,0,0,1-.6-.61c0-.38.31-.79.65-.69A1.92,1.92,0,0,1,294.7,135.83Z"/><path class="cls-2" d="M384.21,99.79c-.14.12-.33.39-.57.44a.77.77,0,0,1-.9-.63c0-.28.36-.57.77-.6S384.21,99.26,384.21,99.79Z"/><path class="cls-2" d="M303.44,135.56a.62.62,0,0,1-.72.61.68.68,0,0,1-.59-.76.69.69,0,0,1,.82-.51A.59.59,0,0,1,303.44,135.56Z"/><path class="cls-2" d="M319.8,148.4a.72.72,0,0,1,.74.63.67.67,0,1,1-1.32.15A.69.69,0,0,1,319.8,148.4Z"/><path class="cls-2" d="M300.75,155.48c.48,0,.74.27.73.59a.69.69,0,0,1-.57.63c-.35,0-.77-.37-.65-.68S300.63,155.61,300.75,155.48Z"/><path class="cls-2" d="M320.29,124.32c-.26.24-.4.46-.61.55s-.62-.25-.62-.54.33-.63.62-.53S320,124.1,320.29,124.32Z"/><path class="cls-2" d="M334.21,135.05a2.45,2.45,0,0,1,.34.6c0,.24-.29.53-.48.43s-.38-.31-.36-.42S334,135.32,334.21,135.05Z"/><path class="cls-2" d="M336.32,151.19c.18.31.37.5.38.7a.45.45,0,1,1-.9-.09C335.85,151.61,336.07,151.47,336.32,151.19Z"/><path class="cls-2" d="M422.58,85.06c.06-.46,0-.7.12-.83a17.46,17.46,0,0,1,1.46-1.85c1-1.07,2.07-2.09,3.11-3.13a2.09,2.09,0,0,1,.63-.45.68.68,0,0,1,.58.08.89.89,0,0,1,.31.65,2.5,2.5,0,0,1-.5,1A15.19,15.19,0,0,1,422.58,85.06Z"/><path class="cls-2" d="M402.21,90.13c1.09.13.82,1.05,1.42,1.57.21.07.61.16,1,.32a1.88,1.88,0,0,1,.63.42c.08.08.06.29,0,.43s-.16.2-.22.19a16.23,16.23,0,0,1-1.85-.31,1.33,1.33,0,0,1-1-1.27C402.18,91.07,402.21,90.65,402.21,90.13Z"/><path class="cls-2" d="M429.26,84.58A1.15,1.15,0,0,1,428,85.65a1,1,0,0,1-1-1.18,1.07,1.07,0,0,1,1.11-1.06C429,83.46,429.32,83.84,429.26,84.58Z"/><path class="cls-2" d="M409.85,79.67a9.55,9.55,0,0,1,3.29-2.14,2.59,2.59,0,0,0,1.66-2c.16-.61.28-1.23.46-1.84a5.74,5.74,0,0,1,2.33-3.29c.89-.58,1.81-1.09,2.72-1.63.09,0,.2,0,.29-.1,1.23-.68,2.3-1.47,2.36-3.07a2.09,2.09,0,0,1-.57,2.25,7,7,0,0,1-1.93,1.36c-.88.49-1.76,1-2.59,1.53a5,5,0,0,0-2.1,2.88c-.33,1.21-.75,2.39-1.12,3.58.25.3.49.23.65,0q.46-.73.87-1.5a11.48,11.48,0,0,1,1.94-2.88,1.37,1.37,0,0,1,.63-.34A23.83,23.83,0,0,0,416.1,77a3.74,3.74,0,0,1-1,1.2c-1.76,1.44-3.54,2.84-5.32,4.25,0,0-.09,0-.24-.09a17.1,17.1,0,0,1,1.66-1.64c.6-.52,1.24-1,1.82-1.53s1.33-.79,1.71-1.58A8.64,8.64,0,0,0,410,79.87l.06-.12Z"/><path class="cls-2" d="M403,71.19a4.38,4.38,0,0,1-2.29,3,3.43,3.43,0,0,1-1.05.3,3.59,3.59,0,0,0-3.24,3.14,7.21,7.21,0,0,1-.12.77c0-.2,0-.41,0-.61a3.45,3.45,0,0,1,2.65-3.6,4.62,4.62,0,0,1,.63-.11,3.22,3.22,0,0,0,2.25-1.32C402.22,72.25,402.59,71.71,403,71.19Z"/><path class="cls-2" d="M403.28,75.07c1.07-2,1.44-4.26,3.34-5.63a14.94,14.94,0,0,0-2.29,4.25,3.12,3.12,0,0,1-1.22,1.55,1,1,0,0,1-.75,0Z"/><path class="cls-3" d="M393.78,90.47a5.47,5.47,0,0,0,.27-2C394,87.63,394,86.79,394,86c0-1.33,0-1.39.88-3.08-.16.61-.28.95-.33,1.29a9.63,9.63,0,0,0,0,3.59,2.76,2.76,0,0,1-.37,2.42A2,2,0,0,1,393.78,90.47Z"/><path class="cls-2" d="M395.61,84.65c-.14-1.16.49-2,1.21-3Z"/><path class="cls-3" d="M410,79.87l-.59.52c0-.43.15-.64.49-.72l.16.08Z"/><path class="cls-3" d="M403.77,262.76c-.17.13-.29.28-.39.27s-.2-.18-.24-.3.14-.22.18-.21A2.26,2.26,0,0,1,403.77,262.76Z"/><path class="cls-2" d="M397.66,263.28a1.1,1.1,0,0,1-.12-.33s.2-.14.22-.12a1.86,1.86,0,0,1,.23.32Z"/><path class="cls-3" d="M407,262.45l-.16.23a1.19,1.19,0,0,1-.21-.29s.12-.12.19-.18Z"/><path class="cls-2" d="M316.56,284.5c-.35.06-.67-.18-.62-.42a.74.74,0,0,1,.31-.45.39.39,0,0,1,.54.33A1.79,1.79,0,0,1,316.56,284.5Z"/><path class="cls-2" d="M321.62,294.12c-.39-.05-.58-.34-.46-.61a.69.69,0,0,1,.44-.32c.28,0,.55.27.44.5A1.57,1.57,0,0,1,321.62,294.12Z"/><path class="cls-2" d="M317.34,287.53c-.25-.29-.46-.44-.52-.64s.2-.33.35-.39a.38.38,0,0,1,.51.4A3.14,3.14,0,0,1,317.34,287.53Z"/></svg>