<svg id="Ebene_1" data-name="Ebene 1" xmlns="http://www.w3.org/2000/svg" viewBox="0 0 520 320"><defs><style>.cls-1{fill:#1d3753;}.cls-2{fill:#ee907d;}</style></defs><path class="cls-1" d="M318.34,232.73c.11,2.19.23,4.39.34,6.58-1,3.14-2.75,4.19-5.85,3.5a1.52,1.52,0,0,0-1,.06c-3.32,2.36-4,2.39-7.34.17-3.49,2.06-4.16,1.92-8.18-1.74l-2,.7h-.48c-3.81-1.62-5-5.15-6.3-8.62-.35-1.91-.69-3.81-1-5.72.1-1.15-.48-1.66-1.54-2-2-.69-3.85-1.56-5.77-2.36-2.8-2-6-3.53-8.31-6-5-5.4-9.73-11.12-14.26-16.95-7.17-9.22-10.29-20-11-31.5a68.73,68.73,0,0,1,1-17.77,89.93,89.93,0,0,1,8.68-23.75c3.74-7.15,8-14,13.62-19.84A188.72,188.72,0,0,1,284,93.27c6.16-5.08,12.79-9.59,19.21-14.35a1.25,1.25,0,0,0,.34-2,11.87,11.87,0,0,1-2-8.82,6.13,6.13,0,0,0,0-2.76c-1.2-3.7-.44-7.22.64-10.77a3.21,3.21,0,0,0,0-2c-1.43-3.52-.88-7,1.86-9.59a5.28,5.28,0,0,0,1.62-3.55,14.37,14.37,0,0,1,5.69-9.84C317.19,25,324,24,331.14,24.67c2.63.24,5.23.26,7.76-1.09a8.45,8.45,0,0,1,7.75.18,4.35,4.35,0,0,0,3.67.24,4.07,4.07,0,0,1,1.32-.29A30.09,30.09,0,0,1,373.45,32c4.23,3.84,6.51,8.94,8.09,14.41a15.56,15.56,0,0,1-1.49,12.22,41,41,0,0,1,1.64,4.29A107.79,107.79,0,0,1,385.25,88a2.72,2.72,0,0,0,.92,1.72c2.28,2,4.94,3.73,6.9,6,7.29,8.56,14.51,17.13,20.21,27a169.16,169.16,0,0,1,14.42,30.74c4.88,14.47,7.17,29.07,3.6,44.22-1.75,7.42-4.24,14.41-10,19.72-1.76,1.61-3.49,3.56-6.11,3.71-9.09.51-18.19.82-27.25-.56a2.21,2.21,0,0,0-1.71.89c-2.19,3.17-4.22,6.46-6.43,9.62-1.74,2.5-3.66,4.88-5.49,7.29A38.77,38.77,0,0,1,362.13,226a2.29,2.29,0,0,0-2.89-1.18c-3.95.81-7.9,1.63-11.89,2.17-10,1.35-20,2.84-30.23,1.23l.19.7ZM329.21,51.31q-2.07.49-4.14,1c-2.35.61-4.33,3.42-3.58,5.73a13.1,13.1,0,0,1-.3,8.35,10.22,10.22,0,0,0,.12,7.63c.11.24.1.54-.23,1-.56-.76-1.07-1.57-1.69-2.28a26.57,26.57,0,0,0-3.7-3.86c-1-.75-2.75-1.17-3.53.15a4.81,4.81,0,0,0-.3,3.77c.67,1.62,2,3,3.07,4.44,1.82,2.61,1.87,5.24.08,8.11,1.92,2.13,4,4.2,5.82,6.5q4,5.07,7.66,10.4c3.69,5.34,7.79,10.27,14.44,11.74,10.3,2.3,19.92.6,28.63-5.69,4-2.92,7.75-6.09,9.36-10.92A34.89,34.89,0,0,0,382.87,88a81.14,81.14,0,0,0-2.84-24c-.53-2-.74-4.22-1.69-6A31,31,0,0,0,373.85,52c-1.63-1.83-3.56-3.41-5.57-5.3-2.56,1.49-4.94.27-7.15-2a11.71,11.71,0,0,1-8.79,1.26A10.39,10.39,0,0,1,345,40.43C341.94,47.61,335.77,49.76,329.21,51.31ZM320,64.57a18.45,18.45,0,0,0,0-5.5,6.87,6.87,0,0,1,5.34-8.42,107.9,107.9,0,0,0,10.86-3.31,13.41,13.41,0,0,0,6.85-6.13,25.43,25.43,0,0,1,1.9-2.5c.9,1,1.67,2,2.51,2.85,2.8,3,6.31,3.6,10.16,2.95,1.72-.29,2.88-1.24,3-3.65,1.59,3,3.12,5.52,6.53,4.55.76-.22,1.21-1.53,1.79-2.34a3,3,0,0,1,.54,1,10.12,10.12,0,0,0,4.28,6c2.66,1.89,4.25,4.5,5.57,7.76.69-3.32,2-6.17,1.13-9.42-1.53-5.67-3.69-11-8.07-15.11a30,30,0,0,0-18.51-8.09,12.81,12.81,0,0,0-3.52.43,6.74,6.74,0,0,1-4.63-.41c-2.31-1.17-4.54-1-7,0a17.46,17.46,0,0,1-6.8,1c-5-.15-9.9-.48-14.59,1.6-5.68,2.51-9.77,6.29-10.47,12.91a5.16,5.16,0,0,1-1.64,3c-1.88,1.68-3.23,6.14-1.68,8.45.72,1.06.46,2.11,0,3.34a14.44,14.44,0,0,0-.62,9.34,5.74,5.74,0,0,1,.11,2.3c-.39,3-.25,5.89,1.39,8.56,1.51,2.46,2.95,5,4.44,7.43,1.2,2,2.42,2.52,4,1.83a3.58,3.58,0,0,0,1.75-4.48,26.15,26.15,0,0,0-3.11-5A6.49,6.49,0,0,1,310,69.92c.49-2.2,2.36-3.65,4.49-3A29.68,29.68,0,0,1,319,69.06,34.5,34.5,0,0,0,320,64.57ZM293.4,233.32l.63-.3a11.27,11.27,0,0,1,.93,1.36c1,2,1.8,4.18,2.93,6.12s2.79,3.15,5.25,1.34c-1.24-2.55-3.17-4.85-3.36-7.84l.49-.27c.54.88,1.07,1.75,1.63,2.61a35.3,35.3,0,0,0,3.69,5.46c1.74,1.81,3.15,1.54,5.11-.4a25.19,25.19,0,0,1-5.51-10.07l.56-.33c.78,1.2,1.51,2.43,2.33,3.6a50.4,50.4,0,0,0,4.12,5.57,4.1,4.1,0,0,0,3,.86c1.36-.14,1.8-1.42,1.94-2.68.37-3.27-.61-6.28-1.92-9.21l-1.71-3.93,7.9,2.43c-.62-4.68-4-9-11.15-10.06-1.68-2-3-3.64-4.38-5.24A48.62,48.62,0,0,1,296,192.78a72,72,0,0,1-2.66-21.56,66.16,66.16,0,0,1,3.37-18.88q3-8.51,6.14-16.92a49.35,49.35,0,0,0,2.08-4.88,29.23,29.23,0,0,0-2.72,3.82c-6.46,12.95-10.78,26.53-10.41,41.14.27,10.88,2.65,21.4,8.18,30.94a40.26,40.26,0,0,0,5.82,7.73c3.4,3.55,1.93,6.11-.91,8.21C300,226,294.44,227.74,288,226.31c.73,4.58,1.46,9,4.15,12.72,1.12,1.56,1.87,1.75,3.44,1.06C294.85,237.77,294.13,235.54,293.4,233.32Zm61.91-116c-3.08,0-6.12.18-9.12,0-7.62-.54-13.37-4.48-17.68-10.52-2.93-4.1-5.4-8.51-8.21-12.7-1.7-2.53-3.61-4.93-5.49-7.34a1.81,1.81,0,0,0-1.29-.47,18.75,18.75,0,0,0-2.37.25c1.94,3.42,3.68,6.91,5.81,10.16,5.12,7.83,10.3,15.63,15.69,23.26a46.41,46.41,0,0,0,12.29,11.41Zm11.4-3.15c5.23,3.12,9,7.64,12.53,12.86,3-11.58,6.72-22.59,5.71-34.38C382.53,102.37,379.11,107.12,366.71,114.16ZM365,136.85c1.45-2.48-.7-16-2.36-19C363.42,124.17,364.21,130.46,365,136.85Z"/><path class="cls-2" d="M285,227.38c-.92,4-.27,5.54,2.5,6,1.28,3.47,2.49,7,6.3,8.62.66,11.15,6.38,32.95,10.14,38.07A127.64,127.64,0,0,1,294.28,242l2-.7c4,3.66,4.69,3.8,8.18,1.74,3.3,2.22,4,2.19,7.34-.17a1.52,1.52,0,0,1,1-.06c3.1.69,4.88-.36,5.85-3.5l2.78-.15c.11-.23.2-.33.2-.43,0-1.91,0-3.83,0-6h-3.32c-.35-1.28-.69-2.55-1-3.83a28.22,28.22,0,0,0,4.68.78c4.7,0,9.42-.08,14.11-.36a119.62,119.62,0,0,0,23.35-3.57c1.13-.3,1.57,0,2.13.94a39.75,39.75,0,0,0,11.62,12.05c.84.58,1.42.53,2-.27,3.57-5,7.23-9.91,10.67-15,1-1.41,1.58-2,3.5-1.74,7.55,1.25,15.17.93,22.78.5.8,0,1.6,0,2.4,0l.08.61c-1.62.33-3.24.63-4.84,1-.39.1-1,.49-1,.79-.11,1.28,0,2.56,0,4.06a9.89,9.89,0,0,0,1.61-.72,6.91,6.91,0,0,1,5-1.09c3,.28,6,.52,9,.78a31.61,31.61,0,0,0,13.13,14.54c1.35.82,2.62,1.8,4,2.56a7.52,7.52,0,0,0,3,1.07,3.37,3.37,0,0,0,3.45-4.33,12.44,12.44,0,0,0-2-3.86c-1-1.5-2.24-2.86-3.36-4.29a6,6,0,0,1-.44-1c2,.64,3.77,1.1,5.44,1.73,3.34,1.25,6.63,2.65,10,3.88,1.8.66,3.68,1.28,5.57.16,6,2.4,11.42,5.83,16.8,9.36a14.76,14.76,0,0,1,6.84,12.67,71.83,71.83,0,0,1-1.49,13.43c-.59,3.33-1.82,6.55-2.72,9.83-1.1,4.05-1.87,8.21-3.29,12.14-2.24,6.16-4.91,12.17-7.37,18.26-1.42,3.52-2.83,7-4.13,10.61-1.07,2.93-2.69,5.16-6,5.66-1.82.27-3.64.62-5.47.85-3.27.42-6.55.79-9.83,1.15-1.68.18-3.36.33-5.05.39-3.27.13-6.55.27-9.83.24a2.09,2.09,0,0,1-2.31-2.61c.53-5,.75-10,1.49-15,1-6.39,2.39-12.71,3.47-19.09.86-5.09,1.49-10.21,2.25-15.47-1.39.19-2.54.36-3.69.5-3.51.42-7,1-10.52,1.18-2.68.1-5.38-.48-8.07-.62-5.48-.28-11-.39-16.43-.71-4.1-.23-8.18-.66-12.27-1.05-3.29-.31-6.6-.6-9.88-1-2.78-.38-5.52-1-8.42-1.51,2.18-6.78,4.61-13.15,5.92-19.89a1.38,1.38,0,0,0-.86.74c-.82,2.32-1.58,4.65-2.39,7-2.67,7.66-5.21,15.37-8.09,23-2.63,6.91-5.57,13.7-8.51,20.48-3.33,7.7-5.69,15.73-8.12,23.74-.54,1.8-1.43,2.63-3.42,2.6-3.72-.05-7.45.18-11.18.34a32.21,32.21,0,0,0-5.39.42,12.54,12.54,0,0,1-8.21-1.16,9.57,9.57,0,0,1-5.29-6.1c-3.18-9.58-6.88-19-10.32-28.48-4.38-12.14-8.9-24.24-13-36.47-3-8.8-5.3-17.81-8-26.71a36.53,36.53,0,0,1-1.21-13.44c1.92.8,3.81,1.67,5.77,2.36,1.06.38,1.64.89,1.54,2Zm112.8,7.86a1.12,1.12,0,0,0,.36-.87c-.43-2.48-.92-5-1.45-7.7-4.55,3.34-8.73,6.69-11.78,11.24a1.49,1.49,0,0,0,.08,1.45c1.51,1.34,3.12,2.57,4.87,4l2.2-3.08h0C394,238.59,395.91,236.93,397.8,235.24Zm-63.71,3.29a1.74,1.74,0,0,0,1.08,1.26,16.89,16.89,0,0,1,9.11,4.56,9.76,9.76,0,0,0,4,2.14c3.24,1,5.88-1.63,4.63-4.77a13.52,13.52,0,0,0-3.7-4.91,19.92,19.92,0,0,0-14.71-4.62C334.32,234.36,334.11,236.45,334.09,238.53Zm-10.74.55h8.84l.39-7-9.23.59Zm83.28-9.23a1.11,1.11,0,0,0,.5-.8c.05-1.57,0-3.14,0-4.87-2.68.42-5,.81-7.36,1.15-1.2.17-1.82.64-1.57,2,.39,2.11.66,4.24,1,6.66C401.92,232.5,404.29,231.19,406.63,229.85ZM332.88,253.3c-7,5.59-14.75,10-22.6,14.22-1.09.59-2.34.87-3.46,1.42a6.5,6.5,0,0,0-1.32,1.21c.56.06,1.23.35,1.67.15a83.53,83.53,0,0,0,9.32-4.53c5.74-3.55,11.29-7.4,16.89-11.17A9.71,9.71,0,0,0,334.9,253l-.48-.54A10,10,0,0,0,332.88,253.3Zm25.31-24a3.38,3.38,0,0,0-3,3.37,2.79,2.79,0,0,0,3,2.92,2.91,2.91,0,0,0,3.09-3.24A3,3,0,0,0,358.19,229.35Zm-38,90.3c-4.59-13.28-10.5-26-15.73-39l-.47.16Zm-36.49-92.17a1.46,1.46,0,0,0-.65-1c-1.08-.6-2.23-1.08-3.37-1.62-1.21,4.29-.05,6.32,4.05,7.2C283.69,230.43,283.73,229,283.66,227.48Zm40.62,104.1.41-.15-4-11.21-.45.16ZM389.63,230a7.11,7.11,0,0,0-2.24-.65,6.57,6.57,0,0,0-2.1.86l2.07,1Z"/><path class="cls-1" d="M423.12,223.45c-.26-1.29-.74-2.23-2.35-2.39,8.67-7,10.58-17.15,13.48-27,.66,1.69,1.23,3.22,1.86,4.74,1.51,3.66,3.08,7.31,4.56,11,.48,1.19.39,2.77,1.15,3.68,3.62,4.35,7.55,8.36,13.61,9.16a4.11,4.11,0,0,1,3.51,2.87,24.07,24.07,0,0,0,4.08,8.06,2.56,2.56,0,0,1,.64,1.56,22.43,22.43,0,0,1-.52,3c-1.89,1.12-3.77.5-5.57-.16-3.35-1.23-6.64-2.63-10-3.88-1.67-.63-3.4-1.09-5.44-1.73a6,6,0,0,0,.44,1c1.12,1.43,2.35,2.79,3.36,4.29a12.44,12.44,0,0,1,2,3.86,3.37,3.37,0,0,1-3.45,4.33,7.52,7.52,0,0,1-3-1.07c-1.39-.76-2.66-1.74-4-2.56a31.61,31.61,0,0,1-13.13-14.54C423.92,226.29,423.41,224.89,423.12,223.45Zm19.74,20c1,.66,2.1.83,2.89-.12,1-1.15.64-2.41-.27-3.53l-.41-.64c-1.37-1.92-2.74-3.83-4.09-5.77a3.58,3.58,0,0,1-.42-1.1c-.35-1.24,0-1.92,1.4-1.58,1.86.43,3.77.74,5.57,1.35,4,1.34,7.84,2.87,11.78,4.24a10.11,10.11,0,0,0,2.54.2c-.33-.86-.43-2-1-2.52-2.43-2.26-5-4.37-7.58-6.5-.15-.13-.63.13-1,.2l-.14-.12a7.32,7.32,0,0,0-1-1.91c-3.31-3.32-6.69-6.58-10-9.85-3.43,6.52-9.92,5.88-16.35,6,2.32,9.69,9.05,15.67,16.74,20.9l.63.43Zm8.73-20.31,7.12,5.64C457.49,224.66,456.45,223.84,451.59,223.15Z"/><path class="cls-1" d="M345,82.08a7.67,7.67,0,0,0,6,6.19,19.62,19.62,0,0,0,9.95-.22,13.81,13.81,0,0,1,9.43.77,21.08,21.08,0,0,0,5.2,1.51c3,.43,5.23-1.15,6.22-4.32a6,6,0,0,1-6.35.11c-1.87-1.06-3.62-2.33-5.49-3.55,2.21-2.43,2-5.3.88-8.15a52,52,0,0,0-3.37-6.66l1.23,6.79c.06.34.15.67.22,1,.83,4-.55,5.46-4.6,4.75-1.12-.2-2.27-.19-3.38-.38-2.82-.48-3.74-1.4-4.33-4.19-2.54,1.58-2,4.17,1.34,7C352,84.78,347.82,85.75,345,82.08Z"/><path class="cls-1" d="M368.24,94c0-2.34-1.43-4.16-3.33-4.15a3.17,3.17,0,0,0-3.2,3.26,4,4,0,0,0,3.66,4C367.14,97.08,368.21,95.93,368.24,94Z"/><path class="cls-1" d="M341.44,58.41a2.4,2.4,0,0,0,.61.07c3.37-1.09,6.75-2.17,10.1-3.3,1.19-.41,2.3-1.11,1.73-2.59s-1.84-1.13-3-.76a22,22,0,0,0-8.5,5.4A9.44,9.44,0,0,0,341.44,58.41Z"/><path class="cls-1" d="M374.38,55.26c-1.11-.94-2.09-2.18-3.36-2.76a31.08,31.08,0,0,0-6.42-2c-.59-.12-1.4.77-2.11,1.2.46.68.79,1.82,1.39,2,3.29.93,6.65,1.62,10,2.39Z"/><path class="cls-1" d="M373.8,101.22c-5.38,5.67-14,7.87-19.56,2.91a5.82,5.82,0,0,0,3.72,3.63c5.27,1.77,9.81.25,13.84-3.24C372.73,103.71,374,103.05,373.8,101.22Z"/><path class="cls-1" d="M369,56.63c-.94,1.16-1.85,1.8-2,2.59a1.72,1.72,0,0,0,1.73,2.07c.94.07,2.32-1.29,2.07-2.25C370.61,58.32,369.87,57.75,369,56.63Z"/><path class="cls-1" d="M347.19,64.06c.84-1.19,1.81-2,1.68-2.5-.18-.74-1.16-1.28-1.81-1.9-.57.6-1.58,1.19-1.59,1.8S346.35,62.87,347.19,64.06Z"/><path class="cls-1" d="M362.39,98.13c1.76,1.8,5.45,1.35,6.51-.89-2,1.61-4.26,1.54-6.54.92Z"/><path class="cls-1" d="M362.36,98.16l-.05-.07.08,0Z"/><path class="cls-1" d="M342.8,33.86c-.36.58-.57.89-.74,1.21a8.11,8.11,0,0,1-8,4.71c-3.26-.07-6,.91-7.86,4-1.46,2.41-4.27,3.15-7,3.63,2.34,1,6.44-.05,8.1-2.71,1.83-2.92,4.43-3.52,7.4-3.53,2.77,0,5.15-.69,6.87-3A5.06,5.06,0,0,0,342.8,33.86Z"/><path class="cls-1" d="M335.34,35.41c-1.86.3-3.82.73-5.8.91-3,.27-5.61,1.22-7.53,3.69a10.85,10.85,0,0,1-5.74,3.44l-1.4.44a7.59,7.59,0,0,0,7.48-2.24c2.21-2.8,5.09-3.82,8.47-4A5.28,5.28,0,0,0,335.34,35.41Z"/><path class="cls-1" d="M362.94,34.08c1.4.58,2.67,1.05,3.88,1.62a4.22,4.22,0,0,1,2.8,3.69c.17,2.07,1.59,3.29,3.49,4a6.91,6.91,0,0,0,2.56.53c-.82-.55-1.61-1.16-2.47-1.63a4.46,4.46,0,0,1-2.37-3.48c-.45-2.82-4-5.39-6.91-5.13A4,4,0,0,0,362.94,34.08Z"/><path class="cls-1" d="M312.51,42.3l8-5.2C319.08,36.44,314.58,39.3,312.51,42.3Z"/><path class="cls-1" d="M317.42,62.15c-.44-1-.94-1.94-1.28-2.95-.39-1.19-.64-2.43-.94-3.6-1.29,1.32-.57,3.82,2.05,6.71Z"/><path class="cls-1" d="M378.59,46c0-2.05-2.7-5.51-4.48-5.75Z"/><path class="cls-1" d="M353.74,37c1,2.68,3.45,4.09,4.72,3.17l-4.69-3.13Z"/><path class="cls-1" d="M355.88,32.66c.06,2,.37,3.47,2.22,4.62Z"/><path class="cls-1" d="M317.25,62.31l.12.47.15,0c0-.21-.07-.41-.11-.61Z"/><polygon class="cls-1" points="353.77 37.06 353.78 36.98 353.74 37.02 353.77 37.06"/><path class="cls-2" d="M389.37,237.41l.4-.14,2.8,1.09-.5,1.9h0a13.5,13.5,0,0,1-1.64,1.11c-.42.22-1.09.49-1.38.31-1.36-.86-2.63-1.87-4.06-2.92.86-1.07,1.51-2,2.28-2.79.28-.28,1-.52,1.24-.36a4.87,4.87,0,0,1,1,1.43Zm-.68.61-.44.12-.31.37-.66.72.28.22.55-.75.36-.34A4,4,0,0,0,388.69,238Z"/><path class="cls-1" d="M441.64,239.09a2.07,2.07,0,0,1,3.15.35l.38.62c.47,2.24.09,2.81-2,3l-.77-.23-.56-.45C440.91,241.35,440.54,240.09,441.64,239.09Zm2.66,2.18c-.19-.57-.56-1.34-1-1.47s-1,.56-1.52.88l1.51,1.81C443.79,241.89,444.37,241.47,444.3,241.27Z"/><path class="cls-1" d="M452.14,227.57l-.29.52.19.1.24-.5Z"/></svg>