<svg id="Ebene_1" data-name="Ebene 1" xmlns="http://www.w3.org/2000/svg" viewBox="0 0 520 320"><defs><style>.cls-1{fill:#ee907d;}.cls-2{fill:#1d3753;}</style></defs><path class="cls-1" d="M398.36,331.88a2.28,2.28,0,0,0,.51.16c9,0,17.94.18,26.91,0,10.09-.2,20.17-.87,30.26-1,9.67-.16,19.34,0,29,.19,4.21.08,8.41.58,12.61.87,2.92.21,5.84.32,8.75.58,2.61.23,5.2.67,7.81.88,2.11.17,4.33-.23,6.33.29,1.46.37,2-.26,2.69-1,.23-.24.53-.66.46-.9-1.17-4,.85-7.59,1.4-11.36.41-2.87,1-5.72,1.41-8.58Q527.3,307,528,302c.15-1,.25-2.06.34-3.1.21-2.56.46-5.13.59-7.7.15-3,.16-6,.28-8.95.18-4.93.31-9.86.64-14.77.23-3.39.81-6.75,1.17-10.13.34-3.19.55-6.39.88-9.58.37-3.54,1-7.05,1.19-10.59.2-3.17.06-6.36,0-9.54a1.57,1.57,0,0,0-1-1.12c-4.51-1.37-9-2.9-13.58-3.92-7.88-1.76-15.83-3.19-23.75-4.74a24.41,24.41,0,0,0-3.69-.5,2.13,2.13,0,0,0-1.45.73c-3.89,4.42-7.83,8.8-11.58,13.34-5.15,6.23-10.19,12.55-15.2,18.89-3.89,4.93-7.64,10-11.51,14.91-4,5.14-8.12,10.24-12.19,15.35q-4.83,6.09-9.68,12.18-5.94,7.43-11.89,14.82-4.91,6.13-9.79,12.28l-9.05,11.34C398.63,331.42,398.52,331.63,398.36,331.88Z"/><path class="cls-2" d="M314.45,273.8c-.09-.33-.23-.64-.35-1-.69-4.95-1.5-9.89-2-14.85-.56-5.39-.65-10.83-1.31-16.2-.49-4.06-1.55-8.05-2.39-12.06a1.68,1.68,0,0,0-.5-.9c-1.62-1.35-3.28-2.66-5.23-4.23-.14,1.63-.28,2.88-.36,4.14-.28,4.32-.31,8.68-.88,13s-1.62,8.4-2.61,12.56c-1.45,6.14-3,12.26-4.59,18.37a56.25,56.25,0,0,1-1.8,5.51c-.13.35-.73.53-1.11.8l-.33-.35a14.08,14.08,0,0,1,.19-1.59c.4-1.67.86-3.34,1.27-5,1.29-5.23,2.56-10.47,3.85-15.69,2-8,3.69-16,4.09-24.31.12-2.57.52-5.13.74-7.7a1.59,1.59,0,0,0-.43-1.14c-.71-.67-1.54-1.22-2.3-1.86-4.4-3.65-8.89-7.2-13.13-11-3.11-2.81-5.91-6-8.79-9-1.87-2-3.65-4.06-5.64-6.29a5.14,5.14,0,0,0-.05.94c.7,3.77,1.47,7.53,2.09,11.31.77,4.62,1.5,9.25,2.08,13.89.53,4.21.83,8.44,1.22,12.67.23,2.49.5,5,.63,7.49.16,2.93.27,5.88.26,8.82,0,5.39-.07,10.8-.28,16.19a80,80,0,0,1-.95,8c-.23,1.74-.53,3.48-.89,5.2-.09.43-.54.78-.83,1.17a4,4,0,0,1-.56-1.41c0-1.95.18-3.89.32-5.83.39-5.53,1-11.06,1.15-16.6a251.07,251.07,0,0,0-1.79-33.57c-.52-4.56-1.41-9.08-2.08-13.62s-1.4-8.84-1.79-13.28a17.2,17.2,0,0,0-2.82-8.14,45,45,0,0,1-3.25-7.12c-.49-1.15-.79-2.39-1.19-3.6-1.36.27-2.64.6-3.93.76-1.52.18-1.78-.17-1.51-1.64a10.7,10.7,0,0,0,.29-1.58c.13-3.1.13-6.2.36-9.29s.56-6.43,1.08-9.61c.59-3.69,1.55-7.32,2.15-11,1-6,1.94-12,2.71-18.06a99.84,99.84,0,0,1,4.28-20c1.94-5.64,4.15-11.2,6.43-16.71a94.13,94.13,0,0,1,4.95-10.39c2.09-3.71,5.22-6.61,8.38-9.46a72.66,72.66,0,0,1,12.45-9.15q7.39-4.26,15-8.2c3.92-2,7.93-4,12.58-3.56a1.25,1.25,0,0,0,.89-.4,12.31,12.31,0,0,0,1.65-2.1Q332,43.26,334,39.38c1.8-3.51,3.76-6.87,7.26-9a1.59,1.59,0,0,0,.6-.79A27.75,27.75,0,0,0,343,25.84c.56-3.09,3.43-4.2,5.23-6.22A5.81,5.81,0,0,1,350.91,18c2.6-.64,5.08.11,7.5,1,1.49.57,2.72,1.5,4.64,1.08a20.11,20.11,0,0,1,7.83-.36c3.43.64,6.65,2.35,10.07,3.17a13.94,13.94,0,0,1,7.55,4.57,21.18,21.18,0,0,1,5.37,13c.05.8-.31,1.94.76,2.39,3.52,1.46,7.12,2.71,10.57,4.31a139.1,139.1,0,0,1,13.68,6.92,45.11,45.11,0,0,1,7.81,6.64,72.54,72.54,0,0,1,6.19,7,3.58,3.58,0,0,1,.28,4.26,17.9,17.9,0,0,1-4,4.57,88.88,88.88,0,0,1-11.35,7.08C413,86.06,408,87.94,403,89.91a90.71,90.71,0,0,1-15.49,4.78c-.34.07-.77.91-.75,1.37a20.59,20.59,0,0,0,.57,3c-1.75.47-3.32,1-4.93,1.32-2.68.54-5.43.8-8.09,1.43-2.92.69-5.8,1.62-8.67,2.54a94.8,94.8,0,0,0-9.78,3.37,39.59,39.59,0,0,0-15.22,11.18A41.27,41.27,0,0,0,334,130.71c-1.07,2.95-1.66,6.08-2.64,9.08-1.41,4.35-2.89,8.69-4.51,13-1.31,3.48-3,6.83-4.29,10.33-.58,1.62-2.4,2.9-1.59,5a7.75,7.75,0,0,1,.32,1.26c.8,4.24,1.49,8.5,2.41,12.71.76,3.52,1.75,7,2.73,10.45.59,2.06,1.17,4.13,3,5.58a58.83,58.83,0,0,1,5,4.37c3.78,3.76,4.58,8.72,5.19,13.7a9.55,9.55,0,0,0,1.09,4.33c1.08,1.71,2.52,3.37,2.48,5.52-.08,5.7-.22,11.42-.55,17.12-.22,3.79-.81,7.57-1.23,11.35-.25,2-.45,3.93-.76,5.88-.86,5.53-1.77,11-2.65,16.57-.31,1.92-.58,3.85-.86,5.78l-2,2.21-.38-.25c.84-4.77,1.82-9.51,2.5-14.31.85-6,1.49-12,2.15-18s1.4-11.81,1.8-17.74c.31-4.8.76-9.71-2.44-14-.63-.85-.91-1.8-2.23-1.76-.36,0-.75-.43-1.12-.69-2.15-1.51-4.2-3.18-6.46-4.51-3.2-1.9-6.55-3.66-8.41-7-3.44-6.29-7-12.56-9.95-19.07-2.9-6.3-5.17-12.88-7.68-19.35-.34-.9-.68-1.1-1.64-.81-2.72.82-5.48,1.49-8.23,2.21-4.68,1.21-9.37,2.38-14,3.62-2.18.58-4.33,1.28-6.64,2a79.68,79.68,0,0,0,15.52,18.4c3.92,3.48,8,6.76,12,10.14,4.47,3.77,8.92,7.55,13.41,11.3,3.25,2.71,5.85,5.86,7,10,1.95,6.93,2.26,14.07,2.66,21.19.33,5.88.46,11.77.79,17.65.54,9.37,1.16,18.73,1.75,28.1l-.41,0c-.33-4.21-.71-8.41-1-12.62-.23-3.64-.29-7.29-.5-10.93-.39-6.67-.78-13.34-1.28-20-.47-6.32-.9-12.65-1.7-18.93-.52-4.12-1.77-8.14-4.81-11.24-1.71-1.73-3.6-3.3-5.45-4.89-5.54-4.74-11-9.64-16.69-14.15a102.18,102.18,0,0,1-17.49-17.41c-1.62-2.07-3-4.32-4.46-6.44l-8,1.49A9.54,9.54,0,0,0,264,178c1.48,5.62,4.46,10.48,7.93,15a101.27,101.27,0,0,0,8.12,9.21c3.8,3.9,7.63,7.81,11.77,11.34,5.63,4.79,11.58,9.2,17.37,13.81a2.77,2.77,0,0,1,.95,1.28,40.83,40.83,0,0,1,1.6,6.07c.9,6.82,1.6,13.67,2.44,20.49.65,5.25,1.21,10.51,2.16,15.7,1.44,7.81,3.15,15.56,4.85,23.32.26,1.18.51,2-1,2.28ZM378.92,90.56a82.66,82.66,0,0,0,4.43-7.37c1.91-4.09,2.64-8.55,3.4-13s1.68-8.72,2.51-13.09a2.44,2.44,0,0,0-2.86-2.72,5.29,5.29,0,0,1-1.9.26,7.3,7.3,0,0,1-1.87-.9c.36-.5.71-1,1.05-1.49-3.66-2.34-7.55-4.84-11.45-7.32a1.19,1.19,0,0,0-.81-.18c-3.08.78-6.18,1.52-9.23,2.41a16.35,16.35,0,0,0-8.88,6.06c-1.54,2.09-2,4.54-2.44,7a18.64,18.64,0,0,1-4.94,9.72,1.51,1.51,0,0,0-.39,1.14c1.54,9.3,5.21,17.84,9.37,26.21L362,93c-.37-.3-.87-.72-1.39-1.13a16.87,16.87,0,0,1-4.79-6,3.83,3.83,0,0,1-.19-1.14l0,0c1.7,1.81,3.37,3.67,5.12,5.44,3.8,3.84,8.37,4.38,13.3,2.83a37.39,37.39,0,0,0,4.05-1.81l.25-.2Zm9.93-22.69-.27,0c-.29,1.65-.57,3.31-.88,5.14l5.71-2.75c-2.8-3.61-1.61-7.63-1.29-11.55.13-1.6.2-1.6-1.67-2.25,0,4.15-1.84,8.07-1,12.26l-.31.32ZM365.21,42.23l1-.81a31,31,0,0,0-4.24-.16c-.67.07-1.24.83-1.92,1.14-2.75,1.25-5.57,2.35-8.28,3.68-2,1-3.85,2.24-5.77,3.35a6.62,6.62,0,0,1-1.16.4,9.37,9.37,0,0,1,2-1.86c3.2-1.61,6.46-3.08,9.71-4.59a20.77,20.77,0,0,0,3.89-2.09c-1,.09-2.06.16-3.08.28-3.76.42-7.41.31-10.56-2.15-1.7-1.32-1.89-2.31-1.2-4L342,31.64A26.92,26.92,0,0,0,336,39.79c-.94,1.92-1.75,3.92-2.79,5.79-.86,1.55-2,3-3.23,4.8a20,20,0,0,0,2.34-.84c3.15-1.6,6.29-3.24,9.43-4.87l.25.24L331.9,50.59,340,56.43c.45.87.84,1.76,1.35,2.59a27.08,27.08,0,0,1,3.6,9.26,1.82,1.82,0,0,0,.26.49c1.7-3.14,3.32-6.19,3.82-9.73,1.16-8.19,6.59-12.29,14-14.33,2.14-.59,4.37-.86,6.74-1.31-1.05-.68-2-1.26-2.85-1.85l-1.57.87ZM364.08,25l0,.13.34,0c1.12,1.26,2,2.87,3.38,3.73,4.73,3,9.57,5.78,14.46,8.48,3.09,1.7,6.36,3.09,9.54,4.62l.39-.28c-.42-2.2-.83-4.41-1.29-6.84-3.32,2.29-6.42,1.36-9.55.08-1.78-.73-3.61-1.35-5.42-2l.14-.44c1.66.53,3.32,1.11,5,1.59a34.8,34.8,0,0,0,5.62,1.35c1.19.12,2.45-.46,3.92-.77-2-4.45-4.53-7.85-9-9.37-2.64-.91-5.36-1.61-7.95-2.62a17.42,17.42,0,0,0-11.42-.51,3.28,3.28,0,0,0,2.55,2.29c3.58,1.24,7.05,2.78,10.58,4.15s7.33,3,11.44,2.21l.16.13c-1.09,1.42-2.58.82-3.88.64-4-.55-7.64-2.17-11.3-3.77-2.4-1.05-4.95-1.76-7.43-2.62ZM305.32,76.38c-3.12,6.79-6,13.7-8.85,20.6a57.94,57.94,0,0,0-1.92,6.12c-.51,1.74-.24,2.46,1.38,3.29,1.95,1,4,1.89,6.05,2.88-.51,4.75-1,9.6-1.56,14.45-.59,5.26-1.45,10.5-1.8,15.78a45.42,45.42,0,0,0,2.37,17c2.33,7.25,4.89,14.42,7.29,21.65,3.25,9.78,8.23,18.71,13.32,27.59,1.66,2.91,4.39,4.75,7.32,6.24a22.59,22.59,0,0,1,7.07,4.95,7.08,7.08,0,0,0,2.1,1.16l.31-.38c-1.36-1.78-2.64-3.64-4.12-5.32s-3.84-2.45-4.72-4.89a5.55,5.55,0,0,1,1.09.45c2.69,1.75,5.3,3.59,6.91,6.5a4,4,0,0,0,.57.67l.25.27v-.49c-1.17-4-4.24-6.8-7.06-9.72l.56-.53,4.58,3.81a9.69,9.69,0,0,0-3.3-5.18c-1.82-1.64-3.94-3-5.43-4.92a15.52,15.52,0,0,1-2.66-5.75c-1.71-6.72-3.43-13.46-4.64-20.28-1.05-5.88-1.49-11.88-2.06-17.85-.43-4.47-.63-9-.95-13.45s.83-8.63,1.94-12.83c1-3.75,2.24-7.44,3.35-11.16.23-.76.39-1.54.57-2.26,1.84,0,3.73-.05,5.61,0,1,0,1.41-.25,1.56-1.37,1.1-8.18,2.33-16.33,3.45-24.5.77-5.6,1.57-11.19,2.1-16.81a45.32,45.32,0,0,0-.29-8.62c-1.21,16.93-5,33.5-6.35,50.37a89.88,89.88,0,0,1-19-3.91c-4.62-1.41-9.18-3-13.77-4.5-1-.33-1.21-.88-.92-1.93a121.63,121.63,0,0,1,6.91-18.33c2-4.35,3.95-8.72,6-13.06.52-1.12,1.17-2.19,1.75-3.28l.17-.3-.32.15C308.48,71.24,306.57,73.66,305.32,76.38Zm48.53-52.15.48-1.56A3.68,3.68,0,0,1,357,26.05c-.21,1.92-1.74,3-4.27,3a22.22,22.22,0,0,1,1.67,1.9A15.78,15.78,0,0,1,356,33.81c1,2.35-1.12,3.64-2.82,3.93-.82.14-2.48-1.25-2.6-2.12,0-.19.18-.57.29-.58s.65.09.75.27c.66,1.2,1.43.72,2.24.24,1-.61.56-1.49.22-2.09a21.82,21.82,0,0,0-2.05-2.7,12.8,12.8,0,0,0-5.41,6.29c2.4,2.72,5.64,3.07,9,2.92,1.94-.09,3.87-.42,5.81-.6,3.88-.36,7.17,1.19,10.39,3.15,7.28,4.45,14.7,8.66,21.89,13.25,3.77,2.41,7.15,5.43,10.74,8.13,2.35,1.77,4.76,3.46,7.15,5.18.43.31.88.59,1.32.89l-.2.42a38,38,0,0,1-4.61-2,4.67,4.67,0,0,0-4.95-.23c-5,2.39-10.22,4.51-15.32,6.78a2,2,0,0,0-.75,1.14c-1.66,4.74-1.49,9.63-1.14,14.54.05.69.12,1.38.21,2.38,3.16-.85,6.25-1.56,9.27-2.53A138.1,138.1,0,0,0,419.55,80.4c4-2.17,8-4.33,11.08-7.85a12,12,0,0,0,1.28-1.65,1.69,1.69,0,0,0-.16-2.29c-4-4.3-7.69-9-12.8-12.15a130,130,0,0,0-13.43-7.17c-5.86-2.65-12-4.68-17.86-7.32-4.36-1.95-8.5-4.4-12.7-6.69-2.45-1.34-4.87-2.75-7.25-4.21a17.34,17.34,0,0,1-6.09-6.49,10.44,10.44,0,0,0-10.29-4.75c-.45.1-.92.78-1.13,1.3a4.54,4.54,0,0,0,3.1,6.22c1.06.3,1.94-.72,2.05-2.37Zm49.87,41.7-10.05-8c0,4.32-.93,8.21.33,12.15ZM347.6,26.47a11.14,11.14,0,0,0,.84,1.23c1.49,2,1.5,2,4.11,1.29-2.28-1.88-4.61-3.68-4.51-7.08A4.21,4.21,0,0,0,347.6,26.47ZM345.68,24l-.52-.07c-.2.82-.76,1.77-.52,2.43A18.15,18.15,0,0,0,347,30.65c.7,1,1.24.87,2.32,0C347.46,28.81,345.42,27.07,345.68,24Zm1.42,8.87c-1.3-1.69-2.53-3.28-3.64-4.74-.54,2.39.37,4.36,2.91,5.74C346.71,33.45,347,33.05,347.1,32.91Zm-8.35,182.83s-.06-.06-.09-.1-.09.08-.09.11.06.07.1.1S338.75,215.78,338.75,215.74Z"/><path class="cls-1" d="M472.55,235.17q-13.69-3-27.31-5.92a9.87,9.87,0,0,0-2.52-.3,3,3,0,0,0-1.83.64c-3.6,3.4-7.06,6.95-10.69,10.31-6.52,6-13.15,12-19.7,18-3.54,3.25-7,6.6-10.52,9.86-6.12,5.66-12.28,11.28-18.4,16.95-4.95,4.59-9.85,9.23-14.78,13.84-7,6.51-14,13-20.94,19.54-4.65,4.4-9.2,8.92-13.79,13.39a1.44,1.44,0,0,0-.24.3c3.65,0,7.31,0,11,0,3.3,0,6.61-.24,9.92-.21,13.83.11,27.67.2,41.51.5,2.14.05,3.13-.77,4.28-2.28,3.87-5.14,7.91-10.16,11.86-15.24,3.79-4.88,7.52-9.81,11.34-14.68,4.52-5.77,9.12-11.47,13.64-17.24,3.88-4.94,7.7-9.92,11.56-14.88,4.65-6,9.28-11.95,14-17.89,3.8-4.8,7.7-9.54,11.55-14.32A.81.81,0,0,0,472.55,235.17Z"/><path class="cls-1" d="M421.59,245.38c-1.79-.27-3.41-.47-5-.78-5.23-1-10.46-2.09-15.68-3.15-2.19-.44-4.37-1.06-6.58-1.33a3.94,3.94,0,0,0-2.68.86c-4.3,3.56-8.46,7.3-12.76,10.86q-9.22,7.66-18.56,15.15c-7,5.61-14.06,11.12-21.06,16.71q-16.06,12.85-32.09,25.78Q294.26,319.9,281.4,330.4c-.37.3-.69.65-1.25,1.19,2.14,0,4,.06,5.75,0,1.17-.05,2.33-.34,3.51-.47a49.38,49.38,0,0,1,5.13-.47c2.18,0,4.36.22,6.54.36.49,0,1,.18,1.47.18a52.2,52.2,0,0,1,12.15,1.14,12.22,12.22,0,0,0,2.84,0c3.46,0,6.92.08,10.38,0a3.86,3.86,0,0,0,2.35-1c3.19-3.08,6.25-6.3,9.43-9.39,2.61-2.54,5.34-4.94,8-7.43,1.08-1,2.1-2.08,3.16-3.11,3.14-3.07,6.25-6.18,9.44-9.19,3.69-3.49,7.49-6.86,11.2-10.34,4.35-4.08,8.62-8.25,13-12.33,3.47-3.25,7-6.39,10.53-9.63,2.43-2.26,4.76-4.64,7.21-6.9,3.31-3.07,6.69-6.08,10.05-9.1,2.84-2.56,5.69-5.09,8.53-7.64A12.17,12.17,0,0,0,421.59,245.38Z"/><path class="cls-1" d="M320.15,296.54l-5.7-22.74c-.09-.33-.23-.64-.35-1-3.48,2.4-7,4.79-10.45,7.2l-33.37,23.23c-6.18,4.3-12.21,8.83-18.55,12.86a40.91,40.91,0,0,0-8.9,7.19,61.63,61.63,0,0,0-4.58,6.57,1.26,1.26,0,0,0-.22.85,7,7,0,0,0,.48,1.3,3.86,3.86,0,0,0,1.12-.6c.61-.63,1.13-1.36,1.91-2.33.81,2.33,2.35,2.24,4.27,2.11,3.22-.21,6.48.16,9.72.18,6.51,0,13,0,19.7.3-1.66,1.34-3.37,2.64-5,4.05a11.29,11.29,0,0,0-1.45,2,7,7,0,0,0,2.42-.67c2.08-1.58,4-3.32,6-5,6.42-5.34,12.82-10.7,19.25-16Q308.31,306.26,320.15,296.54Z"/><path class="cls-1" d="M341.43,254.46c-.25,2-.45,3.93-.76,5.88-.86,5.53-1.77,11-2.65,16.57-.31,1.92-.58,3.85-.86,5.78,1.91-1.42,3.86-2.81,5.74-4.27q9.71-7.53,19.36-15.11c2.5-2,5-4,7.66-6.2-1.7-.5-3.19-1-4.7-1.37q-8.22-2.13-16.46-4.17a3,3,0,0,0-1.85.23c-1.66.8-3.25,1.74-4.88,2.61A1.47,1.47,0,0,1,341.43,254.46Z"/><path class="cls-2" d="M293.16,172.06c-.39,1.29-.69,2.61-1.19,3.85-1.76,4.33-3.55,8.63-5.41,12.91-.31.7-.54,1.3.21,1.6a1.66,1.66,0,0,0,1.4-.62,35.2,35.2,0,0,0,5.19-11.67,43.25,43.25,0,0,0,.86-4.37,4.69,4.69,0,0,0-.43-1.68Z"/><path class="cls-2" d="M365.68,79.22l6-5.15c2.21,3.76,5.45,6.15,9.45,4.21.34,1.53.67,3,1,4.56l.46-.07c-.7-5.81.48-11.72-1-17.48h-.41c-.07.92-.2,1.83-.21,2.76,0,2.2,0,4.4,0,6.61a2.52,2.52,0,0,1-1.34,2.62,3,3,0,0,1-3.38-.31c-.66-.53-1.55-.91-2-1.58a14.63,14.63,0,0,1-1-3.1C371,72.16,366.81,75.84,365.68,79.22Z"/><path class="cls-2" d="M375.37,90.83c-2.16-1-3.36-3.21-5.29-4.54-.21-.15-.25-.64-.24-1,.05-2.17,2.5-4.53,4.61-4.17a4.67,4.67,0,0,1,2.61,1.69,16.36,16.36,0,0,1,1.51,3.34,4.22,4.22,0,0,1,0,4l-.41.5-.38.2A6.42,6.42,0,0,1,375.37,90.83Zm2.81-2.53c-.29-3.22-2.47-5.61-6.25-4.22a2.06,2.06,0,0,0-1.06,1.25c-.07.28.49.78.84,1.11,1,1,2.09,2,3.18,2.94a9.62,9.62,0,0,0,1.36.89C377.78,90.16,378.27,89.32,378.18,88.3Z"/><path class="cls-2" d="M364.47,51.22a8,8,0,0,0,2.12.36,8.61,8.61,0,0,1,5.18,1.09c.46.25,1.21,0,1.83-.05-.25-.53-.34-1.25-.75-1.58a6.6,6.6,0,0,0-7.12-1.12,9.31,9.31,0,0,0-1.34.83Z"/><path class="cls-2" d="M370.78,57.78c-1-.79-1.56-1.54-2.19-1.61-.41-.05-1.22.83-1.33,1.4a1.35,1.35,0,0,0,1.37,1.72C369.22,59.25,369.76,58.53,370.78,57.78Z"/><path class="cls-2" d="M387,60.82c-.85-.76-1.33-1.52-1.88-1.59s-1.19.78-1.31,1.32a1.2,1.2,0,0,0,1.32,1.53C385.69,62,386.15,61.44,387,60.82Z"/><path class="cls-2" d="M355.63,84.76l-.06-.58-.21.09.3.46Z"/><polygon class="cls-2" points="355.2 83.64 355.17 83.76 355.26 83.74 355.2 83.64"/><path class="cls-2" d="M342.4,52.55l2.42-2.73Z"/><path class="cls-2" d="M340,56.47l1.52-2.74Z"/><path class="cls-2" d="M341.49,53.75l.92-1.22Z"/><path class="cls-2" d="M342,44.91l.39-.5,0,0-.67.24Z"/><path class="cls-2" d="M342.4,44.41l.21-.11-.18-.07v.2Z"/><path class="cls-2" d="M387,30.91l.3-.47-.18-.11c-.1.15-.19.3-.28.45Z"/><path class="cls-2" d="M347.9,52c2.2-4.24,6.24-5.73,10.42-7,1.71-.52,3.45-1,5.15-1.52a11.39,11.39,0,0,0,1.92-1.07l-.18-.19c-4,1.32-7.95,2.58-11.88,4a9.32,9.32,0,0,0-5.74,5.54Z"/><path class="cls-2" d="M347.59,51.76l-.81,2,.37.15L347.9,52Z"/><path class="cls-2" d="M389.49,70.13c.12.31.24.63.37,1l.31-.11-.39-1.09Z"/><path class="cls-2" d="M389.78,69.88c-.1-.39-.21-.79-.32-1.19l-.31.32.34,1.12Z"/></svg>