<?xml version="1.0" encoding="UTF-8"?><svg id="a" xmlns="http://www.w3.org/2000/svg" viewBox="0 0 243.21 210.85"><defs><style>.b{fill:#fff;}.c{fill:#ed8f7c;}</style></defs><path class="c" d="M80.59,4.05s85.27-17.6,127.88,20.57c29.43,26.37,50.11,52.78,19.96,138.9-18.48,52.78-158.03,66.16-199.4,15.74C-1.61,141.92-34.31,46.39,80.59,4.05Z"/><g><path class="b" d="M103.23,68.1c0,.21-.07,.49-.28,.91-3.01,5.04-8.61,12.32-15.26,12.32-3.64,0-6.37-2.66-6.37-6.37,0-6.16,6.51-14.28,11.62-14.28,1.47,0,3.64,.91,3.64,2.66,0,.84-.49,1.54-1.19,1.54-.42,0-.98-.28-1.54-.91-.35-.28-.77-.42-1.19-.42-1.89,0-4.2,2.87-5.95,5.88-1.12,1.96-1.75,3.92-1.75,5.6s.7,3.01,2.17,3.43c.35,.07,.7,.14,1.05,.14,4.55,0,10.22-7.49,13.93-13.09,.07-.07,.14-.07,.21-.07,.28,0,.28,.63,.28,.77,0,.42,.42,.84,.42,.84,0,.49,.21,.63,.21,1.05Z"/><path class="b" d="M119.4,77.76c-.91,1.33-.35,.35-1.54,1.61-.21,.21-.56,.35-.84,.77-.7,.84-1.12,.77-2.17,1.26-.56,.14-.91,.14-1.47,.14-.42,.14-.77,.21-1.05,.21-1.05,0-1.61-.77-2.24-2.1-1.12-2.31-.84-10.99-.98-13.51-.56,2.8-4.27,8.96-5.18,8.89-.49,.28-.84,.35-1.33,.63-.21,.07-.49,.14-.7,.14-1.19,0-2.1-1.19-2.24-2.31-.07-.35-.07-.63-.07-.98,0-2.45,1.05-5.53,2.45-7.63,1.19-1.54,2.59-3.36,5.18-4.41,.56-.28,1.33-.42,2.17-.42,.49,0,2.94,.21,2.94,.91,0,.07-.07,.21-.07,.21-.14,.21-.42,.28-.7,.28,.14,.21,.42,.21,.42,.42-.07,.42-.07,.49-.07,.77,0,.21,.21,.28,.21,.98,.28,1.12,.28,3.43,.28,5.95v5.04c0,2.66,.07,4.69,.42,4.69,2.38,0,10.01-11.48,11.41-13.3,.49-.63,.77-1.19,1.12-1.19,.28,0,.77,1.12,.84,1.33,.07,.28,.07,.56,.07,.77,0,.49-.14,.98-.35,1.54l-.28,.63c-1.54,2.45-3.5,5.04-5.04,7.14-.28,.28-.21,.49-.56,.56,.07,0-.28,.35-.28,.28,0-.49,.49-.63,.7-.98,.07-.21,.28-.35,.35-.56-.07,0-.07-.21-.07-.21l-.28,.35c0,.07,0,.14-.14,.14l-.63,.91c-.35,.35-.63,.84-.91,1.33,.07-.07,.28-.35,.42-.35l.42-.28-.21,.35Zm-10.92-14.35c.35-.56,.7-1.26,.91-1.54-3.29,1.54-5.95,8.4-6.93,12.18,2.31-3.78,3.78-6.86,6.02-10.64Zm-1.68,4.76c0-.07-.07-.14-.14-.14-.07,.07-.49,.49-.49,.7,0,.07,.07,.14,.14,.14,.07-.07,.49-.49,.49-.7Zm-.21,.91c0-.07,0-.14-.14-.14,0,.14-.21,.28-.21,.42,.14-.14,.35-.28,.35-.28Zm-.28-.84c.07,0,.28-.28,.35-.49-.07,.07-.21,.07-.28,.07,0-.07-.07,.07-.07,.42Zm.77,.35c0-.21-.07-.28-.07-.28-.07,0-.14,.21-.21,.42,0,0,.14-.14,.28-.14Zm.21-.07c-.14,.07-.35,.28-.42,.35,0,.07,.35-.21,.42-.35Zm.07-2.45c-.07,.07-.14,.14-.21,.14-.14,.14,0,.14-.21,.35,0,0,0,.14,.07,.21l.35-.7Zm.07,1.05s0-.21,.07-.28c-.14,.07-.49,.56-.35,.42,.07,0,.14-.07,.28-.14Zm-.28,1.82c.21,0,.35-.14,.42-.35-.21,0-.49,.35-.42,.35Zm.91-3.85c.07,0,.14,.07,.21,.07s.14,0,.14-.14c0,.07-.07-.14-.07-.21-.07,.07-.14,.21-.28,.28Zm11.76,9.03c0-.07-.07-.14-.07-.21-.77,.35-1.33,2.1-1.33,2.1,.21,0,.49-.56,.7-.77,.14-.35,.28-.28,.28-.49,0-.28,.42-.35,.42-.63Zm-.98,2.03c-.14,.14-.28,.63-.21,.49,.14-.14,.21-.07,.21-.49Zm.07,1.12c.14-.14,.35-.49,.35-.49,0-.21,.21-.42,.21-.84-.14,.42-.49,.56-.7,1.12,0,.28-.07,.21-.07,.56l.21-.35Zm.42-1.47c.28-.14,.35-.35,.49-.56,.07-.07,.14-.14,.14-.21s-.07-.14-.14-.21c-.28,.28-.7,.7-.91,1.05,.14,.14,.14,.21,.14,.21,.07,0,.28-.49,.35-.49l-.07,.21Zm.56-2.59c-.35,.07-.56,.77-.49,.77,.21,0,.42-.7,.49-.77Zm.21-.42c0,.07,.07,.21,.07,.28s.84-.7,.77-.63h-.35c-.14,.14-.21,.14-.21,.35h-.28Z"/><path class="b" d="M124.57,79.44c.91,0,1.19,.84,1.19,1.75,0,.7-.35,1.82-.91,2.24-.35,.14-.77,.21-1.26,.21-.77,0-1.61-.21-2.03-.84-.49-.21-.7-.63-.7-1.05,0-.63,.42-1.4,.84-1.82,.77-.49,1.61-.49,2.59-.49h.28Z"/><path class="b" d="M162.87,78.32c0,.28-.7,.49-1.4,.49-.14,0-.42-.07-.56-.07-.63,0-2.24,.63-2.24,.91,.07-.21,.35-.21,.56-.21,.14,0,.56,.14,.77,.14,.14,0,.14-.14,.21-.14,.14,0,.84,.14,1.19,.14,.07,0,.14,0,.21-.14,0,.21,.28,.21,.56,.21-1.26,.28-2.8,.84-4.06,.84-.14,0-.28,.21-.77,.21-.14,0-.21,0-.21,.28,.21,0,.28,0,.28,.07,0,.14-.56,.35-.98,.35,.14,.07,.21,.07,.21,.07,0,.07-.21,.07-.35,.07-.21,0-.49-.14-.63-.14-.21,0-.42,.21-.63,.42-1.75,1.19-3.5,1.89-6.16,1.89-.98,0-2.8-.21-4.13-.21-1.89,0-4.27-.49-4.27-3.36,0-3.85,7.07-8.61,12.04-12.67,1.75-1.4,8.26-7.7,8.26-10.15-.42-1.33-1.89-1.75-3.64-1.75-2.38,0-5.18,.77-6.44,1.26-.28,.14-2.38,1.19-3.43,1.19-.42,0-.7-.14-.7-.56,.35-4.55,6.37-6.09,10.22-6.09s6.93,1.96,6.93,6.09c0,8.26-13.65,16.03-19.18,21.77,.07,.07,.77,.07,.91,.07,4.13,0,8.89-1.75,13.44-1.75,.56,0,3.99,.14,3.99,.77Zm-3.99,1.89c-.14,0-.21-.14-.56-.14-.42,0-.35,.07-.77,.07v.35c.07,0,.21-.21,.56-.21,.21,0,1.4-.07,1.4-.21,0,0-.07,0-.21-.07-.21,.14-.35,.21-.42,.21Z"/><path class="b" d="M97.74,110.26c.42,0,.84-.07,1.4-.07,.21,0,.56,.14,.56,.49-.28,.42-1.4,2.94-1.54,3.5v.42c-.28,.28-.63,.91-.63,.98,.07,0,.21-.21,.42-.28-.14,.35-.84,1.54-.84,2.17,0,.14,0,.21,.07,.28,0,0,.14,0,.21-.07-.56,1.82-1.47,4.55-2.1,7.14-.07,0-.28-.14-.28-.21v-2.45c-.07,0-.56,1.12-.56,2.87,0,.28,0,.49,.14,.49,.07,0,.42-.07,.56-.28,0,.21-.28,1.26-.42,2.03-.14,0-.14-.14-.14-.35,0-.14,0-.35-.07-.42,0-.14-.35-.14-.49-.14-.21,0-.49,2.59-.49,2.8,0,.14,0,.28,.07,.35,0,.14-.07,.14-.07,.42-.21,.7-.91,2.73-1.05,3.71,0,.14,.07,.21,.14,.35,.07-.35,.56-2.52,.63-2.59,.28,0,.7-2.73,.98-3.71,0,.14,0,.91,.07,1.05-.21,1.19-1.47,5.53-1.68,6.16-.21,.77-1.61,4.2-1.61,5.04,.49,0,.21-1.82,.91-1.82,0,0-.07-.28-.07-.49,0-.14,.28-.28,.28-.63,.21-.84,.91-2.66,1.4-4.2-1.82,7.14-4.62,18.9-9.87,21.28-.56,.28-1.05,.35-1.54,.35-3.29,0-5.88-5.25-5.88-14.42,0-7.07,1.47-14.56,1.47-21.7,0-1.33,0-2.59-.14-3.85-2.03,2.94-10.15,28.98-12.18,34.16-2.1,5.46-5.25,5.46-6.37,5.46-5.25,0-7.07-11.06-7.07-21.42,0-6.93,.77-13.79,1.82-19.39,.56-3.22,2.66-4.9,3.36-4.9,1.54,0,2.45,.35,2.45,2.17,0,.63-.07,1.33-.28,2.31l-.77,2.66c-.77,1.89-1.54,11.48-1.54,17.71,0,5.88,.63,15.19,2.66,17.57,2.45-1.12,8.33-27.37,15.54-39.48,.84-1.61,2.03-2.45,3.15-2.45,.77,0,1.47,.42,1.96,1.26,1.19,1.96,1.54,6.09,1.54,10.99,0,7.98-.98,18.06-.98,24.22,0,1.75,.49,5.6,1.19,5.6,6.51,0,9.8-40.67,15.68-40.67Zm-3.71,20.72c0,.14-.07,.21-.07,.28,0-.07,.07-.14,.07-.28Z"/><path class="b" d="M114.18,131.68l.35,.21-.21,.14c-1.75,.42-1.61,.63-2.24,.77,0,.21-1.96,.91-2.38,1.05-.14,.14-.21,.28-.49,.35-.49,.49-3.85,1.4-4.76,1.4-.21,0-.14-.14-.28-.21l-.21,.07c.21,1.33,.28,2.66,.28,4.06,0,2.24-.28,4.41-.77,5.95-.07,.28-.63,1.82-1.26,2.31-.91,1.33-.07,.84-2.94,2.52-.35,.07-.63,.14-.91,.14-1.33,0-2.24-.84-2.66-1.68-.56-.91-.77-2.24-.77-3.71,0-5.53,2.73-13.44,9.03-14.14,.28,0,.77-.07,1.12-.07,.49,0,.91,.07,.91,.35,0,.14-.07,.28-.28,.49-.49,.14-.84,.14-1.19,.14h-.35c-.14-.07-.28-.07-.42-.07-2.66,0-5.25,11.69-5.25,15.33,0,.7,.07,1.12,.28,1.12,1.05,0,3.85-7.84,3.85-12.6v-.63c0-.14,.21-.28,.21-.49-.07-.21-.28-.49-.28-.56,0-.21,.21-.35,.42-.35s.42,.07,.56,.21c1.61-.28,4.55-1.47,6.23-1.96,1.75-.49,2.73-.7,4.27-.7h.7l-.63,.21,.56,.14-.49,.21Zm-2.24,.7s.28-.07,.21-.14c-.07,0-.21,0-.21,.14Zm.56-.35c-.07,.07-.14,.14-.14,.28,.07,0,.14-.07,.14-.28Zm.07-.28h.28c.07,0,.14-.07,.14-.21-.07,0-.42,0-.42,.21Zm.14,.49c.14-.14,.98-.28,.77-.28h-.63c-.07,0-.07,.07-.21,.07l.07,.21Zm.49-.84c.07,.07,.14,.07,.28,.07s.21,0,.35-.07h-.63Z"/><path class="b" d="M130.91,136.1c0,.21-.07,.49-.28,.91-3.01,5.04-8.61,12.32-15.26,12.32-3.64,0-6.37-2.66-6.37-6.37,0-6.16,6.51-14.28,11.62-14.28,1.47,0,3.64,.91,3.64,2.66,0,.84-.49,1.54-1.19,1.54-.42,0-.98-.28-1.54-.91-.35-.28-.77-.42-1.19-.42-1.89,0-4.2,2.87-5.95,5.88-1.12,1.96-1.75,3.92-1.75,5.6s.7,3.01,2.17,3.43c.35,.07,.7,.14,1.05,.14,4.55,0,10.22-7.49,13.93-13.09,.07-.07,.14-.07,.21-.07,.28,0,.28,.63,.28,.77,0,.42,.42,.84,.42,.84,0,.49,.21,.63,.21,1.05Z"/><path class="b" d="M160.94,133.99c.07,0,.14,0,.28-.14,0,.14-.21,.49-.35,.63-.14,.49-.14,.21-.56,.77,.14,0,.35-.28,.42-.28,0,.21-.21,.49-.42,.63,.28-.07,.35-.21,.49-.35-.56,.98-2.45,2.45-2.45,3.29,0,.07-.21,.28-.56,.7,.28,0,1.12-.91,1.26-1.19,0-.14-.14-.14-.14-.14l1.33-1.61v.49c0,.07-.21,.21-.28,.35-.35,.56-.21,.42-.63,.91-.21,.07-.42,.35-.42,.49,0,1.12-4.69,6.02-4.69,5.95,0-.28,.35-.21,.35-.63-.21,.21-.77,.63-.77,1.05,.07,.91-6.3,5.81-8.47,5.81-1.61,0-2.8-1.4-2.8-5.6,0-3.01,.63-7.42,.63-10.57,0-.77,0-1.47-.14-2.17-3.29,2.17-11.62,13.3-12.39,18.97-.28,0-.28-.14-.28-.56-.07,.21-.14,.56-.28,.56v-.35c-.07,.14-.49,.35-.77,.35s-.49-.21-.49-.56c-.21,0-.07,1.26-.28,1.26l-.42-1.05c-.14,.28-.35,.28-.35,1.26-.28-.98-.42-2.1-.42-3.43,0-4.41,1.26-10.08,1.68-12.88,2.1-9.73,3.15-19.53,4.83-29.68,0-.14,.07-.28,.07-.49,.42-2.66,.91-6.09,4.06-6.09,.7,0,.91,.42,.91,.98,0,.21,0,.49-.07,.77-1.54,5.39-4.41,29.19-6.51,38.64,2.59-3.85,7.49-10.64,11.27-10.64,2.52,0,3.29,2.45,3.29,5.74,0,4.27-.77,8.89-.77,11.06,0,.91,.07,1.4,.35,1.4,2.8,0,13.72-15.26,13.58-15.26,.21-.21,.49-.56,.49-.56,0,.14,.21,.07,.21,.21,.14,0,.21-.07,.35-.07,.21,0,.42,.14,.42,.35,0,.28,.14,.42,.21,.42-.14,.49-.56,.56-.77,1.26Zm-17.64,13.72c0-.14-.14-.49-.28-.49,.14,.14,.21,.56,.21,.7,0-.07,.07-.14,.07-.21Zm.42-3.15c0-.14-.14-.35-.14-.49,0,0,.07-.14,.07-.56v-.42c-.21,.56-.21,1.26-.21,1.82,0,.21,.07,.35,.14,.35,0-.14,.14-.35,.14-.7Zm.28-2.45c0-.49-.07-.77-.07-.77-.07,0-.07,.07-.07,.35s.07,.28,.14,.42Zm.14,.7c0,.21-.14,.49-.14,.77,0,0-.07,.14-.07,.28,.14-.14,.28-.28,.28-.7,0-.21,0-.35-.07-.35Zm0-.49c0,.14,.07,.28,.07,.28,.14-.07,.14-.28,.14-.42-.14,0-.21,.07-.21,.14Zm13.23-3.57c-.14,0-.84,.98-1.33,1.75,.56-.49,.42,.07,.98-.91,.07-.14,.42-.84,.35-.84Zm1.12,.35c-.49,.56-.98,1.05-1.33,1.05,0,.14,.07,.14,.14,.14,.28,0,.84-.63,.91-.77l.28-.42Zm1.4-3.29c-.35,.14-.7,.49-.7,.77,0,.07,.07,.14,.14,.21,.14-.14,.49-.77,.56-.98Z"/><path class="b" d="M160.24,137.28c-.98,2.8-1.54,5.39-1.54,7.42,0,2.24,.63,4.9,3.29,4.9,6.23,0,13.58-10.64,16.8-15.26,.14-.14,.28-.21,.42-.21,.35,0,.49,.42,.49,.84,0,.14-.07,.21-.07,.35v1.89c0,.14,0,.21-.07,.42,0,.28-.21,.63-.21,.91-3.85,5.88-10.43,13.3-16.66,13.3-4.62,0-7.28-3.5-7.28-7.98,0-6.65,5.25-15.05,9.87-15.05h.28c.42,0,2.38,1.54,2.59,2.17,.14,.42,.14,.77,.14,1.12,0,3.22-3.92,5.18-7.7,5.18h-.35Zm.77-1.4c1.96,0,5.18-3.29,5.18-4.69,0-.28-.14-.49-.42-.56-1.19,0-3.5,2.59-4.76,5.25Z"/><path class="b" d="M187.54,145.97c0-3.43,.77-8.12,.77-10.43,0-.84-.07-1.33-.35-1.4-3.5,3.99-5.53,7.98-7.7,12.32l-.7,1.47c0,.21-.07,.28-.07,.28-.14,.63-.77,1.54-1.33,1.54-.14,0-.21-.07-.35-.14l-.7-.28c-.21-.07-.56-.49-.56-.56,0-.14-.07-.28-.14-.49,0-4.55,1.26-12.53,2.24-16.87,.28-1.05,.77-1.68,1.68-1.89,.21-.07,.42-.07,.7-.07,.56,0,1.19,.14,1.4,.42,.14,.21,.21,.56,.21,.84,0,.91-.49,1.61-.7,2.45l-.14,.28c-.35,1.82-.77,3.99-1.26,6.23,1.12-1.68,3.71-7,7.14-8.26,.21-.07,.42-.14,.7-.14,2.87,0,3.22,3.01,3.22,5.18,0,3.43-.63,8.19-.63,9.94,0,.42,.07,.63,.14,.63,1.05,0,6.09-5.46,10.29-11.76,.21-.35,.49-.49,.7-.49,.7,0,1.19,1.47,1.19,2.24,0,.21,0,.35-.07,.42-1.68,3.01-9.1,13.16-12.74,13.16-2.8,0-2.94-2.45-2.94-4.62Z"/></g></svg>