<svg id="Ebene_1" data-name="Ebene 1" xmlns="http://www.w3.org/2000/svg" viewBox="0 0 520 320"><defs><style>.cls-1{fill:#1d3753;}.cls-2{fill:#f18875;}</style></defs><path class="cls-1" d="M411.64,79.62a1.47,1.47,0,0,1,.22-.1c1.19-.35,1.79,0,1.95,1.21a10.76,10.76,0,0,1,0,2.66c-.15,1.33-.22,2.66-.33,4.1A5.33,5.33,0,0,0,415.05,89a4.57,4.57,0,0,1,2.24,3.31,10.47,10.47,0,0,1,.21,4.1,3.84,3.84,0,0,1-.79,1.74,10,10,0,0,1-4.55,3.31,7,7,0,0,0-3.07,2.09c-.65.77-1.29,1.56-2,2.38.21.21.37.37.54.52s.39.3.55.48c.83.91,1.12,1.33.37,2.56-.4.66-.68,1.38-1,2.06-.62,1.18-1.26,2.35-1.9,3.52a12,12,0,0,1-.73,1.12c-.43.63-.88,1.26-1.33,1.88a14.2,14.2,0,0,1-.91,1.14,58,58,0,0,0-4.68,6c-1,1.45-2.2,2.81-3.33,4.18a20.85,20.85,0,0,1-1.54,1.71c-1,.93-1.93,1.85-2.94,2.73-.73.64-1.52,1.21-2.28,1.8a6.14,6.14,0,0,1-4.81,1.2,6.49,6.49,0,0,1-2.54-1.11,16.08,16.08,0,0,1-3-2.43c-.55-.59-1.21-1.07-1.81-1.62-.78-.7-1.54-1.42-2.32-2.13a1.48,1.48,0,0,0-.84-.49,5,5,0,0,0-.16,1.1c-.58,3.68-1.09,7.37-1.91,11-.52,2.32-1,4.66-1.49,7-.32,1.5-.61,3-.94,4.51a35.33,35.33,0,0,0-.56,5.43.48.48,0,0,0,0,.12c.06,1.35-.21,1.71-1.51,2.08,0,0-.06,0-.13.12.3,1.47.57,3,.92,4.46a48.75,48.75,0,0,0,3.12,8.4,110.37,110.37,0,0,1,4.1,11c.86,2.74,1.93,5.41,2.93,8.1,1.25,3.34,2.52,6.66,3.79,10,.18.49.44.95.64,1.44,1.52,3.7,3,7.4,4.54,11.12a45.5,45.5,0,0,1,2.6,10c.41,2.6.65,5.22.85,7.84.06.89,0,1.79.06,2.68.08,2.55.38,5.08.33,7.64s0,5.35-.19,8c-.14,2.06-.08,4.13-.19,6.19-.14,2.76.06,5.51.13,8.26,0,1,.17,1.94.24,2.91.24,3.19.47,6.38.71,9.57,0,.44.11.88.17,1.32a2.94,2.94,0,0,1-.19,1.93c.5.5,1,1,1.48,1.46s.93.9,1.44,1.29a23.2,23.2,0,0,0,4.21,2.63c1.68.81,3.37,1.56,5.1,2.25a17.86,17.86,0,0,0,6.42,1.11c.32,0,.64-.09,1-.1a32.51,32.51,0,0,1,3.27-.07,6.11,6.11,0,0,1,3.13,1.21,2.83,2.83,0,0,1,1.18,2.66,6.15,6.15,0,0,1-2.36,4.6,11.61,11.61,0,0,1-5.5,2.41c-1.52.24-3.05.36-4.58.49-1.25.1-2.51.17-3.76.21-.77,0-1.53-.05-2.3-.05a11.82,11.82,0,0,0-4.28.76,21.12,21.12,0,0,1-7.51,1.21,22.64,22.64,0,0,1-6.82-1,6.71,6.71,0,0,1-2.35-1.23,2.29,2.29,0,0,1-.87-1.41,14.88,14.88,0,0,1-.15-4.71,51.15,51.15,0,0,0,.33-9.82,8.55,8.55,0,0,0-.15-.88,3.18,3.18,0,0,0-.54-.21,1.88,1.88,0,0,1-1.05-.76,18.83,18.83,0,0,1-1.95-3.36c-.65-1.3-1.28-2.62-1.8-4a29.61,29.61,0,0,1-1.18-3.82c-.57-2.27-1.09-4.56-1.54-6.86-.37-1.87-.68-3.75-.91-5.64-.38-3.25-.65-6.52-1-9.78-.42-3.74-.74-7.5-1.37-11.21-.34-2-.5-4.1-.81-6.14-.39-2.48-.77-5-1.32-7.41a36.66,36.66,0,0,0-2.3-7.28c-.24-.51-.54-1-.83-1.48-.43-.73-.85-1.47-1.31-2.18-.67-1.06-1.34-2.13-2.07-3.14-1.88-2.59-3.77-5.17-5.7-7.72q-2-2.66-4.19-5.2a42.13,42.13,0,0,1-3.51-4.8c-.47-.75-.93-1.51-1.39-2.28a27.46,27.46,0,0,0-2.69-3.74c-1.5-1.77-2.8-3.67-4.13-5.55-.47-.66-1-1.28-1.49-1.92a7.42,7.42,0,0,1-.85-1,4.88,4.88,0,0,0-2.14-1.91l-.36-.12.08.38c.61.91,1.21,1.82,1.82,2.72.27.41.56.8.83,1.2a74.47,74.47,0,0,0,4.91,6.78,38.31,38.31,0,0,1,3.81,5.48A45.34,45.34,0,0,0,347.1,200c1.23,1.45,2.38,3,3.56,4.46.77,1,1.54,2,2.28,3s1.59,2.24,2.39,3.38c-.25,1.4-.86,2.69-1.24,4a38.82,38.82,0,0,1-2.73,6.48c-.87,1.78-1.76,3.56-2.74,5.28s-2.16,3.52-3.27,5.25a14,14,0,0,1-3.92,3.93,46.92,46.92,0,0,1-6.52,3.76l-10.58,5.14c-1.56.76-3.13,1.5-4.76,2.12-2,.77-4,1.69-6,2.53-1.3.55-2.62,1.07-3.92,1.64-1.78.77-3.54,1.59-5.31,2.38a18.68,18.68,0,0,1-1.92.76c-2,.61-3.94,1.18-5.92,1.77L296,256c-.66.19-1.29.22-1.7-.49a2.44,2.44,0,0,0-.59,1.6c-.31,2-.55,4-.82,6-.09.72-.22,1.44-.29,2.16-.21,2.34-.41,4.68-.58,7a16.22,16.22,0,0,0,.07,1.7,6.2,6.2,0,0,1-1.84,4.95,3.17,3.17,0,0,1-1.13.67,4.71,4.71,0,0,1-3,.09,16.48,16.48,0,0,1-1.92-.73c-.23-.11-.53-.37-.55-.58a3.86,3.86,0,0,0-.89-1.7,12.85,12.85,0,0,1-1.25-2.62,27.78,27.78,0,0,1-1.45-7.61c-.12-1.77-.15-3.56-.24-5.33a12.1,12.1,0,0,0-.68-3.2c-.24-.73-.52-1.45-.78-2.17a8.57,8.57,0,0,1-.52-3.58,29.49,29.49,0,0,1,.32-3.26,17.84,17.84,0,0,1,.71-2.44,1.2,1.2,0,0,1,.86-.79,12.76,12.76,0,0,1,3-.81,3,3,0,0,0,.83-.18c1.56-.42,3.14-.72,4.73-1a4.72,4.72,0,0,0,2.11-.82c-.26-1.41-.27-1.48.86-2.37,1.84-1.45,3.73-2.85,5.59-4.28s4-3,6-4.61a39.36,39.36,0,0,1,4.55-3c.89-.55,1.82-1.06,2.73-1.58,1.6-.94,3.2-1.9,4.82-2.81a24,24,0,0,1,2.52-1.18,32.74,32.74,0,0,0,4.69-2.28c1-.63,2.1-1.22,3.17-1.78a17.64,17.64,0,0,0,4.89-3.95,2.61,2.61,0,0,0,.66-1.41c.37-2.64.76-5.28,1.11-7.93a12.9,12.9,0,0,0,.07-2.06c-.16-5.63-.28-11.26-.53-16.89a62.59,62.59,0,0,0-.84-8.94,4.9,4.9,0,0,1,.07-1.21c-.3-.31-.72-.74-1.13-1.18a12.63,12.63,0,0,1-3.56-7,28.1,28.1,0,0,1-.25-5.58c.11-1.61.26-3.22.39-4.84,0-.32.06-.64.1-1a3.54,3.54,0,0,0-.66-.27,24.64,24.64,0,0,0-2.78-.83c-.51-.05-.73-.46-.62-1,.19-.87.47-1.72.63-2.6.26-1.43.5-2.87.68-4.31.26-2,.51-4,.66-6a30.68,30.68,0,0,0,.12-6.06,24.61,24.61,0,0,1,0-3c-1-.86-2.18-1.78-3.3-2.71a23.83,23.83,0,0,1-3.85-3.86,27.08,27.08,0,0,0-2.1-2.19l-4.68-4.77a4.31,4.31,0,0,1-.39-.46,54.82,54.82,0,0,1-3.43-5.15c-1.08-2-2.14-4-3.2-6-.1-.18-.16-.38-.27-.55a1.81,1.81,0,0,1,.18-2.23,8,8,0,0,0,.89-2,7.29,7.29,0,0,1,.9-1.7c1.5-2.11,3-4.25,4.45-6.37.63-.89,1.27-1.78,2-2.6,1.22-1.42,2.5-2.77,3.73-4.17a16.73,16.73,0,0,0,1.43-1.81,27.43,27.43,0,0,1,4.47-5.26,12,12,0,0,0,.94-1l5.07-5.41c.38-.41.76-.83,1.12-1.27A27.78,27.78,0,0,1,333,68.89l4.64-3.53c.13-.1.27-.18.39-.29a35.26,35.26,0,0,1,5.66-4c.61-.39,1.31-.63,1.93-1a9.87,9.87,0,0,1,4.57-1.44c1.32-.09,2.63-.35,4-.54a5.64,5.64,0,0,0-.1-2.17,2.28,2.28,0,0,0-.82-1.31c-.68-.57-1.32-1.19-2-1.77a6.55,6.55,0,0,1-2.11-3.06A40.6,40.6,0,0,0,346.71,44a8.17,8.17,0,0,1-.3-6.7,4.82,4.82,0,0,0,.18-2.73,13.83,13.83,0,0,1-.3-4.35,7.51,7.51,0,0,1,.52-2,22.89,22.89,0,0,1,1.93-3.5,7.71,7.71,0,0,1,3.61-3,5.5,5.5,0,0,0,1.94-1.2,3.72,3.72,0,0,0,.55-.65,8,8,0,0,1,3.43-3,6.43,6.43,0,0,1,1.15-.37,1.41,1.41,0,0,1,1.16.22l.39.28a2.24,2.24,0,0,0,2.81-.06,21.92,21.92,0,0,1,4.46-2.44,11.32,11.32,0,0,1,3.18-.74,4.3,4.3,0,0,1,2.78.69,13.25,13.25,0,0,0,1.68,1.16,14.94,14.94,0,0,0,2,.48,9.29,9.29,0,0,1,3.92,2.57,2.82,2.82,0,0,1,.87,2.07,2.57,2.57,0,0,0,.25,1,16,16,0,0,1,1.33,5c.07,1.21.07,2.43.1,3.64a8.09,8.09,0,0,0,.41,2.38A6.58,6.58,0,0,0,386,35.09a17,17,0,0,1,2.66,4.19,7.47,7.47,0,0,1,.47,1.74,1.68,1.68,0,0,1-.76,1.69c-.47.31-1,.6-1.45.87s-.82.37-1.18.61a1.8,1.8,0,0,0-.93,1.77c.26.15.54.3.81.47a1.43,1.43,0,0,1,.34,2.42,7.86,7.86,0,0,1-.63.48,1.81,1.81,0,0,1,.62,1.36,2.07,2.07,0,0,1-.65,1.52,9.12,9.12,0,0,1-1.39.72,6.46,6.46,0,0,0-.08,2.28,5,5,0,0,1-.32,2.5,4,4,0,0,1-2.12,2.23,21.29,21.29,0,0,1-4.11,1.43A5.9,5.9,0,0,0,372.9,65c-.37.94-.76,1.88-1.12,2.82a1.13,1.13,0,0,0,0,1.13c.13.22,0,.63-.09.94a8,8,0,0,0,.17,4.31,19.21,19.21,0,0,1,.6,2.6,23,23,0,0,0,1.25,4.67,24.11,24.11,0,0,1,.95,2.87,29.52,29.52,0,0,0,1.55,4.08c.81,1.81,1.58,3.64,2.27,5.49a91.27,91.27,0,0,0,4,8.83q1.56,3.09,3,6.24c.42.92.77,1.86,1.25,2.76a12.4,12.4,0,0,1,.66,1.9,4.54,4.54,0,0,0,.68-.48c1.4-1.51,3-2.87,4.26-4.48.87-1.07,1.74-2.13,2.5-3.28s1.84-2.36,2.64-3.63c.51-.82,1-1,2.27-1.3a5,5,0,0,0,.72-2.37,20.12,20.12,0,0,1,.63-4.56,15.34,15.34,0,0,0,.5-2.62,9.53,9.53,0,0,1,1.56-4.16c.26-.31.49-.64.77-.92a3.13,3.13,0,0,1,.82-.68,1.1,1.1,0,0,1,1.63.7,3.86,3.86,0,0,1,.09,1c0,.48,0,1,0,1.44-.2,1.14-.39,2.29-.58,3.44a.14.14,0,0,0,0,.11s.08,0,.2,0a7.64,7.64,0,0,1,.43-.77,4.59,4.59,0,0,1,.82-1,3.91,3.91,0,0,0,1.17-1.65l1.63-.71,2.22-.37a18.36,18.36,0,0,0,.28-6.75l-.54.16ZM304.21,106.14c.21.44.37.81.56,1.17.39.75.81,1.49,1.2,2.24s.78,1.51,1.17,2.26a46.55,46.55,0,0,0,3.34,5.21,20.87,20.87,0,0,0,1.71,2c2.36,2.55,5.06,4.79,7.18,7.57a5.63,5.63,0,0,0,.67.71c1.69,1.5,3.41,3,5.24,4.34.84.62,1.6,1.35,2.41,2a9.48,9.48,0,0,0,1.54,1.17c1.43.74,2.92,1.39,4.37,2.09a2.23,2.23,0,0,0,2.6-.35,11,11,0,0,0,3.54-4.68,5.1,5.1,0,0,0-.27-4.32,16.54,16.54,0,0,0-1.41-2.27c-1.33-1.78-2.58-3.63-3.77-5.5a7.48,7.48,0,0,0-1.06-1.32,42.36,42.36,0,0,1-5.17-5.29,6.82,6.82,0,0,0-.59-.61,29.25,29.25,0,0,1-4.5-5.55c-.42-.74-.9-1.44-1.33-2.18-.54-.92-.52-1.18.22-1.91a17.21,17.21,0,0,1,1.81-1.61c1.7-1.25,3.43-2.45,5.14-3.67.29-.21.58-.44.88-.65l2.79-1.93c.53-.37,1.09-.71,1.61-1.09,2.7-1.93,5.17-4.16,7.92-6,1.57-1.07,3.07-2.26,4.59-3.4a10.6,10.6,0,0,0,3.06-3.4,1.31,1.31,0,0,1,.47-.54.89.89,0,0,1,.68,0c.12,0,.21.38.16.52a6.82,6.82,0,0,1-.67,1.42,11.6,11.6,0,0,1-2.63,2.83l-4.27,3.22c-1.56,1.17-3.12,2.32-4.66,3.51a61.1,61.1,0,0,1-6.48,4.7,12.39,12.39,0,0,0-2.35,1.8c.08,1,.22,1.93.21,2.86,0,2.59-.14,5.18-.24,7.77-.05,1.13-.14,2.25-.23,3.49a6.48,6.48,0,0,0,1,1.06A16,16,0,0,1,335,118.6c1.35,2.07,2.62,4.19,4.13,6.14a8.5,8.5,0,0,1,1.46,2.5c.22.65.46,1.3.65,2a1.58,1.58,0,0,0,.45.82,19.85,19.85,0,0,1,2.11,2.19,2.84,2.84,0,0,0,2.45,1.11,15.6,15.6,0,0,0,1.91-.34,13.51,13.51,0,0,1,6,.22.85.85,0,0,1,.22.09,4.41,4.41,0,0,1,2.64,2.52,3.87,3.87,0,0,1,.1,1.8c.25.49.47.88.66,1.28a2.31,2.31,0,0,1,.06,1.89c-.43,1.13-.87,2.26-1.32,3.38a4,4,0,0,1-2,2.17c-.51.25-1,.59-1.46.85a2.93,2.93,0,0,1-1.11.45,6.33,6.33,0,0,1-3.32-.44,20.64,20.64,0,0,1-1.9-1,21.79,21.79,0,0,0-2.27-1.38,9,9,0,0,1-3.17-3,17.69,17.69,0,0,0-4.38-4.12,4.94,4.94,0,0,0-.57.3,2.88,2.88,0,0,1-2,.45,5.68,5.68,0,0,1-2.15-.78l-3.9-2c-.63,0-1-.43-1.42-.79-.25-.21-.47-.45-.72-.65a2,2,0,0,0-.43-.19c0,.29,0,.49,0,.69a48,48,0,0,1-.23,8.13c-.18,1.41-.32,2.82-.46,4.23a50.62,50.62,0,0,1-1,6.58c0,.18-.19.37,0,.59a19.13,19.13,0,0,1,4.82.89,37,37,0,0,0,6.7,1l1.05.08a3.34,3.34,0,0,1,.19.38c.09.26.17.54.25.81s.22.78.36,1.16a48.63,48.63,0,0,0,3.47,7.06c1,1.73,2,3.42,3.14,5.05.65.92,1.22,1.91,1.79,2.89,1.3,2.19,2.68,4.34,4.19,6.39,1.78,2.41,3.48,4.88,5.18,7.35,1.14,1.67,2.19,3.4,3.33,5.07,2.27,3.31,4.3,6.77,6.31,10.23,1.54,2.66,3,5.38,4.44,8.09.47.85.9,1.72,1.3,2.6a52.36,52.36,0,0,1,3.66,13c.23,1.35.33,2.73.53,4.09.49,3.37,1,6.74,1.15,10.13,0,.25.05.49.08.73.13,1.08.26,2.17.37,3.26.28,2.82.54,5.64.82,8.46q.32,3.21.66,6.4c.2,1.77.42,3.54.63,5.31s.43,3.37.63,5.06c.12.92.18,1.86.34,2.77q.66,3.7,1.39,7.4a19.68,19.68,0,0,0,.93,3.76,1.33,1.33,0,0,1,0,.51c-.73,0-1.41,0-2.1,0a7.64,7.64,0,0,0-.85.11c0,.59.09,1.11.11,1.64A28.31,28.31,0,0,1,379,289q-.16,3.33-.49,6.66a12,12,0,0,0,.13,3.18,11.85,11.85,0,0,1,1.69.3,14.21,14.21,0,0,0,3.93.73l1.94.12a31.4,31.4,0,0,0,5.57.11c.65-.07,1.28-.18,1.93-.25,1.36-.17,2.73-.31,4.1-.49a47,47,0,0,1,6-.5c.33,0,.65-.06,1-.08,1.82-.15,3.59-.6,5.38-.91a11.35,11.35,0,0,0,3.09-1.08,4.17,4.17,0,0,0,2-1.86,4,4,0,0,1,.47-.69,1.22,1.22,0,0,0-.08-1.72,3.06,3.06,0,0,0-.7-.47,6.61,6.61,0,0,0-4.13-.59,17.14,17.14,0,0,1-8.36-.91,52,52,0,0,1-7.27-3.35,16.94,16.94,0,0,1-4-3c-.69-.73-1.39-1.45-2.11-2.19-.73.28-1.45.54-2.15.84a20,20,0,0,1-4.42,1.28,2,2,0,0,1-.54-.07c-.32-1.7-.63-3.33-1-4.95a67.52,67.52,0,0,1-1.43-8.61c-.06-.89-.16-1.78-.26-2.66-.43-3.62-.88-7.24-1.29-10.86-.23-2-.39-4-.6-6-.35-3.34-.79-6.67-1.08-10s-.6-6.45-1-9.66c-.2-1.57-.33-3.14-.59-4.7a64.21,64.21,0,0,0-2.07-9,33.22,33.22,0,0,0-2.34-5.85c-2.31-4.22-4.57-8.47-7-12.61-2.1-3.51-4.34-6.93-6.57-10.36-1.69-2.61-3.52-5.14-5.32-7.68-1.52-2.15-3.12-4.24-4.44-6.53-1.19-2.07-2.48-4.08-3.81-6.07a43.53,43.53,0,0,1-2.39-4.08,36.41,36.41,0,0,1-2.61-5.32c-.05-.16-.16-.29-.22-.44a8.5,8.5,0,0,1-.59-2.31,15.46,15.46,0,0,1,2.08.19c2.73.6,5.5,1,8.26,1.38,2.44.36,4.89.66,7.32,1.1a36.17,36.17,0,0,0,5.19.49,22.88,22.88,0,0,0,5.79-.74c0-.18,0-.33,0-.49.16-1.36,0-2.75.25-4.1.18-.87.4-1.73.58-2.6.53-2.53,1.05-5.07,1.59-7.6.68-3.21,1.47-6.39,1.91-9.64.2-1.45.46-2.88.64-4.32.32-2.41.6-4.82.89-7.23.17-1.45.39-2.9.48-4.35.24-4,.43-7.93.63-11.89.06-1.13.12-2.26.15-3.4a103,103,0,0,0-.48-11.52c-.07-.77-.18-1.53-.23-2.3-.12-1.49-.19-3-.31-4.48-.09-1.21-.17-2.43-.34-3.63-.24-1.64-.53-3.27-.86-4.9a18.14,18.14,0,0,0-1.49-4.86,19.48,19.48,0,0,0-4.64-6c-.93-.78-2-1.44-2.91-2.2-1.24-1-2.71-1.61-4-2.47a1.74,1.74,0,0,0-.45-.17c-.72-.25-1.45-.49-2.17-.76a1.28,1.28,0,0,0-1.05,0,1.62,1.62,0,0,1-.69,0,5.11,5.11,0,0,0-.95-.06c-1,.11-2.08.33-3.12.39a4.73,4.73,0,0,0-2.29.7c-.38.23-.8.39-1.19.6-.57.3-1.17.57-1.71.91a34.39,34.39,0,0,0-5.35,3.77c-.06.06-.13.1-.19.15-1.49,1.12-3,2.26-4.46,3.37a30.34,30.34,0,0,0-5.09,4.85c-1,1.24-2.16,2.41-3.26,3.6-.8.86-1.62,1.7-2.43,2.55-.51.53-1,1.08-1.53,1.56a20.58,20.58,0,0,0-3.56,4.13,36.27,36.27,0,0,1-3.7,4.5,31.41,31.41,0,0,0-4.52,5.69c-.14.25-.32.48-.48.71-1.22,1.71-2.45,3.42-3.66,5.14a3.33,3.33,0,0,0-.42.87A9.51,9.51,0,0,1,304.21,106.14Zm65.72-36.7a15.9,15.9,0,0,1,.43-1.58c.44-1.13.93-2.24,1.37-3.37a6.84,6.84,0,0,1,2.67-3.22c.22-.15.54-.2.62-.55-.26-.07-.51-.16-.78-.21a14.18,14.18,0,0,1-4.57-1.89l-4-2.49a2.89,2.89,0,0,1-.61-.39,3.26,3.26,0,0,1-.46-.7.38.38,0,0,1,.07-.32.65.65,0,0,1,.32-.12.4.4,0,0,1,.23.06c1,.62,2,1.25,3,1.84a32.73,32.73,0,0,0,4.14,2.29,9.44,9.44,0,0,0,3,.76,16.17,16.17,0,0,0,4.7-.43,3.05,3.05,0,0,0,2.54-2.74,8,8,0,0,0-.11-1.68c0-.44-.18-.88-.2-1.32a1.44,1.44,0,0,1,1.05-1.58l1.17-.42c.07-.26.15-.52.23-.8a3.22,3.22,0,0,1-.31-.26,1.17,1.17,0,0,1,0-1.8c.14-.15.32-.25.46-.39s.24-.29.38-.46c-.24-.14-.41-.26-.59-.34a1.77,1.77,0,0,1-1.07-2c0-.39.06-.78.09-1.13a5.85,5.85,0,0,1-.77-.66.67.67,0,0,1-.11-.55.5.5,0,0,1,.56-.36,1.24,1.24,0,0,1,.47.11,1.2,1.2,0,0,0,.94.1,6.66,6.66,0,0,0,2.92-1.49,2.56,2.56,0,0,0-.33-1.6A15.7,15.7,0,0,0,385,36a8.23,8.23,0,0,1-2-5,19.57,19.57,0,0,1-.08-2.42,13.32,13.32,0,0,0-.76-4.89c-.06-.17-.1-.39-.42-.43a6.33,6.33,0,0,0-.51.61c-1,1.45-2.5,2-4,2.61a10,10,0,0,1-1.9.38c-.68.13-1.35.26-2,.37-.43.08-.89,0-1.19.47a.55.55,0,0,1-.45.12,2,2,0,0,0-2,.82c-.38.47-.85.87-1.2,1.36-.57.79-1.09,1.61-1.58,2.44a4.21,4.21,0,0,1-1.07,1.3,6.75,6.75,0,0,0-.64.56,2.33,2.33,0,0,0-.79,1.46c-.1.64-.23,1.27-.39,1.9a4.89,4.89,0,0,0-.06,2.28c.07.36.17.7.26,1.06s0,.7-.28.84a.7.7,0,0,1-.86-.24,5.43,5.43,0,0,1-.57-.92,2.73,2.73,0,0,0-.63-1,1.57,1.57,0,0,1-.41-.6,2.37,2.37,0,0,0-2.47-1.47,4.78,4.78,0,0,0-1.82,3.25,24.92,24.92,0,0,0,.08,5,6.21,6.21,0,0,0,.25,1,2.64,2.64,0,0,0,2.38.26.36.36,0,0,1,.49.24.74.74,0,0,1-.06.56,8.11,8.11,0,0,1-.82.68c.08.85.19,1.61.21,2.37s-.05,1.29-.06,1.94a5.06,5.06,0,0,1-.48,2c-.27.63-.54,1.26-.82,1.89a7.78,7.78,0,0,1-.42.74,1,1,0,0,1-.9.51c-.48,0-.74.2-1,.68a5.75,5.75,0,0,0,1.11.45,7.05,7.05,0,0,1,2.53,1.13,8.85,8.85,0,0,0,.84.5,33.38,33.38,0,0,1,4.87,3.39,14.53,14.53,0,0,1,3,3.15ZM399,101.89c-.36.46-.63.75-.85,1.09-.5.73-.92,1.53-1.46,2.23-1.12,1.48-2.11,3.05-3.35,4.46-1.42,1.62-3,3.08-4.46,4.64-.42.43-.85.86-1.29,1.27a.68.68,0,0,1-1.13-.17,4.67,4.67,0,0,1-.35-.9,14.28,14.28,0,0,0-.72-2.18c-.46-.9-.82-1.84-1.24-2.76-1-2.13-2-4.26-3-6.35a79.59,79.59,0,0,1-4-8.72c-1-2.7-2.19-5.3-3.27-8,0-.06-.12-.08-.26-.18,0,.65,0,1.25.08,1.84q.26,3.09.53,6.17a70.5,70.5,0,0,1,.29,7.41c-.07,5.14-.38,10.27-.71,15.41-.07,1.09-.1,2.18-.24,3.27-.24,2-.55,4-.83,6a7.86,7.86,0,0,0-.05.83c.16,0,.38.06.41.14a.93.93,0,0,0,.51.62,4.52,4.52,0,0,1,.86.65c.6.54,1.17,1.12,1.77,1.66l3,2.69a12.85,12.85,0,0,0,3.11,2.09,4.32,4.32,0,0,0,4.48-.39c1.14-.76,2.15-1.71,3.22-2.58a32.65,32.65,0,0,0,3.73-3.8,41.52,41.52,0,0,0,3.38-4.3,45.74,45.74,0,0,1,4.39-5.65,11.75,11.75,0,0,0,1-1.23,42.73,42.73,0,0,0,2.76-4.28c.77-1.47,1.53-2.93,2.2-4.4a2,2,0,0,0-1-1.09,37.72,37.72,0,0,1-4.55-3.21c-.56-.52-1.18-1-1.78-1.45ZM359.58,18.08a6.87,6.87,0,0,0-3.42,2.62,8.22,8.22,0,0,1-1,1.18A6.48,6.48,0,0,1,353,23.2a5.73,5.73,0,0,0-2.45,1.72c-.41.55-.75,1.16-1.16,1.7A15.18,15.18,0,0,0,348,29.3a3.72,3.72,0,0,0-.28,1.29,11.45,11.45,0,0,0,.26,3.74,5.77,5.77,0,0,1-.26,3.55,6.65,6.65,0,0,0,.25,5.53,38.36,38.36,0,0,1,2.5,5.91,5.3,5.3,0,0,0,1.68,2.49c.67.58,1.31,1.2,2,1.77a3.45,3.45,0,0,1,1.33,2.73,5.41,5.41,0,0,0,.08.61c.6-.09.86-.52,1.16-.88s.32-1.12.27-1.85l.59.54a10.17,10.17,0,0,0,.59-5.72l-.59,0a1.93,1.93,0,0,1-1.71-1.18,5.07,5.07,0,0,1-.34-1.15,19.57,19.57,0,0,1-.34-3.74,8.66,8.66,0,0,1,.36-2.63,14.07,14.07,0,0,1,1.38-3,2.51,2.51,0,0,1,3-1.18,3.88,3.88,0,0,1,1.4.68,3.81,3.81,0,0,0,1.34.79,13.53,13.53,0,0,0,.3-1.74,3.36,3.36,0,0,1,.83-2,6.21,6.21,0,0,1,1-1,3.9,3.9,0,0,0,.9-1.12,16.45,16.45,0,0,1,3.27-4.2,6.42,6.42,0,0,1,3.8-1.66,14.61,14.61,0,0,0,5.48-1.37,6.08,6.08,0,0,0,1.54-1.12c.63-.62.75-1.52,1.29-2.18a.67.67,0,0,0,0-.57,3.15,3.15,0,0,0-.62-1,7,7,0,0,0-4.09-2.18,3.76,3.76,0,0,1-2.15-1,3.44,3.44,0,0,0-2.88-1A13.49,13.49,0,0,0,369,16a18.54,18.54,0,0,0-4.36,2.35,3.67,3.67,0,0,1-4.31.19ZM281.47,246.56c0,1.7,0,3.24,0,4.77a33.6,33.6,0,0,0,.53,7,4,4,0,0,1,.05,1.57,4,4,0,0,0,0,1.2c.22,1.8.46,3.61.68,5.42.13,1,.21,2,.39,3a25.23,25.23,0,0,0,1.95,6.1,5.87,5.87,0,0,0,2.37,2.65,1.24,1.24,0,0,0,.68.15,2,2,0,0,0,1.27-.64,4.91,4.91,0,0,0,1.24-3.69c0-.72-.12-1.46-.07-2.18.17-2.3.4-4.59.61-6.89.06-.64.18-1.28.26-1.93.28-2,.52-4,.84-6A7.58,7.58,0,0,1,293,255c.78-1.63.79-1.61.26-3.29s-1.06-3.57-1.59-5.35c-.22-.73-.45-1.46-.7-2.25a12.74,12.74,0,0,1-3.4,1.06c-1,.22-2.06.47-3.08.69-.71.16-1.43.29-2.14.44C282,246.4,281.77,246.48,281.47,246.56Zm59.76-115.14a26.12,26.12,0,0,1-1.39,3,24.42,24.42,0,0,1-2,2.48c.42.35.81.71,1.23,1a12.54,12.54,0,0,1,3.44,3.37,3,3,0,0,0,1.3,1A5.75,5.75,0,0,1,346,144a10.82,10.82,0,0,0,2.19,1.7,1.49,1.49,0,0,0,.57.2c.47.11.94.23,1.41.31a2.75,2.75,0,0,0,2.75-.89c.46-.58,1-1.05,1.49-1.58a12.2,12.2,0,0,0,.88-1.16,10.82,10.82,0,0,0,1-2.57,1.38,1.38,0,0,0-.1-.81c-.12-.39-.48-.53-.82-.67l-3.05-1.18a4.82,4.82,0,0,1-.95-.51.63.63,0,0,1-.15-.86.64.64,0,0,1,.76-.19,3.52,3.52,0,0,1,.45.18c.75.3,1.5.6,2.25.88.29.11.6.19.85.27.1-.09.14-.11.15-.14a.74.74,0,0,0,.06-.35,3,3,0,0,0-2.58-2.27,11.63,11.63,0,0,0-5.05.07,7.71,7.71,0,0,1-2.39.27,5.14,5.14,0,0,1-2.07-.55,5.54,5.54,0,0,1-1.29-1.27C342,132.4,341.66,131.92,341.23,131.42Zm65-38.24c-.09-.05-.13-.09-.16-.08a1,1,0,0,1-1-.16,1.2,1.2,0,0,1-.29-1c0-.49.07-1,.14-1.45.16-1,.34-1.91.5-2.87a2.33,2.33,0,0,0-.07-1.5c-.15,0-.25,0-.3,0a1.6,1.6,0,0,0-.37.31,9,9,0,0,0-2,4.35c-.11.84-.17,1.69-.35,2.52a22.54,22.54,0,0,0-.51,4.08,8.19,8.19,0,0,1-.87,3.63,1,1,0,0,0-.06.41c.48.4.91.76,1.35,1.1s.83.65,1.25,1,.86.72,1.32,1,.94.58,1.45.88c.29-.38.52-.7.77-1,.53-.66,1.06-1.33,1.61-2a7.7,7.7,0,0,1,3.16-2.17,8.94,8.94,0,0,0,3.82-2.71,2.79,2.79,0,0,0,.72-1.62,9.29,9.29,0,0,0-.54-4.28,1.2,1.2,0,0,0-1.7-.84,2.78,2.78,0,0,0-.56.24A12.42,12.42,0,0,0,410,93.91a1.37,1.37,0,0,0-.32.51,2.33,2.33,0,0,0-.15.82.56.56,0,0,0,.59.6c.12-.26.17-.59.36-.76.84-.76,1.72-1.48,2.59-2.19a.32.32,0,0,1,.39.49,5.47,5.47,0,0,1-.7.66c-.61.52-1.22,1-1.82,1.65.18.33.3.62.47.89a1,1,0,0,0,1.16.43,4,4,0,0,0,.85-.43c.27-.16.52-.36.8-.52a.33.33,0,0,1,.31.06c.05.12.1.33,0,.42a3.13,3.13,0,0,1-1.91,1.2,2.11,2.11,0,0,1-1.06-.09c-.35-.15-.6-.56-1-.69a5.87,5.87,0,0,1-1.26-.38l-.29-.22c-.78-.56-1.37-1.35-2.21-1.86a1.42,1.42,0,0,1-.39-.6C406.39,93.65,406.31,93.39,406.22,93.18Zm-78,18c0-.38.05-.57.05-.77.06-1.42,0-2.84.2-4.24a31.22,31.22,0,0,0,.18-3.74,5.94,5.94,0,0,0-.48-2.57c-1.8,1.45-3.84,2.46-5.29,4.2A29.12,29.12,0,0,0,328.21,111.16ZM408.54,94a13.53,13.53,0,0,1,5.12-4.29c-.73-.83-1-.93-1.89-.59a4.69,4.69,0,0,0-.86.45l-2.21,1.49c-.27.19-.5.42-.76.61a1.43,1.43,0,0,0-.52,1.62C407.58,94,407.7,94.06,408.54,94Zm-52.1,68.51c-.05-.07-.14-.26-.29-.33a.45.45,0,0,0-.43.09,2.54,2.54,0,0,1-1.2.73c-1.69.77-3.38,1.54-5,2.34a10.49,10.49,0,0,0-1.22.78.77.77,0,0,0-.32.35.7.7,0,0,0,0,.55.55.55,0,0,0,.51.18,4.57,4.57,0,0,0,.87-.41,59.09,59.09,0,0,1,6.44-3C356.32,163.52,356.44,163.32,356.44,162.5Z"/><path class="cls-2" d="M406.39,88.25c0-.48,0-1,0-1.44a3.86,3.86,0,0,0-.09-1,1.1,1.1,0,0,0-1.63-.7,3.13,3.13,0,0,0-.82.68c-.28.28-.51.61-.77.92a4,4,0,0,1-.95-2.44,8.2,8.2,0,0,1,.39-3.71,6.22,6.22,0,0,1,2-2.83,4,4,0,0,1,3.34-.72,10.14,10.14,0,0,1,1.63.47,2.9,2.9,0,0,1,1.7,1.47c.11.22.25.42.38.63s.26.71.4,1.06c.06.19.13.38.18.57a6,6,0,0,1-.07,4A3.74,3.74,0,0,1,411,86.85a9.37,9.37,0,0,0-.88.79l-1.63.71Z"/><path class="cls-1" d="M352.25,100.68a.75.75,0,0,1-.69.84.66.66,0,0,1-.74-.62.83.83,0,0,1,.7-.86A.67.67,0,0,1,352.25,100.68Z"/><path class="cls-1" d="M363.25,113.71a.71.71,0,0,1-.22,1.41.61.61,0,0,1-.57-.66A.81.81,0,0,1,363.25,113.71Z"/><path class="cls-1" d="M345.15,75.41a.7.7,0,0,1-.6.65.71.71,0,0,1-.77-.61.65.65,0,0,1,.65-.7A.7.7,0,0,1,345.15,75.41Z"/><path class="cls-1" d="M352.46,127.69a.58.58,0,0,1,.65.57.65.65,0,0,1-.57.66.68.68,0,0,1-.67-.58A.64.64,0,0,1,352.46,127.69Z"/><path class="cls-1" d="M313,108.92a.68.68,0,0,1-.61-.63.66.66,0,0,1,.67-.68.69.69,0,0,1,.54.69A.64.64,0,0,1,313,108.92Z"/><path class="cls-1" d="M326.85,131.71a.61.61,0,0,1-.54-.55.64.64,0,0,1,.63-.6.57.57,0,0,1,.52.68A.56.56,0,0,1,326.85,131.71Z"/><path class="cls-1" d="M332.32,146.69a.63.63,0,0,1-.55.67.65.65,0,0,1-.62-.59.62.62,0,0,1,.5-.59A.58.58,0,0,1,332.32,146.69Z"/><path class="cls-1" d="M336.85,72.92a.63.63,0,0,1,.54.67.6.6,0,0,1-.62.46.57.57,0,0,1-.53-.65A.65.65,0,0,1,336.85,72.92Z"/><path class="cls-1" d="M325,116.91a.56.56,0,0,1-.56-.49.55.55,0,0,1,.46-.58.53.53,0,0,1,.62.54A.55.55,0,0,1,325,116.91Z"/><path class="cls-1" d="M343.71,153.13a.57.57,0,0,1-.58.5.58.58,0,0,1-.5-.59.57.57,0,0,1,.59-.49A.53.53,0,0,1,343.71,153.13Z"/><path class="cls-1" d="M339.17,112.09a.62.62,0,0,1-.5-.7.57.57,0,0,1,.63-.43.58.58,0,0,1,.51.56A.62.62,0,0,1,339.17,112.09Z"/><path class="cls-1" d="M367.56,126.47a.54.54,0,0,1-.62.4.53.53,0,0,1-.43-.6.54.54,0,1,1,1.05.2Z"/><path class="cls-1" d="M333.15,127.71a.51.51,0,0,1,.57.49.56.56,0,0,1-.46.49.52.52,0,0,1-.56-.51A.49.49,0,0,1,333.15,127.71Z"/><path class="cls-1" d="M366.63,72.5c-.25.2-.41.4-.61.46s-.51-.27-.48-.56.3-.47.52-.38A2.72,2.72,0,0,1,366.63,72.5Z"/><path class="cls-1" d="M406.09,293.45a.64.64,0,0,1-.54-.55.66.66,0,0,1,.55-.54.65.65,0,0,1,.54.55A.67.67,0,0,1,406.09,293.45Z"/><path class="cls-1" d="M368.26,93.16a1.58,1.58,0,0,1-.34-.47c-.07-.24.23-.5.51-.5a.48.48,0,0,1,.46.45A.58.58,0,0,1,368.26,93.16Z"/><path class="cls-1" d="M324.53,85.26a3.38,3.38,0,0,1,0,.64c-.06.29-.3.36-.55.32a.55.55,0,0,1-.34-.27.4.4,0,0,1,.2-.59A2.72,2.72,0,0,1,324.53,85.26Z"/><path class="cls-1" d="M336.42,85.28a.56.56,0,0,1,.55.52.56.56,0,0,1-.49.57.55.55,0,0,1-.06-1.09Z"/><path class="cls-1" d="M358.8,76.53a.54.54,0,0,1,.05,1.08.54.54,0,0,1-.05-1.08Z"/><path class="cls-1" d="M355.29,66.93c.44.48.51.74.29.94a.51.51,0,0,1-.64,0C354.73,67.61,354.8,67.42,355.29,66.93Z"/><path class="cls-1" d="M396.49,290.77a.62.62,0,0,1-.56.53.74.74,0,0,1-.5-.2.42.42,0,0,1,0-.42.75.75,0,0,1,.44-.3A.63.63,0,0,1,396.49,290.77Z"/><path class="cls-1" d="M355.9,86.15c0,.37-.23.54-.5.52a.42.42,0,0,1-.42-.47c0-.22.3-.49.49-.42A2,2,0,0,1,355.9,86.15Z"/><path class="cls-1" d="M401.16,292.74a1.59,1.59,0,0,1-.31-.48c-.07-.24.16-.44.43-.45a.52.52,0,0,1,.52.4A.57.57,0,0,1,401.16,292.74Z"/><path class="cls-1" d="M362.63,143.47a.49.49,0,0,1-.46.54c-.25,0-.48-.25-.4-.48s.27-.38.38-.36S362.51,143.39,362.63,143.47Z"/><path class="cls-1" d="M346.77,65.2a3.3,3.3,0,0,1-.54.46c-.16.07-.43-.15-.39-.33s.17-.31.27-.32A2.14,2.14,0,0,1,346.77,65.2Z"/><path class="cls-1" d="M361.62,152.42a2.28,2.28,0,0,1-.31-.6c0-.19.22-.32.44-.27a.27.27,0,0,1,.25.34C362,152.05,361.8,152.17,361.62,152.42Z"/><path class="cls-1" d="M321.05,95.75c.14.25.29.4.29.54a.3.3,0,0,1-.41.28c-.12,0-.28-.24-.26-.32S320.87,96,321.05,95.75Z"/><path class="cls-1" d="M307.4,104.82c.19-.08.33-.19.37-.16a1.3,1.3,0,0,1,.26.31c-.09,0-.2.16-.27.14S307.56,105,307.4,104.82Z"/><path class="cls-1" d="M377.47,33.1c-.26-.07-.42-.09-.57-.15a.45.45,0,0,1-.12-.78A23.55,23.55,0,0,0,379.22,30a4.32,4.32,0,0,1,2.41-1c.48-.05.75.13.85.48s-.07.65-.49.85-1.1.48-1.6.8c-.68.44-1.28,1-1.94,1.42A8.43,8.43,0,0,1,377.47,33.1Z"/><path class="cls-1" d="M382.06,34.7a.87.87,0,0,1-.77.93.88.88,0,0,1-1-.86.86.86,0,0,1,.84-.86A.82.82,0,0,1,382.06,34.7Z"/><path class="cls-1" d="M385.62,124.56a.6.6,0,0,1-.6-.6.58.58,0,0,1,.6-.59.63.63,0,0,1,.62.58A.69.69,0,0,1,385.62,124.56Z"/><path class="cls-1" d="M403.75,109.42a.55.55,0,0,1,.53.54.52.52,0,0,1-.63.54.57.57,0,0,1-.48-.58A.62.62,0,0,1,403.75,109.42Z"/><path class="cls-1" d="M376.79,123.08a.53.53,0,0,1-1.06-.1.57.57,0,0,1,.58-.48A.56.56,0,0,1,376.79,123.08Z"/><path class="cls-1" d="M379.82,111.42c0,.36-.26.55-.5.5a.42.42,0,0,1-.35-.42c0-.24.24-.53.43-.45A1.4,1.4,0,0,1,379.82,111.42Z"/><path class="cls-1" d="M396.57,110.29a.41.41,0,0,1,.44.43.4.4,0,0,1-.35.4.39.39,0,0,1-.43-.31A.42.42,0,0,1,396.57,110.29Z"/><path class="cls-1" d="M384.17,134.39a.42.42,0,0,1-.4-.47.41.41,0,0,1,.81,0A.41.41,0,0,1,384.17,134.39Z"/><path class="cls-1" d="M396.66,121c.16.23.31.36.34.52s-.14.36-.36.36-.41-.13-.35-.37S396.49,121.27,396.66,121Z"/><path class="cls-1" d="M359.27,22.74a1.12,1.12,0,0,1,.53,1.06,6.82,6.82,0,0,1-.78,3,1.81,1.81,0,0,1-1.2,1,2.76,2.76,0,0,0-2,1.95c-.41,1.05-.86,2.09-1.3,3.15a2.31,2.31,0,0,1-.28-1.4,8.49,8.49,0,0,1,1.11-3.31A2.51,2.51,0,0,1,357,26.93a1.94,1.94,0,0,0,1.48-1.58c.16-.58.32-1.17.5-1.75C359,23.34,359.13,23.1,359.27,22.74Z"/><path class="cls-1" d="M376.93,21.36c.21.4,0,.63-.18.84a3.94,3.94,0,0,1-2.93,1.49,21.49,21.49,0,0,1-2.78,0c-1.27-.07-2.54-.22-3.89-.34a6.43,6.43,0,0,1,3.61-.78c.57.05,1.13.11,1.69.13a5.74,5.74,0,0,0,3.79-1,3.42,3.42,0,0,1,.42-.23A2.9,2.9,0,0,1,376.93,21.36Z"/><path class="cls-1" d="M362.9,27.46a13.7,13.7,0,0,0-1.18,4.19,17.5,17.5,0,0,1-.51,1.79,1.41,1.41,0,0,1-.62-1.43,14,14,0,0,1,.68-3.19A1.9,1.9,0,0,1,362.9,27.46Z"/><path class="cls-1" d="M290.05,260.49a.66.66,0,0,1,.64.59.62.62,0,0,1-.6.61.59.59,0,0,1-.63-.58A.58.58,0,0,1,290.05,260.49Z"/><path class="cls-1" d="M289.76,266.64a.47.47,0,0,1-.42.48.47.47,0,0,1-.5-.41.44.44,0,0,1,.42-.47A.45.45,0,0,1,289.76,266.64Z"/><path class="cls-1" d="M288.72,271.27c.18-.14.3-.29.4-.28s.21.18.31.28c-.11.1-.2.27-.31.28S288.9,271.4,288.72,271.27Z"/></svg>