<svg id="Ebene_1" data-name="Ebene 1" xmlns="http://www.w3.org/2000/svg" viewBox="0 0 320 320"><defs><style>.cls-1{fill:#1d3753;}.cls-2{fill:#ee907d;}</style></defs><path class="cls-1" d="M74.67,204.45c-3.43-2-6.93-3.92-9.72-6.85-3.57-3.74-5.69-7.93-4.74-13.33a35,35,0,0,1,2.24-8.46c1.41-3.15,2.82-6.32,4.53-9.32,4.59-8.1,9.25-16.16,14.07-24.13,2.47-4.09,5.59-7.8,8-11.94,4.67-8.16,11.09-14.94,17-22.15a16.71,16.71,0,0,1,8-5.72c2.12-.63,3.83-1.94,5.92-2.57a38.7,38.7,0,0,0,6.18-2.77c3.63-1.82,7.36-3,11.49-2.47a8.55,8.55,0,0,0,1.4-.09c.68-2.52.78-4.83-1.53-6.74a12.11,12.11,0,0,1-4.55-11,85.4,85.4,0,0,1,1.81-11.82A174.76,174.76,0,0,1,143,39.35l3.2.71a193.22,193.22,0,0,0-7.92,24.61,113.24,113.24,0,0,0-2.08,12.55,8.64,8.64,0,0,0,3.4,8.08,7.9,7.9,0,0,1,3.07,7c-.06,1.73,0,3.46-.17,5.18a5.94,5.94,0,0,0,1.42,4.43c2.32,2.84,5,5.08,8.84,5.63a7.25,7.25,0,0,1,.32,1.55c-.1,4.93-.21,9.85-.39,14.78-.2,5.58-.83,11.18-.64,16.75.27,8.14-.29,16.24-.39,24.36-.12,9.18.05,18.37.16,27.56.06,4.93.27,9.85.41,14.77.29,10.25.48,20.51.9,30.75.2,4.78.86,9.54,1.32,14.31a14.68,14.68,0,0,1,.13,4.41,17,17,0,0,1-5.29-.05c-4.08-.56-8.15-1.18-12.22-1.77l-2.63-.87c0-.09-.09-.14-.36-.14l-2.05-.43v-.14l-.37-.09-2-.58-.38-.29-1.36-.71,0,0-1.18-.69-.08-.15c-4.82-2.35-8.05-6.35-11.12-11a11.1,11.1,0,0,0-.8,1.56c-3,10.32-6,20.67-9,31a112.87,112.87,0,0,1-7,18.08c-.88.23-1.53,0-1.5-.82a13.23,13.23,0,0,1,.52-3.5c.76-2.41,1.78-4.73,2.52-7.14,1.7-5.59,3.27-11.22,5-16.81,2-6.48,4-12.94,6-19.42.19-.63.35-1.28.56-1.91,1.16-3.4,2.07-6.83,1.46-10.5a24.2,24.2,0,0,1,0-3.73,23.1,23.1,0,0,1-2.52-.93,13,13,0,0,1-5.38-5.18c-1.72-2.83-3.5-5.62-5.1-8.2-1.76-.46-3.18,1.1-4.56-.15,0-1.68-1.19-2.57-2.37-3.44-3.74-2.77-7.41-5.64-11.25-8.26a79,79,0,0,1-10.54-9.12,7.4,7.4,0,0,1-2.14-8,71.55,71.55,0,0,1,7.67-17c3.18-5.07,6.41-10.11,9.59-15.18a127.64,127.64,0,0,1,9.7-13.64,78.47,78.47,0,0,0,9.36-13.87c2-3.88,4-7.77,6-11.68,1.13-2.24,2.18-4.53,3.26-6.8,0-.07-.12-.22-.19-.33-.12,0-.31.07-.36.16-2.85,5.4-5.81,10.74-8.49,16.22a79,79,0,0,1-10.21,15.67,127.65,127.65,0,0,0-9.91,14c-2.6,4.17-5,8.46-7.84,12.49a70.77,70.77,0,0,0-7.18,13.32,62.43,62.43,0,0,0-2.6,7.52,6.7,6.7,0,0,0,1.53,6.71,112.2,112.2,0,0,0,8.7,8.2c3.39,2.77,7.09,5.17,10.63,7.77,1.61,1.18,3.18,2.4,4.71,3.68.44.37,1.11.88.48,1.66l-2.09-.32v-.15l-.36-.1-2-.75c0-.1-.08-.15-.38-.17l-1.72-.62-.1-.08-1.82-.51-.37-.26-1.78-.58-.08-.12L81.67,208l-.38-.28-1.76-.62-.09-.13-1.56-.59.1-.08-.19-.05-1.46-.75-.08-.15-1.49-.72Zm27.76,5.82c2,3.15,3.8,6.23,5.77,9.22a11.71,11.71,0,0,0,2.44,2.58c1.41,1.13,2.44,1.05,4,0,4.41-3.2,7.41-11.47,6.09-16.78-.57-2.26-1.65-3.33-3.94-3a20.41,20.41,0,0,1-8.39-.49C106.32,204.66,104.44,207.37,102.43,210.27Zm12.08-11.2a16,16,0,0,0,0-2.52A193.68,193.68,0,0,0,108,170.23a9.34,9.34,0,0,0-.85-1.53c-3.6,4.91-7.74,9-11.12,14,2.36,1.84,4.56,3.52,6.72,5.25,3,2.38,5.41,5.13,5.93,9.13a4,4,0,0,0,.48,1.08A6.47,6.47,0,0,0,114.51,199.07ZM125,224.52c1.62-.94,2.66-1.49,3.66-2.12a53.86,53.86,0,0,0,9.88-8c.34-.36,1.11-.84.6-1.39Z"/><path class="cls-1" d="M190.51,61.82c-.27,1.27-.74,2.4.23,3.76,1.51,2.11,1.27,4.6.3,6.88-1.51,3.55-3.09,7.09-6.63,9.25a5.83,5.83,0,0,0-1.69,2.14c-1.78,3.11-3.55,6.24-5.21,9.42a42,42,0,0,0-2.9,8.11c1.56,1.41,3.42,1.06,5.36,1.62a10.49,10.49,0,0,1,.92,2.32c1,5.8,4.44,10.16,8.17,14.31a64.27,64.27,0,0,0,10,8.55c3.54,2.6,7.3,4.82,10.91,7.27,3,2,6.12,3.73,9.22,5.51a145.25,145.25,0,0,1,21.12,14.91,74.09,74.09,0,0,1,8.64,8.81,8,8,0,0,1,1.51,8.6c-1.6,3.75-3,7.66-5.56,10.95-.74.94-1.49,1.88-2.31,2.75-5.31,5.6-10.31,11.48-15.13,17.51-1.16,1.45-2.47,2.79-3.75,4.13-2.21,2.3-4.65,4.42-5.67,7.52a12.09,12.09,0,0,0-3.34.07A9.14,9.14,0,0,0,212,218a54.45,54.45,0,0,0-7.25,6.84c-3.17,3.64-6.91,6.62-11.86,7.77l-1.22,5.94c-.52,2.47-1.12,4.92-1.53,7.4a11.07,11.07,0,0,0,0,3.54,137.44,137.44,0,0,0,7.43,26.46c1.73,4.61,3.35,9.26,4.94,13.92a52.89,52.89,0,0,1,1.53,5.78,14.13,14.13,0,0,1,0,2.77h-1.7c-.23-.29-.46-.46-.54-.69-3.11-9.05-6.26-18.09-9.3-27.17A97.73,97.73,0,0,1,188.16,254c-.14-.9-.47-1.78-.77-2.91-2.51,1.5-4.76,3.17-7.52,3.71l-.75.36-2.9.63a77.9,77.9,0,0,1-19.86,1.05,12.07,12.07,0,0,1-.71-2.34c-.61-6.35-1.42-12.7-1.68-19.06-.51-12.49-.7-25-1-37.48q-.21-8.37-.36-16.75c-.05-2.92,0-5.85-.06-8.77,0-1.59-.07-3.19,0-4.78q.24-13.17.52-26.32c.08-4.25.14-8.51.29-12.76s.39-8.23.58-12.35c.06-1.32.11-2.65.15-4s0-2.56,0-3.69l5.72-1.06a7.19,7.19,0,0,0,2.32-.44c2.42-1.36,4.78-2.83,7.12-4.32a7.34,7.34,0,0,0,3.38-5.09,25.75,25.75,0,0,1,3.88-9.09,18.5,18.5,0,0,0,3.37-8.39,5.51,5.51,0,0,0,6-2.59,46.48,46.48,0,0,0,3.57-7.08,3.23,3.23,0,0,0-1-4c-.66.18-1.3.31-1.91.54s-1.43.7-2.18,1c-.5.17-.9,1-1.58.41.36-1.77.62-3.47,1.06-5.12a14.3,14.3,0,0,0,.19-5.53,2,2,0,0,1,1.13-2A4.4,4.4,0,0,1,187.62,58C188.47,59.33,188.74,61.17,190.51,61.82Zm5.15,146.85a29.61,29.61,0,0,0,8.64-5.88,2.3,2.3,0,0,0,.58-1.42,11.18,11.18,0,0,1,2.38-5.42c3.21-4.74,6.45-9.46,9.76-14.13a61.59,61.59,0,0,0,6.48-10.72c-.72-.42-1.36-.85-2-1.19-2.39-1.17-4.82-2.26-7.18-3.48-4.13-2.15-8.22-4.38-12.33-6.56-.56-.3-1.12-.77-2.07-.05-.08,1.09-.18,2.39-.27,3.69-.23,3.19-.38,6.38-.7,9.56-.67,6.49-1.49,13-2.15,19.45-.45,4.37-.75,8.76-1.09,13.14C195.6,206.55,195.66,207.46,195.66,208.67Zm10-2.82c-.46.31-.8.52-1.11.76-3.82,2.9-7.7,5.65-12.58,6.55a4.61,4.61,0,0,0-3,2.4c-2.11,3.35-2.06,6.73-.44,10.24a5.17,5.17,0,0,0,7.65,2.34,36.09,36.09,0,0,0,6.67-5.61c1.77-2,3.75-3.74,5.69-5.54,1.06-1,2.23-1.83,3.32-2.73-1.21-1.43-2.4-2.69-3.42-4.07S206.54,207.32,205.62,205.85Zm-34.54-52.74c.79-.54,1.53-1.07,2.3-1.56a7.47,7.47,0,0,0,3.51-6.74,14,14,0,0,0-.37-3.15c-1.08-5-5.11-7.83-10.25-7.25a6.7,6.7,0,0,0-4.48,2.32c-3.25,3.7-3.58,9.85-.32,13.57a6.69,6.69,0,0,1,1.8,5.39,34.87,34.87,0,0,1-.3,3.56c-.55,2.73-1.22,5.42-1.82,8.14-.17.75-.48,1.55.52,2.15,2.43-.45,3.42-3,5.43-4.16a24.49,24.49,0,0,0,2.35,2.4c.4.31,1.09.25,2,.43C171.31,163,171.2,158.08,171.08,153.11ZM175.79,225c-1.43-2.38-2.94-4.68-5.36-6.11a5.47,5.47,0,0,1-2.16-2.73c-.35-.76-.67-1.62-1.85-1.9,1,2.7,2.08,5,4.63,6.25a9.83,9.83,0,0,1,2,1.89Z"/><path class="cls-1" d="M184.55,103.26a22.37,22.37,0,0,1,12.27,4.25c1.91,1.43,3.92,2.75,5.89,4.11q7.89,5.44,15.78,10.88c.66.45,1.3.93,1.95,1.4l17,12.56a22,22,0,0,1,2.51,2c4.83,4.77,9.92,9.33,14.36,14.44,5.52,6.37,7.09,13.81,4.36,22a57.92,57.92,0,0,1-10.43,18.73c-6.15,7.42-12.81,14.27-20.75,19.8a16.59,16.59,0,0,1-6.47,3,11.73,11.73,0,0,1-1.81,0,5.86,5.86,0,0,1,.42-2,19.61,19.61,0,0,1,2.71-3.42c4.19-3.94,7.46-8.68,11.29-12.93,2.94-3.26,5.75-6.64,8.72-9.87a29,29,0,0,0,6.19-9.2c.6-1.61,1.48-3.11,2.17-4.68A9.35,9.35,0,0,0,249.32,164a80.07,80.07,0,0,0-12.06-11.58c-7.58-6.11-15.92-11-24.27-16a91,91,0,0,1-12.28-8.09c-1.41-1.19-3.18-1.95-4.61-3.12a52.27,52.27,0,0,1-12.21-13.59,14.58,14.58,0,0,1-2.42-8.55Z"/><path class="cls-1" d="M145.28,31.09c-.09-.11-.16-.22-.25-.32-.79-.84-2.35-1.31-2.11-2.67a7.7,7.7,0,0,1,1.69-3.92,38.66,38.66,0,0,1,5.39-4,3,3,0,0,1,1.12-.37,1.41,1.41,0,0,1,.79,0c.59.27,1.16.63,2,1.07,2-1.2,4.61-1.25,6.66-2.86.68-.54,5.73-.51,6.62-.06a10.93,10.93,0,0,0,5.68,1,17.22,17.22,0,0,1,6.88,1.41A22.87,22.87,0,0,1,185,23.77a12,12,0,0,1,3.57,4.2,21.05,21.05,0,0,0,6.7,7.19,4.44,4.44,0,0,1,2,2.81c.21,1,.66,2,.87,3.05a10.07,10.07,0,0,1,.31,3.12,13,13,0,0,0,0,3.53c.4,2.89-.31,3.87-3.41,5.48l-.47.6,0-.11A3.88,3.88,0,0,1,191,51.5a4.61,4.61,0,0,0-2.59-2.35c-1.08-.41-1.51-1.34-2.08-2.27-1.22-2-2.62-3.88-4-5.76a2.63,2.63,0,0,0-1.3-.84c-1.85-.54-3.45-1.31-4.16-3.32-.14-.39-.77-.63-1.2-.89-1-.61-2.06-1.18-3.09-1.78-1.49-.87-3-1.65-4.84-1.37a4.42,4.42,0,0,1-2.66-.48,7.54,7.54,0,0,0-3.78-1c-2.48-.08-5-.32-7.44-.38C151,31,148.14,31.09,145.28,31.09Z"/><path class="cls-2" d="M145.28,31.09c2.86,0,5.73-.06,8.59,0,2.48.06,5,.3,7.44.38a7.54,7.54,0,0,1,3.78,1,4.42,4.42,0,0,0,2.66.48c1.87-.28,3.35.5,4.84,1.37,1,.6,2.07,1.17,3.09,1.78.43.26,1.06.5,1.2.89.71,2,2.31,2.78,4.16,3.32a2.63,2.63,0,0,1,1.3.84c1.4,1.88,2.8,3.77,4,5.76.57.93,1,1.86,2.08,2.27A4.61,4.61,0,0,1,191,51.5a3.88,3.88,0,0,0,3.54,2.14,6.4,6.4,0,0,1-.36,2.23c-1.14,2-2.45,4-3.7,6-1.77-.65-2-2.49-2.89-3.84a4.35,4.35,0,0,0-2.44-2.22,8.06,8.06,0,0,0-.86-2.15A29.45,29.45,0,0,0,169.07,43.2a69,69,0,0,0-8.14-1.86,71,71,0,0,0-14.7-1.28l-3.2-.71A10.21,10.21,0,0,1,145.28,31.09Z"/><path class="cls-2" d="M159.79,107.45l-5.72,1.06c0,1.13,0,2.41,0,3.69s-.09,2.66-.15,4c-.19,4.12-.44,8.23-.58,12.35s-.21,8.51-.29,12.76q-.27,13.16-.52,26.32c0,1.59,0,3.19,0,4.78,0,2.92,0,5.85.06,8.77q.15,8.39.36,16.75c.32,12.49.51,25,1,37.48.26,6.36,1.07,12.71,1.68,19.06a12.07,12.07,0,0,0,.71,2.34,77.9,77.9,0,0,0,19.86-1.05A50.4,50.4,0,0,1,165,257.15c-4.13-.08-8.26.11-12.39-.06-3.44-.15-6.89-.6-10.32-1-1.74-.23-3.45-.74-5.16-1.12,4.09.6,8.16,1.22,12.24,1.78a17,17,0,0,0,5.29.05,14.68,14.68,0,0,0-.13-4.41c-.46-4.77-1.12-9.53-1.32-14.31-.42-10.24-.61-20.5-.9-30.75-.14-4.92-.35-9.84-.41-14.77-.11-9.19-.28-18.38-.16-27.56.1-8.12.66-16.22.39-24.36-.19-5.57.44-11.17.64-16.75.18-4.93.29-9.85.39-14.78a6.71,6.71,0,0,0-.33-1.55Z"/><path class="cls-2" d="M94.16,212.2c.63-.78,0-1.29-.48-1.66-1.53-1.28-3.1-2.5-4.71-3.68-3.54-2.6-7.24-5-10.63-7.77a112.2,112.2,0,0,1-8.7-8.2,6.7,6.7,0,0,1-1.53-6.71,62.43,62.43,0,0,1,2.6-7.52,70.77,70.77,0,0,1,7.18-13.32c2.8-4,5.24-8.32,7.84-12.49a127.65,127.65,0,0,1,9.91-14,79,79,0,0,0,10.21-15.67c2.68-5.48,5.64-10.82,8.49-16.22,0-.09.24-.11.36-.16.07.11.22.26.19.33-1.08,2.27-2.13,4.56-3.26,6.8-2,3.91-4,7.8-6,11.68a78.47,78.47,0,0,1-9.36,13.87,127.64,127.64,0,0,0-9.7,13.64c-3.18,5.07-6.41,10.11-9.59,15.18a71.55,71.55,0,0,0-7.67,17,7.4,7.4,0,0,0,2.14,8A79,79,0,0,0,82,200.47c3.84,2.62,7.51,5.49,11.25,8.26,1.18.87,2.37,1.76,2.37,3.44Z"/><path class="cls-1" d="M138.25,298.37l-3.46.74a39.44,39.44,0,0,1,3.59-11.23,4.32,4.32,0,0,1,2-1.88,32.05,32.05,0,0,1,5.66-1.78,7.48,7.48,0,0,1,6.95,2.1,15.06,15.06,0,0,1,2.6,3c2.44,4.07,4.74,8.22,7.1,12.35-2,1-2.4,1-3.36-.2a40.33,40.33,0,0,1-2.51-3.58c-.77-1.23-1.45-2.53-2.16-3.8a30,30,0,0,0-1.55-2.78c-3.39-4.77-5.58-4.86-10.93-2.65a3,3,0,0,0-1.65,2.12C139.72,293.16,139.06,295.59,138.25,298.37Z"/><path class="cls-2" d="M184.55,103.26l-3.08-.2A2.55,2.55,0,0,1,184.55,103.26Z"/><path class="cls-1" d="M77.34,236c.22.46.53.79.47,1s-.53.61-.73.56a1,1,0,0,1-.58-.76C76.51,236.58,76.94,236.36,77.34,236Z"/><path class="cls-2" d="M179.12,255.11l.75-.36Z"/><path class="cls-2" d="M129.29,252.39l.38.29Z"/><polygon class="cls-2" points="131.69 253.26 132.06 253.35 132.06 253.49 131.71 253.4 131.69 253.26"/><path class="cls-2" d="M81.29,207.67l.38.28-.36-.13Z"/><path class="cls-2" d="M134.11,253.92c.27,0,.39.05.36.14l-.35,0Z"/><path class="cls-2" d="M85.3,209.24l.37.26-.36-.12Z"/><path class="cls-2" d="M89.31,210.71c.3,0,.42.07.38.17Z"/><polygon class="cls-2" points="91.7 211.63 92.06 211.73 92.07 211.88 91.71 211.78 91.7 211.63"/><path class="cls-2" d="M126.65,250.87l.08.15Z"/><path class="cls-2" d="M76.25,205.3l.08.15Z"/><path class="cls-2" d="M74.67,204.45l.09.13Z"/><path class="cls-2" d="M87.49,210l.1.08Z"/><path class="cls-2" d="M79.44,206.92l.09.13Z"/><polygon class="cls-2" points="77.79 206.2 77.98 206.25 77.88 206.33 77.79 206.2"/><path class="cls-2" d="M83.44,208.54l.08.12Z"/><path class="cls-2" d="M127.91,251.71l0,0Z"/><path class="cls-2" d="M194.54,53.75l.47-.6Z"/><path class="cls-2" d="M125,224.52,139.09,213c.51.55-.26,1-.6,1.39a53.86,53.86,0,0,1-9.88,8C127.61,223,126.57,223.58,125,224.52Z"/><path class="cls-2" d="M175.79,225l-2.75-2.6a9.83,9.83,0,0,0-2-1.89c-2.55-1.29-3.68-3.55-4.63-6.25,1.18.28,1.5,1.14,1.85,1.9a5.47,5.47,0,0,0,2.16,2.73C172.85,220.3,174.36,222.6,175.79,225Z"/><path class="cls-1" d="M141,72.09c2.36,1.18,4.37,2.66,6.59,3.18s4.74.12,7.53.12a8.22,8.22,0,0,1-1,1.83,6.58,6.58,0,0,1-5.92,1.64,10.89,10.89,0,0,1-6.1-2.7C140.87,74.93,140.84,74.86,141,72.09Z"/><path class="cls-1" d="M159.33,48a5.82,5.82,0,0,1,5-1.05,10.6,10.6,0,0,1,3.57,1.55A4.27,4.27,0,0,1,169.83,52c-.55,0-1.23.19-1.43,0a8.46,8.46,0,0,0-7.35-3.08C160.64,48.91,160.19,48.43,159.33,48Z"/><path class="cls-1" d="M147.34,66.72l5.89,1.82c-.24,1.57-.73,2.37-1.76,2.28a12.32,12.32,0,0,1-3.75-.85C146.51,69.47,146.47,68.49,147.34,66.72Z"/><path class="cls-1" d="M153.13,46.4c-.35.31-.47.47-.53.45a13.32,13.32,0,0,0-6.48-.56c-.29.06-.66-.34-1-.53,1.4-2.08,3.31-1.62,4.9-1.72C151.41,44,152.41,45,153.13,46.4Z"/><path class="cls-1" d="M150.34,51.39a2.49,2.49,0,0,1-1.89,2.2c-1,.17-1.92-.81-2-2a1.88,1.88,0,0,1,1.33-2.12A2.28,2.28,0,0,1,150.34,51.39Z"/><path class="cls-1" d="M164.93,54.66A2,2,0,0,1,163,56.47c-.79,0-1.6-.21-1.85-1.16a1.34,1.34,0,0,1,0-.77,2.14,2.14,0,0,1,3.29-.77A3.05,3.05,0,0,1,164.93,54.66Z"/><path class="cls-1" d="M161.2,144.43a7,7,0,0,1,2.93-5.92,5.3,5.3,0,0,1,7-.07,7.53,7.53,0,0,1,.9,10.94,6.44,6.44,0,0,1-6.62,1.43C162.46,149.7,161.19,147.84,161.2,144.43Zm6.25,4.65a3.67,3.67,0,0,0,3.2-1.3c1.27-1.7,2.17-4.89-.23-7.3a3.67,3.67,0,0,0-5.34-.1,6,6,0,0,0-2,3.8A4.11,4.11,0,0,0,167.45,149.08Z"/><path class="cls-1" d="M165.42,152.8c1.39,3.35,1.17,6.38.81,9.36a4.58,4.58,0,0,1-2.65,3.6c.34-2.3.54-4.37,1-6.4S164.39,155.22,165.42,152.8Z"/><path class="cls-1" d="M169,153.53a81.52,81.52,0,0,1,.68,11.52c-.75-.9-1.35-1.32-1.48-1.86a12.61,12.61,0,0,1-.18-2.76c0-1.84-.06-3.69-.05-5.54a7.35,7.35,0,0,1,.24-1.39Z"/></svg>