<svg id="Ebene_1" data-name="Ebene 1" xmlns="http://www.w3.org/2000/svg" viewBox="0 0 320 320"><defs><style>.cls-1{fill:#ee907d;}.cls-2{fill:#1d3753;}</style></defs><path class="cls-1" d="M146.69,195.58a6.62,6.62,0,0,1,.76,1.93c.74,16.74-3.66,31.46-16.89,42.68-7.68,6.51-16.44,8.77-26.2,6.35-4.74-1.18-9.37-2.89-14-4.53A22.58,22.58,0,0,1,78,231.11c-3.31-6-5.73-12.31-6.13-19.23-.23-3.94-.84-7.77-.3-11.85,1.19-8.83,6-15.72,11.19-22.26,4.27-5.31,10.84-7.6,17.27-8.65,17.51-2.85,32.36,2,43.12,16.84a15.75,15.75,0,0,1-2.06,1.87c-8.26,5.31-16.19,11.15-25.21,15.2a19.3,19.3,0,0,0-4.66,3c-1.49,1.28-1.08,3.66.55,4.86a4.94,4.94,0,0,0,4.65.61A68.88,68.88,0,0,0,133,203.91C137.52,201.11,142.11,198.35,146.69,195.58Z"/><path class="cls-2" d="M146.69,195.58c-4.58,2.77-9.17,5.53-13.74,8.33a68.88,68.88,0,0,1-16.51,7.61,4.94,4.94,0,0,1-4.65-.61c-1.63-1.2-2-3.58-.55-4.86a19.3,19.3,0,0,1,4.66-3c9-4.05,16.95-9.89,25.21-15.2a15.75,15.75,0,0,0,2.06-1.87,139,139,0,0,0,23.72-17.33,251.59,251.59,0,0,0,37.89-42.15,32.17,32.17,0,0,0,5-9.11c-4.78-5-12.58-5.52-16.73-11.94,5.54-6.37,12.13-11.57,18-17.48s12.24-11.55,18.19-17.5,11.35-12.15,16.88-17.94c1.93.59,1.54,1.68,1.56,2.51.35,15.42.85,30.85.92,46.27,0,7.23-.71,14.47-1.23,21.69a30.88,30.88,0,0,1-1.11,5c-1.88,1.56-3.45,1-5,.42-5.5-1.93-11-3.88-16.63-5.88a41.76,41.76,0,0,0-2.8,3.22,141.71,141.71,0,0,1-19.75,22.69c-7.55,7-14.62,14.5-22.16,21.49a220.28,220.28,0,0,1-27.17,21C150.66,192.34,148.72,194,146.69,195.58Z"/></svg>