<?xml version="1.0" encoding="UTF-8"?><svg id="a" xmlns="http://www.w3.org/2000/svg" viewBox="0 0 243.04 210.85"><defs><style>.b{fill:#fff;}.c{fill:#ed8f7c;}</style></defs><path class="c" d="M80.42,4.05s85.27-17.6,127.88,20.57c29.43,26.37,50.11,52.78,19.96,138.9-18.48,52.78-158.03,66.16-199.4,15.74C-1.78,141.92-34.48,46.39,80.42,4.05Z"/><g><path class="b" d="M104.1,68.1c0,.21-.07,.49-.28,.91-3.01,5.04-8.61,12.32-15.26,12.32-3.64,0-6.37-2.66-6.37-6.37,0-6.16,6.51-14.28,11.62-14.28,1.47,0,3.64,.91,3.64,2.66,0,.84-.49,1.54-1.19,1.54-.42,0-.98-.28-1.54-.91-.35-.28-.77-.42-1.19-.42-1.89,0-4.2,2.87-5.95,5.88-1.12,1.96-1.75,3.92-1.75,5.6s.7,3.01,2.17,3.43c.35,.07,.7,.14,1.05,.14,4.55,0,10.22-7.49,13.93-13.09,.07-.07,.14-.07,.21-.07,.28,0,.28,.63,.28,.77,0,.42,.42,.84,.42,.84,0,.49,.21,.63,.21,1.05Z"/><path class="b" d="M120.27,77.76c-.91,1.33-.35,.35-1.54,1.61-.21,.21-.56,.35-.84,.77-.7,.84-1.12,.77-2.17,1.26-.56,.14-.91,.14-1.47,.14-.42,.14-.77,.21-1.05,.21-1.05,0-1.61-.77-2.24-2.1-1.12-2.31-.84-10.99-.98-13.51-.56,2.8-4.27,8.96-5.18,8.89-.49,.28-.84,.35-1.33,.63-.21,.07-.49,.14-.7,.14-1.19,0-2.1-1.19-2.24-2.31-.07-.35-.07-.63-.07-.98,0-2.45,1.05-5.53,2.45-7.63,1.19-1.54,2.59-3.36,5.18-4.41,.56-.28,1.33-.42,2.17-.42,.49,0,2.94,.21,2.94,.91,0,.07-.07,.21-.07,.21-.14,.21-.42,.28-.7,.28,.14,.21,.42,.21,.42,.42-.07,.42-.07,.49-.07,.77,0,.21,.21,.28,.21,.98,.28,1.12,.28,3.43,.28,5.95v5.04c0,2.66,.07,4.69,.42,4.69,2.38,0,10.01-11.48,11.41-13.3,.49-.63,.77-1.19,1.12-1.19,.28,0,.77,1.12,.84,1.33,.07,.28,.07,.56,.07,.77,0,.49-.14,.98-.35,1.54l-.28,.63c-1.54,2.45-3.5,5.04-5.04,7.14-.28,.28-.21,.49-.56,.56,.07,0-.28,.35-.28,.28,0-.49,.49-.63,.7-.98,.07-.21,.28-.35,.35-.56-.07,0-.07-.21-.07-.21l-.28,.35c0,.07,0,.14-.14,.14l-.63,.91c-.35,.35-.63,.84-.91,1.33,.07-.07,.28-.35,.42-.35l.42-.28-.21,.35Zm-10.92-14.35c.35-.56,.7-1.26,.91-1.54-3.29,1.54-5.95,8.4-6.93,12.18,2.31-3.78,3.78-6.86,6.02-10.64Zm-1.68,4.76c0-.07-.07-.14-.14-.14-.07,.07-.49,.49-.49,.7,0,.07,.07,.14,.14,.14,.07-.07,.49-.49,.49-.7Zm-.21,.91c0-.07,0-.14-.14-.14,0,.14-.21,.28-.21,.42,.14-.14,.35-.28,.35-.28Zm-.28-.84c.07,0,.28-.28,.35-.49-.07,.07-.21,.07-.28,.07,0-.07-.07,.07-.07,.42Zm.77,.35c0-.21-.07-.28-.07-.28-.07,0-.14,.21-.21,.42,0,0,.14-.14,.28-.14Zm.21-.07c-.14,.07-.35,.28-.42,.35,0,.07,.35-.21,.42-.35Zm.07-2.45c-.07,.07-.14,.14-.21,.14-.14,.14,0,.14-.21,.35,0,0,0,.14,.07,.21l.35-.7Zm.07,1.05s0-.21,.07-.28c-.14,.07-.49,.56-.35,.42,.07,0,.14-.07,.28-.14Zm-.28,1.82c.21,0,.35-.14,.42-.35-.21,0-.49,.35-.42,.35Zm.91-3.85c.07,0,.14,.07,.21,.07s.14,0,.14-.14c0,.07-.07-.14-.07-.21-.07,.07-.14,.21-.28,.28Zm11.76,9.03c0-.07-.07-.14-.07-.21-.77,.35-1.33,2.1-1.33,2.1,.21,0,.49-.56,.7-.77,.14-.35,.28-.28,.28-.49,0-.28,.42-.35,.42-.63Zm-.98,2.03c-.14,.14-.28,.63-.21,.49,.14-.14,.21-.07,.21-.49Zm.07,1.12c.14-.14,.35-.49,.35-.49,0-.21,.21-.42,.21-.84-.14,.42-.49,.56-.7,1.12,0,.28-.07,.21-.07,.56l.21-.35Zm.42-1.47c.28-.14,.35-.35,.49-.56,.07-.07,.14-.14,.14-.21s-.07-.14-.14-.21c-.28,.28-.7,.7-.91,1.05,.14,.14,.14,.21,.14,.21,.07,0,.28-.49,.35-.49l-.07,.21Zm.56-2.59c-.35,.07-.56,.77-.49,.77,.21,0,.42-.7,.49-.77Zm.21-.42c0,.07,.07,.21,.07,.28s.84-.7,.77-.63h-.35c-.14,.14-.21,.14-.21,.35h-.28Z"/><path class="b" d="M125.45,79.44c.91,0,1.19,.84,1.19,1.75,0,.7-.35,1.82-.91,2.24-.35,.14-.77,.21-1.26,.21-.77,0-1.61-.21-2.03-.84-.49-.21-.7-.63-.7-1.05,0-.63,.42-1.4,.84-1.82,.77-.49,1.61-.49,2.59-.49h.28Z"/><path class="b" d="M156.6,69.85c2.52,.56,3.5,2.1,3.5,4.06,0,4.55-5.39,11.2-8.61,11.48,0,0-.07-.42-.14-.42-.42,0-1.82,.49-1.61,.49,.28,0,.77-.21,1.12-.21,0,.42-.84,.49-1.33,.49h-.56c0-.07,.35-.14,.35-.21h-.28c-.14,0-.42-.14-.56-.14-.07,0-.07,.07-.14,.14-.07,.14-.07,.28,.14,.28,.07,0,.14-.07,.28-.07,.07,0,.14,0,.21,.07,.42,0,.84,0,1.26-.07,0,.21-.91,.35-1.61,.35-.35,0-.63-.07-.77-.07-2.03-.14-5.25-1.05-5.25-7.28,0-9.38,7.14-23.52,12.95-27.93,0-.07,1.12-.56,1.96-.56,.56,0,.98,.21,.98,.77s-.56,1.12-.84,1.54c-3.01,3.99-10.08,14.7-10.85,23.38,1.82-3.43,6.37-6.16,9.1-6.16,.21,0,.49,0,.7,.07Zm-13.37,8.4c0-.07,0-.21-.07-.21v.56c.07-.07,.07-.21,.07-.35Zm-.07,.49v.28c.07,0,.14-.07,.14-.14s-.07-.14-.14-.14Zm1.33,4.2c.07,.07,.07,.35,.21,.35,0-.14-.35-.91-.42-1.19,0,.28,0,.56,.21,.84Zm-.07-4.55c.21,0,.28,0,.28,.07v.49c.07,0,.21-.98,.21-2.45-.14,.07-.28,.28-.28,.42s.07,.21,.14,.21v.28c0,.42-.35,.77-.35,.98Zm.98,4.48c0-.49-.21-.91-.28-.84-.21,0-.14-1.19-.28-1.47-.07,0-.07,.28-.07,.63s0,1.68,.63,1.68Zm-.42-5.39c0,.42-.14,.91-.14,1.4,0,.14,0,.21,.07,.35,.07-.28,.21-.77,.21-1.19,0-.21-.07-.42-.14-.56Zm.21-2.31c.14-.21,.14-.56,.14-.77-.07,.14-.21,.28-.21,.49,0,0-.14,.14-.14,.21s.07,.07,.21,.07Zm.49,4.55v.7c0,.21,0,.28,.35,.28,0-.14,.07-.21,.07-.28,0-.35-.21-.49-.21-1.05-.07,.14,0,.28-.21,.35Zm.21-1.68c-.07,.14-.07,.28-.07,.42,0,.21,.07,.42,.42,.49,0-.28-.14-.63-.35-.91Zm.42,6.93c0-.07-.07-.35-.07-.56,0,0-.21,0-.21,.14,.21,0,.21,.35,.28,.42Zm.21-1.89s-.14-.07-.21-.21c0,.14,0,.28-.07,.35,0,.14,.07,.28,.07,.28,.28,.21,.28,.56,.56,.84,0-.42-.35-1.05-.35-1.26Zm-.21-2.8v.35c0,.49,.21,1.33,.28,1.33v-.21c0-1.05,.07-.77,.21-1.82-.07,.14-.21,.35-.49,.35Zm.49,2.03s-.07,.14-.07,.21c0,.14,.28,.98,.49,.98,.07,0,.21-.07,.21-.21,0-.07,0-.14-.07-.28,0-.14-.21-.21-.28-.21s-.21,.14-.21,.14c0,0,0-.14,.07-.21-.07-.07-.14-.28-.14-.42Zm.7-2.59c0,.07-.07-.14-.14-.14s-.14,.21-.14,.77c0-.21,.28-.35,.28-.63Zm.07,.84c-.21,.21-.28,.7-.28,1.19,0,.07,.28,.21,.28,.21v-1.4Zm.28-.56c0-.21-.07-.21-.07-.21,0-.14,.07-.07,.07-.28-.28,0-.28,.77-.28,.77,.07,0,.14-.07,.28-.28Zm1.82,2.59c2.59,0,6.86-5.18,6.86-7.84,0-.84-.42-1.4-1.26-1.4-.56,0-1.26,.21-1.89,.42,0,.07-.07,.21-.14,.28,.07-.07,.21-.07,.28-.07l-.42,.21c-.07,.07-.21,.14-.28,.14-.07,.07-.21,.07-.28,.14-.14,.14-.21,.21-.21,.21,0,.07-1.12,1.19-1.19,1.19s-.14,0-.21-.07c-.21,.35-1.4,2.38-1.4,2.59,0,0,0,.07,.21,.07,0,.14-.91,1.54-1.05,1.54,0,0,.14-.28,.14-.35,0-.21,.28-1.33,.56-1.33,0-.49,.14-.49,.35-1.05,.14,0,.28-.14,.28-.35,.28,0,.42-.7,.42-.7-.07,0-.21,.14-.35,.35,.07,0-.14,.21-.28,.21-.07,0-.28,0-.35-.07,0,.07-.07,.35-.14,.49,.07,.07,.21,.07,.42,.07-.35,.35-.42,.63-.42,.84,0,.14,0,.21-.28,.21-.14,.14-.56,.84-.56,1.05v.35c-.28,.28-.49,1.12-.49,1.61-.07,0-.07,.07-.07,.21v.35c.07,.07,0,.49,.42,.7v-.35c.07,0-.07-.14-.07-.49,0-.07,.28-1.05,.28-.91,0-.35,.35-.91,.49-.91v.28c0,.07-.07,.21-.14,.42-.21,.56-.21,.84-.21,1.19,0,.28,.07,.49,.21,.56,.21,.07,.56,.21,.77,.21Zm-1.26-5.46c-.14,.14-.42,.49-.49,.7,.42-.07,.56-.28,.56-.49,0-.07,0-.14-.07-.21Zm.63,7.91c0-.14,.07-.21,.14-.28l-.56-.14c.14,.07,.35,.14,.42,.42Zm.7,0l-.35-.21c.07,.07,.14,.21,.35,.21Zm.28-8.89l-.21,.28c.07-.07,.14-.07,.21-.07,0-.14,.14-.28,.21-.49-.14,.14-.21,.14-.21,.28Zm.63-.84c-.28,0-.28,.28-.28,.28,0,0,.28,0,.28-.28Z"/><path class="b" d="M92.98,154.51c0,.21,.07,.42,.07,.77-.14-.07-.07-.07-.21-.21l-.28-.21c-.07,0-.35,0-.35-.07-.07,.35-.14,.42-.14,.63-.07-.35-.28-.56-.42-.91,0,.35,.14,1.05,.14,1.12,0,0,0-.07-.07-.21-.28-.14-.63-.84-.63-.77-.07,.21-.07,.56-.14,.56,0,.07,.21,.35,.28,.56,.14,.35,.28,.84,.35,.91-.91-.91-1.89-1.89-1.89-3.36,0-1.61,.21-2.66,.28-4.76-.14,.14-.21,.28-.21,.42s.07,.28,.07,.42c0,0-.21,0-.21-.07,0-2.38,.84-9.45,1.54-10.71-.14,.84-.35,1.75-.35,2.73v1.12c.14-.28,.42-1.4,.49-2.1,0,.07-.14,.21-.14,.21,0-.49,.35-1.89,.35-2.17,0-3.01,.42-3.64,.56-4.13,.77-4.27,.63-3.29,.77-4.06,0-.21,.07-.49,.14-.98-.28,.63-.14,.77-.56,1.54,.14-2.24,.77-4.2,.91-5.81-.07,0-.07-.07-.07-1.75,0-.49-.07-1.19-.14-1.19-.14,.14-.21,.63-.28,.91,.21-.14,.07-.14,.21-.28,0,.7-.14,2.31-.49,3.29v-.77c0-.56,0-1.19,.21-1.61,0-.14-.07-.21-.07-.35-.28-1.96,.14-4.55-.77-6.3-3.22,1.61-7.63,11.55-8.96,15.26-.14,0-.42-.21-.42-.14,0,.14,.21,.28,.21,.63-1.12,3.85-2.8,14.07-2.94,16.52-.14,.21-.7,.49-.7,.63,0,.21-.21,.21-.21,.35-.07,0-.07-.07-.14-.21-.28,.21-.28,.42-.49,.42-.07-.28-.21-.56-.35-.56-.07,.28-.49,1.12-.84,1.12-.14,0-.28-.14-.35-.21-.07,0-.07,.21-.21,.21-.21,0-.56,0-.77-.21,0-.14,.21-.28,.21-.35,0-.28-.35-.42-.35-.49,.21,0,.21-.35,.42-.42,0-.28-.07-.7-.07-.77l.42-3.29c.77-6.72,1.82-16.17,1.82-24.15,0-4.27-.35-8.19-1.12-11.06-7.63,9.38-9.03,24.08-10.57,39.97l-.21,2.03c0,.91,.14,1.33,.14,2.24,0,1.68,.21,2.1,.21,2.17-.14,0-.35,.07-.35,.28,0,0-.07-.07-.49-.07s-.28,.63-.77,.63c-.21,0-.35-.07-.56-.14-.14,.07-.14,.28-.28,.28-.07,0-.14,0-.21-.07-.21,.21-1.68,.7-2.38,.7-.21,0-.28-.28-.28-.77,0-1.05,.35-3.01,.35-4.48,0-15.75-.21-33.67-1.05-48.02,0-.14,.07-.49,.42-.77,.07-.21,1.47-2.17,3.15-2.17,1.33,0,1.54,1.68,1.54,3.85v6.09c0,5.46-.07,13.09-.49,16.17,2.24-10.01,8.19-22.12,12.11-22.12,.28,0,1.54,.56,1.75,.91,0,0-.07,0-.21-.07,0,.07,.07,.21,.14,.28h-.28c-.14-.07-.14-.28-.28-.28,.07,.07,.21,.42,.42,.56,.21,0,.28,.07,.35,.07,.14,0,.77,1.47,1.12,1.82,0-.14,.14-.21,.21-.28,0,.7,.28,4.27,1.05,4.27,0-.14-.14-.21-.14-.42,0,0-.63-1.33-.63-2.45,0-.21,0-.35,.07-.49,.91,2.17,1.19,5.11,1.19,8.05s-.35,5.81-.56,7.77v.56c0,.21-.07,.49-.07,.7,3.57-9.59,7.63-13.93,10.43-13.93,3.57,0,4.69,4.9,4.69,11.27,0,11.2-3.22,20.86-3.22,31.01-.07,0-.35-.91-.42-.84Zm-30.17-23.8c-.07,0-.21,.07-.21,.14s.07,.14,.14,.14c0-.07,.07-.28,.07-.28Zm1.05,12.88c0,.14-.07,.35-.07,.63,0,.35,0,.49,.07,.49,.14-.84,.42-1.68,.42-2.66,.28-.56,.35-3.29,.56-4.34-.07,.07-.21,.14-.21,.14v-.28c0-.21,0-.35,.21-.42-.07-.07-.14-.14-.14-.28s.07-.21,.07-.42c-.14,.14-.14,.21-.14,.35v.35c-.07,0-.07-.21-.14-.28,0,.91-.28,3.64-.28,3.5,0-.49-.07-1.12-.07-1.68,0,.7-.07,1.68-.14,1.82v-1.19l-.14,.21c.07-.63,.07-1.4,.07-2.24,0-.98-.14-4.13-.35-4.13,0,.28,0,.7-.07,.84v2.73c0,.14-.07,.35-.07,.42-.07,0-.14-.35-.14-2.66l-.21,1.47c-.07-.14-.07-.28-.07-.49,0-.42,.07-.91,.07-1.33-.21,0-.28-.56-.28-.49,0,.21-.14,.56-.14,.77,0,.07,0,.21,.07,.21s.14-.14,.21-.14c0,.07-.07,.14-.07,.42,0,.07-.14,.28-.14,.35,0,.42,.07,0,.07,.63,0,.14,.21,.28,.21,.35-.07,0-.14-.14-.21-.14v.35c.07-.07,.07,.07,.07,.21,0,.35-.07,.91-.07,1.05v1.33c0,.42,0,.77,.07,1.75v.84c0,.42,.07,.98,.63,1.05,0,.28-.07,.35-.07,.42s0,.14,.14,.28c.07-.07,.14-.07,.21-.07,.07,.07,.07,.21,.07,.28Zm-.98-11.9c.14,.07,.14,.35,.14,.56,0-.07,.14-.14,.14-.28,0-.35-.07-.7-.21-.84,0,.14,0,.49-.07,.56Zm.14,.77c0,.14-.07,.42-.07,.56s0,.28,.14,.28c0-.28,0-.7-.07-.84Zm.14,4.83v.7c0,.14,0,.28-.07,.49-.07,0-.07-.7-.07-1.26v-.28c0-.14,0-.28,.07-.35,.07,.14,.07,.42,.07,.7Zm-.14,4.62c0-.14,.07-.28,.07-.35,.07,0,.07,.49,.07,.7-.14,0-.14-.21-.14-.35Zm.21-11.83c-.14,0-.14,.07-.14,.14s0,.14,.14,.14v-.28Zm-.07,2.94c0,.35,0,.56,.07,.84v-.84c0-.28,0-.56,.07-.91-.14,.35-.14,.63-.14,.91Zm.35,8.54l-.07,.28c-.07-.07-.07-.28-.07-.91,.07,.07,.14,.28,.14,.63Zm.07-3.22s-.07-.35-.07-.42,.07-.28,.07-.35c0,0,.14,0,.14,.28,0,.07-.07,.49-.14,.49Zm.84,2.31v.56c.07-.84,.21-1.61,.21-2.24-.21,.35-.21,1.12-.21,1.68Zm.84-1.54c-.07,.07-.14,.21-.14,.28l-.07,.7c-.07,.07-.14,.56-.14,.63,0,.14,0,.28,.07,.35,0-.28,.14-1.05,.28-1.26v-.7Zm-.21-.14c.35-.49,.42-1.4,.42-2.1-.21-.07-.28-.63-.28-.63-.14,0-.14,1.61-.14,1.82v.91Zm.28-1.26c-.07,.21-.14,.28-.14,.28-.07,0-.07-.14-.07-.21s0-.14,.07-.21c.07,0,.14,.07,.14,.14Zm-.14-.63c.21,0,.21,.14,.21,.35-.21,0-.21-.28-.21-.35Zm.42-1.75c0-.35-.07-.56-.07-.56,0,.56-.07,1.19-.07,1.75,.14-.28,.14-.77,.14-1.19Zm12.67-28.49c-.07-.35-.28-.49-.63-.56,0,.07,.14,.07,.35,.14,0,.14,.14,.21,.28,.42Zm1.47,.42c.14,0,.21,.35,.21,.35-.07,.28-.07,.35-.07,.35,0-.14-.21-.28-.21-.49,0-.07,.07-.21,.07-.21Zm11.83,9.31c-.42,0-.56,.14-.56,.14,0-.07,.07-.14,.14-.35,0-.07-.28,.28-.42,.28-.07,0-.14-.07-.14-.35,0-.07,.07-.07,.07-.28-.21,.21-.63,.7-.84,.7-.07,0-.14-.07-.14-.14-.21,0-.42,.28-.42,.56,.07,.07-1.05,.98-1.12,1.12-1.47,1.4-3.22,3.71-3.57,5.67,.28-.14,.42-.42,.49-.42,0,0,.07,.07,.14,.35-.21,0-.56,1.05-.56,1.12-.07,.42-1.82,2.8-2.1,5.04,.28-.35,.28-.42,.49-.56-.14,.7-.49,1.61-.49,1.89,1.33-3.15,1.82-3.99,1.82-4.13,0-.63,3.29-7.28,6.09-9.38-.14,0-.42,.14-.49,.14,.49-.42,1.33-.91,1.61-1.4Zm-5.95,6.37c.21-.56,.28-.63,.91-1.61,0,.49-.42,1.33-.91,1.61Zm.14-.98c.07-.35,.35-.56,.63-.84-.07,.21-.42,.77-.63,.84Zm.98,.07c0,.14-.35,.63-.49,.91,.07-.28,.28-.7,.49-.91Zm.07-.21c0-.21,.28-.35,.42-.7,0,.28-.42,.77-.42,.7Zm.42-.77c.35-.56,.77-.91,1.12-1.47,0,.49-.7,1.4-1.12,1.47Zm.49-3.01c.07,0,.56-.35,1.12-.98-.91,.63-1.19,.98-1.12,.98Zm.07,1.75c0-.14,.21-.28,.35-.35,0,.14-.35,.35-.35,.35Zm2.1-4.41c-.77,.42-1.75,1.19-1.96,1.68,.63,0,1.4-1.12,1.96-1.68Zm-1.54,.28s.07,.28,.14,.28c.07-.07,.21-.21,.21-.42-.07,0-.35,.07-.35,.14Zm.42,3.5c0,.07-.28,.28-.42,.28,.07-.21,.21-.21,.42-.28Zm.14-3.85c-.07,.07-.14,.14-.14,.21,.07,0,.14-.07,.14-.21Zm.77,2.8c-.35,.35-.77,.77-.91,.77,.28-.35,.49-.56,.91-.77Zm.42-2.38c-.21,.21-.7,.42-.7,.7,.21-.28,.42-.42,.77-.49,0-.07,0-.21-.07-.21Zm-.42,1.75s-.14,0-.21-.07c0,0,.07-.21,.28-.21-.07,.07-.07,.21-.07,.28Zm.42-2.03c0,.07,.07,.07,.21,.07s.7-.56,.7-.56c-.21,0-.91,.35-.91,.49Zm.14,32.2c-.07,.28-.14,1.47-.14,2.45,0,.49,.07,1.26,.07,1.26,.07,0,.14-2.03,.28-2.73,0-.21-.07-.42-.07-.63,0-.7,0-1.33,.07-1.68-.14,.35-.21,.7-.21,1.05v.28Zm.42-2.52c.07,0,.35-1.4,.49-1.75-.14,0-.21,.21-.21,.21l.21-1.61c-.28,.35-.42,1.19-.42,1.4-.07-.07-.07-.14-.07-.28-.14,.28-.35,.77-.35,1.12,0,.14,.14,.91,.35,.91Zm-.21,5.53v.28c.07,0,.21-.63,.21-.91-.14,.21-.21,.42-.21,.63Zm.07-2.73c0,.21,.07,.42,.07,.56,.07-.28,.14-.84,.14-1.19-.07,.21-.21,.42-.21,.63Zm.21,2.1c0,.28,.07,.42,.14,.42,.14,0,.28-1.26,.49-2.59v-.77c-.49,1.33-.63,2.38-.63,2.94Zm.56,2.52c0-.14-.07-.21-.14-.21,.07-.42,.07-.77,.07-1.05,0-.35,0-.49-.07-.49s-.14,.42-.14,1.61c0,.21,0,.42,.14,.56,0-.07,.07-.28,.14-.42Zm1.12-25.55c0-.21,.35-.49,.35-.49,0,2.03-.77,4.34-.77,6.23,0,.35-.14,.35-.21,.77,0,.28,0,.49,.07,.77-.28,.77-.49,3.36-.63,3.36,0-.07,.07-.21,.07-.42-.07,0,0,.28-.21,.28,0-3.5,1.33-7.07,1.33-10.5Zm-1.12,17.78c.14,0,.56-1.61,.56-2.24,0-.14,0-.21-.07-.28,0,.07-.21,.35-.21,.42-.28,.63-.28,2.1-.28,2.1Zm.49,1.12c.28-1.82,.14-.49,.35-2.1,0-.07-.07-.21-.07-.28,0-.14,.14-.49,.14-.91-.28,.84-.35,2.73-.63,3.01-.07,.07-.14,.14-.14,.21s.21,.07,.21,.28c0,.07-.07,.14-.07,.21,.14-.14,.21-.28,.21-.42Zm.07,2.17c0-.21,0-.42-.07-.56,0-.14,.21-.35,.21-.49v-.56c-.28,.28-.42,1.96-.42,2.24,0,.07,0,.21,.07,.35,.14-.35,.21-.63,.21-.98Zm.07-33.81c.07,0,.28-.07,.28-.14s-.21-.14-.42-.21c0,.28,.07,.35,.14,.35Zm-.14,.28c0,.14,.14,.28,.42,.42,0-.28-.35-.35-.42-.42Zm0,35.21c.07-.14,.56-.56,.56-2.66-.21,0-.49,1.82-.56,2.66Zm.07-7.77c.21-.28,.28-.49,.35-.84,0-.14-.07-.28-.07-.42-.21,.49,0,.7-.28,1.26Zm.35,3.71c0-.21-.07-.49-.07-.56v-.42c-.07,.49-.21,1.33-.21,1.47,.21,0,.28-.21,.28-.49Zm-.07-13.09v-.84c0-.14,.07-.35,.35-.35,0,.07-.21,1.19-.35,1.19Zm.42,16.59c0-.21-.07-.35-.14-.35s-.07,.28-.14,.28c.07,.14,.07,.35,.07,.49,0,.21-.07,.42-.07,.63,0,.14,0,.21,.07,.35,.07-.21,.21-.98,.21-1.4Zm.07-35.28c0,.28,.21,.28,.21,.28,0-.21-.14-.21-.21-.28Zm0,1.33l.28,.07c0-.14-.07-.14-.07-.21,.07,0,.28-.07,.28-.07-.07,0-.14-.07-.21-.21-.21,.21-.21,.42-.28,.42Zm.63,29.61c0-.07-.14-.21-.14-.14,0,.28-.21,.42-.35,.77,0,0,0,.49-.14,1.12,.21-.21,.63-1.47,.63-1.75Zm-.42,3.01c0-.07,.35-.07,.35-1.05,0-.21,0-.28-.07-.28-.14,0-.28,1.12-.28,1.33Zm.14-16.87c.21-.49,.28-.84,.28-1.19-.21,.21-.28,.77-.28,1.19Zm.14,.35c0-.14,.14-.35,.14-.56-.07,.14-.14,.21-.14,.56Zm.14-4.76c0,.21,0,.35,.07,.56,0-.28,.42-1.12,.42-1.33-.07-.07-.14-.07-.28-.07l-.21,.84Zm.14-10.57c-.07,.07-.07,.14-.07,.21s.14,.21,.28,.28c0-.28-.21-.49-.21-.49Zm.07-.7c.07,.14,.28,.84,.35,.7,0,0,.35,.49,.63,1.26-.07-.42-.21-1.12-.7-1.61,0-.07-.07-.21-.28-.35Zm.28,9.17c-.07,.07-.28,.49-.28,.7,0,.07,.07,.14,.14,.14,0-.28,.14-.84,.14-.84Zm1.4-7.63c-.14-.42-.91-2.17-1.47-2.59,.21,.42,1.19,2.45,1.19,2.45l.28,.14Zm-.98,.28c0-.14-.21-.35-.28-.35,.07,.07,.07,.21,.28,.35Zm-.07,.14c0-.07,0-.14-.14-.14,0,.07,.14,.21,.14,.14Zm0,.63c.07,0,.21,.14,.28,.14,0-.14-.14-.28-.21-.42,0,.14-.07,.21-.07,.28Zm.77,.35c0,.21,0,.35,.28,.42,0-.07-.14-.35-.28-.42Z"/><path class="b" d="M117.75,131.68l.35,.21-.21,.14c-1.75,.42-1.61,.63-2.24,.77,0,.21-1.96,.91-2.38,1.05-.14,.14-.21,.28-.49,.35-.49,.49-3.85,1.4-4.76,1.4-.21,0-.14-.14-.28-.21l-.21,.07c.21,1.33,.28,2.66,.28,4.06,0,2.24-.28,4.41-.77,5.95-.07,.28-.63,1.82-1.26,2.31-.91,1.33-.07,.84-2.94,2.52-.35,.07-.63,.14-.91,.14-1.33,0-2.24-.84-2.66-1.68-.56-.91-.77-2.24-.77-3.71,0-5.53,2.73-13.44,9.03-14.14,.28,0,.77-.07,1.12-.07,.49,0,.91,.07,.91,.35,0,.14-.07,.28-.28,.49-.49,.14-.84,.14-1.19,.14h-.35c-.14-.07-.28-.07-.42-.07-2.66,0-5.25,11.69-5.25,15.33,0,.7,.07,1.12,.28,1.12,1.05,0,3.85-7.84,3.85-12.6v-.63c0-.14,.21-.28,.21-.49-.07-.21-.28-.49-.28-.56,0-.21,.21-.35,.42-.35s.42,.07,.56,.21c1.61-.28,4.55-1.47,6.23-1.96,1.75-.49,2.73-.7,4.27-.7h.7l-.63,.21,.56,.14-.49,.21Zm-2.24,.7s.28-.07,.21-.14c-.07,0-.21,0-.21,.14Zm.56-.35c-.07,.07-.14,.14-.14,.28,.07,0,.14-.07,.14-.28Zm.07-.28h.28c.07,0,.14-.07,.14-.21-.07,0-.42,0-.42,.21Zm.14,.49c.14-.14,.98-.28,.77-.28h-.63c-.07,0-.07,.07-.21,.07l.07,.21Zm.49-.84c.07,.07,.14,.07,.28,.07s.21,0,.35-.07h-.63Z"/><path class="b" d="M124.82,145.97c0-3.43,.77-8.12,.77-10.43,0-.84-.07-1.33-.35-1.4-3.5,3.99-5.53,7.98-7.7,12.32l-.7,1.47c0,.21-.07,.28-.07,.28-.14,.63-.77,1.54-1.33,1.54-.14,0-.21-.07-.35-.14l-.7-.28c-.21-.07-.56-.49-.56-.56,0-.14-.07-.28-.14-.49,0-4.55,1.26-12.53,2.24-16.87,.28-1.05,.77-1.68,1.68-1.89,.21-.07,.42-.07,.7-.07,.56,0,1.19,.14,1.4,.42,.14,.21,.21,.56,.21,.84,0,.91-.49,1.61-.7,2.45l-.14,.28c-.35,1.82-.77,3.99-1.26,6.23,1.12-1.68,3.71-7,7.14-8.26,.21-.07,.42-.14,.7-.14,2.87,0,3.22,3.01,3.22,5.18,0,3.43-.63,8.19-.63,9.94,0,.42,.07,.63,.14,.63,1.05,0,6.09-5.46,10.29-11.76,.21-.35,.49-.49,.7-.49,.7,0,1.19,1.47,1.19,2.24,0,.21,0,.35-.07,.42-1.68,3.01-9.1,13.16-12.74,13.16-2.8,0-2.94-2.45-2.94-4.62Z"/><path class="b" d="M157.02,145.76c-.91,1.33-.35,.35-1.54,1.61-.21,.21-.56,.35-.84,.77-.7,.84-1.12,.77-2.17,1.26-.56,.14-.91,.14-1.47,.14-.42,.14-.77,.21-1.05,.21-1.05,0-1.61-.77-2.24-2.1-1.12-2.31-.84-10.99-.98-13.51-.56,2.8-4.27,8.96-5.18,8.89-.49,.28-.84,.35-1.33,.63-.21,.07-.49,.14-.7,.14-1.19,0-2.1-1.19-2.24-2.31-.07-.35-.07-.63-.07-.98,0-2.45,1.05-5.53,2.45-7.63,1.19-1.54,2.59-3.36,5.18-4.41,.56-.28,1.33-.42,2.17-.42,.49,0,2.94,.21,2.94,.91,0,.07-.07,.21-.07,.21-.14,.21-.42,.28-.7,.28,.14,.21,.42,.21,.42,.42-.07,.42-.07,.49-.07,.77,0,.21,.21,.28,.21,.98,.28,1.12,.28,3.43,.28,5.95v5.04c0,2.66,.07,4.69,.42,4.69,2.38,0,10.01-11.48,11.41-13.3,.49-.63,.77-1.19,1.12-1.19,.28,0,.77,1.12,.84,1.33,.07,.28,.07,.56,.07,.77,0,.49-.14,.98-.35,1.54l-.28,.63c-1.54,2.45-3.5,5.04-5.04,7.14-.28,.28-.21,.49-.56,.56,.07,0-.28,.35-.28,.28,0-.49,.49-.63,.7-.98,.07-.21,.28-.35,.35-.56-.07,0-.07-.21-.07-.21l-.28,.35c0,.07,0,.14-.14,.14l-.63,.91c-.35,.35-.63,.84-.91,1.33,.07-.07,.28-.35,.42-.35l.42-.28-.21,.35Zm-10.92-14.35c.35-.56,.7-1.26,.91-1.54-3.29,1.54-5.95,8.4-6.93,12.18,2.31-3.78,3.78-6.86,6.02-10.64Zm-1.68,4.76c0-.07-.07-.14-.14-.14-.07,.07-.49,.49-.49,.7,0,.07,.07,.14,.14,.14,.07-.07,.49-.49,.49-.7Zm-.21,.91c0-.07,0-.14-.14-.14,0,.14-.21,.28-.21,.42,.14-.14,.35-.28,.35-.28Zm-.28-.84c.07,0,.28-.28,.35-.49-.07,.07-.21,.07-.28,.07,0-.07-.07,.07-.07,.42Zm.77,.35c0-.21-.07-.28-.07-.28-.07,0-.14,.21-.21,.42,0,0,.14-.14,.28-.14Zm.21-.07c-.14,.07-.35,.28-.42,.35,0,.07,.35-.21,.42-.35Zm.07-2.45c-.07,.07-.14,.14-.21,.14-.14,.14,0,.14-.21,.35,0,0,0,.14,.07,.21l.35-.7Zm.07,1.05s0-.21,.07-.28c-.14,.07-.49,.56-.35,.42,.07,0,.14-.07,.28-.14Zm-.28,1.82c.21,0,.35-.14,.42-.35-.21,0-.49,.35-.42,.35Zm.91-3.85c.07,0,.14,.07,.21,.07s.14,0,.14-.14c0,.07-.07-.14-.07-.21-.07,.07-.14,.21-.28,.28Zm11.76,9.03c0-.07-.07-.14-.07-.21-.77,.35-1.33,2.1-1.33,2.1,.21,0,.49-.56,.7-.77,.14-.35,.28-.28,.28-.49,0-.28,.42-.35,.42-.63Zm-.98,2.03c-.14,.14-.28,.63-.21,.49,.14-.14,.21-.07,.21-.49Zm.07,1.12c.14-.14,.35-.49,.35-.49,0-.21,.21-.42,.21-.84-.14,.42-.49,.56-.7,1.12,0,.28-.07,.21-.07,.56l.21-.35Zm.42-1.47c.28-.14,.35-.35,.49-.56,.07-.07,.14-.14,.14-.21s-.07-.14-.14-.21c-.28,.28-.7,.7-.91,1.05,.14,.14,.14,.21,.14,.21,.07,0,.28-.49,.35-.49l-.07,.21Zm.56-2.59c-.35,.07-.56,.77-.49,.77,.21,0,.42-.7,.49-.77Zm.21-.42c0,.07,.07,.21,.07,.28s.84-.7,.77-.63h-.35c-.14,.14-.21,.14-.21,.35h-.28Z"/><path class="b" d="M161.36,157.94c0,.07-.21-.42-.21-.35l-.21,.07-.07-1.19c-.21,.28-.21,.63-.21,1.12-.35-.14-.49-1.19-.56-1.26-.14-.14-.14,1.26-.21,1.26s-.14-.35-.14-.91c0-1.61,.28-4.97,.35-6.16,0-.49,.07-1.12,.07-1.61,.84-9.38,2.1-20.44,3.29-29.61h-.42c-.63,0-1.4-.07-1.68-.07-1.26,0-3.64-1.68-3.64-2.17,0-.07,.07-.14,.21-.14,2.1-.21,3.78-.28,5.95-.35,.42-1.82,1.12-8.05,1.75-10.5,.63-1.47,.42-1.82,1.61-1.82,.42,0,.7-.07,.91-.07,.28,0,.42,.14,.42,.77v.28c0,.14,0,.35-.14,.63,.07,.35,.14,.84,.14,1.26,0,.35-.07,.63-.07,.98,0,3.15-.56,6.02-.77,7.98,2.03,0,4.48,.14,5.81,1.33-.35,0-.77,.63-1.19,.63,0,0,.14,.07,.21,.28-.98,0-4.41,.21-5.18,.35-1.54,13.37-3.08,26.39-4.83,38.99-.07,.28-.14,.56-.28,.7-.14-.14-.14-.28-.14-.49v-.35c0,.07-.14-.21-.14-.14,0,.63-.14,.84-.21,.84-.14,0-.28-.42-.28-.98-.07-.07-.07,.35-.14,.7Z"/><path class="b" d="M173.89,137.28c-.98,2.8-1.54,5.39-1.54,7.42,0,2.24,.63,4.9,3.29,4.9,6.23,0,13.58-10.64,16.8-15.26,.14-.14,.28-.21,.42-.21,.35,0,.49,.42,.49,.84,0,.14-.07,.21-.07,.35v1.89c0,.14,0,.21-.07,.42,0,.28-.21,.63-.21,.91-3.85,5.88-10.43,13.3-16.66,13.3-4.62,0-7.28-3.5-7.28-7.98,0-6.65,5.25-15.05,9.87-15.05h.28c.42,0,2.38,1.54,2.59,2.17,.14,.42,.14,.77,.14,1.12,0,3.22-3.92,5.18-7.7,5.18h-.35Zm.77-1.4c1.96,0,5.18-3.29,5.18-4.69,0-.28-.14-.49-.42-.56-1.19,0-3.5,2.59-4.76,5.25Z"/></g><path class="b" d="M25,71.73c.91,0,1.19,.84,1.19,1.75,0,.7-.35,1.82-.91,2.24-.35,.14-.77,.21-1.26,.21-.77,0-1.61-.21-2.03-.84-.49-.21-.7-.63-.7-1.05,0-.63,.42-1.4,.84-1.82,.77-.49,1.61-.49,2.59-.49h.28Z"/><path class="b" d="M53.63,35.06c.91,0,1.19,.84,1.19,1.75,0,.7-.35,1.82-.91,2.24-.35,.14-.77,.21-1.26,.21-.77,0-1.61-.21-2.03-.84-.49-.21-.7-.63-.7-1.05,0-.63,.42-1.4,.84-1.82,.77-.49,1.61-.49,2.59-.49h.28Z"/><path class="b" d="M141.26,13.26c.91,0,1.19,.84,1.19,1.75,0,.7-.35,1.82-.91,2.24-.35,.14-.77,.21-1.26,.21-.77,0-1.61-.21-2.03-.84-.49-.21-.7-.63-.7-1.05,0-.63,.42-1.4,.84-1.82,.77-.49,1.61-.49,2.59-.49h.28Z"/><path class="b" d="M205.33,39.26c.91,0,1.19,.84,1.19,1.75,0,.7-.35,1.82-.91,2.24-.35,.14-.77,.21-1.26,.21-.77,0-1.61-.21-2.03-.84-.49-.21-.7-.63-.7-1.05,0-.63,.42-1.4,.84-1.82,.77-.49,1.61-.49,2.59-.49h.28Z"/><path class="b" d="M219.21,117.2c.91,0,1.19,.84,1.19,1.75,0,.7-.35,1.82-.91,2.24-.35,.14-.77,.21-1.26,.21-.77,0-1.61-.21-2.03-.84-.49-.21-.7-.63-.7-1.05,0-.63,.42-1.4,.84-1.82,.77-.49,1.61-.49,2.59-.49h.28Z"/><path class="b" d="M198.51,94.96c.91,0,1.19,.84,1.19,1.75,0,.7-.35,1.82-.91,2.24-.35,.14-.77,.21-1.26,.21-.77,0-1.61-.21-2.03-.84-.49-.21-.7-.63-.7-1.05,0-.63,.42-1.4,.84-1.82,.77-.49,1.61-.49,2.59-.49h.28Z"/><path class="b" d="M105.37,176.65c.91,0,1.19,.84,1.19,1.75,0,.7-.35,1.82-.91,2.24-.35,.14-.77,.21-1.26,.21-.77,0-1.61-.21-2.03-.84-.49-.21-.7-.63-.7-1.05,0-.63,.42-1.4,.84-1.82,.77-.49,1.61-.49,2.59-.49h.28Z"/><path class="b" d="M168.78,188.98c.91,0,1.19,.84,1.19,1.75,0,.7-.35,1.82-.91,2.24-.35,.14-.77,.21-1.26,.21-.77,0-1.61-.21-2.03-.84-.49-.21-.7-.63-.7-1.05,0-.63,.42-1.4,.84-1.82,.77-.49,1.61-.49,2.59-.49h.28Z"/><path class="b" d="M152.05,171.37c.91,0,1.19,.84,1.19,1.75,0,.7-.35,1.82-.91,2.24-.35,.14-.77,.21-1.26,.21-.77,0-1.61-.21-2.03-.84-.49-.21-.7-.63-.7-1.05,0-.63,.42-1.4,.84-1.82,.77-.49,1.61-.49,2.59-.49h.28Z"/><path class="b" d="M29.9,140.54c.91,0,1.19,.84,1.19,1.75,0,.7-.35,1.82-.91,2.24-.35,.14-.77,.21-1.26,.21-.77,0-1.61-.21-2.03-.84-.49-.21-.7-.63-.7-1.05,0-.63,.42-1.4,.84-1.82,.77-.49,1.61-.49,2.59-.49h.28Z"/><path class="b" d="M48.73,119.3c.91,0,1.19,.84,1.19,1.75,0,.7-.35,1.82-.91,2.24-.35,.14-.77,.21-1.26,.21-.77,0-1.61-.21-2.03-.84-.49-.21-.7-.63-.7-1.05,0-.63,.42-1.4,.84-1.82,.77-.49,1.61-.49,2.59-.49h.28Z"/><path class="b" d="M68.54,178.75c.91,0,1.19,.84,1.19,1.75,0,.7-.35,1.82-.91,2.24-.35,.14-.77,.21-1.26,.21-.77,0-1.61-.21-2.03-.84-.49-.21-.7-.63-.7-1.05,0-.63,.42-1.4,.84-1.82,.77-.49,1.61-.49,2.59-.49h.28Z"/></svg>