<?xml version="1.0" encoding="utf-8"?>
<!-- Generator: Adobe Illustrator 26.0.1, SVG Export Plug-In . SVG Version: 6.00 Build 0)  -->
<svg version="1.1" id="Ebene_1" xmlns="http://www.w3.org/2000/svg" xmlns:xlink="http://www.w3.org/1999/xlink" x="0px" y="0px"
	 viewBox="0 0 1920 136.7" style="enable-background:new 0 0 1920 136.7;" xml:space="preserve">
<style type="text/css">
	.st0{fill:#1D3753;}
	.st1{fill:none;stroke:#EE907D;stroke-width:12;}
	.st2{fill:#EE907D;}
</style>
<path class="st0" d="M0,0v130.9c17.2,0.1,34.6,0.1,51.8,0.1c61.6,0,124.7-0.4,187.6-1.3c60.2-0.8,121.7-2.1,183-3.7
	c113.9-3,231-7.4,347.9-13.1c196.9-9.6,397-23,594.8-39.8c77.7-6.6,155.2-13.8,230.4-21.2c60.2-6,119-12.2,174.8-18.6
	c95.1-10.7,149.2-18,149.7-18.1V0H0z"/>
<path id="Pfad_453" class="st1" d="M0,125.9c0,0,241.8,1.7,602.5-11.8S1443,71.9,1919,11"/>
<path class="st2" d="M1920,4.6L1903.3,7c-0.1,0-0.1,0.1-0.1,0.1c0,0,0,0,0.1,0.1l-5.3,9.2c-0.8,1.5,12,1.6,22,0.6V4.6z"/>
</svg>
