<?xml version="1.0" encoding="utf-8"?>
<!-- Generator: Adobe Illustrator 26.0.1, SVG Export Plug-In . SVG Version: 6.00 Build 0)  -->
<svg version="1.1" id="Ebene_1" xmlns="http://www.w3.org/2000/svg" xmlns:xlink="http://www.w3.org/1999/xlink" x="0px" y="0px"
	 viewBox="0 0 1920 171" style="enable-background:new 0 0 1920 171;" xml:space="preserve">
<style type="text/css">
	.st0{fill:#8BC0B6;}
	.st1{fill:#1D3753;}
</style>
<path class="st0" d="M1920,165.9V44.1c-0.5,0.1-54.6,7.3-149.8,18.1c-55.9,6.3-114.7,12.5-174.8,18.5
	c-75.2,7.5-152.8,14.6-230.5,21.2c-197.8,16.8-398,30.2-594.9,39.8c-116.9,5.7-234,10.1-348,13.1c-61.3,1.6-122.8,2.8-183,3.7
	c-62.9,0.9-126,1.3-187.6,1.3c-17.2,0-34.7,0-51.9-0.1v6.1H1920z"/>
<path class="st1" d="M1920,172V50.2c-0.5,0.1-54.6,7.3-149.8,18.1c-55.9,6.3-114.7,12.6-174.8,18.6c-75.2,7.5-152.8,14.7-230.5,21.2
	c-197.8,16.8-398,30.2-594.9,39.8c-116.9,5.7-234,10.1-348,13.1c-61.3,1.6-122.8,2.9-183,3.7c-62.9,0.9-126,1.3-187.6,1.3
	c-17.2,0-34.7,0-51.9-0.1v6.1H1920z"/>
</svg>
