<svg id="Ebene_1" data-name="Ebene 1" xmlns="http://www.w3.org/2000/svg" viewBox="0 0 1920 171"><defs><style>.cls-1{fill:#fff;}.cls-2{fill:#1d3753;}.cls-3{fill:none;stroke:#8bc0b6;stroke-width:12px;}.cls-4{fill:#8bc0b6;}</style></defs><rect class="cls-1" y="35" width="1920" height="137"/><path class="cls-2" d="M1920,172V50.21c-.53.08-54.59,7.35-149.72,18.09-55.84,6.31-114.64,12.55-174.79,18.55-75.19,7.5-152.72,14.65-230.42,21.25-197.78,16.81-397.89,30.2-594.78,39.8C653.4,153.6,536.35,158,422.41,161c-61.24,1.61-122.79,2.85-183,3.67-62.9.86-126,1.3-187.6,1.3-17.22,0-34.67,0-51.85-.1V172Z"/><path id="Pfad_453" data-name="Pfad 453" class="cls-3" d="M0,160.93s241.75,1.73,602.49-11.77S1443,106.92,1919,46"/><path class="cls-4" d="M1920,38.61,1903.29,41a.11.11,0,0,0,0,.15.12.12,0,0,0,0,.05L1898,50.41c-.84,1.49,12,1.59,22,.59Z"/></svg>