<svg id="Ebene_1" data-name="Ebene 1" xmlns="http://www.w3.org/2000/svg" viewBox="0 0 1920 171"><defs><style>.cls-1{fill:#1d3753;}.cls-2{fill:none;stroke:#ee907d;stroke-width:12px;}.cls-3{fill:#ee907d;}</style></defs><path class="cls-1" d="M0,34V164.89c17.18.07,34.63.1,51.85.1,61.59,0,124.7-.44,187.6-1.3,60.17-.82,121.72-2.06,183-3.67,113.94-3,231-7.42,347.88-13.12,196.89-9.6,397-23,594.78-39.8,77.7-6.6,155.23-13.75,230.42-21.25,60.15-6,119-12.24,174.79-18.55,95.13-10.74,149.19-18,149.72-18.09V34Z"/><path id="Pfad_453" data-name="Pfad 453" class="cls-2" d="M0,159.93s241.75,1.73,602.49-11.77S1443,105.92,1919,45"/><path class="cls-3" d="M1920,38.61,1903.29,41a.11.11,0,0,0,0,.2L1898,50.41c-.84,1.49,12,1.59,22,.59Z"/></svg>