<?xml version="1.0" encoding="utf-8"?>
<!-- Generator: Adobe Illustrator 26.0.1, SVG Export Plug-In . SVG Version: 6.00 Build 0)  -->
<svg version="1.1" id="Ebene_1" xmlns="http://www.w3.org/2000/svg" xmlns:xlink="http://www.w3.org/1999/xlink" x="0px" y="0px"
	 viewBox="0 0 1920 136" style="enable-background:new 0 0 1920 136;" xml:space="preserve">
<style type="text/css">
	.st0{fill:#FFFFFF;}
	.st1{fill:#1D3753;}
	.st2{fill:none;stroke:#8BC0B6;stroke-width:12;}
	.st3{fill:#8BC0B6;}
</style>
<rect class="st0" width="1920" height="137"/>
<path class="st1" d="M1920,137V15.2c-0.5,0.1-54.6,7.3-149.7,18.1c-55.8,6.3-114.6,12.6-174.8,18.6c-75.2,7.5-152.7,14.7-230.4,21.2
	c-197.8,16.8-397.9,30.2-594.8,39.8C653.4,118.6,536.3,123,422.4,126c-61.2,1.6-122.8,2.9-183,3.7c-62.9,0.9-126,1.3-187.6,1.3
	c-17.2,0-34.7,0-51.8-0.1v6.1H1920z"/>
<path id="Pfad_453" class="st2" d="M0,125.9c0,0,241.8,1.7,602.5-11.8S1443,71.9,1919,11"/>
<path class="st3" d="M1920,4.7L1903.3,7c0,0,0,0.1,0,0.2l0,0l-5.3,9.3c-0.8,1.5,12,1.5,22,0.5V4.7z"/>
</svg>
