<svg id="Ebene_1" data-name="Ebene 1" xmlns="http://www.w3.org/2000/svg" viewBox="0 0 1920.04 134.18"><defs><style>.cls-1{fill:#fff;}.cls-2{fill:#8bc0b6;}.cls-3{fill:#1d3854;}</style></defs><rect class="cls-1" width="1920.04" height="134.18"/><path class="cls-2" d="M1920,0V12.39c-.53.08-54.59,7.35-149.72,18.09C1714.48,36.79,1655.68,43,1595.53,49c-75.19,7.5-152.72,14.65-230.42,21.25-197.78,16.81-397.89,30.2-594.78,39.8-116.89,5.7-233.94,10.1-347.88,13.1-61.24,1.61-122.79,2.85-183,3.67-62.9.86-126,1.3-187.6,1.3-17.22,0-34.67,0-51.85-.1V115.66c17.18.1,34.63.1,51.85.1,61.6,0,124.7-.44,187.6-1.3,60.21-.82,121.76-2.06,183-3.67,113.94-3,231-7.4,347.88-13.1,196.89-9.6,397-23,594.78-39.8,77.7-6.6,155.23-13.75,230.42-21.25,60.15-6,119-12.24,174.79-18.55C1865.45,7.35,1919.51.08,1920,0Z"/><path class="cls-3" d="M1920,134.18V12.39C1304.18,89.09,626,129.86,0,128.05v6.13Z"/></svg>