<svg xmlns="http://www.w3.org/2000/svg" xmlns:xlink="http://www.w3.org/1999/xlink" width="132.269" height="168.863" viewBox="0 0 132.269 168.863">
  <defs>
    <clipPath id="clip-path">
      <path id="Pfad_97" data-name="Pfad 97" d="M275.979,518.73A16.661,16.661,0,0,1,277.4,517.3l.16-.144.216.3,3.432,4.793-.121.116h0c-.155.15-.305.3-.452.455-.042.042-.078.087-.118.13-.1.107-.2.214-.3.325-.081.093-.155.185-.233.278-.05.064-.107.128-.158.193-.094.121-.187.241-.276.36-.031.042-.061.082-.091.123-.1.139-.2.279-.291.42-.017.024-.037.05-.053.075-.1.153-.2.306-.292.461a.483.483,0,0,1-.03.048q-.145.242-.282.492c0,.009-.011.022-.018.033-.093.168-.177.338-.263.51l-.015.03c-.084.172-.163.343-.239.519a.248.248,0,0,0-.018.041c-.074.169-.144.342-.21.516-.008.021-.016.04-.025.061-.062.167-.124.333-.18.5-.011.032-.021.065-.033.1-.052.157-.1.314-.146.475q-.022.074-.041.145c-.042.144-.079.289-.116.437-.017.069-.032.137-.048.209-.028.127-.057.253-.081.382-.019.093-.036.189-.053.286s-.038.212-.053.32-.034.244-.049.368c-.01.083-.022.167-.031.249-.016.15-.029.3-.04.453,0,.059-.011.122-.014.181-.011.172-.016.345-.021.519s0,.336,0,.5c0,.08,0,.155,0,.231,0,.182.016.363.028.542,0,.024,0,.047,0,.071.014.186.033.373.054.558a.416.416,0,0,1,0,.047c.023.19.049.379.081.568a.109.109,0,0,0,0,.035c.031.188.064.377.1.565a.249.249,0,0,0,.007.032c.039.188.081.372.128.557a.385.385,0,0,1,.009.04c.047.181.1.361.151.538a.3.3,0,0,0,.017.052c.052.176.106.346.167.517.01.025.017.051.025.073.058.165.121.329.186.488.012.035.026.068.039.1.061.151.128.3.195.454.019.043.04.085.059.128.063.14.13.283.2.42.026.053.055.1.082.156.066.129.133.258.205.385.033.058.068.116.1.177.071.122.14.241.213.359.037.059.074.115.111.174.077.121.152.238.235.356.229.336.474.666.736.985a13.894,13.894,0,0,0,17.215,3.458.2.2,0,0,1,.263.08l.017.031a.2.2,0,0,1-.075.26,17.23,17.23,0,0,1-10.687,2.144h0a17.1,17.1,0,0,1-10.161-5.048l0,0-.109-.115c-.078-.082-.153-.165-.228-.25-.043-.044-.088-.091-.128-.139-.17-.186-.336-.378-.5-.571a17.181,17.181,0,0,1,.4-22.284ZM269.4,545.279c.129.166.262.33.4.495l.044.05c.013.017.028.033.042.049a24.549,24.549,0,0,0,15.885,8.691h0a24.735,24.735,0,0,0,16-3.457.193.193,0,0,0,.08-.231l-.009-.029a.2.2,0,0,0-.119-.118.193.193,0,0,0-.165.016,21.362,21.362,0,0,1-28.785-6.769c-.127-.2-.253-.392-.372-.592-.051-.082-.1-.17-.149-.252-.087-.147-.169-.3-.252-.442s-.152-.278-.224-.417-.131-.254-.2-.38c-.083-.168-.163-.336-.242-.5-.053-.114-.1-.227-.155-.339-.1-.22-.188-.44-.279-.659l-.082-.2a21.5,21.5,0,0,1-.434-14.466c.011-.034.019-.064.029-.094.064-.195.132-.388.2-.58.052-.142.1-.288.159-.431.038-.095.077-.193.116-.289.089-.224.182-.445.279-.664.024-.051.046-.1.068-.152.116-.252.234-.5.359-.753a.366.366,0,0,1,.021-.039,21.246,21.246,0,0,1,2.509-3.873l.018-.023c.185-.225.375-.449.57-.667.023-.027.045-.051.069-.077.184-.206.374-.41.568-.61.033-.035.065-.068.1-.1.181-.184.366-.365.552-.541l.05-.05c.065-.061.133-.12.2-.185.048-.043.1-.085.142-.129.09-.082.179-.163.271-.241l.013-.012.138-.115-2.071-2.9-1.325-1.857a.035.035,0,0,0-.009-.011l-.213-.3-.161.133v0A24.728,24.728,0,0,0,269.4,545.279Zm9.917-16.94a9.7,9.7,0,0,0,2.056,7.907.039.039,0,0,0,.014.015c.114.141.235.275.359.407.028.033.059.063.09.1.1.111.211.219.32.322l.087.085a9.378,9.378,0,0,0,.867.719.252.252,0,0,0,.035.028l.1.077,0,0a9.72,9.72,0,0,0,9.753.87.192.192,0,0,0,.106-.126.2.2,0,0,0-.032-.164l-.076-.1a.2.2,0,0,0-.222-.072,6.393,6.393,0,0,1-7.005-1.993l-.033-.041c-.036-.041-.067-.084-.1-.125-.048-.06-.1-.122-.141-.185-.03-.043-.057-.085-.086-.123s-.063-.094-.092-.138-.074-.119-.111-.179c-.021-.036-.042-.072-.062-.108-.042-.073-.081-.145-.118-.22l-.044-.083a6.418,6.418,0,0,1,.548-6.67l.082-.115-.187-.261-1.382-1.937L283.9,526l-.009-.011-1.595-2.216-.133-.19-.212-.316-.17.177v0h0A9.586,9.586,0,0,0,279.32,528.339Zm-20.19-34.8-.218.177a46.792,46.792,0,0,0-16.891,31.393c0,.019,0,.039-.006.057-.014.126-.03.251-.042.376-.018.19-.034.384-.05.575,0,.063-.009.127-.014.189-.026.3-.047.6-.067.9,0,.067-.006.135-.011.2-.019.311-.034.624-.045.934,0,.041,0,.081,0,.122a46.666,46.666,0,0,0,6.918,26.3.376.376,0,0,0,.026.037q.273.446.56.887c.029.046.06.093.092.139.172.261.346.524.522.784.054.075.1.149.156.223.16.232.321.462.486.692.03.044.059.087.091.129l.106.146h0q.824,1.129,1.718,2.224a46.925,46.925,0,0,0,30.515,16.79h0a47.077,47.077,0,0,0,31.871-7.44.222.222,0,0,0,.087-.147.2.2,0,0,0-.09-.19.2.2,0,0,0-.211.005,43.867,43.867,0,0,1-61.354-13.9c-.03-.049-.059-.1-.091-.144-.149-.248-.3-.5-.441-.748a43.821,43.821,0,0,1-5.832-23.685c0-.088,0-.175.01-.264.008-.2.022-.4.032-.6.011-.148.02-.3.029-.444.012-.174.028-.347.04-.52s.03-.331.044-.5.033-.344.049-.515.034-.312.052-.468q.033-.285.069-.568c.016-.122.033-.245.049-.367.031-.229.064-.457.1-.686.009-.061.02-.123.029-.189a43.81,43.81,0,0,1,12.427-24.247c.023-.024.049-.048.074-.072.2-.2.414-.407.625-.606a.374.374,0,0,1,.035-.032c.222-.211.449-.42.677-.628.338-.3.7-.62,1.087-.946.165-.14.332-.281.5-.423.079-.064.157-.124.233-.185.047-.037.094-.076.138-.111.127-.1.252-.2.376-.3l.145-.115-3.394-4.75-.213-.3-.162.123h0C259.687,493.088,259.4,493.318,259.13,493.541Zm77.506,105.977a.193.193,0,0,0-.269-.051,81.244,81.244,0,0,1-114.5-24.058v0l-.1-.167a81.147,81.147,0,0,1-12.007-49.117c0-.056.009-.113.013-.168q.064-.8.144-1.6c.008-.074.014-.149.022-.224.055-.543.114-1.091.181-1.634l.01-.079q.107-.867.231-1.733a81.14,81.14,0,0,1,26.807-49.365c.142-.128.288-.25.433-.373.169-.146.339-.294.51-.44l.1-.085c.069-.061.139-.121.21-.182l.006,0,.173-.145c.017-.016.036-.032.053-.046l.2-.164.027-.024a.7.7,0,0,0,.064-.052c.06-.046.118-.094.172-.139.217-.181.409-.338.588-.481.12-.094.231-.183.344-.268.23-.185.467-.37.7-.553.126-.1.249-.2.374-.3l.071-.053c.11-.088.217-.172.325-.253s.218-.164.332-.243l0,0,.156-.111-3.4-4.761-.06-.084-.034-.044,0,0-.117-.157-.155.115c-.225.167-.452.337-.675.507-.67.506-1.34,1.034-2.027,1.592-.123.1-.245.2-.372.3-.274.224-.541.45-.811.677l-.2.171q-.29.246-.578.5c-.116.1-.228.2-.342.3-.138.12-.279.243-.416.366s-.289.258-.434.387c-.1.09-.2.181-.3.272-.172.155-.341.311-.511.466l-.2.186c-.2.183-.4.37-.592.555q-.044.039-.083.077a83.924,83.924,0,0,0-21.76,33.946c-.01.028-.019.057-.03.085-.089.262-.174.523-.261.784-.021.057-.039.118-.058.174-.077.241-.155.482-.231.723-.026.078-.049.157-.075.237-.071.227-.14.453-.209.682-.028.092-.056.186-.082.278-.068.219-.131.437-.195.655-.031.1-.059.2-.089.305-.062.214-.122.429-.18.641-.031.107-.059.212-.089.317-.059.213-.117.425-.173.639-.029.106-.055.211-.085.316-.054.217-.113.434-.166.648-.025.1-.051.2-.076.306-.055.222-.111.445-.163.666l-.068.283q-.082.347-.162.7c-.019.083-.037.165-.055.25-.055.242-.111.488-.164.732-.013.066-.027.136-.042.2-.056.262-.111.521-.162.781-.012.049-.022.1-.031.146-.058.283-.112.562-.167.845l-.014.076a85.445,85.445,0,0,0-1.309,10.209c-.012.164-.026.328-.035.492-.006.089-.01.18-.017.268-.012.254-.029.5-.041.758,0,.039,0,.077,0,.116-.017.305-.031.612-.041.913v.006a84.583,84.583,0,0,0,2.337,23.2c0,.024.011.047.018.072q.105.433.216.867c.016.062.032.124.046.185.064.249.131.5.2.746.026.095.05.188.075.282.059.212.119.428.178.641.034.121.068.246.1.367l.155.541c.045.151.09.3.133.455s.087.288.131.429c.055.184.114.369.169.554.03.1.062.193.092.291q.108.341.218.685c.01.025.016.048.023.071A84.549,84.549,0,0,0,336.584,599.79h0A.194.194,0,0,0,336.636,599.518ZM241.943,469.051c-.682.522-1.358,1.057-2.016,1.6q-.732.6-1.445,1.221c-.153.13-.3.266-.452.4-.3.27-.61.536-.911.81-.284.256-.562.517-.841.778l-.469.437c-.355.337-.7.679-1.053,1.022-.068.069-.139.136-.208.206q-.6.594-1.189,1.208l-.028.026a76.121,76.121,0,0,0-12.321,16.952l-.171.315c-.057.111-.119.22-.177.331a76.772,76.772,0,0,0-8,24.934v.012c-.08.565-.155,1.135-.221,1.705l-.021.184c-.057.487-.112.976-.158,1.466,0,.025,0,.05-.007.075-.049.5-.09,1-.128,1.507-.008.1-.019.206-.026.311q-.133,1.836-.181,3.667c-.009.312-.01.622-.014.931,0,.286-.013.574-.012.86,0,.43,0,.859.011,1.289,0,.163,0,.328,0,.494.01.458.027.914.043,1.372,0,.137.008.276.014.413.02.456.047.914.077,1.372.008.137.013.276.023.413.03.444.065.887.1,1.332.014.153.025.31.04.465.038.418.08.833.126,1.251.017.186.037.37.059.556.043.382.092.766.141,1.15.03.223.057.447.088.668.048.343.1.688.152,1.031.04.268.083.538.126.805.047.3.1.594.15.89.057.32.115.64.177.959.046.247.094.492.143.74.073.375.149.746.23,1.117.042.2.085.4.128.594q.142.633.294,1.265c.038.154.074.308.111.46q.172.691.355,1.375c.034.125.064.249.1.373.129.471.264.941.4,1.411.024.081.044.164.069.244.01.039.025.075.035.116.143.479.291.954.444,1.431.043.133.082.267.126.4.138.428.284.854.43,1.279.062.179.123.36.187.539.107.306.219.613.333.917a75.96,75.96,0,0,0,5.615,11.968c.007.009.013.021.02.032.288.493.578.984.877,1.471.019.034.038.065.059.1.288.47.582.937.879,1.4.035.05.069.1.1.156q.434.673.88,1.334c.012.015.021.032.033.046l.1.155v0q1.974,2.891,4.216,5.628a76.654,76.654,0,0,0,49.865,27.43h0a76.834,76.834,0,0,0,52.965-12.75.2.2,0,0,0,.046-.274.19.19,0,0,0-.125-.084.207.207,0,0,0-.146.028,73.526,73.526,0,0,1-50.45,12.077h0a73.688,73.688,0,0,1-49.16-118.124.294.294,0,0,1,.023-.031q.476-.617.97-1.226l.057-.074q.488-.6.986-1.19c.023-.024.043-.05.065-.075.707-.835,1.438-1.654,2.183-2.461l.371-.379a67.781,67.781,0,0,1,6.833-6.431c.154-.128.31-.257.468-.382.412-.334.828-.663,1.259-1,.2-.154.4-.309.61-.462v0l.149-.114-.109-.151,0,0-1.679-2.354-1.6-2.246-.043-.063-.05-.073,0,0-.114-.162-.16.119h0C242.381,468.719,242.163,468.886,241.943,469.051Zm12.578,18.57-.377.3-.288.244c-.239.2-.48.4-.715.6s-.474.417-.707.627c-.089.078-.179.155-.265.233q-.443.4-.88.813c-.019.02-.039.039-.057.055a54.116,54.116,0,0,0-16.287,31c-.012.074-.025.148-.037.222-.047.319-.094.638-.137.957-.011.082-.025.162-.036.246-.007.058-.013.116-.02.173-.036.268-.067.535-.1.805-.022.188-.043.377-.062.567-.012.114-.026.224-.038.338s-.02.244-.031.366c-.019.215-.037.429-.055.645s-.034.447-.046.671-.03.426-.04.638q-.019.353-.035.7c-.008.19-.015.375-.021.563q-.013.4-.021.8l-.006.417c0,.317,0,.631,0,.948,0,.067,0,.134,0,.2a54.09,54.09,0,0,0,10.056,30.946l.01.013h0q1.116,1.566,2.35,3.07a54.372,54.372,0,0,0,35.368,19.462h0a54.54,54.54,0,0,0,37.158-8.771h0a.2.2,0,0,0,.054-.27.2.2,0,0,0-.271-.053,51.309,51.309,0,0,1-67.914-10.219,51.908,51.908,0,0,1-4.145-5.814c-.029-.05-.061-.1-.092-.148-.179-.294-.354-.593-.528-.886l-.076-.134c-.168-.286-.327-.578-.49-.867-.032-.058-.065-.117-.1-.174-.125-.233-.247-.464-.37-.7a51.415,51.415,0,0,1-5.825-26.415c.006-.137.011-.277.021-.415.01-.2.026-.4.039-.6s.027-.385.042-.58.032-.362.048-.544c.018-.2.036-.407.058-.611.021-.187.04-.374.061-.56s.043-.372.066-.558c.028-.214.055-.429.085-.642.019-.142.042-.285.062-.426.037-.26.077-.522.12-.783.011-.071.025-.141.037-.215a51.376,51.376,0,0,1,11.956-25.28c.056-.063.114-.126.168-.19.179-.2.357-.4.536-.6.133-.144.268-.29.4-.432.113-.122.227-.246.341-.365.254-.268.513-.533.773-.794l.007-.009c.285-.283.571-.566.862-.845a.093.093,0,0,0,.019-.021c.012-.014.017-.02.021-.021l0-.005,0,0a.18.18,0,0,0,.031-.023c.027-.027.049-.05.077-.074.093-.088.187-.179.283-.272.025-.021.049-.044.072-.067.142-.132.291-.267.446-.405.355-.329.675-.617.984-.882l.089-.076c.123-.11.245-.216.37-.323l.042-.032c.144-.122.291-.242.442-.366l.072-.058c.233-.2.48-.4.752-.613l.017-.011c.087-.067.175-.137.266-.206l.1-.076h0l.151-.116-1.972-2.755-1.438-2.01-.095-.13h0l-.115-.16-.159.121c-.343.26-.684.534-1.012.8C254.563,487.585,254.542,487.6,254.521,487.621Zm-8.713-12.176c-.028.022-.053.042-.081.061-.362.286-.722.577-1.077.871-.132.108-.26.22-.392.33-.3.25-.6.5-.9.759-.222.192-.441.389-.662.584-.2.179-.4.354-.6.534-.249.225-.494.456-.739.685l-.482.452c-.266.252-.528.51-.789.765-.131.127-.261.257-.39.384-.281.28-.556.562-.829.844-.1.107-.208.212-.31.32q-.439.459-.865.923c-.078.084-.157.167-.233.253q-.456.5-.9,1l-.152.176c-.317.365-.631.73-.942,1.1-.02.025-.043.05-.064.075a69.2,69.2,0,0,0-7.991,11.911c-.008.015-.014.027-.022.039-.213.405-.421.813-.626,1.221l-.135.265c-.179.361-.353.722-.528,1.084l-.2.424c-.155.327-.3.654-.45.984-.081.179-.163.359-.242.537-.132.3-.262.607-.39.91-.089.208-.176.419-.263.628-.116.285-.229.568-.342.854-.092.231-.184.465-.273.7-.1.272-.2.54-.3.812-.091.249-.182.5-.273.75s-.186.525-.275.784-.175.522-.262.781-.171.52-.252.778-.165.53-.245.794-.157.525-.234.787-.149.524-.221.786-.149.539-.221.81c-.067.255-.132.507-.2.764-.07.281-.141.565-.209.851-.057.238-.114.479-.167.72-.068.3-.136.6-.2.9-.049.221-.093.446-.139.669q-.1.48-.192.964c-.039.2-.074.41-.113.614-.061.343-.122.686-.177,1.027-.034.186-.063.378-.092.564-.054.357-.11.715-.161,1.075-.007.047-.015.095-.022.143-.019.137-.034.272-.051.409-.048.358-.095.715-.136,1.074-.024.2-.043.393-.065.589-.037.342-.076.683-.108,1.026-.024.234-.04.469-.058.707-.027.3-.053.6-.075.9s-.037.6-.055.908c-.012.233-.028.464-.039.7-.021.41-.034.819-.046,1.229,0,.127-.011.254-.014.379a69.545,69.545,0,0,0,1.569,16.568c.006.034.014.066.022.1.109.5.223,1,.344,1.5.018.069.035.139.052.207.113.461.23.918.352,1.376.027.1.055.2.083.3q.172.633.358,1.264c.038.131.074.261.113.387.119.39.238.781.364,1.17.047.154.1.306.146.458.119.365.241.725.366,1.088.059.172.12.345.18.516.12.34.244.679.368,1.013.07.192.141.381.213.572.119.318.246.631.371.945.081.207.161.413.246.619.121.3.246.591.373.885.093.217.184.439.28.657.122.28.248.554.373.833.107.228.208.461.315.693.119.252.243.5.367.754.249.523.508,1.043.773,1.559.107.2.207.407.313.613.145.27.3.543.442.816.119.215.235.434.355.649.147.264.3.526.451.79.127.219.254.444.385.662q.225.385.46.766c.136.223.272.451.412.672.155.249.316.5.472.746.146.226.29.454.437.68.161.243.326.486.489.728.083.121.16.245.245.367l.1.151h.006q1.681,2.442,3.594,4.777a69.267,69.267,0,0,0,45.053,24.788h.006a69.438,69.438,0,0,0,47.726-11.435h0a.195.195,0,1,0-.22-.321,66.155,66.155,0,0,1-45.244,10.77h0a66,66,0,0,1-42.92-23.652,67.012,67.012,0,0,1-5.233-7.312c-.151-.249-.305-.5-.455-.746-.094-.156-.185-.311-.276-.466-.173-.292-.344-.582-.511-.877-.039-.066-.076-.135-.114-.2a66.313,66.313,0,0,1-8.362-36.821c.006-.108.013-.22.02-.328.023-.33.05-.661.079-.988.015-.181.031-.36.046-.54.03-.315.063-.631.1-.948q.028-.268.059-.535.058-.51.127-1.018c.019-.137.036-.276.055-.411.053-.392.11-.784.172-1.173.009-.064.021-.126.031-.191a66.3,66.3,0,0,1,17.709-35.52c.054-.057.114-.115.168-.172.276-.285.552-.567.833-.845.153-.152.308-.3.464-.451.2-.191.391-.382.588-.572.367-.347.734-.69,1.11-1.028.887-.807,1.689-1.5,2.454-2.123.54-.446,1.068-.865,1.6-1.27.115-.087.227-.174.342-.259l.152-.116-.532-.743-2.862-4.009-.095-.136v0l-.115-.164-.161.121h0C246.545,474.874,246.174,475.157,245.807,475.445Zm17.108,24.692c-.049.042-.1.089-.149.135-.191.165-.38.332-.566.5-.143.129-.283.262-.424.394-.092.084-.182.168-.271.252-.194.184-.385.372-.575.558-.033.033-.066.063-.1.1a39.277,39.277,0,0,0-11.185,22.339l-.014.106c-.041.279-.076.558-.112.838a.1.1,0,0,1,0,.017c-.011.094-.02.189-.03.283-.023.2-.046.406-.068.614l0,.037c-.017.173-.03.347-.042.52-.014.148-.029.3-.039.445-.024.318-.043.636-.058.953-.011.226-.018.451-.024.674,0,.095-.01.19-.012.283-.006.278-.009.553-.011.829,0,.037,0,.076,0,.117a39.244,39.244,0,0,0,7.848,23.664l.081.107h0c.351.464.708.924,1.081,1.376a39.471,39.471,0,0,0,25.664,14.121h0a39.6,39.6,0,0,0,26.573-6.111.192.192,0,0,0,.058-.268.2.2,0,0,0-.269-.059A36.364,36.364,0,0,1,257.3,546.682l0-.006c-.11-.255-.218-.516-.322-.774l-.006-.013q-.156-.39-.3-.781l0-.006a36.247,36.247,0,0,1-2.233-15.076q.111-1.707.374-3.38a.389.389,0,0,1,.008-.047c.041-.246.081-.49.126-.733.006-.041.013-.08.02-.12.039-.209.081-.418.122-.625.015-.072.028-.14.043-.212s.039-.176.057-.265a36.268,36.268,0,0,1,4.907-11.893h0c.128-.2.262-.409.4-.61.019-.027.039-.055.054-.083.124-.181.249-.362.376-.543l.1-.138c.118-.164.236-.328.358-.494.044-.06.089-.121.134-.18.112-.153.225-.3.34-.451.054-.073.11-.146.166-.216q.161-.207.328-.414c.065-.082.13-.163.2-.244.106-.127.209-.254.315-.378.076-.092.154-.18.23-.271.1-.117.2-.232.3-.35l.259-.289.29-.321c.1-.1.2-.208.294-.311s.178-.2.272-.291c.115-.119.233-.235.348-.354.079-.079.156-.159.236-.238.184-.182.373-.364.562-.542a.331.331,0,0,1,.037-.037c.1-.1.2-.189.293-.278l.052-.046c.082-.077.164-.148.246-.22l.031-.027.119-.108.039-.035q.162-.148.327-.293c.033-.029.068-.057.1-.087.087-.074.172-.149.258-.226.036-.029.07-.061.108-.091.114-.1.229-.2.343-.293l.133-.1c.074-.057.147-.117.22-.171l.148-.114-.108-.15v0l-2.555-3.57-.746-1.04-.035-.049-.059-.081h0l-.12-.162-.156.126,0,0-.1.081-.275.224c-.094.075-.185.15-.277.225C263.413,499.711,263.164,499.924,262.915,500.137Zm4.888,5.65c-.11.094-.218.193-.327.289-.091.082-.186.163-.276.245s-.2.185-.3.276-.2.182-.3.275l-.264.257c-.1.1-.21.2-.314.31l-.225.229c-.113.117-.228.233-.339.354-.062.064-.125.132-.188.2l-.364.4c-.048.054-.1.109-.145.163-.133.15-.264.3-.4.454-.033.039-.067.077-.1.116-.144.171-.286.342-.428.515l-.053.067c-.155.193-.307.385-.457.58l-.011.013a31.892,31.892,0,0,0-5.685,11.845c-.008.034-.016.066-.025.1-.045.193-.09.385-.133.58-.017.076-.036.153-.052.231-.032.151-.064.305-.093.458-.027.12-.049.237-.072.355s-.043.232-.061.347c-.028.156-.054.312-.082.468-.014.084-.027.167-.039.251-.027.186-.054.371-.079.556-.009.061-.017.126-.026.188-.026.2-.051.4-.073.606l-.01.078c0,.031-.006.059-.009.088-.022.2-.042.4-.061.6,0,.065-.009.13-.014.195-.015.185-.031.37-.04.553-.008.09-.013.179-.019.27-.008.152-.014.305-.021.458-.006.125-.012.251-.015.375s-.008.228-.01.341c0,.169,0,.334,0,.5,0,.066,0,.136,0,.2,0,.215,0,.432.007.644v.058a31.885,31.885,0,0,0,3.671,14.2.62.62,0,0,1,.033.062c.1.194.209.388.315.58.029.046.052.094.079.14.093.163.186.327.282.488.042.074.086.147.128.22l.238.392c.064.1.124.2.188.3s.12.186.18.278c.087.135.174.269.262.4.021.032.043.061.065.094q.655.971,1.386,1.906l.036.047v0c.145.184.29.368.439.547a32.015,32.015,0,0,0,20.822,11.457h0a32.213,32.213,0,0,0,21.306-4.781.193.193,0,0,0,.074-.243l-.011-.023a.2.2,0,0,0-.121-.107.193.193,0,0,0-.161.021,28.867,28.867,0,0,1-37.513-6.177,29.347,29.347,0,0,1-1.992-2.727c-.08-.124-.16-.252-.24-.38l-.1-.171c-.088-.141-.173-.284-.259-.427-.021-.038-.043-.075-.064-.113-.1-.166-.193-.332-.284-.5l-.017-.03a28.821,28.821,0,0,1-3.607-14.583c0-.052,0-.1,0-.155,0-.147.01-.3.018-.443,0-.088,0-.175.009-.262.007-.125.013-.247.023-.372.008-.108.013-.216.023-.326s.016-.225.028-.337.02-.224.031-.336.022-.229.035-.344c.011-.1.023-.2.036-.292.015-.132.032-.266.049-.4.007-.057.016-.117.025-.174A28.847,28.847,0,0,1,270.228,512l.006-.007c.147-.147.3-.293.446-.438.035-.034.07-.066.1-.1.124-.119.247-.233.371-.35.081-.075.164-.148.247-.221s.163-.149.246-.222a.492.492,0,0,1,.064-.056.064.064,0,0,1,.018-.019l0,0,.575-.488,0,0,.134-.115-.1-.143v0l-1.561-2.185-1.729-2.422-.039-.054-.055-.08,0,0-.117-.166-.162.125h0c-.076.06-.153.125-.226.186l-.04.034c-.121.1-.237.2-.356.3C267.971,505.644,267.886,505.714,267.8,505.787Zm-17.845-24.07c-.062.05-.128.1-.191.155s-.1.084-.156.129c-.07.055-.137.111-.208.168q-1.132.935-2.215,1.913l0,0a61.508,61.508,0,0,0-19.351,34.691c-.007.034-.013.066-.018.1-.074.409-.147.82-.213,1.231-.019.117-.038.233-.055.35-.052.341-.1.687-.151,1.029-.012.08-.027.162-.037.243-.015.1-.027.212-.041.319-.037.284-.072.567-.1.851-.03.245-.055.491-.081.735-.016.153-.036.306-.05.458-.009.088-.014.175-.023.263-.026.276-.048.552-.07.83-.017.221-.037.443-.052.664-.019.275-.033.544-.049.817-.013.235-.028.471-.039.706s-.017.455-.024.684c-.011.285-.022.567-.028.853,0,.125,0,.252,0,.378a61.439,61.439,0,0,0,10.943,36.053c.03.044.058.089.089.129l.1.151h0q1.4,2,2.959,3.9a61.757,61.757,0,0,0,40.172,22.1h0a62,62,0,0,0,42.452-10.108.2.2,0,0,0,0-.333.2.2,0,0,0-.212.007,58.794,58.794,0,0,1-82.309-17.431v0l-.1-.164a58.67,58.67,0,0,1-8.9-34.27c.007-.121.014-.243.019-.365q.024-.385.052-.766c.016-.214.03-.428.048-.641.018-.229.04-.456.061-.685s.042-.457.067-.687.051-.477.08-.715c.024-.2.049-.406.075-.609.036-.274.071-.547.111-.819.022-.148.042-.3.065-.443.05-.336.1-.67.159-1,.01-.061.021-.125.031-.187a58.749,58.749,0,0,1,16.557-31.8c.052-.051.1-.1.156-.151q.382-.378.773-.749c.138-.13.281-.261.42-.389.185-.173.371-.345.557-.516.338-.3.678-.608,1.023-.9l.265-.224.09-.074c.249-.211.5-.423.753-.63l.08-.066c.147-.12.3-.237.442-.357.2-.156.4-.316.593-.474.083-.062.16-.122.24-.184.062-.048.124-.094.186-.14l0,0,.143-.114-3.394-4.753-.212-.286-.153.115,0,0-.1.078C250.782,481.061,250.388,481.368,249.958,481.716Z" transform="translate(-204.402 -462.349)" fill="#fff"/>
    </clipPath>
  </defs>
  <g id="logo" transform="translate(-204.371 -455.469)">
    <g id="Gruppe_381" data-name="Gruppe 381" transform="translate(204.371 455.469)">
      <g id="Gruppe_378" data-name="Gruppe 378" transform="translate(35.045)">
        <path id="Pfad_85" data-name="Pfad 85" d="M288.9,521.391l.029-.234-.235.016a.621.621,0,0,0-.081.009l-.026,0c-.053.011-.106.018-.161.026s-.125.018-.177.027c-.131.019-.262.045-.4.073a9.815,9.815,0,0,0-3.7,1.6.434.434,0,0,1-.053.037l-.071.053-.145.112,3.6,5.049.281-.218a6.232,6.232,0,0,1,1.058-.649l.111-.054Z" transform="translate(-240.399 -446.375)" fill="#fff"/>
        <path id="Pfad_86" data-name="Pfad 86" d="M288.835,519.784l-.033-6.211-.208.013c-.55.039-1,.089-1.414.153-.216.032-.446.069-.7.117a17.146,17.146,0,0,0-6.833,2.987l-.152.113L283.1,522l.16-.118a10.9,10.9,0,0,1,5.406-2.086Z" transform="translate(-240.346 -446.284)" fill="#fff"/>
        <path id="Pfad_87" data-name="Pfad 87" d="M288.748,512.191l-.04-6.2-.2.009c-.346.02-.7.043-1.091.074l-.234.025c-.184.022-.368.042-.536.067a2.264,2.264,0,0,0-.3.039c-.121.012-.244.03-.367.048l-.2.028c-.122.022-.246.042-.362.067-.329.054-.659.123-.944.186a24.451,24.451,0,0,0-9.227,4.133l-.153.112,3.6,5.053.159-.117a18.447,18.447,0,0,1,9.711-3.506Z" transform="translate(-240.294 -446.193)" fill="#fff"/>
        <path id="Pfad_88" data-name="Pfad 88" d="M288.653,504.609l-.031-6.208-.2.012c-.179.01-.357.017-.527.025l-.122,0a32.06,32.06,0,0,0-16.949,6.024l-.155.114,3.594,5.032.159-.115a25.8,25.8,0,0,1,14.049-4.879Z" transform="translate(-240.241 -446.103)" fill="#fff"/>
        <path id="Pfad_89" data-name="Pfad 89" d="M288.559,497.049l-.024-6.2-.2.006a39.494,39.494,0,0,0-21.916,7.439l-.159.115,3.608,5.046.159-.115a33.3,33.3,0,0,1,18.343-6.28Z" transform="translate(-240.188 -446.012)" fill="#fff"/>
        <path id="Pfad_90" data-name="Pfad 90" d="M288.464,489.473l-.025-5.984.028-.221-.224,0c-.334.007-.671.019-1.028.039-.389.013-.814.042-1.3.082-.284.019-.565.044-.845.069l-.138.012q-.71.077-1.421.164c-.911.118-1.84.266-2.768.442a47.6,47.6,0,0,0-18.731,8.044l-.161.116,3.61,5.039.158-.115a40.649,40.649,0,0,1,22.651-7.683Z" transform="translate(-240.135 -445.921)" fill="#fff"/>
        <path id="Pfad_91" data-name="Pfad 91" d="M288.377,481.891l-.032-6.2-.2,0a54.284,54.284,0,0,0-30.546,10.22l-.154.111,3.6,5.049.157-.115a48.168,48.168,0,0,1,26.978-9.066Z" transform="translate(-240.082 -445.831)" fill="#fff"/>
        <path id="Pfad_92" data-name="Pfad 92" d="M288.279,474.334l-.032-6.2-.194,0c-.41,0-.806.02-1.247.039-.382.016-.76.037-1.137.059l-.111.006a61.861,61.861,0,0,0-32.344,11.522l-.153.112,3.6,5.043.158-.115a55.5,55.5,0,0,1,31.271-10.467Z" transform="translate(-240.03 -445.74)" fill="#fff"/>
        <path id="Pfad_93" data-name="Pfad 93" d="M288.194,466.75l-.031-6.192-.2,0a69.011,69.011,0,0,0-39.158,13.03l-.16.115,3.6,5.031.157-.115A63.052,63.052,0,0,1,288,466.755Z" transform="translate(-239.977 -445.65)" fill="#fff"/>
        <path id="Pfad_94" data-name="Pfad 94" d="M288.1,459.258l-.03-6.206-.2,0a76.572,76.572,0,0,0-43.445,14.4l-.159.114,3.616,5.047.16-.114A70.345,70.345,0,0,1,287.9,459.261Z" transform="translate(-239.925 -445.56)" fill="#fff"/>
        <path id="Pfad_95" data-name="Pfad 95" d="M288.006,451.667l-.033-6.2-.2,0c-.542.008-1.088.024-1.626.04l-.038,0-.034,0c-.321.008-.642.027-.96.042-.165.009-.329.018-.489.025-.135,0-.264.012-.393.021-.062.006-.125.01-.186.012-.416.02-.842.053-1.255.086l-.6.049c-.384.032-.77.063-1.154.1a84.414,84.414,0,0,0-41.018,15.4l-.154.114,3.605,5.047.157-.113a77.8,77.8,0,0,1,44.179-14.634Z" transform="translate(-239.872 -445.469)" fill="#fff"/>
      </g>
      <g id="Gruppe_380" data-name="Gruppe 380" transform="translate(0 16.678)">
        <path id="Pfad_96" data-name="Pfad 96" d="M275.979,518.73A16.661,16.661,0,0,1,277.4,517.3l.16-.144.216.3,3.432,4.793-.121.116h0c-.155.15-.305.3-.452.455-.042.042-.078.087-.118.13-.1.107-.2.214-.3.325-.081.093-.155.185-.233.278-.05.064-.107.128-.158.193-.094.121-.187.241-.276.36-.031.042-.061.082-.091.123-.1.139-.2.279-.291.42-.017.024-.037.05-.053.075-.1.153-.2.306-.292.461a.483.483,0,0,1-.03.048q-.145.242-.282.492c0,.009-.011.022-.018.033-.093.168-.177.338-.263.51l-.015.03c-.084.172-.163.343-.239.519a.248.248,0,0,0-.018.041c-.074.169-.144.342-.21.516-.008.021-.016.04-.025.061-.062.167-.124.333-.18.5-.011.032-.021.065-.033.1-.052.157-.1.314-.146.475q-.022.074-.041.145c-.042.144-.079.289-.116.437-.017.069-.032.137-.048.209-.028.127-.057.253-.081.382-.019.093-.036.189-.053.286s-.038.212-.053.32-.034.244-.049.368c-.01.083-.022.167-.031.249-.016.15-.029.3-.04.453,0,.059-.011.122-.014.181-.011.172-.016.345-.021.519s0,.336,0,.5c0,.08,0,.155,0,.231,0,.182.016.363.028.542,0,.024,0,.047,0,.071.014.186.033.373.054.558a.416.416,0,0,1,0,.047c.023.19.049.379.081.568a.109.109,0,0,0,0,.035c.031.188.064.377.1.565a.249.249,0,0,0,.007.032c.039.188.081.372.128.557a.385.385,0,0,1,.009.04c.047.181.1.361.151.538a.3.3,0,0,0,.017.052c.052.176.106.346.167.517.01.025.017.051.025.073.058.165.121.329.186.488.012.035.026.068.039.1.061.151.128.3.195.454.019.043.04.085.059.128.063.14.13.283.2.42.026.053.055.1.082.156.066.129.133.258.205.385.033.058.068.116.1.177.071.122.14.241.213.359.037.059.074.115.111.174.077.121.152.238.235.356.229.336.474.666.736.985a13.894,13.894,0,0,0,17.215,3.458.2.2,0,0,1,.263.08l.017.031a.2.2,0,0,1-.075.26,17.23,17.23,0,0,1-10.687,2.144h0a17.1,17.1,0,0,1-10.161-5.048l0,0-.109-.115c-.078-.082-.153-.165-.228-.25-.043-.044-.088-.091-.128-.139-.17-.186-.336-.378-.5-.571a17.181,17.181,0,0,1,.4-22.284ZM269.4,545.279c.129.166.262.33.4.495l.044.05c.013.017.028.033.042.049a24.549,24.549,0,0,0,15.885,8.691h0a24.735,24.735,0,0,0,16-3.457.193.193,0,0,0,.08-.231l-.009-.029a.2.2,0,0,0-.119-.118.193.193,0,0,0-.165.016,21.362,21.362,0,0,1-28.785-6.769c-.127-.2-.253-.392-.372-.592-.051-.082-.1-.17-.149-.252-.087-.147-.169-.3-.252-.442s-.152-.278-.224-.417-.131-.254-.2-.38c-.083-.168-.163-.336-.242-.5-.053-.114-.1-.227-.155-.339-.1-.22-.188-.44-.279-.659l-.082-.2a21.5,21.5,0,0,1-.434-14.466c.011-.034.019-.064.029-.094.064-.195.132-.388.2-.58.052-.142.1-.288.159-.431.038-.095.077-.193.116-.289.089-.224.182-.445.279-.664.024-.051.046-.1.068-.152.116-.252.234-.5.359-.753a.366.366,0,0,1,.021-.039,21.246,21.246,0,0,1,2.509-3.873l.018-.023c.185-.225.375-.449.57-.667.023-.027.045-.051.069-.077.184-.206.374-.41.568-.61.033-.035.065-.068.1-.1.181-.184.366-.365.552-.541l.05-.05c.065-.061.133-.12.2-.185.048-.043.1-.085.142-.129.09-.082.179-.163.271-.241l.013-.012.138-.115-2.071-2.9-1.325-1.857a.035.035,0,0,0-.009-.011l-.213-.3-.161.133v0A24.728,24.728,0,0,0,269.4,545.279Zm9.917-16.94a9.7,9.7,0,0,0,2.056,7.907.039.039,0,0,0,.014.015c.114.141.235.275.359.407.028.033.059.063.09.1.1.111.211.219.32.322l.087.085a9.378,9.378,0,0,0,.867.719.252.252,0,0,0,.035.028l.1.077,0,0a9.72,9.72,0,0,0,9.753.87.192.192,0,0,0,.106-.126.2.2,0,0,0-.032-.164l-.076-.1a.2.2,0,0,0-.222-.072,6.393,6.393,0,0,1-7.005-1.993l-.033-.041c-.036-.041-.067-.084-.1-.125-.048-.06-.1-.122-.141-.185-.03-.043-.057-.085-.086-.123s-.063-.094-.092-.138-.074-.119-.111-.179c-.021-.036-.042-.072-.062-.108-.042-.073-.081-.145-.118-.22l-.044-.083a6.418,6.418,0,0,1,.548-6.67l.082-.115-.187-.261-1.382-1.937L283.9,526l-.009-.011-1.595-2.216-.133-.19-.212-.316-.17.177v0h0A9.586,9.586,0,0,0,279.32,528.339Zm-20.19-34.8-.218.177a46.792,46.792,0,0,0-16.891,31.393c0,.019,0,.039-.006.057-.014.126-.03.251-.042.376-.018.19-.034.384-.05.575,0,.063-.009.127-.014.189-.026.3-.047.6-.067.9,0,.067-.006.135-.011.2-.019.311-.034.624-.045.934,0,.041,0,.081,0,.122a46.666,46.666,0,0,0,6.918,26.3.376.376,0,0,0,.026.037q.273.446.56.887c.029.046.06.093.092.139.172.261.346.524.522.784.054.075.1.149.156.223.16.232.321.462.486.692.03.044.059.087.091.129l.106.146h0q.824,1.129,1.718,2.224a46.925,46.925,0,0,0,30.515,16.79h0a47.077,47.077,0,0,0,31.871-7.44.222.222,0,0,0,.087-.147.2.2,0,0,0-.09-.19.2.2,0,0,0-.211.005,43.867,43.867,0,0,1-61.354-13.9c-.03-.049-.059-.1-.091-.144-.149-.248-.3-.5-.441-.748a43.821,43.821,0,0,1-5.832-23.685c0-.088,0-.175.01-.264.008-.2.022-.4.032-.6.011-.148.02-.3.029-.444.012-.174.028-.347.04-.52s.03-.331.044-.5.033-.344.049-.515.034-.312.052-.468q.033-.285.069-.568c.016-.122.033-.245.049-.367.031-.229.064-.457.1-.686.009-.061.02-.123.029-.189a43.81,43.81,0,0,1,12.427-24.247c.023-.024.049-.048.074-.072.2-.2.414-.407.625-.606a.374.374,0,0,1,.035-.032c.222-.211.449-.42.677-.628.338-.3.7-.62,1.087-.946.165-.14.332-.281.5-.423.079-.064.157-.124.233-.185.047-.037.094-.076.138-.111.127-.1.252-.2.376-.3l.145-.115-3.394-4.75-.213-.3-.162.123h0C259.687,493.088,259.4,493.318,259.13,493.541Zm77.506,105.977a.193.193,0,0,0-.269-.051,81.244,81.244,0,0,1-114.5-24.058v0l-.1-.167a81.147,81.147,0,0,1-12.007-49.117c0-.056.009-.113.013-.168q.064-.8.144-1.6c.008-.074.014-.149.022-.224.055-.543.114-1.091.181-1.634l.01-.079q.107-.867.231-1.733a81.14,81.14,0,0,1,26.807-49.365c.142-.128.288-.25.433-.373.169-.146.339-.294.51-.44l.1-.085c.069-.061.139-.121.21-.182l.006,0,.173-.145c.017-.016.036-.032.053-.046l.2-.164.027-.024a.7.7,0,0,0,.064-.052c.06-.046.118-.094.172-.139.217-.181.409-.338.588-.481.12-.094.231-.183.344-.268.23-.185.467-.37.7-.553.126-.1.249-.2.374-.3l.071-.053c.11-.088.217-.172.325-.253s.218-.164.332-.243l0,0,.156-.111-3.4-4.761-.06-.084-.034-.044,0,0-.117-.157-.155.115c-.225.167-.452.337-.675.507-.67.506-1.34,1.034-2.027,1.592-.123.1-.245.2-.372.3-.274.224-.541.45-.811.677l-.2.171q-.29.246-.578.5c-.116.1-.228.2-.342.3-.138.12-.279.243-.416.366s-.289.258-.434.387c-.1.09-.2.181-.3.272-.172.155-.341.311-.511.466l-.2.186c-.2.183-.4.37-.592.555q-.044.039-.083.077a83.924,83.924,0,0,0-21.76,33.946c-.01.028-.019.057-.03.085-.089.262-.174.523-.261.784-.021.057-.039.118-.058.174-.077.241-.155.482-.231.723-.026.078-.049.157-.075.237-.071.227-.14.453-.209.682-.028.092-.056.186-.082.278-.068.219-.131.437-.195.655-.031.1-.059.2-.089.305-.062.214-.122.429-.18.641-.031.107-.059.212-.089.317-.059.213-.117.425-.173.639-.029.106-.055.211-.085.316-.054.217-.113.434-.166.648-.025.1-.051.2-.076.306-.055.222-.111.445-.163.666l-.068.283q-.082.347-.162.7c-.019.083-.037.165-.055.25-.055.242-.111.488-.164.732-.013.066-.027.136-.042.2-.056.262-.111.521-.162.781-.012.049-.022.1-.031.146-.058.283-.112.562-.167.845l-.014.076a85.445,85.445,0,0,0-1.309,10.209c-.012.164-.026.328-.035.492-.006.089-.01.18-.017.268-.012.254-.029.5-.041.758,0,.039,0,.077,0,.116-.017.305-.031.612-.041.913v.006a84.583,84.583,0,0,0,2.337,23.2c0,.024.011.047.018.072q.105.433.216.867c.016.062.032.124.046.185.064.249.131.5.2.746.026.095.05.188.075.282.059.212.119.428.178.641.034.121.068.246.1.367l.155.541c.045.151.09.3.133.455s.087.288.131.429c.055.184.114.369.169.554.03.1.062.193.092.291q.108.341.218.685c.01.025.016.048.023.071A84.549,84.549,0,0,0,336.584,599.79h0A.194.194,0,0,0,336.636,599.518ZM241.943,469.051c-.682.522-1.358,1.057-2.016,1.6q-.732.6-1.445,1.221c-.153.13-.3.266-.452.4-.3.27-.61.536-.911.81-.284.256-.562.517-.841.778l-.469.437c-.355.337-.7.679-1.053,1.022-.068.069-.139.136-.208.206q-.6.594-1.189,1.208l-.028.026a76.121,76.121,0,0,0-12.321,16.952l-.171.315c-.057.111-.119.22-.177.331a76.772,76.772,0,0,0-8,24.934v.012c-.08.565-.155,1.135-.221,1.705l-.021.184c-.057.487-.112.976-.158,1.466,0,.025,0,.05-.007.075-.049.5-.09,1-.128,1.507-.008.1-.019.206-.026.311q-.133,1.836-.181,3.667c-.009.312-.01.622-.014.931,0,.286-.013.574-.012.86,0,.43,0,.859.011,1.289,0,.163,0,.328,0,.494.01.458.027.914.043,1.372,0,.137.008.276.014.413.02.456.047.914.077,1.372.008.137.013.276.023.413.03.444.065.887.1,1.332.014.153.025.31.04.465.038.418.08.833.126,1.251.017.186.037.37.059.556.043.382.092.766.141,1.15.03.223.057.447.088.668.048.343.1.688.152,1.031.04.268.083.538.126.805.047.3.1.594.15.89.057.32.115.64.177.959.046.247.094.492.143.74.073.375.149.746.23,1.117.042.2.085.4.128.594q.142.633.294,1.265c.038.154.074.308.111.46q.172.691.355,1.375c.034.125.064.249.1.373.129.471.264.941.4,1.411.024.081.044.164.069.244.01.039.025.075.035.116.143.479.291.954.444,1.431.043.133.082.267.126.4.138.428.284.854.43,1.279.062.179.123.36.187.539.107.306.219.613.333.917a75.96,75.96,0,0,0,5.615,11.968c.007.009.013.021.02.032.288.493.578.984.877,1.471.019.034.038.065.059.1.288.47.582.937.879,1.4.035.05.069.1.1.156q.434.673.88,1.334c.012.015.021.032.033.046l.1.155v0q1.974,2.891,4.216,5.628a76.654,76.654,0,0,0,49.865,27.43h0a76.834,76.834,0,0,0,52.965-12.75.2.2,0,0,0,.046-.274.19.19,0,0,0-.125-.084.207.207,0,0,0-.146.028,73.526,73.526,0,0,1-50.45,12.077h0a73.688,73.688,0,0,1-49.16-118.124.294.294,0,0,1,.023-.031q.476-.617.97-1.226l.057-.074q.488-.6.986-1.19c.023-.024.043-.05.065-.075.707-.835,1.438-1.654,2.183-2.461l.371-.379a67.781,67.781,0,0,1,6.833-6.431c.154-.128.31-.257.468-.382.412-.334.828-.663,1.259-1,.2-.154.4-.309.61-.462v0l.149-.114-.109-.151,0,0-1.679-2.354-1.6-2.246-.043-.063-.05-.073,0,0-.114-.162-.16.119h0C242.381,468.719,242.163,468.886,241.943,469.051Zm12.578,18.57-.377.3-.288.244c-.239.2-.48.4-.715.6s-.474.417-.707.627c-.089.078-.179.155-.265.233q-.443.4-.88.813c-.019.02-.039.039-.057.055a54.116,54.116,0,0,0-16.287,31c-.012.074-.025.148-.037.222-.047.319-.094.638-.137.957-.011.082-.025.162-.036.246-.007.058-.013.116-.02.173-.036.268-.067.535-.1.805-.022.188-.043.377-.062.567-.012.114-.026.224-.038.338s-.02.244-.031.366c-.019.215-.037.429-.055.645s-.034.447-.046.671-.03.426-.04.638q-.019.353-.035.7c-.008.19-.015.375-.021.563q-.013.4-.021.8l-.006.417c0,.317,0,.631,0,.948,0,.067,0,.134,0,.2a54.09,54.09,0,0,0,10.056,30.946l.01.013h0q1.116,1.566,2.35,3.07a54.372,54.372,0,0,0,35.368,19.462h0a54.54,54.54,0,0,0,37.158-8.771h0a.2.2,0,0,0,.054-.27.2.2,0,0,0-.271-.053,51.309,51.309,0,0,1-67.914-10.219,51.908,51.908,0,0,1-4.145-5.814c-.029-.05-.061-.1-.092-.148-.179-.294-.354-.593-.528-.886l-.076-.134c-.168-.286-.327-.578-.49-.867-.032-.058-.065-.117-.1-.174-.125-.233-.247-.464-.37-.7a51.415,51.415,0,0,1-5.825-26.415c.006-.137.011-.277.021-.415.01-.2.026-.4.039-.6s.027-.385.042-.58.032-.362.048-.544c.018-.2.036-.407.058-.611.021-.187.04-.374.061-.56s.043-.372.066-.558c.028-.214.055-.429.085-.642.019-.142.042-.285.062-.426.037-.26.077-.522.12-.783.011-.071.025-.141.037-.215a51.376,51.376,0,0,1,11.956-25.28c.056-.063.114-.126.168-.19.179-.2.357-.4.536-.6.133-.144.268-.29.4-.432.113-.122.227-.246.341-.365.254-.268.513-.533.773-.794l.007-.009c.285-.283.571-.566.862-.845a.093.093,0,0,0,.019-.021c.012-.014.017-.02.021-.021l0-.005,0,0a.18.18,0,0,0,.031-.023c.027-.027.049-.05.077-.074.093-.088.187-.179.283-.272.025-.021.049-.044.072-.067.142-.132.291-.267.446-.405.355-.329.675-.617.984-.882l.089-.076c.123-.11.245-.216.37-.323l.042-.032c.144-.122.291-.242.442-.366l.072-.058c.233-.2.48-.4.752-.613l.017-.011c.087-.067.175-.137.266-.206l.1-.076h0l.151-.116-1.972-2.755-1.438-2.01-.095-.13h0l-.115-.16-.159.121c-.343.26-.684.534-1.012.8C254.563,487.585,254.542,487.6,254.521,487.621Zm-8.713-12.176c-.028.022-.053.042-.081.061-.362.286-.722.577-1.077.871-.132.108-.26.22-.392.33-.3.25-.6.5-.9.759-.222.192-.441.389-.662.584-.2.179-.4.354-.6.534-.249.225-.494.456-.739.685l-.482.452c-.266.252-.528.51-.789.765-.131.127-.261.257-.39.384-.281.28-.556.562-.829.844-.1.107-.208.212-.31.32q-.439.459-.865.923c-.078.084-.157.167-.233.253q-.456.5-.9,1l-.152.176c-.317.365-.631.73-.942,1.1-.02.025-.043.05-.064.075a69.2,69.2,0,0,0-7.991,11.911c-.008.015-.014.027-.022.039-.213.405-.421.813-.626,1.221l-.135.265c-.179.361-.353.722-.528,1.084l-.2.424c-.155.327-.3.654-.45.984-.081.179-.163.359-.242.537-.132.3-.262.607-.39.91-.089.208-.176.419-.263.628-.116.285-.229.568-.342.854-.092.231-.184.465-.273.7-.1.272-.2.54-.3.812-.091.249-.182.5-.273.75s-.186.525-.275.784-.175.522-.262.781-.171.52-.252.778-.165.53-.245.794-.157.525-.234.787-.149.524-.221.786-.149.539-.221.81c-.067.255-.132.507-.2.764-.07.281-.141.565-.209.851-.057.238-.114.479-.167.72-.068.3-.136.6-.2.9-.049.221-.093.446-.139.669q-.1.48-.192.964c-.039.2-.074.41-.113.614-.061.343-.122.686-.177,1.027-.034.186-.063.378-.092.564-.054.357-.11.715-.161,1.075-.007.047-.015.095-.022.143-.019.137-.034.272-.051.409-.048.358-.095.715-.136,1.074-.024.2-.043.393-.065.589-.037.342-.076.683-.108,1.026-.024.234-.04.469-.058.707-.027.3-.053.6-.075.9s-.037.6-.055.908c-.012.233-.028.464-.039.7-.021.41-.034.819-.046,1.229,0,.127-.011.254-.014.379a69.545,69.545,0,0,0,1.569,16.568c.006.034.014.066.022.1.109.5.223,1,.344,1.5.018.069.035.139.052.207.113.461.23.918.352,1.376.027.1.055.2.083.3q.172.633.358,1.264c.038.131.074.261.113.387.119.39.238.781.364,1.17.047.154.1.306.146.458.119.365.241.725.366,1.088.059.172.12.345.18.516.12.34.244.679.368,1.013.07.192.141.381.213.572.119.318.246.631.371.945.081.207.161.413.246.619.121.3.246.591.373.885.093.217.184.439.28.657.122.28.248.554.373.833.107.228.208.461.315.693.119.252.243.5.367.754.249.523.508,1.043.773,1.559.107.2.207.407.313.613.145.27.3.543.442.816.119.215.235.434.355.649.147.264.3.526.451.79.127.219.254.444.385.662q.225.385.46.766c.136.223.272.451.412.672.155.249.316.5.472.746.146.226.29.454.437.68.161.243.326.486.489.728.083.121.16.245.245.367l.1.151h.006q1.681,2.442,3.594,4.777a69.267,69.267,0,0,0,45.053,24.788h.006a69.438,69.438,0,0,0,47.726-11.435h0a.195.195,0,1,0-.22-.321,66.155,66.155,0,0,1-45.244,10.77h0a66,66,0,0,1-42.92-23.652,67.012,67.012,0,0,1-5.233-7.312c-.151-.249-.305-.5-.455-.746-.094-.156-.185-.311-.276-.466-.173-.292-.344-.582-.511-.877-.039-.066-.076-.135-.114-.2a66.313,66.313,0,0,1-8.362-36.821c.006-.108.013-.22.02-.328.023-.33.05-.661.079-.988.015-.181.031-.36.046-.54.03-.315.063-.631.1-.948q.028-.268.059-.535.058-.51.127-1.018c.019-.137.036-.276.055-.411.053-.392.11-.784.172-1.173.009-.064.021-.126.031-.191a66.3,66.3,0,0,1,17.709-35.52c.054-.057.114-.115.168-.172.276-.285.552-.567.833-.845.153-.152.308-.3.464-.451.2-.191.391-.382.588-.572.367-.347.734-.69,1.11-1.028.887-.807,1.689-1.5,2.454-2.123.54-.446,1.068-.865,1.6-1.27.115-.087.227-.174.342-.259l.152-.116-.532-.743-2.862-4.009-.095-.136v0l-.115-.164-.161.121h0C246.545,474.874,246.174,475.157,245.807,475.445Zm17.108,24.692c-.049.042-.1.089-.149.135-.191.165-.38.332-.566.5-.143.129-.283.262-.424.394-.092.084-.182.168-.271.252-.194.184-.385.372-.575.558-.033.033-.066.063-.1.1a39.277,39.277,0,0,0-11.185,22.339l-.014.106c-.041.279-.076.558-.112.838a.1.1,0,0,1,0,.017c-.011.094-.02.189-.03.283-.023.2-.046.406-.068.614l0,.037c-.017.173-.03.347-.042.52-.014.148-.029.3-.039.445-.024.318-.043.636-.058.953-.011.226-.018.451-.024.674,0,.095-.01.19-.012.283-.006.278-.009.553-.011.829,0,.037,0,.076,0,.117a39.244,39.244,0,0,0,7.848,23.664l.081.107h0c.351.464.708.924,1.081,1.376a39.471,39.471,0,0,0,25.664,14.121h0a39.6,39.6,0,0,0,26.573-6.111.192.192,0,0,0,.058-.268.2.2,0,0,0-.269-.059A36.364,36.364,0,0,1,257.3,546.682l0-.006c-.11-.255-.218-.516-.322-.774l-.006-.013q-.156-.39-.3-.781l0-.006a36.247,36.247,0,0,1-2.233-15.076q.111-1.707.374-3.38a.389.389,0,0,1,.008-.047c.041-.246.081-.49.126-.733.006-.041.013-.08.02-.12.039-.209.081-.418.122-.625.015-.072.028-.14.043-.212s.039-.176.057-.265a36.268,36.268,0,0,1,4.907-11.893h0c.128-.2.262-.409.4-.61.019-.027.039-.055.054-.083.124-.181.249-.362.376-.543l.1-.138c.118-.164.236-.328.358-.494.044-.06.089-.121.134-.18.112-.153.225-.3.34-.451.054-.073.11-.146.166-.216q.161-.207.328-.414c.065-.082.13-.163.2-.244.106-.127.209-.254.315-.378.076-.092.154-.18.23-.271.1-.117.2-.232.3-.35l.259-.289.29-.321c.1-.1.2-.208.294-.311s.178-.2.272-.291c.115-.119.233-.235.348-.354.079-.079.156-.159.236-.238.184-.182.373-.364.562-.542a.331.331,0,0,1,.037-.037c.1-.1.2-.189.293-.278l.052-.046c.082-.077.164-.148.246-.22l.031-.027.119-.108.039-.035q.162-.148.327-.293c.033-.029.068-.057.1-.087.087-.074.172-.149.258-.226.036-.029.07-.061.108-.091.114-.1.229-.2.343-.293l.133-.1c.074-.057.147-.117.22-.171l.148-.114-.108-.15v0l-2.555-3.57-.746-1.04-.035-.049-.059-.081h0l-.12-.162-.156.126,0,0-.1.081-.275.224c-.094.075-.185.15-.277.225C263.413,499.711,263.164,499.924,262.915,500.137Zm4.888,5.65c-.11.094-.218.193-.327.289-.091.082-.186.163-.276.245s-.2.185-.3.276-.2.182-.3.275l-.264.257c-.1.1-.21.2-.314.31l-.225.229c-.113.117-.228.233-.339.354-.062.064-.125.132-.188.2l-.364.4c-.048.054-.1.109-.145.163-.133.15-.264.3-.4.454-.033.039-.067.077-.1.116-.144.171-.286.342-.428.515l-.053.067c-.155.193-.307.385-.457.58l-.011.013a31.892,31.892,0,0,0-5.685,11.845c-.008.034-.016.066-.025.1-.045.193-.09.385-.133.58-.017.076-.036.153-.052.231-.032.151-.064.305-.093.458-.027.12-.049.237-.072.355s-.043.232-.061.347c-.028.156-.054.312-.082.468-.014.084-.027.167-.039.251-.027.186-.054.371-.079.556-.009.061-.017.126-.026.188-.026.2-.051.4-.073.606l-.01.078c0,.031-.006.059-.009.088-.022.2-.042.4-.061.6,0,.065-.009.13-.014.195-.015.185-.031.37-.04.553-.008.09-.013.179-.019.27-.008.152-.014.305-.021.458-.006.125-.012.251-.015.375s-.008.228-.01.341c0,.169,0,.334,0,.5,0,.066,0,.136,0,.2,0,.215,0,.432.007.644v.058a31.885,31.885,0,0,0,3.671,14.2.62.62,0,0,1,.033.062c.1.194.209.388.315.58.029.046.052.094.079.14.093.163.186.327.282.488.042.074.086.147.128.22l.238.392c.064.1.124.2.188.3s.12.186.18.278c.087.135.174.269.262.4.021.032.043.061.065.094q.655.971,1.386,1.906l.036.047v0c.145.184.29.368.439.547a32.015,32.015,0,0,0,20.822,11.457h0a32.213,32.213,0,0,0,21.306-4.781.193.193,0,0,0,.074-.243l-.011-.023a.2.2,0,0,0-.121-.107.193.193,0,0,0-.161.021,28.867,28.867,0,0,1-37.513-6.177,29.347,29.347,0,0,1-1.992-2.727c-.08-.124-.16-.252-.24-.38l-.1-.171c-.088-.141-.173-.284-.259-.427-.021-.038-.043-.075-.064-.113-.1-.166-.193-.332-.284-.5l-.017-.03a28.821,28.821,0,0,1-3.607-14.583c0-.052,0-.1,0-.155,0-.147.01-.3.018-.443,0-.088,0-.175.009-.262.007-.125.013-.247.023-.372.008-.108.013-.216.023-.326s.016-.225.028-.337.02-.224.031-.336.022-.229.035-.344c.011-.1.023-.2.036-.292.015-.132.032-.266.049-.4.007-.057.016-.117.025-.174A28.847,28.847,0,0,1,270.228,512l.006-.007c.147-.147.3-.293.446-.438.035-.034.07-.066.1-.1.124-.119.247-.233.371-.35.081-.075.164-.148.247-.221s.163-.149.246-.222a.492.492,0,0,1,.064-.056.064.064,0,0,1,.018-.019l0,0,.575-.488,0,0,.134-.115-.1-.143v0l-1.561-2.185-1.729-2.422-.039-.054-.055-.08,0,0-.117-.166-.162.125h0c-.076.06-.153.125-.226.186l-.04.034c-.121.1-.237.2-.356.3C267.971,505.644,267.886,505.714,267.8,505.787Zm-17.845-24.07c-.062.05-.128.1-.191.155s-.1.084-.156.129c-.07.055-.137.111-.208.168q-1.132.935-2.215,1.913l0,0a61.508,61.508,0,0,0-19.351,34.691c-.007.034-.013.066-.018.1-.074.409-.147.82-.213,1.231-.019.117-.038.233-.055.35-.052.341-.1.687-.151,1.029-.012.08-.027.162-.037.243-.015.1-.027.212-.041.319-.037.284-.072.567-.1.851-.03.245-.055.491-.081.735-.016.153-.036.306-.05.458-.009.088-.014.175-.023.263-.026.276-.048.552-.07.83-.017.221-.037.443-.052.664-.019.275-.033.544-.049.817-.013.235-.028.471-.039.706s-.017.455-.024.684c-.011.285-.022.567-.028.853,0,.125,0,.252,0,.378a61.439,61.439,0,0,0,10.943,36.053c.03.044.058.089.089.129l.1.151h0q1.4,2,2.959,3.9a61.757,61.757,0,0,0,40.172,22.1h0a62,62,0,0,0,42.452-10.108.2.2,0,0,0,0-.333.2.2,0,0,0-.212.007,58.794,58.794,0,0,1-82.309-17.431v0l-.1-.164a58.67,58.67,0,0,1-8.9-34.27c.007-.121.014-.243.019-.365q.024-.385.052-.766c.016-.214.03-.428.048-.641.018-.229.04-.456.061-.685s.042-.457.067-.687.051-.477.08-.715c.024-.2.049-.406.075-.609.036-.274.071-.547.111-.819.022-.148.042-.3.065-.443.05-.336.1-.67.159-1,.01-.061.021-.125.031-.187a58.749,58.749,0,0,1,16.557-31.8c.052-.051.1-.1.156-.151q.382-.378.773-.749c.138-.13.281-.261.42-.389.185-.173.371-.345.557-.516.338-.3.678-.608,1.023-.9l.265-.224.09-.074c.249-.211.5-.423.753-.63l.08-.066c.147-.12.3-.237.442-.357.2-.156.4-.316.593-.474.083-.062.16-.122.24-.184.062-.048.124-.094.186-.14l0,0,.143-.114-3.394-4.753-.212-.286-.153.115,0,0-.1.078C250.782,481.061,250.388,481.368,249.958,481.716Z" transform="translate(-204.402 -462.349)" fill="#fff"/>
        <g id="Gruppe_379" data-name="Gruppe 379" clip-path="url(#clip-path)">
          <circle id="Ellipse_16" data-name="Ellipse 16" cx="144.275" cy="144.275" r="144.275" transform="translate(-132.507 27.015) rotate(-45)" fill="#fff"/>
        </g>
      </g>
    </g>
  </g>
</svg>
