<svg xmlns="http://www.w3.org/2000/svg" viewBox="0 0 170.08 170.08"><defs><style>.cls-1{fill:#fff;}</style></defs><g id="Ebene_1" data-name="Ebene 1"><path class="cls-1" d="M91.21,75.55v-.23h-.28l-.17,0-.17,0a2.57,2.57,0,0,0-.4.07,9.86,9.86,0,0,0-3.74,1.59l0,0-.07.05-.15.12,3.6,5.1.28-.22a6.94,6.94,0,0,1,1.07-.65l.08,0Z"/><path class="cls-1" d="M91.21,74V67.77H91c-.55,0-1,.09-1.42.15l-.71.11A17.36,17.36,0,0,0,82,71l-.15.11,3.6,5.1.16-.11A10.94,10.94,0,0,1,91.06,74Z"/><path class="cls-1" d="M91.21,66.47V60.22H91l-1.1.07-.24,0-.54.07a2.53,2.53,0,0,0-.3,0l-.37,0-.21,0-.36.06-1,.19a24.65,24.65,0,0,0-9.32,4.11l-.15.11,3.6,5.11.16-.11a18.53,18.53,0,0,1,9.8-3.49Z"/><path class="cls-1" d="M91.21,58.93V52.67H91l-.53,0h-.13a32.32,32.32,0,0,0-17.1,6l-.15.12,3.59,5.08.16-.11a25.91,25.91,0,0,1,14.18-4.84Z"/><path class="cls-1" d="M91.21,51.4V45.15H91a39.73,39.73,0,0,0-22.11,7.38l-.17.11,3.61,5.1.16-.11A33.52,33.52,0,0,1,91,51.41Z"/><path class="cls-1" d="M91.21,43.86V37.61H91l-1,0c-.39,0-.82,0-1.31.08l-.85.06H87.7L86.27,38c-.92.12-1.85.26-2.79.43a48.08,48.08,0,0,0-18.91,8l-.16.11L68,51.61l.16-.12A40.93,40.93,0,0,1,91,43.87Z"/><path class="cls-1" d="M91.21,36.32V30.07H91A54.71,54.71,0,0,0,60.21,40.22l-.15.11,3.6,5.1.16-.11a48.48,48.48,0,0,1,27.22-9Z"/><path class="cls-1" d="M91.21,28.8V22.56H91c-.42,0-.82,0-1.26,0s-.77,0-1.15.06h-.11A62.36,62.36,0,0,0,55.88,34.09l-.16.11,3.6,5.1.16-.11A56,56,0,0,1,91,28.8Z"/><path class="cls-1" d="M91.21,21.25V15H91A69.5,69.5,0,0,0,51.52,27.94l-.16.12L55,33.14l.15-.11A63.51,63.51,0,0,1,91,21.26Z"/><path class="cls-1" d="M91.21,13.8V7.55H91A77.06,77.06,0,0,0,47.19,21.83l-.16.11L50.65,27l.16-.11A70.83,70.83,0,0,1,91,13.8Z"/><path class="cls-1" d="M91.21,6.24V0H91L89.38,0h-.07c-.33,0-.65,0-1,0l-.49,0-.4,0h-.19L86,.21l-.6,0-1.16.1A85,85,0,0,0,42.85,15.66l-.16.11,3.61,5.1.16-.11A78.32,78.32,0,0,1,91,6.25Z"/><path class="cls-1" d="M79.19,73.52a16.33,16.33,0,0,1,1.45-1.43l.16-.15.21.3,3.44,4.85-.12.11h0c-.15.15-.31.3-.45.46a1.42,1.42,0,0,0-.12.13q-.16.17-.3.33a3.22,3.22,0,0,0-.24.28c0,.06-.11.12-.16.19l-.28.36-.09.12-.3.42,0,.08L82,80l0,0c-.1.16-.19.33-.29.5,0,0,0,0,0,0-.1.17-.18.34-.27.51l0,0-.24.52,0,0-.21.52,0,.06-.18.51,0,.09a4.42,4.42,0,0,0-.15.48l0,.15c0,.14-.08.29-.11.44l-.06.21c0,.13,0,.25-.08.38s0,.19,0,.29l-.06.32c0,.12,0,.25,0,.37l0,.25c0,.15,0,.31,0,.46a1.1,1.1,0,0,0,0,.18c0,.17,0,.35,0,.52s0,.34,0,.51v.23l0,.55v.07l.06.56v0c0,.19,0,.38.08.57v0c0,.19.07.38.11.57v0c0,.19.08.37.13.56,0,0,0,0,0,0,0,.18.09.36.15.54,0,0,0,0,0,.06.06.17.11.35.17.52l0,.07a4.09,4.09,0,0,0,.18.49s0,.07,0,.11.12.3.19.45l.06.13c.06.14.13.29.2.43l.08.15c.07.13.13.27.21.39a1.62,1.62,0,0,0,.1.18l.21.36a1.74,1.74,0,0,1,.11.18c.08.12.15.24.24.36.23.34.47.67.73,1a14,14,0,0,0,17.32,3.57.2.2,0,0,1,.27.08l0,0a.21.21,0,0,1-.08.26,17.33,17.33,0,0,1-10.78,2.1h0a17.26,17.26,0,0,1-10.21-5.13h0l-.11-.11-.23-.26-.13-.14c-.17-.19-.33-.38-.49-.58a17.31,17.31,0,0,1,.51-22.44Zm-6.75,26.71.39.5,0,0,0,0a24.69,24.69,0,0,0,16,8.83h0a24.9,24.9,0,0,0,16.14-3.4.19.19,0,0,0,.08-.23v0a.2.2,0,0,0-.12-.12.18.18,0,0,0-.16,0,21.53,21.53,0,0,1-27.54-5,20.41,20.41,0,0,1-1.42-2c-.13-.19-.25-.39-.37-.59l-.15-.26-.25-.44-.23-.43c-.06-.12-.13-.25-.19-.38l-.24-.51a3.54,3.54,0,0,1-.16-.34L74,95.32l-.09-.21a21.71,21.71,0,0,1-.36-14.57l0-.09c.06-.2.13-.39.21-.59s.1-.28.16-.43l.12-.29c.09-.22.18-.45.28-.67l.07-.15.36-.76,0,0a20.82,20.82,0,0,1,2.54-3.89l0,0c.19-.23.38-.45.58-.67a.27.27,0,0,1,.07-.08c.18-.21.38-.41.57-.61l.1-.1.56-.55,0,0,.21-.18.14-.13L79.9,71h0l.14-.12L78,68l-1.33-1.88h0l-.21-.31-.17.14h0A24.91,24.91,0,0,0,72.44,100.23Zm10.07-17a9.79,9.79,0,0,0,2,8l0,0c.11.14.23.28.35.41l.09.1.33.32.08.09c.28.26.57.5.87.73l0,0,.1.07h0a9.81,9.81,0,0,0,9.82.93.18.18,0,0,0,.11-.13.22.22,0,0,0,0-.16l-.08-.11a.19.19,0,0,0-.22-.07,6.53,6.53,0,0,1-2.88.28A6.45,6.45,0,0,1,89,91.37l0,0-.1-.12L88.7,91l-.09-.13-.09-.14-.11-.18-.06-.1-.12-.23,0-.08a6.49,6.49,0,0,1,.58-6.72l.09-.11-.19-.26-1.38-2-.15-.22v0l-1.6-2.24-.13-.19-.21-.32L85,78.3h0A9.66,9.66,0,0,0,82.51,83.22ZM62.35,48.07l-.22.18A47.13,47.13,0,0,0,45,79.78a.13.13,0,0,1,0,.06c0,.12,0,.25,0,.37s0,.39,0,.58,0,.13,0,.19c0,.31-.05.61-.07.91,0,.07,0,.14,0,.21,0,.31,0,.62,0,.94a.49.49,0,0,0,0,.12,47,47,0,0,0,6.84,26.52.05.05,0,0,0,0,0c.18.3.37.6.56.9l.09.14.53.79.15.23.49.7.09.13.11.14h0c.55.76,1.12,1.51,1.72,2.24A47.23,47.23,0,0,0,86,132.07h0a47.43,47.43,0,0,0,32.13-7.33.24.24,0,0,0,.09-.15.18.18,0,0,0-.09-.19.2.2,0,0,0-.21,0,44.14,44.14,0,0,1-58.15-9.23,45,45,0,0,1-3.57-5.07l-.09-.15c-.15-.25-.3-.5-.44-.75a44.17,44.17,0,0,1-5.76-23.89c0-.09,0-.17,0-.26s0-.4,0-.61l0-.44c0-.18,0-.35,0-.53s0-.33.05-.5,0-.34,0-.51l.06-.47c0-.2,0-.39.07-.58s0-.24,0-.37.07-.46.11-.69l0-.19A44,44,0,0,1,63,55.81l.07-.08.63-.6,0,0,.68-.63c.34-.3.71-.62,1.1-.94l.51-.43.24-.18.14-.11.38-.3.14-.11-3.39-4.81-.21-.3-.17.12h0C62.92,47.61,62.63,47.85,62.35,48.07ZM139.88,155.2a.2.2,0,0,0-.27-.06,81.78,81.78,0,0,1-109.06-16.2,79.85,79.85,0,0,1-6.14-8.61h0l-.11-.17A81.72,81.72,0,0,1,12.46,80.63s0-.11,0-.17c0-.53.1-1.07.16-1.61a1.79,1.79,0,0,1,0-.23c.06-.54.12-1.09.19-1.64V76.9c.07-.58.15-1.16.24-1.75A81.8,81.8,0,0,1,40.34,25.57c.14-.13.29-.25.44-.37l.51-.44.1-.09.22-.18h0l.18-.15s0,0,.05-.05l.2-.16,0,0,.07-.06.17-.14.59-.48.35-.27.71-.55.38-.3.07,0,.33-.25a4.15,4.15,0,0,1,.34-.24h0l.16-.11-3.4-4.81-.06-.08,0-.05h0l-.12-.16-.15.11-.68.51c-.68.51-1.36,1-2,1.59l-.38.31-.82.67-.2.18-.59.49-.34.3c-.14.12-.29.24-.42.37l-.44.38-.31.28-.52.46a1.8,1.8,0,0,1-.2.19l-.6.56-.08.07A84.56,84.56,0,0,0,11.75,57.1l0,.09c-.09.26-.18.52-.26.79a.49.49,0,0,0-.06.17l-.24.73-.08.24-.21.68-.09.28c-.07.22-.13.44-.2.66l-.09.31-.18.64-.09.32-.18.64L10,63c0,.22-.11.44-.17.65a2.81,2.81,0,0,1-.08.31c0,.22-.11.45-.16.67s0,.19-.07.29-.11.46-.17.7l-.06.25c-.05.24-.11.49-.17.73a1.55,1.55,0,0,1,0,.21c-.06.26-.11.52-.17.78l0,.15c-.06.29-.11.57-.17.85l0,.08A86.72,86.72,0,0,0,7.27,78.91l0,.5c0,.09,0,.18,0,.27,0,.25,0,.51,0,.76v.12c0,.31,0,.61,0,.92h0a85.58,85.58,0,0,0,2.24,23.38s0,0,0,.07l.21.88c0,.06,0,.12.05.18.06.25.13.5.19.75l.08.29c.06.21.11.43.17.64s.07.25.11.37l.15.55.13.46c0,.14.09.29.13.43l.17.56.09.3c.07.22.14.46.22.69,0,0,0,0,0,.07a85.15,85.15,0,0,0,128.72,44.37h0A.2.2,0,0,0,139.88,155.2ZM45.17,23.32c-.69.52-1.38,1.05-2,1.6-.5.4-1,.81-1.46,1.22l-.46.4-.92.81-.85.78-.48.44c-.36.33-.71.68-1.06,1l-.21.2c-.41.4-.81.81-1.21,1.22l0,0A76.89,76.89,0,0,0,24,48c-.06.11-.12.21-.17.32l-.18.33a77.42,77.42,0,0,0-8.19,25.07h0c-.08.57-.16,1.15-.23,1.72,0,.06,0,.12,0,.19-.06.49-.12,1-.17,1.47a.22.22,0,0,1,0,.08c-.05.5-.09,1-.13,1.51l0,.32c-.1,1.23-.16,2.46-.2,3.69,0,.31,0,.63,0,.94s0,.57,0,.86c0,.44,0,.87,0,1.3v.5c0,.46,0,.92,0,1.38,0,.14,0,.28,0,.42,0,.46,0,.92.07,1.38,0,.14,0,.28,0,.42,0,.44.06.89.1,1.34l0,.47c0,.42.08.84.13,1.26,0,.18,0,.37.05.56,0,.38.09.77.14,1.16,0,.22.06.45.08.67l.15,1c0,.27.08.54.13.81s.09.6.14.9.11.64.18,1,.09.49.14.74.14.75.22,1.13c0,.2.09.4.13.6.09.42.19.85.29,1.27,0,.16.07.31.11.47.11.46.23.92.35,1.38,0,.13.06.25.1.38.12.47.26,1,.39,1.42a2.33,2.33,0,0,1,.07.25s0,.07,0,.12c.15.48.29,1,.44,1.44.05.13.09.27.13.4.14.43.28.86.43,1.29l.18.54.33.93a77.41,77.41,0,0,0,5.6,12.08s0,0,0,0c.28.5.57,1,.87,1.49l.06.1c.29.47.58.94.88,1.41a1.4,1.4,0,0,1,.1.16c.29.45.58.9.88,1.35l0,0,.11.15h0q2,2.92,4.22,5.69a77.21,77.21,0,0,0,50.08,27.88h0a77.42,77.42,0,0,0,53.41-12.57.22.22,0,0,0,.05-.28.24.24,0,0,0-.13-.09.21.21,0,0,0-.15,0,74.05,74.05,0,0,1-50.87,11.91h0A74.22,74.22,0,0,1,35.45,41.66l0,0,1-1.23.06-.07,1-1.2.06-.07c.72-.84,1.46-1.66,2.21-2.47l.38-.38a69.35,69.35,0,0,1,6.91-6.44l.48-.39c.41-.33.83-.66,1.27-1l.61-.46h0l.15-.11-.11-.15h0l-1.68-2.37L46.2,23l0-.07,0-.07h0L46,22.7l-.16.12h0ZM57.74,42.08l-.38.31-.29.24-.73.6-.71.63-.27.24c-.3.26-.59.54-.89.81l-.06.06A54.51,54.51,0,0,0,37.85,76.11a1.7,1.7,0,0,1,0,.22c-.05.32-.09.64-.14,1,0,.08,0,.16,0,.24a1.1,1.1,0,0,1,0,.18c0,.27-.07.54-.1.81l-.06.57c0,.11,0,.23,0,.34s0,.25,0,.37l-.06.65c0,.22,0,.45-.05.67s0,.43,0,.64,0,.48,0,.71,0,.38,0,.57l0,.8v.42c0,.32,0,.64,0,1v.2a54.51,54.51,0,0,0,10,31.22h0c.75,1.06,1.53,2.09,2.35,3.1A54.77,54.77,0,0,0,85,139.54h0a54.94,54.94,0,0,0,37.47-8.64h0a.19.19,0,0,0,0-.27.2.2,0,0,0-.27-.06,51.7,51.7,0,0,1-68.35-10.63,52.42,52.42,0,0,1-4.14-5.88,1.3,1.3,0,0,0-.1-.15l-.52-.9-.08-.13c-.17-.29-.33-.58-.49-.88l-.09-.17-.37-.7a51.78,51.78,0,0,1-5.74-26.64l0-.42c0-.2,0-.4,0-.6s0-.39,0-.59l.06-.55c0-.2,0-.41.06-.61l.06-.57c0-.18,0-.37.07-.56L42.8,80l.06-.43c0-.26.09-.53.13-.79,0-.07,0-.14,0-.22A51.68,51.68,0,0,1,55.2,53.11l.17-.19.54-.6.41-.43.34-.37.79-.79h0l.87-.85,0,0s0,0,0,0h0s0,0,0,0a.6.6,0,0,0,.08-.08c.1-.08.19-.18.29-.27l.07-.07.45-.4c.36-.33.69-.62,1-.88l.09-.08.37-.32s0,0,0,0l.45-.36.07-.06.76-.61h0l.27-.21.1-.08h0l.15-.11-2-2.79-1.44-2-.09-.13h0L59,41.11l-.16.12c-.35.26-.69.53-1,.8ZM49,29.78l-.09.06-1.09.87-.39.33-.91.76-.67.58-.61.54q-.37.33-.75.69l-.48.45-.8.76-.4.39-.84.84-.31.33c-.3.3-.59.61-.88.92l-.23.25c-.31.34-.62.67-.92,1l-.15.18c-.32.36-.64.73-.95,1.1l-.07.08a70.08,70.08,0,0,0-8.11,11.95.05.05,0,0,1,0,0c-.22.41-.43.82-.64,1.23l-.13.27c-.19.36-.36.72-.54,1.08-.07.14-.14.29-.2.43-.16.33-.31.66-.46,1l-.25.54-.4.91c-.09.21-.17.43-.26.64s-.24.57-.35.85-.19.47-.28.71-.21.54-.31.81-.19.5-.28.76-.19.52-.28.78l-.27.79c-.09.26-.17.52-.25.78l-.26.8-.24.79-.22.79c-.08.27-.16.55-.23.82s-.14.51-.2.77l-.22.85c-.06.24-.11.49-.17.73l-.21.91c-.05.22-.09.44-.14.67s-.14.64-.2,1l-.12.62-.18,1L23,73.8c-.06.36-.12.72-.17,1.08a.78.78,0,0,0,0,.14l-.06.42c-.05.36-.1.72-.14,1.08,0,.2-.05.39-.07.59s-.08.69-.11,1-.05.47-.07.71-.05.61-.08.91l-.06.91c0,.24,0,.47,0,.7,0,.42,0,.83-.05,1.24,0,.13,0,.26,0,.38a70.05,70.05,0,0,0,1.5,16.7.36.36,0,0,0,0,.1c.11.5.22,1,.34,1.51,0,.07,0,.14.05.21.11.46.23.92.35,1.39,0,.1,0,.2.08.3.11.43.23.85.35,1.27l.12.4c.11.39.23.78.36,1.18,0,.15.09.3.14.46l.36,1.09.18.53c.12.34.24.68.37,1l.21.57c.12.33.24.64.37,1l.24.62c.12.3.25.6.38.89l.27.67c.12.28.25.56.38.84l.31.7c.12.25.24.51.37.76.24.53.5,1,.77,1.57.1.21.2.41.31.62l.44.83c.12.21.23.43.35.65l.45.8.39.67c.15.26.3.52.46.77s.27.46.41.68l.47.76c.15.22.29.45.44.68l.49.74.24.37.1.15h0q1.68,2.47,3.6,4.83A69.75,69.75,0,0,0,83,154.47h0a70,70,0,0,0,48.13-11.27h0a.19.19,0,0,0,0-.27.2.2,0,0,0-.27-.06,66.61,66.61,0,0,1-45.62,10.62h0A66.94,66.94,0,0,1,37,122.06l-.45-.75-.28-.47-.51-.89c0-.07-.07-.14-.11-.2a66.87,66.87,0,0,1-8.24-37.13c0-.11,0-.22,0-.33l.09-1c0-.18,0-.36.05-.54s.07-.64.1-1,0-.36.07-.54c0-.35.08-.69.13-1,0-.14,0-.27.06-.41.05-.4.11-.79.17-1.18,0-.07,0-.13,0-.19a66.73,66.73,0,0,1,18-35.69,1.37,1.37,0,0,0,.17-.17l.85-.85.46-.45.6-.57,1.12-1c.9-.81,1.71-1.5,2.49-2.13.54-.44,1.08-.86,1.61-1.27l.35-.26.15-.11-.53-.75-2.86-4.06-.1-.13h0l-.11-.16-.16.12h0Zm17.1,24.95-.15.14-.57.5-.43.39L64.7,56l-.58.56a.47.47,0,0,1-.1.1A39.56,39.56,0,0,0,52.65,79.11l0,.11c0,.28-.08.56-.11.84,0,0,0,0,0,0l0,.28c0,.21,0,.41-.07.62v0c0,.17,0,.35,0,.52s0,.3,0,.45q0,.48-.06,1c0,.23,0,.45,0,.68s0,.19,0,.28c0,.28,0,.56,0,.84v.11A39.54,39.54,0,0,0,60,108.74l.09.1h0c.35.47.7.94,1.08,1.4a39.79,39.79,0,0,0,25.77,14.35h0a40,40,0,0,0,26.8-6,.2.2,0,0,0,.06-.27.2.2,0,0,0-.27-.06,36.64,36.64,0,0,1-53.27-16.66h0c-.11-.25-.22-.52-.32-.78h0c-.11-.26-.21-.52-.31-.79h0a36.65,36.65,0,0,1-2.17-15.2c.08-1.14.21-2.28.39-3.4a.09.09,0,0,0,0,0c0-.25.09-.49.13-.74a.5.5,0,0,0,0-.12c0-.21.09-.42.13-.63s0-.14,0-.21l.06-.27a36.74,36.74,0,0,1,5-12h0c.13-.2.26-.41.4-.61l0-.08.39-.55.09-.14c.12-.16.24-.33.37-.49a1.4,1.4,0,0,1,.13-.18c.11-.16.23-.31.35-.46l.16-.21.34-.42.2-.24c.1-.13.21-.26.32-.38s.15-.18.23-.28l.3-.35.27-.29c.1-.1.19-.21.29-.32l.3-.31.27-.29.36-.35.24-.24c.18-.19.37-.37.56-.55l0,0,.3-.28,0,0,.25-.22,0,0,.12-.1,0,0,.33-.29.1-.09.26-.23a.87.87,0,0,0,.11-.09l.35-.29.13-.1.23-.18.15-.11-.11-.15h0l-2.56-3.6-.74-1.06,0,0-.06-.09h0l-.12-.16-.16.12h0l-.1.08-.28.22-.28.23ZM71,60.45l-.34.28-.27.25c-.11.09-.21.19-.3.28l-.3.27-.27.26-.32.31-.22.23-.35.35-.19.2c-.12.14-.24.27-.37.4l-.14.16-.4.46-.1.12-.44.51,0,.07c-.16.19-.31.39-.46.58h0A32.08,32.08,0,0,0,60.71,77.1l0,.1c0,.19-.09.38-.13.58l-.06.23-.09.46c0,.12,0,.24-.08.36l-.06.35-.09.47a1.87,1.87,0,0,1,0,.25c0,.19-.05.38-.08.56l0,.19c0,.2-.05.41-.07.61v.08a.28.28,0,0,0,0,.09c0,.2,0,.4-.07.61,0,.06,0,.13,0,.19s0,.37-.05.56a2.45,2.45,0,0,1,0,.27c0,.15,0,.31,0,.46s0,.26,0,.38,0,.23,0,.34,0,.34,0,.51V85c0,.22,0,.44,0,.65v.06A32.09,32.09,0,0,0,63.35,100l0,.06.31.59s0,.09.08.14.18.33.28.49.09.15.13.22l.24.4.18.3.18.28.26.41a.36.36,0,0,1,.07.1c.44.65.9,1.29,1.39,1.92l0,0h0l.44.55a32.24,32.24,0,0,0,20.91,11.65h0a32.45,32.45,0,0,0,21.48-4.71.19.19,0,0,0,.07-.24v0a.15.15,0,0,0-.12-.1.18.18,0,0,0-.16,0,29.06,29.06,0,0,1-39.74-9.17l-.24-.39s-.07-.11-.11-.17l-.25-.43-.07-.11c-.1-.17-.19-.34-.28-.51l0,0a29,29,0,0,1-3.56-14.7.81.81,0,0,1,0-.16c0-.15,0-.3,0-.45a2.35,2.35,0,0,1,0-.26c0-.12,0-.25,0-.37s0-.22,0-.33l0-.34c0-.11,0-.23,0-.34l0-.35a2.54,2.54,0,0,0,0-.29c0-.13,0-.27,0-.4l0-.17a29.07,29.07,0,0,1,8.25-16.39h0l.45-.44.11-.09.38-.36.25-.22.24-.22.07-.06,0,0h0l.58-.49h0l.14-.11-.1-.15h0L74,62.34l-1.73-2.45,0,0-.06-.08h0l-.12-.16-.16.12h0l-.23.19,0,0-.36.3ZM53.17,36.11l-.19.16-.16.13-.21.17c-.76.62-1.51,1.26-2.24,1.91h0A62.06,62.06,0,0,0,30.7,73.32s0,.07,0,.1c-.08.41-.16.83-.22,1.24l-.06.35c-.06.35-.11.7-.16,1,0,.08,0,.16,0,.24s0,.22,0,.33c0,.28-.08.57-.11.85s-.06.5-.08.74l-.06.46c0,.09,0,.18,0,.27,0,.27,0,.55-.08.83s0,.45-.05.67l-.06.82c0,.24,0,.48,0,.72l0,.68,0,.86c0,.13,0,.26,0,.38a62,62,0,0,0,10.84,36.37l.09.13.11.15h0c.93,1.35,1.91,2.66,3,4A62.17,62.17,0,0,0,83.94,147h0a62.41,62.41,0,0,0,42.81-10,.21.21,0,0,0,0-.34.18.18,0,0,0-.21,0,59.22,59.22,0,0,1-78.52-12,61.7,61.7,0,0,1-4.29-6h0l-.1-.17A59.12,59.12,0,0,1,34.83,84c0-.12,0-.24,0-.37l.06-.77c0-.21,0-.43.05-.64s0-.46.07-.69,0-.46.07-.69,0-.48.08-.72,0-.41.08-.62l.12-.82.06-.45c.06-.33.11-.67.17-1l0-.19A59.19,59.19,0,0,1,52.48,45.05l.16-.15.78-.75.42-.39.57-.52,1-.9.27-.23L55.8,42l.76-.63.08-.07.45-.36.6-.47.24-.18.19-.14h0l.15-.11-3.4-4.81L54.66,35l-.16.12h0l-.1.08C54,35.46,53.61,35.76,53.17,36.11Z"/></g></svg>